%TF.GenerationSoftware,KiCad,Pcbnew,7.99.0-728-gadc213a04d-dirty*%
%TF.CreationDate,2023-05-05T05:39:13+08:00*%
%TF.ProjectId,HeartRateMonitor,48656172-7452-4617-9465-4d6f6e69746f,rev?*%
%TF.SameCoordinates,Original*%
%TF.FileFunction,Legend,Top*%
%TF.FilePolarity,Positive*%
%FSLAX46Y46*%
G04 Gerber Fmt 4.6, Leading zero omitted, Abs format (unit mm)*
G04 Created by KiCad (PCBNEW 7.99.0-728-gadc213a04d-dirty) date 2023-05-05 05:39:13*
%MOMM*%
%LPD*%
G01*
G04 APERTURE LIST*
%ADD10C,0.120000*%
%ADD11C,0.150000*%
G04 APERTURE END LIST*
D10*
%TO.C,U5*%
X103668000Y-120396000D02*
X103668000Y-121196000D01*
X100548000Y-120396000D02*
X100548000Y-122196000D01*
X100548000Y-120396000D02*
X100548000Y-119596000D01*
X103668000Y-120396000D02*
X103668000Y-119596000D01*
%TO.C,C15*%
X110857420Y-112270000D02*
X111138580Y-112270000D01*
X110857420Y-111250000D02*
X111138580Y-111250000D01*
%TO.C,U11*%
X107346000Y-130794000D02*
X107346000Y-128794000D01*
X110586000Y-129794000D02*
X110586000Y-126794000D01*
%TO.C,U9*%
X105214000Y-132466000D02*
X105214000Y-129466000D01*
X101994000Y-130966000D02*
X101994000Y-129466000D01*
%TO.C,U6*%
X107966000Y-107346000D02*
X109966000Y-107346000D01*
X108966000Y-110586000D02*
X111966000Y-110586000D01*
%TO.C,U4*%
X121089500Y-117696000D02*
X118889500Y-117696000D01*
X121089500Y-117696000D02*
X124689500Y-117696000D01*
X121089500Y-110926000D02*
X118889500Y-110926000D01*
X121089500Y-110926000D02*
X123289500Y-110926000D01*
%TO.C,U3*%
X114722000Y-132199000D02*
X114722000Y-132674000D01*
X114722000Y-129454000D02*
X115197000Y-129454000D01*
X117942000Y-132674000D02*
X117467000Y-132674000D01*
X117942000Y-129929000D02*
X117942000Y-129454000D01*
X117942000Y-132199000D02*
X117942000Y-132674000D01*
X114722000Y-132674000D02*
X115197000Y-132674000D01*
X114722000Y-129929000D02*
X114722000Y-129454000D01*
%TO.C,U2*%
X107442000Y-115728000D02*
X104442000Y-115728000D01*
X108442000Y-118968000D02*
X106442000Y-118968000D01*
D11*
%TO.C,U1*%
X118721000Y-135993000D02*
X119021000Y-135993000D01*
X122071000Y-139343000D02*
X121771000Y-139343000D01*
X122071000Y-139343000D02*
X122071000Y-135993000D01*
X122071000Y-135993000D02*
X121771000Y-135993000D01*
X118946000Y-139343000D02*
X118946000Y-140568000D01*
X118721000Y-139343000D02*
X118721000Y-135993000D01*
X118721000Y-139343000D02*
X118946000Y-139343000D01*
D10*
%TO.C,R26*%
X111237500Y-115840742D02*
X111237500Y-116315258D01*
X112282500Y-115840742D02*
X112282500Y-116315258D01*
%TO.C,R25*%
X112284742Y-118886500D02*
X112759258Y-118886500D01*
X112284742Y-117841500D02*
X112759258Y-117841500D01*
%TO.C,R22*%
X106694500Y-131334742D02*
X106694500Y-131809258D01*
X105649500Y-131334742D02*
X105649500Y-131809258D01*
%TO.C,R21*%
X111999500Y-124476742D02*
X111999500Y-124951258D01*
X113044500Y-124476742D02*
X113044500Y-124951258D01*
%TO.C,R20*%
X101614500Y-127016742D02*
X101614500Y-127491258D01*
X100569500Y-127016742D02*
X100569500Y-127491258D01*
%TO.C,R19*%
X105170500Y-108949258D02*
X105170500Y-108474742D01*
X104125500Y-108949258D02*
X104125500Y-108474742D01*
%TO.C,R18*%
X103138500Y-112759258D02*
X103138500Y-112284742D01*
X102093500Y-112759258D02*
X102093500Y-112284742D01*
%TO.C,R17*%
X107712742Y-112282500D02*
X108187258Y-112282500D01*
X107712742Y-111237500D02*
X108187258Y-111237500D01*
%TO.C,R16*%
X110758500Y-114283258D02*
X110758500Y-113808742D01*
X109713500Y-114283258D02*
X109713500Y-113808742D01*
%TO.C,R14*%
X102345258Y-115301500D02*
X101870742Y-115301500D01*
X102345258Y-116346500D02*
X101870742Y-116346500D01*
%TO.C,R13*%
X109998742Y-124953500D02*
X110473258Y-124953500D01*
X109998742Y-125998500D02*
X110473258Y-125998500D01*
%TO.C,R8*%
X125461500Y-114062742D02*
X125461500Y-114537258D01*
X126506500Y-114062742D02*
X126506500Y-114537258D01*
%TO.C,R5*%
X115076500Y-135111258D02*
X115076500Y-134636742D01*
X114031500Y-135111258D02*
X114031500Y-134636742D01*
%TO.C,R4*%
X112507500Y-134636742D02*
X112507500Y-135111258D01*
X113552500Y-134636742D02*
X113552500Y-135111258D01*
%TO.C,R3*%
X123204500Y-142985258D02*
X123204500Y-142510742D01*
X122159500Y-142985258D02*
X122159500Y-142510742D01*
%TO.C,R2*%
X125205258Y-129271500D02*
X124730742Y-129271500D01*
X125205258Y-130316500D02*
X124730742Y-130316500D01*
%TO.C,R1*%
X127778742Y-130316500D02*
X128253258Y-130316500D01*
X127778742Y-129271500D02*
X128253258Y-129271500D01*
%TO.C,L1*%
X116593252Y-128364000D02*
X116070748Y-128364000D01*
X116593252Y-126144000D02*
X116070748Y-126144000D01*
%TO.C,J2*%
X126686000Y-125720000D02*
X126686000Y-118040000D01*
X129346000Y-126990000D02*
X129346000Y-128320000D01*
X129346000Y-118040000D02*
X126686000Y-118040000D01*
X129346000Y-125720000D02*
X126686000Y-125720000D01*
X129346000Y-128320000D02*
X128016000Y-128320000D01*
X129346000Y-125720000D02*
X129346000Y-118040000D01*
%TO.C,J1*%
X127281940Y-140462000D02*
X125354080Y-140462000D01*
X129453640Y-140462000D02*
X131064000Y-140462000D01*
X131064000Y-140462000D02*
X131064000Y-131318000D01*
X127281940Y-131318000D02*
X125354080Y-131318000D01*
X129453640Y-131318000D02*
X131064000Y-131318000D01*
X129453640Y-131318000D02*
X131064000Y-131318000D01*
%TO.C,F1*%
X120654578Y-133298000D02*
X120137422Y-133298000D01*
X120654578Y-131878000D02*
X120137422Y-131878000D01*
%TO.C,C22*%
X112670000Y-116478164D02*
X112670000Y-116693836D01*
X113390000Y-116478164D02*
X113390000Y-116693836D01*
%TO.C,C21*%
X105460748Y-113390000D02*
X106883252Y-113390000D01*
X105460748Y-115210000D02*
X106883252Y-115210000D01*
%TO.C,C20*%
X105269420Y-134368000D02*
X105550580Y-134368000D01*
X105269420Y-133348000D02*
X105550580Y-133348000D01*
%TO.C,C19*%
X100328000Y-131431420D02*
X100328000Y-131712580D01*
X101348000Y-131431420D02*
X101348000Y-131712580D01*
%TO.C,C18*%
X106682000Y-128677580D02*
X106682000Y-128396420D01*
X105662000Y-128677580D02*
X105662000Y-128396420D01*
%TO.C,C17*%
X104761420Y-112270000D02*
X105042580Y-112270000D01*
X104761420Y-111250000D02*
X105042580Y-111250000D01*
%TO.C,C16*%
X109841420Y-106682000D02*
X110122580Y-106682000D01*
X109841420Y-105662000D02*
X110122580Y-105662000D01*
%TO.C,C14*%
X113794000Y-110857420D02*
X113794000Y-111138580D01*
X112774000Y-110857420D02*
X112774000Y-111138580D01*
%TO.C,C12*%
X107074580Y-120652000D02*
X106793420Y-120652000D01*
X107074580Y-119632000D02*
X106793420Y-119632000D01*
%TO.C,C11*%
X100582000Y-124078420D02*
X100582000Y-124359580D01*
X101602000Y-124078420D02*
X101602000Y-124359580D01*
%TO.C,C10*%
X105158000Y-121044580D02*
X105158000Y-120763420D01*
X104138000Y-121044580D02*
X104138000Y-120763420D01*
%TO.C,C9*%
X101967420Y-117858000D02*
X102248580Y-117858000D01*
X101967420Y-116838000D02*
X102248580Y-116838000D01*
%TO.C,C8*%
X110095420Y-123442000D02*
X110376580Y-123442000D01*
X110095420Y-124462000D02*
X110376580Y-124462000D01*
%TO.C,C7*%
X120255420Y-127510000D02*
X120536580Y-127510000D01*
X120255420Y-126490000D02*
X120536580Y-126490000D01*
%TO.C,C6*%
X116588000Y-134733420D02*
X116588000Y-135014580D01*
X115568000Y-134733420D02*
X115568000Y-135014580D01*
%TO.C,C5*%
X119890000Y-130188580D02*
X119890000Y-129907420D01*
X118870000Y-130188580D02*
X118870000Y-129907420D01*
%TO.C,C4*%
X117092000Y-134733420D02*
X117092000Y-135014580D01*
X118112000Y-134733420D02*
X118112000Y-135014580D01*
%TO.C,C3*%
X120001420Y-142242000D02*
X120282580Y-142242000D01*
X120001420Y-141222000D02*
X120282580Y-141222000D01*
%TO.C,C2*%
X120282580Y-143766000D02*
X120001420Y-143766000D01*
X120282580Y-142746000D02*
X120001420Y-142746000D01*
%TO.C,C1*%
X123696000Y-142607420D02*
X123696000Y-142888580D01*
X124716000Y-142607420D02*
X124716000Y-142888580D01*
%TO.C,J3*%
X104780000Y-103184000D02*
X104780000Y-101854000D01*
X106110000Y-103184000D02*
X104780000Y-103184000D01*
X107380000Y-100524000D02*
X125220000Y-100524000D01*
X107380000Y-103184000D02*
X107380000Y-100524000D01*
X107380000Y-103184000D02*
X125220000Y-103184000D01*
X125220000Y-103184000D02*
X125220000Y-100524000D01*
%TD*%
M02*
