%TF.GenerationSoftware,KiCad,Pcbnew,7.99.0-950-gc4668c1d3a-dirty*%
%TF.CreationDate,2023-06-01T03:31:39+08:00*%
%TF.ProjectId,HeartRateMonitor,48656172-7452-4617-9465-4d6f6e69746f,C*%
%TF.SameCoordinates,Original*%
%TF.FileFunction,Copper,L2,Bot*%
%TF.FilePolarity,Positive*%
%FSLAX46Y46*%
G04 Gerber Fmt 4.6, Leading zero omitted, Abs format (unit mm)*
G04 Created by KiCad (PCBNEW 7.99.0-950-gc4668c1d3a-dirty) date 2023-06-01 03:31:39*
%MOMM*%
%LPD*%
G01*
G04 APERTURE LIST*
G04 Aperture macros list*
%AMRoundRect*
0 Rectangle with rounded corners*
0 $1 Rounding radius*
0 $2 $3 $4 $5 $6 $7 $8 $9 X,Y pos of 4 corners*
0 Add a 4 corners polygon primitive as box body*
4,1,4,$2,$3,$4,$5,$6,$7,$8,$9,$2,$3,0*
0 Add four circle primitives for the rounded corners*
1,1,$1+$1,$2,$3*
1,1,$1+$1,$4,$5*
1,1,$1+$1,$6,$7*
1,1,$1+$1,$8,$9*
0 Add four rect primitives between the rounded corners*
20,1,$1+$1,$2,$3,$4,$5,0*
20,1,$1+$1,$4,$5,$6,$7,0*
20,1,$1+$1,$6,$7,$8,$9,0*
20,1,$1+$1,$8,$9,$2,$3,0*%
G04 Aperture macros list end*
%TA.AperFunction,SMDPad,CuDef*%
%ADD10RoundRect,0.200000X-0.275000X0.200000X-0.275000X-0.200000X0.275000X-0.200000X0.275000X0.200000X0*%
%TD*%
%TA.AperFunction,SMDPad,CuDef*%
%ADD11R,1.000000X1.550000*%
%TD*%
%TA.AperFunction,SMDPad,CuDef*%
%ADD12RoundRect,0.250000X0.412500X0.925000X-0.412500X0.925000X-0.412500X-0.925000X0.412500X-0.925000X0*%
%TD*%
%TA.AperFunction,SMDPad,CuDef*%
%ADD13RoundRect,0.200000X0.275000X-0.200000X0.275000X0.200000X-0.275000X0.200000X-0.275000X-0.200000X0*%
%TD*%
%TA.AperFunction,ComponentPad*%
%ADD14C,3.500000*%
%TD*%
%TA.AperFunction,ComponentPad*%
%ADD15O,1.800860X1.000760*%
%TD*%
%TA.AperFunction,ComponentPad*%
%ADD16R,1.700000X1.700000*%
%TD*%
%TA.AperFunction,ComponentPad*%
%ADD17O,1.700000X1.700000*%
%TD*%
%TA.AperFunction,ViaPad*%
%ADD18C,0.400000*%
%TD*%
%TA.AperFunction,ViaPad*%
%ADD19C,0.450000*%
%TD*%
%TA.AperFunction,Conductor*%
%ADD20C,0.304800*%
%TD*%
%TA.AperFunction,Conductor*%
%ADD21C,0.406400*%
%TD*%
%TA.AperFunction,Conductor*%
%ADD22C,0.254000*%
%TD*%
G04 APERTURE END LIST*
D10*
%TO.P,R23,1*%
%TO.N,Net-(D2-A)*%
X30238000Y-50675500D03*
%TO.P,R23,2*%
%TO.N,+3V3*%
X30238000Y-52325500D03*
%TD*%
D11*
%TO.P,D1,1,K*%
%TO.N,Net-(D1-K)*%
X31373000Y-46166500D03*
X31373000Y-48716500D03*
%TO.P,D1,2,A*%
%TO.N,GND*%
X35573000Y-46166500D03*
X35573000Y-48716500D03*
%TD*%
D12*
%TO.P,D3,1,K*%
%TO.N,Net-(D3-K)*%
X35077500Y-43372500D03*
%TO.P,D3,2,A*%
%TO.N,Net-(D3-A)*%
X32002500Y-43372500D03*
%TD*%
D13*
%TO.P,R24,1*%
%TO.N,Net-(D3-A)*%
X30238000Y-44197500D03*
%TO.P,R24,2*%
%TO.N,+3V3*%
X30238000Y-42547500D03*
%TD*%
D12*
%TO.P,D2,1,K*%
%TO.N,Net-(D2-K)*%
X35077500Y-51500500D03*
%TO.P,D2,2,A*%
%TO.N,Net-(D2-A)*%
X32002500Y-51500500D03*
%TD*%
D14*
%TO.P,REF\u002A\u002A,1*%
%TO.N,N/C*%
X46740000Y-67992500D03*
%TD*%
%TO.P,REF\u002A\u002A,1*%
%TO.N,N/C*%
X21740000Y-26492500D03*
%TD*%
%TO.P,REF\u002A\u002A,1*%
%TO.N,N/C*%
X21740000Y-67992500D03*
%TD*%
D15*
%TO.P,J1,S1,SHIELD*%
%TO.N,Net-(J1-SHIELD)*%
X43407900Y-64203040D03*
X47609060Y-64203040D03*
X43407900Y-55561960D03*
X47609060Y-55561960D03*
%TD*%
D14*
%TO.P,REF\u002A\u002A,1*%
%TO.N,N/C*%
X46740000Y-26492500D03*
%TD*%
D16*
%TO.P,J3,1,Pin_1*%
%TO.N,GND*%
X25350000Y-25846500D03*
D17*
%TO.P,J3,2,Pin_2*%
%TO.N,+3V3*%
X27890000Y-25846500D03*
%TO.P,J3,3,Pin_3*%
%TO.N,/SCR_SCK*%
X30430000Y-25846500D03*
%TO.P,J3,4,Pin_4*%
%TO.N,/SCR_DATA*%
X32970000Y-25846500D03*
%TO.P,J3,5,Pin_5*%
%TO.N,/SCR_DC*%
X35510000Y-25846500D03*
%TO.P,J3,6,Pin_6*%
%TO.N,/SCR_RES*%
X38050000Y-25846500D03*
%TO.P,J3,7,Pin_7*%
%TO.N,/SCR_CS*%
X40590000Y-25846500D03*
%TO.P,J3,8,Pin_8*%
%TO.N,/SCR_BLK*%
X43130000Y-25846500D03*
%TD*%
D16*
%TO.P,J2,1,Pin_1*%
%TO.N,GND*%
X47256000Y-50982500D03*
D17*
%TO.P,J2,2,Pin_2*%
%TO.N,Net-(J2-Pin_2)*%
X47256000Y-48442500D03*
%TO.P,J2,3,Pin_3*%
%TO.N,Net-(J2-Pin_3)*%
X47256000Y-45902500D03*
%TO.P,J2,4,Pin_4*%
%TO.N,+3V3*%
X47256000Y-43362500D03*
%TD*%
D18*
%TO.N,+5V*%
X39382000Y-66232500D03*
X40136000Y-58358500D03*
%TO.N,-3V3*%
X25158000Y-38292500D03*
X23126000Y-42610500D03*
X27444000Y-50484500D03*
X20586000Y-44388500D03*
%TO.N,/AMP_PH*%
X27698000Y-44134500D03*
X29222000Y-53532500D03*
%TO.N,/DIGIPOT_A*%
X22364000Y-57342500D03*
X27190000Y-58358500D03*
%TO.N,/HIGH_PH*%
X31254000Y-34736500D03*
%TO.N,/MCU_RX*%
X39636000Y-58104500D03*
X39890000Y-41848500D03*
%TO.N,/MCU_TX*%
X39128000Y-42356500D03*
X39128000Y-58358500D03*
%TO.N,/SCR_CS*%
X39128000Y-37328500D03*
%TO.N,/SCR_DC*%
X37350000Y-33974500D03*
%TO.N,/SCR_RES*%
X38620000Y-35244500D03*
%TO.N,Net-(D2-K)*%
X37858000Y-43118500D03*
%TO.N,Net-(D3-K)*%
X36588000Y-43372500D03*
%TO.N,Net-(J2-Pin_2)*%
X38620000Y-40578500D03*
%TO.N,Net-(J2-Pin_3)*%
X38620000Y-39928500D03*
%TO.N,Net-(U1-UD+)*%
X43700000Y-59120500D03*
X43700000Y-60136500D03*
%TO.N,Net-(F1-Pad1)*%
X41414000Y-61660500D03*
X44208000Y-61660500D03*
X41922000Y-57342500D03*
X41414000Y-62168500D03*
X40398000Y-55310500D03*
X40906000Y-54802500D03*
X41922000Y-62168500D03*
X39890000Y-54802500D03*
X41922000Y-57850500D03*
X40398000Y-54802500D03*
X41414000Y-62676500D03*
X43700000Y-62168500D03*
X44208000Y-62168500D03*
X43700000Y-57596500D03*
X39890000Y-55310500D03*
X40906000Y-55310500D03*
%TO.N,Net-(D1-K)*%
X29476000Y-46420500D03*
%TO.N,/SCR_BLK*%
X41070000Y-36678500D03*
%TO.N,/SCR_DATA*%
X39382000Y-36006500D03*
%TO.N,/SCR_SCK*%
X35826000Y-34228500D03*
%TO.N,/HIGH_PH*%
X34048000Y-39054500D03*
X39382000Y-39054500D03*
X21856000Y-36514500D03*
D19*
%TO.N,/LOW_PH*%
X38874000Y-38292500D03*
D18*
X24917000Y-36768500D03*
%TO.N,+3V3*%
X37858000Y-55310500D03*
X28460000Y-27624500D03*
X33485500Y-55310500D03*
X27444000Y-41594500D03*
X34048000Y-48706500D03*
X34048000Y-52008500D03*
X27698000Y-32704500D03*
X20078000Y-55564500D03*
X20332000Y-53024500D03*
X29476000Y-43372500D03*
X32270000Y-58866500D03*
X32778000Y-54294500D03*
X25412000Y-52516500D03*
%TO.N,GND*%
X35572000Y-55056500D03*
X37858000Y-53278500D03*
X33540000Y-40832500D03*
X38620000Y-68264500D03*
X41160000Y-50992500D03*
X41668000Y-55310500D03*
X20078000Y-54040500D03*
X41668000Y-54802500D03*
X44208000Y-53786500D03*
X47256000Y-53786500D03*
X41922000Y-39054500D03*
X25412000Y-55564500D03*
X29222000Y-30164500D03*
X21348000Y-39816500D03*
X23888000Y-43372500D03*
X41922000Y-66994500D03*
X39636000Y-62676500D03*
X22618000Y-42102500D03*
X41668000Y-63946500D03*
X20332000Y-48198500D03*
X41668000Y-63438500D03*
X43446000Y-66994500D03*
X27444000Y-53024500D03*
X22872000Y-55056500D03*
X32524000Y-34990500D03*
X33794000Y-58866500D03*
X24650000Y-57850500D03*
%TD*%
D20*
%TO.N,+5V*%
X40136000Y-64716500D02*
X40136000Y-58358500D01*
X39382000Y-65470500D02*
X40136000Y-64716500D01*
X39382000Y-66232500D02*
X39382000Y-65470500D01*
D21*
%TO.N,-3V3*%
X25158000Y-38292500D02*
X25158000Y-38800500D01*
X26174000Y-39816500D02*
X26174000Y-44388500D01*
X25158000Y-38800500D02*
X26174000Y-39816500D01*
X23126000Y-42610500D02*
X23126000Y-43880500D01*
X27698000Y-45912500D02*
X26174000Y-44388500D01*
X23126000Y-43880500D02*
X22618000Y-44388500D01*
X27444000Y-50484500D02*
X27698000Y-50230500D01*
X27698000Y-50230500D02*
X27698000Y-45912500D01*
X22618000Y-44388500D02*
X20586000Y-44388500D01*
X26174000Y-44388500D02*
X22618000Y-44388500D01*
%TO.N,/AMP_PH*%
X28714000Y-44896500D02*
X28714000Y-44642500D01*
X29222000Y-47436500D02*
X28714000Y-46928500D01*
X29222000Y-53532500D02*
X29222000Y-47436500D01*
X28206000Y-44134500D02*
X27698000Y-44134500D01*
X28714000Y-46928500D02*
X28714000Y-44896500D01*
X28714000Y-44642500D02*
X28206000Y-44134500D01*
D22*
%TO.N,/DIGIPOT_A*%
X22364000Y-57850500D02*
X22364000Y-57342500D01*
X22872000Y-58358500D02*
X22364000Y-57850500D01*
X27190000Y-58358500D02*
X22872000Y-58358500D01*
D21*
%TO.N,/HIGH_PH*%
X22872000Y-34736500D02*
X31254000Y-34736500D01*
X21856000Y-35752500D02*
X22110000Y-35498500D01*
X22110000Y-35498500D02*
X22872000Y-34736500D01*
X39382000Y-39054500D02*
X34048000Y-39054500D01*
X21856000Y-36514500D02*
X21856000Y-35752500D01*
D20*
%TO.N,/MCU_RX*%
X39636000Y-56580500D02*
X39636000Y-58104500D01*
X39890000Y-41848500D02*
X39890000Y-48452500D01*
X39382000Y-56326500D02*
X39636000Y-56580500D01*
X39382000Y-48960500D02*
X39382000Y-56326500D01*
X39890000Y-48452500D02*
X39382000Y-48960500D01*
%TO.N,/MCU_TX*%
X39128000Y-47944500D02*
X39128000Y-42356500D01*
X38620000Y-48452500D02*
X39128000Y-47944500D01*
X38620000Y-56580500D02*
X38620000Y-48452500D01*
X39128000Y-57088500D02*
X38620000Y-56580500D01*
X39128000Y-58358500D02*
X39128000Y-57088500D01*
D21*
%TO.N,/SCR_CS*%
X40590000Y-34798500D02*
X40590000Y-25846500D01*
X40144000Y-37022500D02*
X40144000Y-35244500D01*
X39838000Y-37328500D02*
X40144000Y-37022500D01*
X39128000Y-37328500D02*
X39838000Y-37328500D01*
X40144000Y-35244500D02*
X40590000Y-34798500D01*
%TO.N,/SCR_DC*%
X37350000Y-33974500D02*
X37350000Y-29656500D01*
X35510000Y-27816500D02*
X35510000Y-25846500D01*
X37350000Y-29656500D02*
X35510000Y-27816500D01*
%TO.N,/SCR_RES*%
X38620000Y-33466500D02*
X38050000Y-32896500D01*
X38050000Y-32896500D02*
X38050000Y-25846500D01*
X38620000Y-35244500D02*
X38620000Y-33466500D01*
%TO.N,Net-(D2-A)*%
X30238000Y-51246500D02*
X30492000Y-51500500D01*
X30238000Y-50675500D02*
X30238000Y-51246500D01*
X30492000Y-51500500D02*
X32002500Y-51500500D01*
%TO.N,Net-(D2-K)*%
X37350000Y-43372500D02*
X37350000Y-50992500D01*
X37604000Y-43118500D02*
X37350000Y-43372500D01*
X37858000Y-43118500D02*
X37604000Y-43118500D01*
X36842000Y-51500500D02*
X35077500Y-51500500D01*
X37350000Y-50992500D02*
X36842000Y-51500500D01*
%TO.N,Net-(D3-A)*%
X30492000Y-43372500D02*
X32002500Y-43372500D01*
X30238000Y-43626500D02*
X30492000Y-43372500D01*
X30238000Y-44197500D02*
X30238000Y-43626500D01*
%TO.N,Net-(D3-K)*%
X36588000Y-43372500D02*
X35077500Y-43372500D01*
%TO.N,Net-(J2-Pin_2)*%
X41404000Y-48442500D02*
X40652000Y-47690500D01*
X47256000Y-48442500D02*
X41404000Y-48442500D01*
X40652000Y-47690500D02*
X40652000Y-41340500D01*
X40652000Y-41340500D02*
X39890000Y-40578500D01*
X39890000Y-40578500D02*
X38620000Y-40578500D01*
%TO.N,Net-(J2-Pin_3)*%
X47256000Y-45902500D02*
X42166000Y-45902500D01*
X41414000Y-45150500D02*
X41414000Y-41086500D01*
X41414000Y-41086500D02*
X40256000Y-39928500D01*
X40256000Y-39928500D02*
X38620000Y-39928500D01*
X42166000Y-45902500D02*
X41414000Y-45150500D01*
D20*
%TO.N,Net-(U1-UD+)*%
X43700000Y-59120500D02*
X43954000Y-59374500D01*
X43954000Y-59882500D02*
X43700000Y-60136500D01*
X43954000Y-59374500D02*
X43954000Y-59882500D01*
D21*
%TO.N,Net-(D1-K)*%
X29476000Y-46420500D02*
X29730000Y-46166500D01*
X29730000Y-46166500D02*
X31373000Y-46166500D01*
%TO.N,/SCR_BLK*%
X42520000Y-36678500D02*
X43130000Y-36068500D01*
X43130000Y-36068500D02*
X43130000Y-25846500D01*
X41070000Y-36678500D02*
X42520000Y-36678500D01*
%TO.N,/SCR_DATA*%
X37350000Y-36006500D02*
X36588000Y-35244500D01*
X34556000Y-27432500D02*
X32970000Y-25846500D01*
X39382000Y-36006500D02*
X37350000Y-36006500D01*
X36588000Y-30164500D02*
X34556000Y-28132500D01*
X36588000Y-35244500D02*
X36588000Y-30164500D01*
X34556000Y-28132500D02*
X34556000Y-27432500D01*
%TO.N,/SCR_SCK*%
X30430000Y-25846500D02*
X32716000Y-28132500D01*
X35826000Y-34228500D02*
X35826000Y-30418500D01*
X35826000Y-30418500D02*
X33540000Y-28132500D01*
X32716000Y-28132500D02*
X33540000Y-28132500D01*
D22*
%TO.N,+3V3*%
X32270000Y-58866500D02*
X32270000Y-58358500D01*
X26174000Y-54548500D02*
X29476000Y-54548500D01*
D21*
X29476000Y-43309500D02*
X30238000Y-42547500D01*
D22*
X20332000Y-53278500D02*
X20586000Y-53532500D01*
D21*
X28206000Y-43372500D02*
X29476000Y-43372500D01*
D22*
X21856000Y-54548500D02*
X21094000Y-54548500D01*
D21*
X34048000Y-52008500D02*
X31508000Y-54548500D01*
X33540000Y-41848500D02*
X33286000Y-41594500D01*
D22*
X25412000Y-52516500D02*
X25412000Y-53786500D01*
D21*
X27444000Y-42610500D02*
X28206000Y-43372500D01*
D22*
X21856000Y-54548500D02*
X26174000Y-54548500D01*
X32524000Y-58104500D02*
X32778000Y-57850500D01*
X21602000Y-54548500D02*
X21856000Y-54548500D01*
X20586000Y-53532500D02*
X21602000Y-54548500D01*
X32270000Y-58358500D02*
X32524000Y-58104500D01*
X35064000Y-55564500D02*
X34810000Y-55310500D01*
X32778000Y-54294500D02*
X32778000Y-55564500D01*
D21*
X27444000Y-41594500D02*
X27444000Y-42610500D01*
X31508000Y-54548500D02*
X29476000Y-54548500D01*
D22*
X21094000Y-54548500D02*
X20078000Y-55564500D01*
D21*
X27698000Y-28386500D02*
X27698000Y-32704500D01*
D22*
X32778000Y-57596500D02*
X32778000Y-55564500D01*
X34810000Y-55310500D02*
X33485500Y-55310500D01*
D21*
X30238000Y-41848500D02*
X30238000Y-42547500D01*
X28460000Y-27624500D02*
X27698000Y-28386500D01*
%TO.N,/LOW_PH*%
X25920000Y-38292500D02*
X25485700Y-37858200D01*
X24917000Y-36768500D02*
X24917000Y-37289500D01*
X24917000Y-37289500D02*
X25485700Y-37858200D01*
X38874000Y-38292500D02*
X25920000Y-38292500D01*
D22*
%TO.N,+3V3*%
X36842000Y-55564500D02*
X35064000Y-55564500D01*
X32778000Y-57850500D02*
X32778000Y-57596500D01*
X20332000Y-53024500D02*
X20332000Y-53278500D01*
X30238000Y-53786500D02*
X30238000Y-52325500D01*
X33485500Y-55310500D02*
X33032000Y-55310500D01*
D21*
X33540000Y-48198500D02*
X33540000Y-41848500D01*
X29476000Y-43372500D02*
X29476000Y-43309500D01*
D22*
X29476000Y-54548500D02*
X30238000Y-53786500D01*
X37858000Y-55310500D02*
X37096000Y-55310500D01*
D21*
X30492000Y-41594500D02*
X30238000Y-41848500D01*
D22*
X33032000Y-55310500D02*
X32778000Y-55564500D01*
D21*
X33286000Y-41594500D02*
X30492000Y-41594500D01*
D22*
X37096000Y-55310500D02*
X36842000Y-55564500D01*
X25412000Y-53786500D02*
X26174000Y-54548500D01*
D21*
X34048000Y-48706500D02*
X33540000Y-48198500D01*
%TD*%
%TA.AperFunction,Conductor*%
%TO.N,GND*%
G36*
X48928539Y-24266685D02*
G01*
X48974294Y-24319489D01*
X48985500Y-24371000D01*
X48985500Y-70114000D01*
X48965815Y-70181039D01*
X48913011Y-70226794D01*
X48861500Y-70238000D01*
X19618500Y-70238000D01*
X19551461Y-70218315D01*
X19505706Y-70165511D01*
X19494500Y-70114000D01*
X19494500Y-67992501D01*
X19857704Y-67992501D01*
X19876863Y-68260384D01*
X19933948Y-68522797D01*
X19933950Y-68522804D01*
X19992222Y-68679037D01*
X20027803Y-68774435D01*
X20027805Y-68774439D01*
X20156508Y-69010140D01*
X20156513Y-69010148D01*
X20317449Y-69225134D01*
X20317465Y-69225152D01*
X20507347Y-69415034D01*
X20507365Y-69415050D01*
X20722351Y-69575986D01*
X20722359Y-69575991D01*
X20958060Y-69704694D01*
X20958064Y-69704696D01*
X20958066Y-69704697D01*
X21209696Y-69798550D01*
X21340908Y-69827093D01*
X21472115Y-69855636D01*
X21472117Y-69855636D01*
X21472121Y-69855637D01*
X21710174Y-69872662D01*
X21739999Y-69874796D01*
X21740000Y-69874796D01*
X21740001Y-69874796D01*
X21766837Y-69872876D01*
X22007879Y-69855637D01*
X22270304Y-69798550D01*
X22521934Y-69704697D01*
X22757646Y-69575988D01*
X22972642Y-69415044D01*
X23162544Y-69225142D01*
X23323488Y-69010146D01*
X23452197Y-68774434D01*
X23546050Y-68522804D01*
X23603137Y-68260379D01*
X23622296Y-67992501D01*
X44857704Y-67992501D01*
X44876863Y-68260384D01*
X44933948Y-68522797D01*
X44933950Y-68522804D01*
X44992222Y-68679037D01*
X45027803Y-68774435D01*
X45027805Y-68774439D01*
X45156508Y-69010140D01*
X45156513Y-69010148D01*
X45317449Y-69225134D01*
X45317465Y-69225152D01*
X45507347Y-69415034D01*
X45507365Y-69415050D01*
X45722351Y-69575986D01*
X45722359Y-69575991D01*
X45958060Y-69704694D01*
X45958064Y-69704696D01*
X45958066Y-69704697D01*
X46209696Y-69798550D01*
X46340908Y-69827093D01*
X46472115Y-69855636D01*
X46472117Y-69855636D01*
X46472121Y-69855637D01*
X46710174Y-69872662D01*
X46739999Y-69874796D01*
X46740000Y-69874796D01*
X46740001Y-69874796D01*
X46766837Y-69872876D01*
X47007879Y-69855637D01*
X47270304Y-69798550D01*
X47521934Y-69704697D01*
X47757646Y-69575988D01*
X47972642Y-69415044D01*
X48162544Y-69225142D01*
X48323488Y-69010146D01*
X48452197Y-68774434D01*
X48546050Y-68522804D01*
X48603137Y-68260379D01*
X48622296Y-67992500D01*
X48603137Y-67724621D01*
X48546050Y-67462196D01*
X48452197Y-67210566D01*
X48323488Y-66974854D01*
X48323486Y-66974851D01*
X48162550Y-66759865D01*
X48162534Y-66759847D01*
X47972652Y-66569965D01*
X47972634Y-66569949D01*
X47757648Y-66409013D01*
X47757640Y-66409008D01*
X47521939Y-66280305D01*
X47521935Y-66280303D01*
X47393766Y-66232499D01*
X47270304Y-66186450D01*
X47270300Y-66186449D01*
X47270297Y-66186448D01*
X47007884Y-66129363D01*
X46740001Y-66110204D01*
X46739999Y-66110204D01*
X46472115Y-66129363D01*
X46209702Y-66186448D01*
X46209697Y-66186449D01*
X46209696Y-66186450D01*
X46148858Y-66209141D01*
X45958064Y-66280303D01*
X45958060Y-66280305D01*
X45722359Y-66409008D01*
X45722351Y-66409013D01*
X45507365Y-66569949D01*
X45507347Y-66569965D01*
X45317465Y-66759847D01*
X45317449Y-66759865D01*
X45156513Y-66974851D01*
X45156508Y-66974859D01*
X45027805Y-67210560D01*
X45027803Y-67210564D01*
X44933948Y-67462202D01*
X44876863Y-67724615D01*
X44857704Y-67992498D01*
X44857704Y-67992501D01*
X23622296Y-67992501D01*
X23622296Y-67992500D01*
X23603137Y-67724621D01*
X23546050Y-67462196D01*
X23452197Y-67210566D01*
X23323488Y-66974854D01*
X23323486Y-66974851D01*
X23162550Y-66759865D01*
X23162534Y-66759847D01*
X22972652Y-66569965D01*
X22972634Y-66569949D01*
X22757648Y-66409013D01*
X22757640Y-66409008D01*
X22521939Y-66280305D01*
X22521935Y-66280303D01*
X22393766Y-66232499D01*
X22270304Y-66186450D01*
X22270300Y-66186449D01*
X22270297Y-66186448D01*
X22007884Y-66129363D01*
X21740001Y-66110204D01*
X21739999Y-66110204D01*
X21472115Y-66129363D01*
X21209702Y-66186448D01*
X21209697Y-66186449D01*
X21209696Y-66186450D01*
X21148858Y-66209141D01*
X20958064Y-66280303D01*
X20958060Y-66280305D01*
X20722359Y-66409008D01*
X20722351Y-66409013D01*
X20507365Y-66569949D01*
X20507347Y-66569965D01*
X20317465Y-66759847D01*
X20317449Y-66759865D01*
X20156513Y-66974851D01*
X20156508Y-66974859D01*
X20027805Y-67210560D01*
X20027803Y-67210564D01*
X19933948Y-67462202D01*
X19876863Y-67724615D01*
X19857704Y-67992498D01*
X19857704Y-67992501D01*
X19494500Y-67992501D01*
X19494500Y-57342500D01*
X22031448Y-57342500D01*
X22051502Y-57456237D01*
X22051503Y-57456239D01*
X22092887Y-57527919D01*
X22109500Y-57589918D01*
X22109500Y-57813218D01*
X22107118Y-57837406D01*
X22104514Y-57850500D01*
X22108641Y-57871249D01*
X22108644Y-57871267D01*
X22112518Y-57890739D01*
X22124266Y-57949802D01*
X22168756Y-58016386D01*
X22168765Y-58016398D01*
X22180515Y-58033983D01*
X22191609Y-58041396D01*
X22210400Y-58056818D01*
X22665679Y-58512096D01*
X22681100Y-58530886D01*
X22688513Y-58541981D01*
X22688514Y-58541981D01*
X22688516Y-58541984D01*
X22704702Y-58552799D01*
X22704707Y-58552803D01*
X22733824Y-58572258D01*
X22733826Y-58572260D01*
X22772699Y-58598234D01*
X22772700Y-58598235D01*
X22852893Y-58614186D01*
X22852906Y-58614187D01*
X22872000Y-58617985D01*
X22885087Y-58615381D01*
X22909276Y-58613000D01*
X26938670Y-58613000D01*
X27005709Y-58632685D01*
X27018375Y-58642010D01*
X27023724Y-58646498D01*
X27132253Y-58686000D01*
X27132254Y-58686000D01*
X27247745Y-58686000D01*
X27247747Y-58686000D01*
X27356276Y-58646498D01*
X27444750Y-58572260D01*
X27502497Y-58472239D01*
X27522552Y-58358500D01*
X27522551Y-58358497D01*
X27502497Y-58244762D01*
X27502494Y-58244755D01*
X27444752Y-58144743D01*
X27444751Y-58144742D01*
X27444750Y-58144740D01*
X27356276Y-58070502D01*
X27247747Y-58031000D01*
X27132253Y-58031000D01*
X27023724Y-58070502D01*
X27023723Y-58070502D01*
X27023722Y-58070503D01*
X27018375Y-58074990D01*
X26954366Y-58103003D01*
X26938670Y-58104000D01*
X23028779Y-58104000D01*
X22961740Y-58084315D01*
X22941098Y-58067681D01*
X22654819Y-57781401D01*
X22621334Y-57720078D01*
X22618500Y-57693720D01*
X22618500Y-57589918D01*
X22635112Y-57527919D01*
X22676497Y-57456239D01*
X22696552Y-57342500D01*
X22676497Y-57228761D01*
X22662454Y-57204438D01*
X22618752Y-57128743D01*
X22618751Y-57128742D01*
X22618750Y-57128740D01*
X22530276Y-57054502D01*
X22421747Y-57015000D01*
X22306253Y-57015000D01*
X22197723Y-57054502D01*
X22197724Y-57054502D01*
X22109249Y-57128741D01*
X22109247Y-57128743D01*
X22051505Y-57228755D01*
X22051502Y-57228762D01*
X22031448Y-57342499D01*
X22031448Y-57342500D01*
X19494500Y-57342500D01*
X19494500Y-55564500D01*
X19745448Y-55564500D01*
X19765502Y-55678237D01*
X19765505Y-55678244D01*
X19823247Y-55778256D01*
X19823248Y-55778257D01*
X19823250Y-55778260D01*
X19911724Y-55852498D01*
X20020253Y-55892000D01*
X20020254Y-55892000D01*
X20135745Y-55892000D01*
X20135747Y-55892000D01*
X20244276Y-55852498D01*
X20332750Y-55778260D01*
X20390497Y-55678239D01*
X20397904Y-55636227D01*
X20428928Y-55573626D01*
X20432313Y-55570103D01*
X21163098Y-54839319D01*
X21224422Y-54805834D01*
X21250780Y-54803000D01*
X21564718Y-54803000D01*
X21588907Y-54805382D01*
X21602000Y-54807986D01*
X21615093Y-54805382D01*
X21639282Y-54803000D01*
X21830933Y-54803000D01*
X26136718Y-54803000D01*
X26160907Y-54805382D01*
X26174000Y-54807986D01*
X26187093Y-54805382D01*
X26211282Y-54803000D01*
X29222181Y-54803000D01*
X29284181Y-54819613D01*
X29295798Y-54826320D01*
X29361149Y-54864051D01*
X29447065Y-54879200D01*
X31490851Y-54879200D01*
X31496252Y-54879435D01*
X31537267Y-54883024D01*
X31577037Y-54872366D01*
X31582297Y-54871200D01*
X31622851Y-54864051D01*
X31622855Y-54864048D01*
X31627248Y-54862450D01*
X31645662Y-54854822D01*
X31649910Y-54852841D01*
X31649916Y-54852840D01*
X31683642Y-54829223D01*
X31688190Y-54826325D01*
X31723849Y-54805739D01*
X31726569Y-54802498D01*
X31744638Y-54780963D01*
X31750319Y-54774191D01*
X31753959Y-54770219D01*
X32244673Y-54279505D01*
X32305994Y-54246022D01*
X32375686Y-54251006D01*
X32431619Y-54292878D01*
X32454468Y-54345656D01*
X32465502Y-54408237D01*
X32465505Y-54408244D01*
X32506886Y-54479918D01*
X32523499Y-54541918D01*
X32523499Y-55527224D01*
X32521117Y-55551410D01*
X32518514Y-55564500D01*
X32521117Y-55577588D01*
X32523500Y-55601777D01*
X32523500Y-57693718D01*
X32503815Y-57760757D01*
X32487181Y-57781399D01*
X32344325Y-57924255D01*
X32344323Y-57924258D01*
X32116398Y-58152182D01*
X32097613Y-58167600D01*
X32086516Y-58175015D01*
X32073265Y-58194846D01*
X32073264Y-58194845D01*
X32030266Y-58259196D01*
X32030265Y-58259199D01*
X32010514Y-58358497D01*
X32010514Y-58358499D01*
X32013117Y-58371584D01*
X32015500Y-58395778D01*
X32015499Y-58619082D01*
X31998887Y-58681080D01*
X31957504Y-58752757D01*
X31957502Y-58752762D01*
X31937448Y-58866499D01*
X31937448Y-58866500D01*
X31957502Y-58980237D01*
X31957505Y-58980244D01*
X32015247Y-59080256D01*
X32015248Y-59080257D01*
X32015250Y-59080260D01*
X32103724Y-59154498D01*
X32212253Y-59194000D01*
X32212254Y-59194000D01*
X32327745Y-59194000D01*
X32327747Y-59194000D01*
X32436276Y-59154498D01*
X32524750Y-59080260D01*
X32582497Y-58980239D01*
X32602552Y-58866500D01*
X32582497Y-58752761D01*
X32541113Y-58681081D01*
X32524500Y-58619081D01*
X32524500Y-58515280D01*
X32544185Y-58448241D01*
X32560819Y-58427599D01*
X32629921Y-58358497D01*
X32721684Y-58266734D01*
X32931609Y-58056807D01*
X32950382Y-58041401D01*
X32961484Y-58033984D01*
X32973242Y-58016386D01*
X32975681Y-58012736D01*
X32975684Y-58012734D01*
X33017734Y-57949801D01*
X33022990Y-57923375D01*
X33032500Y-57875567D01*
X33032500Y-57875562D01*
X33037485Y-57850500D01*
X33034882Y-57837411D01*
X33032500Y-57813223D01*
X33032500Y-55721280D01*
X33052185Y-55654241D01*
X33068819Y-55633599D01*
X33101099Y-55601319D01*
X33162422Y-55567834D01*
X33188780Y-55565000D01*
X33234170Y-55565000D01*
X33301209Y-55584685D01*
X33313875Y-55594010D01*
X33319224Y-55598498D01*
X33427753Y-55638000D01*
X33427754Y-55638000D01*
X33543245Y-55638000D01*
X33543247Y-55638000D01*
X33651776Y-55598498D01*
X33657124Y-55594010D01*
X33721134Y-55565997D01*
X33736830Y-55565000D01*
X34653220Y-55565000D01*
X34720259Y-55584685D01*
X34740901Y-55601319D01*
X34857681Y-55718099D01*
X34873102Y-55736889D01*
X34880513Y-55747981D01*
X34880515Y-55747982D01*
X34880516Y-55747984D01*
X34886895Y-55752246D01*
X34898907Y-55760273D01*
X34901763Y-55762181D01*
X34901766Y-55762184D01*
X34964678Y-55804220D01*
X34964699Y-55804234D01*
X35044893Y-55820186D01*
X35044906Y-55820187D01*
X35064000Y-55823985D01*
X35077087Y-55821381D01*
X35101276Y-55819000D01*
X36804718Y-55819000D01*
X36828907Y-55821382D01*
X36842000Y-55823986D01*
X36842002Y-55823986D01*
X36908200Y-55810818D01*
X36941301Y-55804234D01*
X37004234Y-55762184D01*
X37004235Y-55762182D01*
X37012967Y-55756348D01*
X37012977Y-55756339D01*
X37025484Y-55747984D01*
X37032894Y-55736892D01*
X37048316Y-55718101D01*
X37165101Y-55601318D01*
X37226424Y-55567834D01*
X37252781Y-55565000D01*
X37606670Y-55565000D01*
X37673709Y-55584685D01*
X37686375Y-55594010D01*
X37691724Y-55598498D01*
X37800253Y-55638000D01*
X37800254Y-55638000D01*
X37915745Y-55638000D01*
X37915747Y-55638000D01*
X38024276Y-55598498D01*
X38112750Y-55524260D01*
X38112753Y-55524253D01*
X38119724Y-55515948D01*
X38122405Y-55518198D01*
X38159267Y-55483043D01*
X38227873Y-55469812D01*
X38292740Y-55495773D01*
X38333275Y-55552682D01*
X38340100Y-55593252D01*
X38340100Y-56521666D01*
X38339505Y-56530240D01*
X38337982Y-56541156D01*
X38340034Y-56585546D01*
X38340100Y-56588409D01*
X38340100Y-56606436D01*
X38340505Y-56608605D01*
X38341493Y-56617131D01*
X38342814Y-56645692D01*
X38345024Y-56650696D01*
X38353474Y-56677985D01*
X38354479Y-56683361D01*
X38354480Y-56683365D01*
X38369529Y-56707668D01*
X38373538Y-56715273D01*
X38385084Y-56741422D01*
X38385086Y-56741424D01*
X38388946Y-56745284D01*
X38406689Y-56767682D01*
X38409569Y-56772333D01*
X38409570Y-56772334D01*
X38409569Y-56772334D01*
X38432378Y-56789558D01*
X38438856Y-56795194D01*
X38658662Y-57015000D01*
X38811781Y-57168119D01*
X38845266Y-57229442D01*
X38848100Y-57255800D01*
X38848100Y-58155075D01*
X38831487Y-58217076D01*
X38815504Y-58244758D01*
X38815502Y-58244762D01*
X38795448Y-58358499D01*
X38795448Y-58358500D01*
X38815502Y-58472237D01*
X38815505Y-58472244D01*
X38873247Y-58572256D01*
X38873248Y-58572257D01*
X38873250Y-58572260D01*
X38961724Y-58646498D01*
X39070253Y-58686000D01*
X39070254Y-58686000D01*
X39185745Y-58686000D01*
X39185747Y-58686000D01*
X39294276Y-58646498D01*
X39382750Y-58572260D01*
X39431591Y-58487663D01*
X39482159Y-58439448D01*
X39550766Y-58426224D01*
X39569498Y-58430455D01*
X39578252Y-58431999D01*
X39578253Y-58432000D01*
X39578254Y-58432000D01*
X39693746Y-58432000D01*
X39693747Y-58432000D01*
X39693747Y-58431999D01*
X39704430Y-58430116D01*
X39705153Y-58434220D01*
X39753568Y-58431080D01*
X39814669Y-58464969D01*
X39833796Y-58490067D01*
X39839486Y-58499922D01*
X39856100Y-58561924D01*
X39856100Y-64549199D01*
X39836415Y-64616238D01*
X39819781Y-64636880D01*
X39225680Y-65230981D01*
X39219198Y-65236622D01*
X39210399Y-65243266D01*
X39180468Y-65276099D01*
X39178494Y-65278167D01*
X39165741Y-65290921D01*
X39165731Y-65290932D01*
X39164486Y-65292750D01*
X39159161Y-65299470D01*
X39139903Y-65320596D01*
X39139902Y-65320598D01*
X39137925Y-65325701D01*
X39124605Y-65350970D01*
X39121518Y-65355476D01*
X39121514Y-65355485D01*
X39114969Y-65383311D01*
X39112426Y-65391520D01*
X39102100Y-65418175D01*
X39102100Y-65423642D01*
X39098807Y-65452029D01*
X39097556Y-65457346D01*
X39097556Y-65457349D01*
X39101505Y-65485656D01*
X39102100Y-65494232D01*
X39102100Y-66029075D01*
X39085487Y-66091076D01*
X39069504Y-66118758D01*
X39069502Y-66118762D01*
X39049448Y-66232499D01*
X39049448Y-66232500D01*
X39069502Y-66346237D01*
X39069505Y-66346244D01*
X39127247Y-66446256D01*
X39127248Y-66446257D01*
X39127250Y-66446260D01*
X39215724Y-66520498D01*
X39324253Y-66560000D01*
X39324254Y-66560000D01*
X39439745Y-66560000D01*
X39439747Y-66560000D01*
X39548276Y-66520498D01*
X39636750Y-66446260D01*
X39694497Y-66346239D01*
X39714552Y-66232500D01*
X39694497Y-66118761D01*
X39678512Y-66091075D01*
X39661900Y-66029075D01*
X39661900Y-65637799D01*
X39681585Y-65570760D01*
X39698215Y-65550122D01*
X40292333Y-64956003D01*
X40298808Y-64950371D01*
X40307594Y-64943736D01*
X40307599Y-64943734D01*
X40337561Y-64910866D01*
X40339491Y-64908845D01*
X40352258Y-64896080D01*
X40353491Y-64894278D01*
X40358830Y-64887534D01*
X40378098Y-64866401D01*
X40380069Y-64861311D01*
X40393400Y-64836019D01*
X40396486Y-64831516D01*
X40403030Y-64803686D01*
X40405567Y-64795491D01*
X40415900Y-64768822D01*
X40415900Y-64763356D01*
X40419194Y-64734965D01*
X40420444Y-64729651D01*
X40416494Y-64701340D01*
X40415900Y-64692766D01*
X40415900Y-64163302D01*
X42376229Y-64163302D01*
X42386190Y-64321628D01*
X42435212Y-64472503D01*
X42435212Y-64472504D01*
X42435213Y-64472505D01*
X42520214Y-64606447D01*
X42520215Y-64606448D01*
X42635854Y-64715040D01*
X42635856Y-64715041D01*
X42635858Y-64715043D01*
X42774875Y-64791468D01*
X42928530Y-64830920D01*
X42928534Y-64830920D01*
X43847447Y-64830920D01*
X43847449Y-64830920D01*
X43847454Y-64830919D01*
X43847458Y-64830919D01*
X43860239Y-64829304D01*
X43965338Y-64816027D01*
X44112837Y-64757628D01*
X44241179Y-64664382D01*
X44342300Y-64542149D01*
X44409845Y-64398608D01*
X44439571Y-64242778D01*
X44434571Y-64163302D01*
X46577389Y-64163302D01*
X46587350Y-64321628D01*
X46636372Y-64472503D01*
X46636372Y-64472504D01*
X46636373Y-64472505D01*
X46721374Y-64606447D01*
X46721375Y-64606448D01*
X46837014Y-64715040D01*
X46837016Y-64715041D01*
X46837018Y-64715043D01*
X46976035Y-64791468D01*
X47129690Y-64830920D01*
X47129694Y-64830920D01*
X48048607Y-64830920D01*
X48048609Y-64830920D01*
X48048614Y-64830919D01*
X48048618Y-64830919D01*
X48061399Y-64829304D01*
X48166498Y-64816027D01*
X48313997Y-64757628D01*
X48442339Y-64664382D01*
X48543460Y-64542149D01*
X48611005Y-64398608D01*
X48640731Y-64242778D01*
X48630770Y-64084452D01*
X48581748Y-63933577D01*
X48537549Y-63863930D01*
X48496745Y-63799632D01*
X48496744Y-63799631D01*
X48381105Y-63691039D01*
X48381097Y-63691034D01*
X48242088Y-63614613D01*
X48242078Y-63614610D01*
X48088433Y-63575160D01*
X48088430Y-63575160D01*
X47169511Y-63575160D01*
X47169501Y-63575160D01*
X47051622Y-63590053D01*
X47051619Y-63590053D01*
X46904124Y-63648451D01*
X46904115Y-63648456D01*
X46775783Y-63741695D01*
X46775779Y-63741698D01*
X46674659Y-63863930D01*
X46607115Y-64007471D01*
X46607115Y-64007472D01*
X46577389Y-64163302D01*
X44434571Y-64163302D01*
X44429610Y-64084452D01*
X44380588Y-63933577D01*
X44336389Y-63863930D01*
X44295585Y-63799632D01*
X44295584Y-63799631D01*
X44179945Y-63691039D01*
X44179937Y-63691034D01*
X44040928Y-63614613D01*
X44040918Y-63614610D01*
X43887273Y-63575160D01*
X43887270Y-63575160D01*
X42968351Y-63575160D01*
X42968341Y-63575160D01*
X42850462Y-63590053D01*
X42850459Y-63590053D01*
X42702964Y-63648451D01*
X42702955Y-63648456D01*
X42574623Y-63741695D01*
X42574619Y-63741698D01*
X42473499Y-63863930D01*
X42405955Y-64007471D01*
X42405955Y-64007472D01*
X42376229Y-64163302D01*
X40415900Y-64163302D01*
X40415900Y-58561924D01*
X40432513Y-58499924D01*
X40439592Y-58487663D01*
X40448497Y-58472239D01*
X40468552Y-58358500D01*
X40468551Y-58358497D01*
X40448497Y-58244762D01*
X40448494Y-58244755D01*
X40404757Y-58169000D01*
X40388284Y-58101100D01*
X40411136Y-58035073D01*
X40466058Y-57991882D01*
X40512144Y-57983000D01*
X40903500Y-57983000D01*
X40970539Y-58002685D01*
X41016294Y-58055489D01*
X41027500Y-58107000D01*
X41027500Y-62806502D01*
X41030527Y-62834665D01*
X41041734Y-62886178D01*
X41071069Y-62944781D01*
X41093946Y-62971181D01*
X41116824Y-62997584D01*
X41116826Y-62997585D01*
X41116827Y-62997586D01*
X41176799Y-63036129D01*
X41179630Y-63037948D01*
X41246669Y-63057633D01*
X41284000Y-63063000D01*
X41284002Y-63063000D01*
X43528620Y-63063000D01*
X43528623Y-63063000D01*
X43528627Y-63062999D01*
X43528633Y-63062999D01*
X43542702Y-63061156D01*
X43562737Y-63058533D01*
X43624434Y-63042094D01*
X43664145Y-63018645D01*
X43731878Y-63001509D01*
X43771987Y-63009793D01*
X43780058Y-63012920D01*
X43780060Y-63012921D01*
X43876753Y-63050380D01*
X43876755Y-63050380D01*
X43954297Y-63050380D01*
X43954299Y-63050380D01*
X44030529Y-63036130D01*
X44063679Y-63015604D01*
X44131037Y-62997049D01*
X44195996Y-63016718D01*
X44226202Y-63036130D01*
X44229031Y-63037948D01*
X44296070Y-63057633D01*
X44333401Y-63063000D01*
X44333403Y-63063000D01*
X44592000Y-63063000D01*
X44620166Y-63059972D01*
X44671677Y-63048766D01*
X44730280Y-63019431D01*
X44783084Y-62973676D01*
X44823448Y-62910870D01*
X44843133Y-62843831D01*
X44848500Y-62806500D01*
X44848500Y-56450500D01*
X44845472Y-56422334D01*
X44834266Y-56370823D01*
X44804931Y-56312220D01*
X44804930Y-56312218D01*
X44777740Y-56280840D01*
X44759176Y-56259416D01*
X44759173Y-56259414D01*
X44759172Y-56259413D01*
X44696374Y-56219054D01*
X44696372Y-56219053D01*
X44696371Y-56219052D01*
X44696370Y-56219052D01*
X44629331Y-56199367D01*
X44629328Y-56199366D01*
X44592003Y-56194000D01*
X44592000Y-56194000D01*
X44363479Y-56194000D01*
X44296440Y-56174315D01*
X44250685Y-56121511D01*
X44240741Y-56052353D01*
X44267936Y-55990959D01*
X44342300Y-55901069D01*
X44342299Y-55901068D01*
X44409845Y-55757528D01*
X44439571Y-55601698D01*
X44434571Y-55522225D01*
X46577389Y-55522225D01*
X46582139Y-55597724D01*
X46587350Y-55680548D01*
X46636372Y-55831423D01*
X46636372Y-55831424D01*
X46636373Y-55831425D01*
X46721374Y-55965367D01*
X46721375Y-55965368D01*
X46837014Y-56073960D01*
X46837016Y-56073961D01*
X46837018Y-56073963D01*
X46976035Y-56150388D01*
X47129690Y-56189840D01*
X47129694Y-56189840D01*
X48048607Y-56189840D01*
X48048609Y-56189840D01*
X48048614Y-56189839D01*
X48048618Y-56189839D01*
X48061399Y-56188224D01*
X48166498Y-56174947D01*
X48313997Y-56116548D01*
X48442339Y-56023302D01*
X48543460Y-55901069D01*
X48611005Y-55757528D01*
X48640731Y-55601698D01*
X48630770Y-55443372D01*
X48581748Y-55292497D01*
X48546529Y-55237000D01*
X48496745Y-55158552D01*
X48496744Y-55158551D01*
X48381105Y-55049959D01*
X48381097Y-55049954D01*
X48242088Y-54973533D01*
X48242078Y-54973530D01*
X48088433Y-54934080D01*
X48088430Y-54934080D01*
X47169511Y-54934080D01*
X47169501Y-54934080D01*
X47051622Y-54948973D01*
X47051619Y-54948973D01*
X46904124Y-55007371D01*
X46904115Y-55007376D01*
X46775783Y-55100615D01*
X46775779Y-55100618D01*
X46674659Y-55222850D01*
X46607115Y-55366391D01*
X46607115Y-55366392D01*
X46577389Y-55522222D01*
X46577389Y-55522224D01*
X46577389Y-55522225D01*
X44434571Y-55522225D01*
X44429610Y-55443372D01*
X44380588Y-55292497D01*
X44345369Y-55237000D01*
X44295585Y-55158552D01*
X44295584Y-55158551D01*
X44179945Y-55049959D01*
X44179937Y-55049954D01*
X44040928Y-54973533D01*
X44040918Y-54973530D01*
X43887273Y-54934080D01*
X43887270Y-54934080D01*
X42968351Y-54934080D01*
X42968341Y-54934080D01*
X42850462Y-54948973D01*
X42850459Y-54948973D01*
X42702964Y-55007371D01*
X42702955Y-55007376D01*
X42574623Y-55100615D01*
X42574619Y-55100618D01*
X42473499Y-55222850D01*
X42405955Y-55366391D01*
X42405955Y-55366392D01*
X42376229Y-55522222D01*
X42376229Y-55522224D01*
X42376229Y-55522225D01*
X42376372Y-55524497D01*
X42378145Y-55552682D01*
X42378242Y-55554213D01*
X42362807Y-55622356D01*
X42312980Y-55671337D01*
X42254487Y-55686000D01*
X41670499Y-55686000D01*
X41603460Y-55666315D01*
X41557705Y-55613511D01*
X41546499Y-55562000D01*
X41546499Y-55558781D01*
X41545528Y-55551410D01*
X41541984Y-55524489D01*
X41525371Y-55462489D01*
X41512134Y-55430532D01*
X41492864Y-55397156D01*
X41478137Y-55356698D01*
X41473787Y-55332024D01*
X41473787Y-55288963D01*
X41478135Y-55264306D01*
X41492864Y-55223842D01*
X41512135Y-55190465D01*
X41525372Y-55158509D01*
X41541985Y-55096509D01*
X41546500Y-55062215D01*
X41546500Y-55050785D01*
X41541985Y-55016491D01*
X41525372Y-54954491D01*
X41512135Y-54922534D01*
X41492864Y-54889158D01*
X41478137Y-54848694D01*
X41473788Y-54824030D01*
X41473788Y-54780963D01*
X41474981Y-54774199D01*
X41485246Y-54715985D01*
X41486027Y-54711114D01*
X41486347Y-54671289D01*
X41476403Y-54602131D01*
X41448905Y-54541918D01*
X41445391Y-54534223D01*
X41445389Y-54534221D01*
X41445389Y-54534220D01*
X41399634Y-54481416D01*
X41399631Y-54481414D01*
X41399630Y-54481413D01*
X41336832Y-54441054D01*
X41336830Y-54441053D01*
X41336829Y-54441052D01*
X41336828Y-54441052D01*
X41269789Y-54421367D01*
X41269786Y-54421366D01*
X41232461Y-54416000D01*
X41232458Y-54416000D01*
X39785900Y-54416000D01*
X39718861Y-54396315D01*
X39673106Y-54343511D01*
X39661900Y-54292000D01*
X39661900Y-49127799D01*
X39681585Y-49060760D01*
X39698214Y-49040123D01*
X40046337Y-48692000D01*
X40052812Y-48686368D01*
X40061594Y-48679736D01*
X40061599Y-48679734D01*
X40091551Y-48646877D01*
X40093481Y-48644856D01*
X40106258Y-48632081D01*
X40107501Y-48630265D01*
X40112840Y-48623525D01*
X40116236Y-48619800D01*
X40132098Y-48602401D01*
X40134071Y-48597307D01*
X40147397Y-48572023D01*
X40150486Y-48567516D01*
X40157032Y-48539680D01*
X40159568Y-48531489D01*
X40169900Y-48504822D01*
X40169900Y-48499350D01*
X40173193Y-48470964D01*
X40174443Y-48465651D01*
X40170494Y-48437347D01*
X40169900Y-48428773D01*
X40169900Y-47979057D01*
X40189585Y-47912018D01*
X40242389Y-47866263D01*
X40311547Y-47856319D01*
X40375103Y-47885344D01*
X40388889Y-47899351D01*
X40394761Y-47906349D01*
X40426298Y-47932812D01*
X40430288Y-47936468D01*
X41158034Y-48664215D01*
X41161685Y-48668199D01*
X41188151Y-48699739D01*
X41211351Y-48713134D01*
X41223798Y-48720320D01*
X41228360Y-48723227D01*
X41262084Y-48746840D01*
X41262086Y-48746840D01*
X41266283Y-48748798D01*
X41284794Y-48756465D01*
X41289147Y-48758050D01*
X41289149Y-48758051D01*
X41329703Y-48765200D01*
X41334969Y-48766368D01*
X41374733Y-48777024D01*
X41415747Y-48773435D01*
X41421149Y-48773200D01*
X46250064Y-48773200D01*
X46317103Y-48792885D01*
X46359422Y-48838747D01*
X46439302Y-48988192D01*
X46439306Y-48988199D01*
X46561458Y-49137041D01*
X46710300Y-49259193D01*
X46710307Y-49259197D01*
X46880115Y-49349961D01*
X46880117Y-49349962D01*
X47064376Y-49405857D01*
X47256000Y-49424730D01*
X47447624Y-49405857D01*
X47631883Y-49349962D01*
X47801698Y-49259194D01*
X47950541Y-49137041D01*
X48072694Y-48988198D01*
X48163462Y-48818383D01*
X48219357Y-48634124D01*
X48238230Y-48442500D01*
X48219357Y-48250876D01*
X48163462Y-48066617D01*
X48160738Y-48061520D01*
X48072697Y-47896807D01*
X48072693Y-47896800D01*
X47950541Y-47747958D01*
X47801699Y-47625806D01*
X47801692Y-47625802D01*
X47631884Y-47535038D01*
X47447626Y-47479143D01*
X47256000Y-47460270D01*
X47064373Y-47479143D01*
X46880115Y-47535038D01*
X46710307Y-47625802D01*
X46710300Y-47625806D01*
X46561458Y-47747958D01*
X46439306Y-47896800D01*
X46439302Y-47896807D01*
X46359422Y-48046253D01*
X46310460Y-48096097D01*
X46250064Y-48111800D01*
X41592343Y-48111800D01*
X41525304Y-48092115D01*
X41504662Y-48075481D01*
X41019019Y-47589837D01*
X40985534Y-47528514D01*
X40982700Y-47502156D01*
X40982700Y-45486242D01*
X41002385Y-45419203D01*
X41055189Y-45373448D01*
X41124347Y-45363504D01*
X41187903Y-45392529D01*
X41194381Y-45398561D01*
X41920034Y-46124215D01*
X41923690Y-46128204D01*
X41950151Y-46159739D01*
X41985798Y-46180320D01*
X41990360Y-46183227D01*
X42024084Y-46206840D01*
X42024086Y-46206840D01*
X42028283Y-46208798D01*
X42046794Y-46216465D01*
X42051147Y-46218050D01*
X42051149Y-46218051D01*
X42091703Y-46225200D01*
X42096969Y-46226368D01*
X42136733Y-46237024D01*
X42177747Y-46233435D01*
X42183149Y-46233200D01*
X46250064Y-46233200D01*
X46317103Y-46252885D01*
X46359422Y-46298747D01*
X46439302Y-46448192D01*
X46439306Y-46448199D01*
X46561458Y-46597041D01*
X46710300Y-46719193D01*
X46710307Y-46719197D01*
X46880115Y-46809961D01*
X46880117Y-46809962D01*
X47064376Y-46865857D01*
X47256000Y-46884730D01*
X47447624Y-46865857D01*
X47631883Y-46809962D01*
X47801698Y-46719194D01*
X47950541Y-46597041D01*
X48072694Y-46448198D01*
X48163462Y-46278383D01*
X48219357Y-46094124D01*
X48238230Y-45902500D01*
X48219357Y-45710876D01*
X48163462Y-45526617D01*
X48092872Y-45394552D01*
X48072697Y-45356807D01*
X48072693Y-45356800D01*
X47950541Y-45207958D01*
X47801699Y-45085806D01*
X47801692Y-45085802D01*
X47631884Y-44995038D01*
X47447626Y-44939143D01*
X47256000Y-44920270D01*
X47064373Y-44939143D01*
X46880115Y-44995038D01*
X46710307Y-45085802D01*
X46710300Y-45085806D01*
X46561458Y-45207958D01*
X46439306Y-45356800D01*
X46439302Y-45356807D01*
X46359422Y-45506253D01*
X46310460Y-45556097D01*
X46250064Y-45571800D01*
X42354343Y-45571800D01*
X42287304Y-45552115D01*
X42266662Y-45535481D01*
X41781019Y-45049838D01*
X41747534Y-44988515D01*
X41744700Y-44962157D01*
X41744700Y-43362500D01*
X46273770Y-43362500D01*
X46275789Y-43383003D01*
X46292643Y-43554126D01*
X46348538Y-43738384D01*
X46439302Y-43908192D01*
X46439306Y-43908199D01*
X46561458Y-44057041D01*
X46710300Y-44179193D01*
X46710307Y-44179197D01*
X46839476Y-44248239D01*
X46880117Y-44269962D01*
X47064376Y-44325857D01*
X47256000Y-44344730D01*
X47447624Y-44325857D01*
X47631883Y-44269962D01*
X47801698Y-44179194D01*
X47950541Y-44057041D01*
X48072694Y-43908198D01*
X48163462Y-43738383D01*
X48219357Y-43554124D01*
X48238230Y-43362500D01*
X48219357Y-43170876D01*
X48163462Y-42986617D01*
X48144210Y-42950599D01*
X48072697Y-42816807D01*
X48072693Y-42816800D01*
X47950541Y-42667958D01*
X47801699Y-42545806D01*
X47801692Y-42545802D01*
X47631884Y-42455038D01*
X47447626Y-42399143D01*
X47256000Y-42380270D01*
X47064373Y-42399143D01*
X46880115Y-42455038D01*
X46710307Y-42545802D01*
X46710300Y-42545806D01*
X46561458Y-42667958D01*
X46439306Y-42816800D01*
X46439302Y-42816807D01*
X46348538Y-42986615D01*
X46292643Y-43170873D01*
X46275254Y-43347429D01*
X46273770Y-43362500D01*
X41744700Y-43362500D01*
X41744700Y-41103649D01*
X41744936Y-41098243D01*
X41745093Y-41096451D01*
X41748524Y-41057233D01*
X41742473Y-41034652D01*
X41737870Y-41017471D01*
X41736698Y-41012186D01*
X41729551Y-40971649D01*
X41729550Y-40971647D01*
X41727957Y-40967268D01*
X41720312Y-40948812D01*
X41718340Y-40944585D01*
X41718340Y-40944583D01*
X41694716Y-40910846D01*
X41691828Y-40906312D01*
X41671239Y-40870651D01*
X41639692Y-40844179D01*
X41635720Y-40840540D01*
X40501969Y-39706789D01*
X40498319Y-39702806D01*
X40471849Y-39671261D01*
X40436196Y-39650676D01*
X40431648Y-39647779D01*
X40397916Y-39624160D01*
X40397914Y-39624159D01*
X40397912Y-39624158D01*
X40393718Y-39622202D01*
X40375204Y-39614533D01*
X40370852Y-39612949D01*
X40330310Y-39605800D01*
X40325028Y-39604629D01*
X40285266Y-39593975D01*
X40253098Y-39596790D01*
X40244251Y-39597564D01*
X40238851Y-39597800D01*
X39565152Y-39597800D01*
X39498113Y-39578115D01*
X39452358Y-39525311D01*
X39442414Y-39456153D01*
X39471439Y-39392597D01*
X39503147Y-39366416D01*
X39505481Y-39365068D01*
X39528863Y-39351567D01*
X39548106Y-39342595D01*
X39548269Y-39342500D01*
X39548276Y-39342498D01*
X39548281Y-39342493D01*
X39548448Y-39342397D01*
X39565832Y-39330223D01*
X39597849Y-39311739D01*
X39621607Y-39283424D01*
X39636632Y-39268400D01*
X39636747Y-39268261D01*
X39636750Y-39268260D01*
X39636751Y-39268257D01*
X39636870Y-39268116D01*
X39649056Y-39250713D01*
X39672809Y-39222406D01*
X39672809Y-39222405D01*
X39672813Y-39222401D01*
X39685457Y-39187661D01*
X39694433Y-39168415D01*
X39694560Y-39168064D01*
X39700056Y-39147549D01*
X39712700Y-39112811D01*
X39712700Y-39075851D01*
X39714552Y-39054680D01*
X39714552Y-39054314D01*
X39712700Y-39033149D01*
X39712700Y-38996191D01*
X39712700Y-38996190D01*
X39712700Y-38996189D01*
X39700058Y-38961455D01*
X39694560Y-38940934D01*
X39694434Y-38940589D01*
X39685454Y-38921330D01*
X39672813Y-38886599D01*
X39672813Y-38886598D01*
X39649054Y-38858284D01*
X39636872Y-38840886D01*
X39636751Y-38840742D01*
X39636750Y-38840740D01*
X39636747Y-38840738D01*
X39636625Y-38840592D01*
X39621611Y-38825578D01*
X39597850Y-38797262D01*
X39597849Y-38797261D01*
X39597848Y-38797260D01*
X39565827Y-38778772D01*
X39548436Y-38766594D01*
X39548121Y-38766412D01*
X39528870Y-38757435D01*
X39496851Y-38738949D01*
X39475897Y-38735254D01*
X39460440Y-38732528D01*
X39439919Y-38727030D01*
X39439566Y-38726968D01*
X39418399Y-38725116D01*
X39410935Y-38723800D01*
X39240573Y-38723800D01*
X39173534Y-38704115D01*
X39127779Y-38651311D01*
X39117835Y-38582153D01*
X39146860Y-38518597D01*
X39152892Y-38512119D01*
X39162728Y-38502282D01*
X39162733Y-38502277D01*
X39213426Y-38402786D01*
X39225132Y-38328879D01*
X39230894Y-38292502D01*
X39230894Y-38292497D01*
X39213427Y-38182218D01*
X39213426Y-38182216D01*
X39213426Y-38182214D01*
X39162733Y-38082723D01*
X39162731Y-38082721D01*
X39162728Y-38082717D01*
X39083782Y-38003771D01*
X39083778Y-38003768D01*
X39083777Y-38003767D01*
X38984286Y-37953074D01*
X38984284Y-37953073D01*
X38984281Y-37953072D01*
X38874002Y-37935606D01*
X38873998Y-37935606D01*
X38763716Y-37953072D01*
X38755543Y-37955729D01*
X38717220Y-37961800D01*
X26108342Y-37961800D01*
X26041303Y-37942115D01*
X26020661Y-37925481D01*
X25284019Y-37188839D01*
X25250534Y-37127516D01*
X25247700Y-37101158D01*
X25247700Y-36789851D01*
X25249552Y-36768680D01*
X25249552Y-36768314D01*
X25247700Y-36747149D01*
X25247700Y-36739569D01*
X25247700Y-36739565D01*
X25232551Y-36653649D01*
X25174239Y-36552651D01*
X25174237Y-36552649D01*
X25174236Y-36552648D01*
X25084902Y-36477688D01*
X25084901Y-36477687D01*
X25084898Y-36477686D01*
X25084895Y-36477684D01*
X24975313Y-36437800D01*
X24975311Y-36437800D01*
X24858689Y-36437800D01*
X24858686Y-36437800D01*
X24749104Y-36477684D01*
X24749097Y-36477688D01*
X24659763Y-36552648D01*
X24659758Y-36552654D01*
X24601450Y-36653646D01*
X24601448Y-36653651D01*
X24586300Y-36739562D01*
X24586300Y-36747149D01*
X24584448Y-36768314D01*
X24584448Y-36768680D01*
X24586300Y-36789851D01*
X24586300Y-37272349D01*
X24586064Y-37277755D01*
X24582475Y-37318767D01*
X24593129Y-37358528D01*
X24594300Y-37363810D01*
X24601449Y-37404352D01*
X24603033Y-37408704D01*
X24610702Y-37427218D01*
X24612658Y-37431412D01*
X24612659Y-37431414D01*
X24612660Y-37431416D01*
X24636279Y-37465148D01*
X24639176Y-37469696D01*
X24659761Y-37505349D01*
X24691306Y-37531819D01*
X24695289Y-37535469D01*
X24987613Y-37827793D01*
X25021098Y-37889116D01*
X25016114Y-37958808D01*
X24979639Y-38010462D01*
X24900764Y-38076647D01*
X24900758Y-38076654D01*
X24842450Y-38177646D01*
X24842448Y-38177651D01*
X24827300Y-38263562D01*
X24827300Y-38271149D01*
X24825448Y-38292314D01*
X24825448Y-38292680D01*
X24827300Y-38313851D01*
X24827300Y-38783349D01*
X24827064Y-38788755D01*
X24823475Y-38829767D01*
X24834129Y-38869528D01*
X24835300Y-38874810D01*
X24842449Y-38915352D01*
X24844033Y-38919704D01*
X24851702Y-38938218D01*
X24853658Y-38942412D01*
X24853659Y-38942414D01*
X24853660Y-38942416D01*
X24877279Y-38976148D01*
X24880176Y-38980696D01*
X24900761Y-39016349D01*
X24932306Y-39042819D01*
X24936289Y-39046469D01*
X25806981Y-39917161D01*
X25840466Y-39978484D01*
X25843300Y-40004842D01*
X25843300Y-43933800D01*
X25823615Y-44000839D01*
X25770811Y-44046594D01*
X25719300Y-44057800D01*
X23582458Y-44057800D01*
X23515419Y-44038115D01*
X23469664Y-43985311D01*
X23460365Y-43920644D01*
X23459578Y-43920576D01*
X23459872Y-43917212D01*
X23459720Y-43916153D01*
X23460147Y-43914070D01*
X23460523Y-43909769D01*
X23460156Y-43905579D01*
X23456934Y-43868764D01*
X23456699Y-43863357D01*
X23456699Y-42631857D01*
X23458552Y-42610687D01*
X23458552Y-42610305D01*
X23456699Y-42589142D01*
X23456700Y-42581565D01*
X23441551Y-42495649D01*
X23399119Y-42422156D01*
X23383241Y-42394654D01*
X23383236Y-42394648D01*
X23293902Y-42319688D01*
X23293901Y-42319687D01*
X23293898Y-42319686D01*
X23293895Y-42319684D01*
X23184313Y-42279800D01*
X23184311Y-42279800D01*
X23067689Y-42279800D01*
X23067686Y-42279800D01*
X22958104Y-42319684D01*
X22958097Y-42319688D01*
X22868763Y-42394648D01*
X22868758Y-42394654D01*
X22810450Y-42495646D01*
X22810448Y-42495651D01*
X22795300Y-42581562D01*
X22795300Y-42589149D01*
X22793448Y-42610311D01*
X22793448Y-42610680D01*
X22795300Y-42631851D01*
X22795300Y-43692157D01*
X22775615Y-43759196D01*
X22758981Y-43779838D01*
X22517339Y-44021481D01*
X22456016Y-44054966D01*
X22429658Y-44057800D01*
X20557064Y-44057800D01*
X20553909Y-44058356D01*
X20549600Y-44059116D01*
X20528437Y-44060967D01*
X20528074Y-44061031D01*
X20507558Y-44066527D01*
X20471151Y-44072947D01*
X20439131Y-44091434D01*
X20419885Y-44100408D01*
X20419576Y-44100587D01*
X20402174Y-44112770D01*
X20376898Y-44127365D01*
X20370149Y-44131262D01*
X20346388Y-44159579D01*
X20331357Y-44174611D01*
X20331134Y-44174877D01*
X20318949Y-44192279D01*
X20295187Y-44220597D01*
X20282544Y-44255334D01*
X20273566Y-44274588D01*
X20273439Y-44274936D01*
X20267942Y-44295449D01*
X20255301Y-44330182D01*
X20255300Y-44330190D01*
X20255300Y-44367149D01*
X20253448Y-44388314D01*
X20253448Y-44388680D01*
X20255300Y-44409851D01*
X20255300Y-44446812D01*
X20267943Y-44481549D01*
X20273440Y-44502065D01*
X20273566Y-44502411D01*
X20282542Y-44521661D01*
X20295187Y-44556402D01*
X20318945Y-44584715D01*
X20331132Y-44602119D01*
X20331366Y-44602398D01*
X20346387Y-44617419D01*
X20370151Y-44645739D01*
X20402172Y-44664227D01*
X20419576Y-44676413D01*
X20419884Y-44676591D01*
X20439133Y-44685567D01*
X20471149Y-44704051D01*
X20507560Y-44710471D01*
X20528072Y-44715967D01*
X20528248Y-44715998D01*
X20528253Y-44716000D01*
X20528258Y-44716000D01*
X20528438Y-44716032D01*
X20549600Y-44717883D01*
X20557065Y-44719200D01*
X22589065Y-44719200D01*
X22600851Y-44719200D01*
X22606251Y-44719435D01*
X22647267Y-44723024D01*
X22647267Y-44723023D01*
X22647268Y-44723024D01*
X22651875Y-44722621D01*
X22677865Y-44719200D01*
X25985658Y-44719200D01*
X26052697Y-44738885D01*
X26073339Y-44755519D01*
X27330981Y-46013161D01*
X27364466Y-46074484D01*
X27367300Y-46100842D01*
X27367299Y-50042157D01*
X27347614Y-50109196D01*
X27330980Y-50129838D01*
X27196326Y-50264493D01*
X27192344Y-50268142D01*
X27189254Y-50270735D01*
X27189246Y-50270745D01*
X27187235Y-50274228D01*
X27184331Y-50278785D01*
X27139660Y-50342582D01*
X27139659Y-50342583D01*
X27134501Y-50361833D01*
X27132879Y-50366979D01*
X27131501Y-50370766D01*
X27130801Y-50374734D01*
X27129632Y-50380004D01*
X27109475Y-50455232D01*
X27111212Y-50475076D01*
X27111448Y-50480482D01*
X27111448Y-50484504D01*
X27112146Y-50488466D01*
X27112851Y-50493821D01*
X27119639Y-50571409D01*
X27119639Y-50571411D01*
X27128058Y-50589466D01*
X27130125Y-50594455D01*
X27131501Y-50598235D01*
X27131502Y-50598238D01*
X27131503Y-50598239D01*
X27133518Y-50601731D01*
X27136008Y-50606514D01*
X27168928Y-50677108D01*
X27183001Y-50691181D01*
X27186656Y-50695169D01*
X27189248Y-50698258D01*
X27189249Y-50698259D01*
X27189250Y-50698260D01*
X27192336Y-50700849D01*
X27196325Y-50704505D01*
X27251392Y-50759572D01*
X27269453Y-50767994D01*
X27274248Y-50770490D01*
X27277721Y-50772495D01*
X27277724Y-50772498D01*
X27277727Y-50772499D01*
X27281497Y-50773871D01*
X27286499Y-50775943D01*
X27357088Y-50808860D01*
X27376962Y-50810598D01*
X27382303Y-50811302D01*
X27386247Y-50811997D01*
X27386253Y-50812000D01*
X27390274Y-50812000D01*
X27395675Y-50812235D01*
X27473267Y-50819024D01*
X27492502Y-50813869D01*
X27497782Y-50812699D01*
X27501739Y-50812000D01*
X27501747Y-50812000D01*
X27505535Y-50810620D01*
X27510661Y-50809003D01*
X27585916Y-50788840D01*
X27589955Y-50786011D01*
X27602240Y-50777410D01*
X27606808Y-50774499D01*
X27610267Y-50772501D01*
X27610276Y-50772498D01*
X27613351Y-50769917D01*
X27617636Y-50766628D01*
X27657380Y-50738800D01*
X27691680Y-50704498D01*
X27695653Y-50700857D01*
X27698750Y-50698260D01*
X27698754Y-50698251D01*
X27701334Y-50695178D01*
X27704986Y-50691192D01*
X27919719Y-50476459D01*
X27923691Y-50472819D01*
X27955239Y-50446349D01*
X27975823Y-50410694D01*
X27978715Y-50406154D01*
X28002340Y-50372417D01*
X28002341Y-50372411D01*
X28004314Y-50368181D01*
X28011950Y-50349748D01*
X28013548Y-50345356D01*
X28013551Y-50345351D01*
X28016839Y-50326697D01*
X28020701Y-50304800D01*
X28021868Y-50299530D01*
X28032524Y-50259767D01*
X28028935Y-50218752D01*
X28028700Y-50213349D01*
X28028700Y-45929637D01*
X28028936Y-45924230D01*
X28030246Y-45909264D01*
X28032523Y-45883233D01*
X28021867Y-45843465D01*
X28020701Y-45838208D01*
X28013551Y-45797649D01*
X28013550Y-45797647D01*
X28011957Y-45793268D01*
X28004312Y-45774812D01*
X28002340Y-45770585D01*
X28002340Y-45770583D01*
X27978716Y-45736846D01*
X27975828Y-45732312D01*
X27955239Y-45696651D01*
X27923692Y-45670179D01*
X27919720Y-45666540D01*
X26541019Y-44287839D01*
X26507534Y-44226516D01*
X26504700Y-44200158D01*
X26504700Y-39833649D01*
X26504936Y-39828243D01*
X26508524Y-39787234D01*
X26508524Y-39787233D01*
X26497868Y-39747469D01*
X26496700Y-39742199D01*
X26489551Y-39701650D01*
X26487954Y-39697264D01*
X26480307Y-39678801D01*
X26478340Y-39674583D01*
X26454725Y-39640858D01*
X26451817Y-39636293D01*
X26444811Y-39624158D01*
X26431239Y-39600651D01*
X26399693Y-39574180D01*
X26395709Y-39570529D01*
X25592583Y-38767403D01*
X25559098Y-38706080D01*
X25564082Y-38636388D01*
X25605954Y-38580455D01*
X25671418Y-38556038D01*
X25739691Y-38570890D01*
X25751388Y-38578148D01*
X25778081Y-38596839D01*
X25782301Y-38598807D01*
X25800764Y-38606454D01*
X25805147Y-38608050D01*
X25805149Y-38608051D01*
X25845703Y-38615200D01*
X25850969Y-38616368D01*
X25890733Y-38627024D01*
X25931747Y-38623435D01*
X25937149Y-38623200D01*
X33711817Y-38623200D01*
X33778856Y-38642885D01*
X33824611Y-38695689D01*
X33834555Y-38764847D01*
X33805530Y-38828403D01*
X33794449Y-38839309D01*
X33793134Y-38840877D01*
X33780949Y-38858279D01*
X33757187Y-38886597D01*
X33744544Y-38921334D01*
X33735566Y-38940588D01*
X33735439Y-38940936D01*
X33729942Y-38961449D01*
X33717301Y-38996182D01*
X33717300Y-38996190D01*
X33717300Y-39033149D01*
X33715448Y-39054314D01*
X33715448Y-39054680D01*
X33717300Y-39075851D01*
X33717300Y-39112812D01*
X33729943Y-39147549D01*
X33735440Y-39168064D01*
X33735502Y-39168236D01*
X33735503Y-39168239D01*
X33735504Y-39168241D01*
X33735566Y-39168411D01*
X33744542Y-39187661D01*
X33757187Y-39222402D01*
X33780945Y-39250715D01*
X33793132Y-39268119D01*
X33793366Y-39268398D01*
X33808387Y-39283419D01*
X33832151Y-39311739D01*
X33864172Y-39330227D01*
X33881576Y-39342413D01*
X33881884Y-39342591D01*
X33901133Y-39351567D01*
X33933149Y-39370051D01*
X33969560Y-39376471D01*
X33990072Y-39381967D01*
X33990248Y-39381998D01*
X33990253Y-39382000D01*
X33990258Y-39382000D01*
X33990438Y-39382032D01*
X34011600Y-39383883D01*
X34019065Y-39385200D01*
X34019067Y-39385200D01*
X38436847Y-39385200D01*
X38503886Y-39404885D01*
X38549641Y-39457689D01*
X38559585Y-39526847D01*
X38530560Y-39590403D01*
X38498844Y-39616589D01*
X38473130Y-39631434D01*
X38453885Y-39640408D01*
X38453576Y-39640587D01*
X38436174Y-39652770D01*
X38410898Y-39667365D01*
X38404149Y-39671262D01*
X38380388Y-39699579D01*
X38365357Y-39714611D01*
X38365134Y-39714877D01*
X38352949Y-39732279D01*
X38329187Y-39760597D01*
X38316544Y-39795334D01*
X38307566Y-39814588D01*
X38307439Y-39814936D01*
X38301942Y-39835449D01*
X38289301Y-39870182D01*
X38289300Y-39870190D01*
X38289300Y-39907149D01*
X38287448Y-39928314D01*
X38287448Y-39928680D01*
X38289300Y-39949851D01*
X38289300Y-39986812D01*
X38301943Y-40021549D01*
X38307440Y-40042065D01*
X38307566Y-40042411D01*
X38316542Y-40061661D01*
X38329187Y-40096402D01*
X38352945Y-40124715D01*
X38365132Y-40142119D01*
X38365366Y-40142398D01*
X38380387Y-40157419D01*
X38391887Y-40171124D01*
X38394130Y-40173797D01*
X38422141Y-40237807D01*
X38411099Y-40306798D01*
X38394125Y-40333209D01*
X38380388Y-40349579D01*
X38365357Y-40364611D01*
X38365134Y-40364877D01*
X38352949Y-40382279D01*
X38329187Y-40410597D01*
X38316544Y-40445334D01*
X38307566Y-40464588D01*
X38307439Y-40464936D01*
X38301942Y-40485449D01*
X38289301Y-40520182D01*
X38289300Y-40520190D01*
X38289300Y-40557149D01*
X38287448Y-40578314D01*
X38287448Y-40578680D01*
X38289300Y-40599851D01*
X38289300Y-40636812D01*
X38301943Y-40671549D01*
X38307440Y-40692065D01*
X38307566Y-40692411D01*
X38316542Y-40711661D01*
X38329187Y-40746402D01*
X38352945Y-40774715D01*
X38365132Y-40792119D01*
X38365366Y-40792398D01*
X38380387Y-40807419D01*
X38404151Y-40835739D01*
X38436172Y-40854227D01*
X38453576Y-40866413D01*
X38453884Y-40866591D01*
X38473133Y-40875567D01*
X38505149Y-40894051D01*
X38541560Y-40900471D01*
X38562072Y-40905967D01*
X38562248Y-40905998D01*
X38562253Y-40906000D01*
X38562258Y-40906000D01*
X38562438Y-40906032D01*
X38583600Y-40907883D01*
X38591065Y-40909200D01*
X39701658Y-40909200D01*
X39768697Y-40928885D01*
X39789339Y-40945519D01*
X40213757Y-41369937D01*
X40247242Y-41431260D01*
X40242258Y-41500952D01*
X40200386Y-41556885D01*
X40134922Y-41581302D01*
X40066649Y-41566450D01*
X40064079Y-41565007D01*
X40056277Y-41560503D01*
X40056276Y-41560502D01*
X39947747Y-41521000D01*
X39832253Y-41521000D01*
X39723724Y-41560502D01*
X39670690Y-41605003D01*
X39635249Y-41634741D01*
X39635247Y-41634743D01*
X39577505Y-41734755D01*
X39577502Y-41734762D01*
X39557448Y-41848499D01*
X39557448Y-41848500D01*
X39572368Y-41933120D01*
X39577503Y-41962239D01*
X39588219Y-41980800D01*
X39593488Y-41989926D01*
X39610099Y-42051924D01*
X39610099Y-42073747D01*
X39590414Y-42140786D01*
X39537610Y-42186541D01*
X39468452Y-42196485D01*
X39404896Y-42167460D01*
X39390685Y-42150244D01*
X39389724Y-42151052D01*
X39382751Y-42142743D01*
X39382750Y-42142740D01*
X39294276Y-42068502D01*
X39185747Y-42029000D01*
X39070253Y-42029000D01*
X39024915Y-42045502D01*
X38961724Y-42068502D01*
X38873249Y-42142741D01*
X38873247Y-42142743D01*
X38815505Y-42242755D01*
X38815502Y-42242762D01*
X38795448Y-42356499D01*
X38795448Y-42356500D01*
X38815502Y-42470236D01*
X38815504Y-42470241D01*
X38831487Y-42497924D01*
X38848100Y-42559924D01*
X38848100Y-47777199D01*
X38828415Y-47844238D01*
X38811781Y-47864880D01*
X38463680Y-48212981D01*
X38457198Y-48218622D01*
X38448399Y-48225266D01*
X38418468Y-48258099D01*
X38416494Y-48260167D01*
X38403741Y-48272921D01*
X38403731Y-48272932D01*
X38402486Y-48274750D01*
X38397161Y-48281470D01*
X38377903Y-48302596D01*
X38377902Y-48302598D01*
X38375925Y-48307701D01*
X38362605Y-48332970D01*
X38359518Y-48337476D01*
X38359515Y-48337482D01*
X38359514Y-48337484D01*
X38356044Y-48352238D01*
X38352969Y-48365311D01*
X38350426Y-48373520D01*
X38340100Y-48400175D01*
X38340100Y-48405642D01*
X38336807Y-48434029D01*
X38335556Y-48439346D01*
X38335556Y-48439349D01*
X38339505Y-48467656D01*
X38340100Y-48476232D01*
X38340100Y-55027747D01*
X38320415Y-55094786D01*
X38267611Y-55140541D01*
X38198453Y-55150485D01*
X38134897Y-55121460D01*
X38120683Y-55104246D01*
X38119724Y-55105052D01*
X38112751Y-55096743D01*
X38112750Y-55096740D01*
X38024276Y-55022502D01*
X37915747Y-54983000D01*
X37800253Y-54983000D01*
X37691724Y-55022502D01*
X37691723Y-55022502D01*
X37691722Y-55022503D01*
X37686375Y-55026990D01*
X37622366Y-55055003D01*
X37606670Y-55056000D01*
X37133276Y-55056000D01*
X37109087Y-55053618D01*
X37096000Y-55051015D01*
X37095999Y-55051015D01*
X37095998Y-55051015D01*
X37075962Y-55055000D01*
X37075911Y-55055009D01*
X36966272Y-55076817D01*
X36934905Y-55112054D01*
X36932345Y-55113764D01*
X36932346Y-55113765D01*
X36912515Y-55127016D01*
X36905102Y-55138110D01*
X36889685Y-55156894D01*
X36772901Y-55273680D01*
X36711578Y-55307166D01*
X36685219Y-55310000D01*
X35220780Y-55310000D01*
X35153741Y-55290315D01*
X35133099Y-55273681D01*
X35016317Y-55156899D01*
X35000896Y-55138109D01*
X34993484Y-55127016D01*
X34993481Y-55127013D01*
X34975898Y-55115265D01*
X34975886Y-55115256D01*
X34909301Y-55070765D01*
X34810002Y-55051014D01*
X34810000Y-55051014D01*
X34796907Y-55053618D01*
X34772718Y-55056000D01*
X33736830Y-55056000D01*
X33669791Y-55036315D01*
X33657125Y-55026990D01*
X33651777Y-55022503D01*
X33651776Y-55022502D01*
X33543247Y-54983000D01*
X33427753Y-54983000D01*
X33319224Y-55022502D01*
X33319223Y-55022502D01*
X33319222Y-55022503D01*
X33313875Y-55026990D01*
X33249866Y-55055003D01*
X33234170Y-55056000D01*
X33156500Y-55056000D01*
X33089461Y-55036315D01*
X33043706Y-54983511D01*
X33032500Y-54932000D01*
X33032500Y-54541918D01*
X33049113Y-54479918D01*
X33090497Y-54408239D01*
X33110552Y-54294500D01*
X33090497Y-54180761D01*
X33069066Y-54143642D01*
X33032752Y-54080743D01*
X33032751Y-54080742D01*
X33032750Y-54080740D01*
X32944276Y-54006502D01*
X32835747Y-53967000D01*
X32835746Y-53967000D01*
X32835743Y-53966999D01*
X32833509Y-53966605D01*
X32830326Y-53965027D01*
X32825553Y-53963290D01*
X32825746Y-53962757D01*
X32770909Y-53935574D01*
X32735022Y-53875624D01*
X32737244Y-53805790D01*
X32767367Y-53756811D01*
X34084180Y-52439998D01*
X34145501Y-52406515D01*
X34215193Y-52411499D01*
X34271126Y-52453371D01*
X34294563Y-52509802D01*
X34294643Y-52510347D01*
X34298191Y-52534704D01*
X34353525Y-52647892D01*
X34442607Y-52736974D01*
X34442608Y-52736974D01*
X34442610Y-52736976D01*
X34555796Y-52792309D01*
X34629173Y-52803000D01*
X35525826Y-52802999D01*
X35599204Y-52792309D01*
X35712390Y-52736976D01*
X35801476Y-52647890D01*
X35856809Y-52534704D01*
X35867500Y-52461327D01*
X35867500Y-51955200D01*
X35887185Y-51888161D01*
X35939989Y-51842406D01*
X35991500Y-51831200D01*
X36824851Y-51831200D01*
X36830252Y-51831435D01*
X36871267Y-51835024D01*
X36911037Y-51824366D01*
X36916297Y-51823200D01*
X36956851Y-51816051D01*
X36956855Y-51816048D01*
X36961248Y-51814450D01*
X36979662Y-51806822D01*
X36983910Y-51804841D01*
X36983916Y-51804840D01*
X37017642Y-51781223D01*
X37022190Y-51778325D01*
X37057849Y-51757739D01*
X37084319Y-51726191D01*
X37087959Y-51722219D01*
X37571719Y-51238459D01*
X37575691Y-51234819D01*
X37607239Y-51208349D01*
X37627823Y-51172694D01*
X37630715Y-51168154D01*
X37654340Y-51134417D01*
X37654341Y-51134411D01*
X37656314Y-51130181D01*
X37663950Y-51111748D01*
X37665546Y-51107358D01*
X37665551Y-51107351D01*
X37672703Y-51066780D01*
X37673865Y-51061538D01*
X37684523Y-51021767D01*
X37680935Y-50980764D01*
X37680700Y-50975361D01*
X37680700Y-43573200D01*
X37700385Y-43506161D01*
X37753189Y-43460406D01*
X37804700Y-43449200D01*
X37886933Y-43449200D01*
X37886935Y-43449200D01*
X37894399Y-43447883D01*
X37915569Y-43446031D01*
X37915746Y-43446000D01*
X37915747Y-43446000D01*
X37915748Y-43445999D01*
X37915928Y-43445968D01*
X37936440Y-43440470D01*
X37972851Y-43434051D01*
X38004868Y-43415565D01*
X38024106Y-43406595D01*
X38024269Y-43406500D01*
X38024276Y-43406498D01*
X38024281Y-43406493D01*
X38024448Y-43406397D01*
X38041832Y-43394223D01*
X38073849Y-43375739D01*
X38097607Y-43347424D01*
X38112632Y-43332400D01*
X38112747Y-43332261D01*
X38112750Y-43332260D01*
X38112751Y-43332257D01*
X38112870Y-43332116D01*
X38125056Y-43314713D01*
X38148809Y-43286406D01*
X38148809Y-43286405D01*
X38148813Y-43286401D01*
X38161456Y-43251662D01*
X38170430Y-43232421D01*
X38170495Y-43232242D01*
X38170497Y-43232239D01*
X38170497Y-43232235D01*
X38170560Y-43232064D01*
X38176055Y-43211551D01*
X38188700Y-43176811D01*
X38188700Y-43139851D01*
X38190552Y-43118680D01*
X38190552Y-43118314D01*
X38188700Y-43097149D01*
X38188700Y-43060191D01*
X38188700Y-43060189D01*
X38176058Y-43025455D01*
X38170560Y-43004934D01*
X38170434Y-43004589D01*
X38161454Y-42985330D01*
X38148813Y-42950599D01*
X38148813Y-42950598D01*
X38125054Y-42922284D01*
X38112872Y-42904886D01*
X38112751Y-42904742D01*
X38112750Y-42904740D01*
X38112747Y-42904738D01*
X38112625Y-42904592D01*
X38097611Y-42889578D01*
X38073850Y-42861262D01*
X38073849Y-42861261D01*
X38073842Y-42861257D01*
X38041827Y-42842772D01*
X38024436Y-42830594D01*
X38024121Y-42830412D01*
X38004870Y-42821435D01*
X37972851Y-42802949D01*
X37951897Y-42799254D01*
X37936440Y-42796528D01*
X37915919Y-42791030D01*
X37915566Y-42790968D01*
X37894399Y-42789116D01*
X37886935Y-42787800D01*
X37621149Y-42787800D01*
X37615748Y-42787564D01*
X37606305Y-42786738D01*
X37574733Y-42783975D01*
X37534973Y-42794628D01*
X37529693Y-42795799D01*
X37489146Y-42802949D01*
X37484789Y-42804535D01*
X37466281Y-42812201D01*
X37462084Y-42814159D01*
X37428361Y-42837772D01*
X37423799Y-42840678D01*
X37388155Y-42861257D01*
X37388148Y-42861264D01*
X37361680Y-42892805D01*
X37358025Y-42896793D01*
X37128293Y-43126525D01*
X37124305Y-43130180D01*
X37092764Y-43156648D01*
X37092759Y-43156654D01*
X37077698Y-43182739D01*
X37027129Y-43230953D01*
X36958522Y-43244173D01*
X36893658Y-43218203D01*
X36875323Y-43200440D01*
X36870460Y-43194645D01*
X36855052Y-43176281D01*
X36842872Y-43158886D01*
X36842751Y-43158742D01*
X36842750Y-43158740D01*
X36842747Y-43158738D01*
X36842625Y-43158592D01*
X36827611Y-43143578D01*
X36803850Y-43115262D01*
X36803849Y-43115261D01*
X36791266Y-43107996D01*
X36771827Y-43096772D01*
X36754436Y-43084594D01*
X36754121Y-43084412D01*
X36734870Y-43075435D01*
X36734115Y-43074999D01*
X36702851Y-43056949D01*
X36681897Y-43053254D01*
X36666440Y-43050528D01*
X36645919Y-43045030D01*
X36645566Y-43044968D01*
X36624399Y-43043116D01*
X36616935Y-43041800D01*
X35991499Y-43041800D01*
X35924460Y-43022115D01*
X35878705Y-42969311D01*
X35867499Y-42917800D01*
X35867499Y-42411674D01*
X35865019Y-42394651D01*
X35856809Y-42338296D01*
X35801476Y-42225110D01*
X35801474Y-42225108D01*
X35801474Y-42225107D01*
X35712392Y-42136025D01*
X35599202Y-42080690D01*
X35525827Y-42070000D01*
X34629179Y-42070000D01*
X34555796Y-42080691D01*
X34442607Y-42136025D01*
X34353525Y-42225107D01*
X34298190Y-42338297D01*
X34287500Y-42411672D01*
X34287500Y-44333325D01*
X34298191Y-44406704D01*
X34353525Y-44519892D01*
X34442607Y-44608974D01*
X34442608Y-44608974D01*
X34442610Y-44608976D01*
X34555796Y-44664309D01*
X34629173Y-44675000D01*
X35525826Y-44674999D01*
X35599204Y-44664309D01*
X35712390Y-44608976D01*
X35801476Y-44519890D01*
X35856809Y-44406704D01*
X35867500Y-44333327D01*
X35867500Y-43827200D01*
X35887185Y-43760161D01*
X35939989Y-43714406D01*
X35991500Y-43703200D01*
X36616933Y-43703200D01*
X36616935Y-43703200D01*
X36624399Y-43701883D01*
X36645569Y-43700031D01*
X36645746Y-43700000D01*
X36645747Y-43700000D01*
X36645748Y-43699999D01*
X36645928Y-43699968D01*
X36666440Y-43694470D01*
X36702851Y-43688051D01*
X36734868Y-43669565D01*
X36754106Y-43660595D01*
X36754269Y-43660500D01*
X36754276Y-43660498D01*
X36754281Y-43660493D01*
X36754448Y-43660397D01*
X36771832Y-43648223D01*
X36803849Y-43629739D01*
X36803851Y-43629736D01*
X36812155Y-43622769D01*
X36813935Y-43624890D01*
X36858477Y-43595255D01*
X36928338Y-43594143D01*
X36987710Y-43630978D01*
X37017742Y-43694064D01*
X37019300Y-43713661D01*
X37019300Y-50804158D01*
X36999615Y-50871197D01*
X36982981Y-50891839D01*
X36741339Y-51133481D01*
X36680016Y-51166966D01*
X36653658Y-51169800D01*
X35991499Y-51169800D01*
X35924460Y-51150115D01*
X35878705Y-51097311D01*
X35867499Y-51045800D01*
X35867499Y-50539674D01*
X35867499Y-50539672D01*
X35856809Y-50466296D01*
X35801476Y-50353110D01*
X35801474Y-50353108D01*
X35801474Y-50353107D01*
X35712392Y-50264025D01*
X35672348Y-50244449D01*
X35599204Y-50208691D01*
X35599202Y-50208690D01*
X35525827Y-50198000D01*
X34629179Y-50198000D01*
X34555796Y-50208691D01*
X34442607Y-50264025D01*
X34353525Y-50353107D01*
X34298190Y-50466297D01*
X34287500Y-50539672D01*
X34287500Y-51563426D01*
X34267815Y-51630465D01*
X34215011Y-51676220D01*
X34145853Y-51686164D01*
X34136791Y-51684305D01*
X34115076Y-51682404D01*
X34109727Y-51681701D01*
X34105747Y-51681000D01*
X34101715Y-51681000D01*
X34096313Y-51680764D01*
X34077623Y-51679129D01*
X34018732Y-51673976D01*
X34018731Y-51673976D01*
X33999501Y-51679129D01*
X33994218Y-51680301D01*
X33990249Y-51681000D01*
X33986467Y-51682377D01*
X33981312Y-51684002D01*
X33906080Y-51704160D01*
X33889757Y-51715590D01*
X33885205Y-51718490D01*
X33881726Y-51720499D01*
X33878641Y-51723087D01*
X33874359Y-51726372D01*
X33834615Y-51754203D01*
X33800325Y-51788494D01*
X33796344Y-51792142D01*
X33793249Y-51794739D01*
X33790658Y-51797827D01*
X33787007Y-51801811D01*
X32999636Y-52589182D01*
X32938313Y-52622667D01*
X32868621Y-52617683D01*
X32812688Y-52575811D01*
X32788271Y-52510347D01*
X32789250Y-52483628D01*
X32792500Y-52461327D01*
X32792499Y-50539674D01*
X32781809Y-50466296D01*
X32726476Y-50353110D01*
X32726474Y-50353108D01*
X32726474Y-50353107D01*
X32637392Y-50264025D01*
X32597348Y-50244449D01*
X32524204Y-50208691D01*
X32524202Y-50208690D01*
X32450827Y-50198000D01*
X31554179Y-50198000D01*
X31480796Y-50208691D01*
X31367607Y-50264025D01*
X31278525Y-50353107D01*
X31223190Y-50466297D01*
X31212499Y-50539672D01*
X31212500Y-51045800D01*
X31192815Y-51112839D01*
X31140011Y-51158594D01*
X31088500Y-51169800D01*
X30931764Y-51169800D01*
X30864725Y-51150115D01*
X30818970Y-51097311D01*
X30809026Y-51028153D01*
X30819382Y-50993396D01*
X30834218Y-50961578D01*
X30834218Y-50961576D01*
X30834221Y-50961571D01*
X30840500Y-50913875D01*
X30840499Y-50437126D01*
X30834221Y-50389429D01*
X30785411Y-50284756D01*
X30703744Y-50203089D01*
X30647881Y-50177040D01*
X30599072Y-50154279D01*
X30599068Y-50154278D01*
X30551376Y-50148000D01*
X29924628Y-50148000D01*
X29876929Y-50154278D01*
X29772255Y-50203089D01*
X29764381Y-50210964D01*
X29703058Y-50244449D01*
X29633366Y-50239465D01*
X29577433Y-50197593D01*
X29553016Y-50132129D01*
X29552700Y-50123283D01*
X29552700Y-48789470D01*
X29552700Y-47453613D01*
X29552933Y-47448261D01*
X29556523Y-47407233D01*
X29545867Y-47367465D01*
X29544701Y-47362208D01*
X29537551Y-47321649D01*
X29537550Y-47321647D01*
X29535957Y-47317268D01*
X29528312Y-47298812D01*
X29526340Y-47294585D01*
X29526340Y-47294583D01*
X29502716Y-47260846D01*
X29499828Y-47256312D01*
X29479239Y-47220651D01*
X29447692Y-47194179D01*
X29443709Y-47190529D01*
X29153630Y-46900449D01*
X29120145Y-46839126D01*
X29125129Y-46769434D01*
X29167001Y-46713501D01*
X29232465Y-46689084D01*
X29293709Y-46700382D01*
X29301452Y-46703993D01*
X29306247Y-46706490D01*
X29309720Y-46708495D01*
X29309724Y-46708498D01*
X29311851Y-46709272D01*
X29313497Y-46709871D01*
X29318499Y-46711943D01*
X29389088Y-46744860D01*
X29408962Y-46746598D01*
X29414303Y-46747302D01*
X29418247Y-46747997D01*
X29418253Y-46748000D01*
X29422274Y-46748000D01*
X29427675Y-46748235D01*
X29505267Y-46755024D01*
X29524502Y-46749869D01*
X29529782Y-46748699D01*
X29533739Y-46748000D01*
X29533747Y-46748000D01*
X29537535Y-46746620D01*
X29542661Y-46745003D01*
X29617916Y-46724840D01*
X29625979Y-46719194D01*
X29634240Y-46713410D01*
X29638808Y-46710499D01*
X29642267Y-46708501D01*
X29642276Y-46708498D01*
X29645351Y-46705917D01*
X29649636Y-46702628D01*
X29689380Y-46674800D01*
X29723680Y-46640498D01*
X29727653Y-46636857D01*
X29730750Y-46634260D01*
X29730751Y-46634256D01*
X29733330Y-46631184D01*
X29736993Y-46627186D01*
X29830663Y-46533518D01*
X29891986Y-46500034D01*
X29918343Y-46497200D01*
X30235500Y-46497200D01*
X30302539Y-46516885D01*
X30348294Y-46569689D01*
X30359500Y-46621200D01*
X30359500Y-49598502D01*
X30362527Y-49626665D01*
X30373734Y-49678178D01*
X30403069Y-49736781D01*
X30425946Y-49763182D01*
X30448824Y-49789584D01*
X30448826Y-49789585D01*
X30448827Y-49789586D01*
X30482817Y-49811431D01*
X30511630Y-49829948D01*
X30578669Y-49849633D01*
X30616000Y-49855000D01*
X30616002Y-49855000D01*
X32146000Y-49855000D01*
X32174166Y-49851972D01*
X32225677Y-49840766D01*
X32284280Y-49811431D01*
X32337084Y-49765676D01*
X32377448Y-49702870D01*
X32397133Y-49635831D01*
X32402500Y-49598500D01*
X32402500Y-45274500D01*
X32399472Y-45246334D01*
X32388266Y-45194823D01*
X32358931Y-45136220D01*
X32358930Y-45136218D01*
X32333892Y-45107324D01*
X32313176Y-45083416D01*
X32313173Y-45083414D01*
X32313172Y-45083413D01*
X32250374Y-45043054D01*
X32250372Y-45043053D01*
X32250371Y-45043052D01*
X32250370Y-45043052D01*
X32183331Y-45023367D01*
X32183328Y-45023366D01*
X32146003Y-45018000D01*
X32146000Y-45018000D01*
X30616000Y-45018000D01*
X30615997Y-45018000D01*
X30587834Y-45021027D01*
X30536321Y-45032234D01*
X30477718Y-45061569D01*
X30424916Y-45107324D01*
X30424913Y-45107327D01*
X30384554Y-45170125D01*
X30384553Y-45170127D01*
X30364866Y-45237171D01*
X30359500Y-45274496D01*
X30359500Y-45711800D01*
X30339815Y-45778839D01*
X30287011Y-45824594D01*
X30235500Y-45835800D01*
X29747149Y-45835800D01*
X29741748Y-45835564D01*
X29732305Y-45834738D01*
X29700733Y-45831975D01*
X29660973Y-45842628D01*
X29655693Y-45843799D01*
X29615146Y-45850949D01*
X29610789Y-45852535D01*
X29592281Y-45860201D01*
X29588084Y-45862159D01*
X29554361Y-45885772D01*
X29549799Y-45888678D01*
X29514155Y-45909257D01*
X29514148Y-45909264D01*
X29487680Y-45940805D01*
X29484026Y-45944793D01*
X29256381Y-46172438D01*
X29195058Y-46205923D01*
X29125367Y-46200939D01*
X29069433Y-46159068D01*
X29045016Y-46093603D01*
X29044700Y-46084757D01*
X29044700Y-44659637D01*
X29044936Y-44654230D01*
X29048523Y-44613232D01*
X29041827Y-44588244D01*
X29037867Y-44573465D01*
X29036701Y-44568208D01*
X29029551Y-44527649D01*
X29029550Y-44527647D01*
X29027957Y-44523268D01*
X29020312Y-44504812D01*
X29018340Y-44500585D01*
X29018340Y-44500583D01*
X28994716Y-44466846D01*
X28991828Y-44462312D01*
X28971239Y-44426651D01*
X28939692Y-44400179D01*
X28935720Y-44396540D01*
X28454061Y-43914881D01*
X28420576Y-43853558D01*
X28425560Y-43783866D01*
X28467432Y-43727933D01*
X28532896Y-43703516D01*
X28541742Y-43703200D01*
X29544236Y-43703200D01*
X29611275Y-43722885D01*
X29657030Y-43775689D01*
X29666974Y-43844847D01*
X29656618Y-43879604D01*
X29641781Y-43911421D01*
X29641778Y-43911431D01*
X29635500Y-43959122D01*
X29635500Y-44435871D01*
X29641778Y-44483570D01*
X29660290Y-44523268D01*
X29690589Y-44588244D01*
X29772256Y-44669911D01*
X29876929Y-44718721D01*
X29924625Y-44725000D01*
X30551374Y-44724999D01*
X30599071Y-44718721D01*
X30703744Y-44669911D01*
X30785411Y-44588244D01*
X30834221Y-44483571D01*
X30840500Y-44435875D01*
X30840499Y-43959126D01*
X30834221Y-43911429D01*
X30819380Y-43879603D01*
X30808889Y-43810528D01*
X30837408Y-43746744D01*
X30895884Y-43708504D01*
X30931763Y-43703200D01*
X31088501Y-43703200D01*
X31155540Y-43722885D01*
X31201295Y-43775689D01*
X31212501Y-43827200D01*
X31212501Y-44333326D01*
X31219009Y-44377996D01*
X31223191Y-44406704D01*
X31278525Y-44519892D01*
X31367607Y-44608974D01*
X31367608Y-44608974D01*
X31367610Y-44608976D01*
X31480796Y-44664309D01*
X31554173Y-44675000D01*
X32450826Y-44674999D01*
X32524204Y-44664309D01*
X32637390Y-44608976D01*
X32726476Y-44519890D01*
X32781809Y-44406704D01*
X32792500Y-44333327D01*
X32792499Y-42411674D01*
X32781809Y-42338296D01*
X32726476Y-42225110D01*
X32726474Y-42225108D01*
X32726474Y-42225107D01*
X32638248Y-42136881D01*
X32604763Y-42075558D01*
X32609747Y-42005866D01*
X32651619Y-41949933D01*
X32717083Y-41925516D01*
X32725929Y-41925200D01*
X33085300Y-41925200D01*
X33152339Y-41944885D01*
X33198094Y-41997689D01*
X33209300Y-42049200D01*
X33209300Y-48181349D01*
X33209064Y-48186755D01*
X33205475Y-48227767D01*
X33216129Y-48267528D01*
X33217300Y-48272810D01*
X33224449Y-48313352D01*
X33226033Y-48317704D01*
X33233702Y-48336218D01*
X33235658Y-48340412D01*
X33235659Y-48340414D01*
X33235660Y-48340416D01*
X33259279Y-48374148D01*
X33262176Y-48378696D01*
X33282761Y-48414349D01*
X33314306Y-48440819D01*
X33318289Y-48444469D01*
X33787001Y-48913181D01*
X33790656Y-48917169D01*
X33793248Y-48920258D01*
X33793249Y-48920259D01*
X33793250Y-48920260D01*
X33796342Y-48922854D01*
X33800313Y-48926493D01*
X33834620Y-48960800D01*
X33874368Y-48988632D01*
X33878638Y-48991908D01*
X33881724Y-48994498D01*
X33881728Y-48994499D01*
X33885183Y-48996494D01*
X33889757Y-48999408D01*
X33906083Y-49010840D01*
X33980800Y-49030859D01*
X33981304Y-49030994D01*
X33986470Y-49032623D01*
X33990253Y-49034000D01*
X33990257Y-49034000D01*
X33994223Y-49034700D01*
X33999504Y-49035870D01*
X34018733Y-49041023D01*
X34096313Y-49034235D01*
X34101715Y-49034000D01*
X34105743Y-49034000D01*
X34105747Y-49034000D01*
X34105750Y-49033998D01*
X34109711Y-49033300D01*
X34115059Y-49032595D01*
X34134912Y-49030859D01*
X34205511Y-48997937D01*
X34210497Y-48995872D01*
X34214276Y-48994498D01*
X34214277Y-48994496D01*
X34214279Y-48994496D01*
X34217744Y-48992495D01*
X34222556Y-48989989D01*
X34240608Y-48981572D01*
X34295693Y-48926485D01*
X34299649Y-48922860D01*
X34302750Y-48920260D01*
X34302752Y-48920254D01*
X34305332Y-48917182D01*
X34308993Y-48913186D01*
X34308998Y-48913181D01*
X34323072Y-48899108D01*
X34356000Y-48828491D01*
X34358476Y-48823736D01*
X34360497Y-48820239D01*
X34360498Y-48820228D01*
X34361867Y-48816469D01*
X34363931Y-48811482D01*
X34372359Y-48793412D01*
X34379148Y-48715804D01*
X34379847Y-48710493D01*
X34380552Y-48706500D01*
X34380551Y-48706495D01*
X34380552Y-48706492D01*
X34380552Y-48702469D01*
X34380788Y-48697062D01*
X34382523Y-48677233D01*
X34380104Y-48668204D01*
X34362360Y-48601982D01*
X34361197Y-48596736D01*
X34360497Y-48592761D01*
X34360495Y-48592757D01*
X34359119Y-48588975D01*
X34357498Y-48583834D01*
X34352340Y-48564583D01*
X34328861Y-48531053D01*
X34307668Y-48500785D01*
X34304758Y-48496219D01*
X34302749Y-48492738D01*
X34299657Y-48490144D01*
X34295670Y-48486490D01*
X33907019Y-48097839D01*
X33873534Y-48036516D01*
X33870700Y-48010158D01*
X33870700Y-41865649D01*
X33870936Y-41860243D01*
X33871964Y-41848500D01*
X33874524Y-41819233D01*
X33863870Y-41779472D01*
X33863870Y-41779471D01*
X33862698Y-41774186D01*
X33855747Y-41734762D01*
X33855551Y-41733649D01*
X33855550Y-41733647D01*
X33853957Y-41729268D01*
X33846312Y-41710812D01*
X33844340Y-41706584D01*
X33844340Y-41706583D01*
X33820716Y-41672846D01*
X33817828Y-41668312D01*
X33797239Y-41632651D01*
X33797235Y-41632648D01*
X33789842Y-41626444D01*
X33765692Y-41606179D01*
X33761720Y-41602540D01*
X33531969Y-41372789D01*
X33528318Y-41368805D01*
X33501849Y-41337261D01*
X33466196Y-41316676D01*
X33461648Y-41313779D01*
X33427916Y-41290160D01*
X33427914Y-41290159D01*
X33427912Y-41290158D01*
X33423718Y-41288202D01*
X33405204Y-41280533D01*
X33400852Y-41278949D01*
X33360310Y-41271800D01*
X33355028Y-41270629D01*
X33315266Y-41259975D01*
X33283098Y-41262790D01*
X33274251Y-41263564D01*
X33268851Y-41263800D01*
X30509149Y-41263800D01*
X30503748Y-41263564D01*
X30494305Y-41262738D01*
X30462733Y-41259975D01*
X30422973Y-41270628D01*
X30417693Y-41271799D01*
X30377146Y-41278949D01*
X30372789Y-41280535D01*
X30354281Y-41288201D01*
X30350084Y-41290159D01*
X30316361Y-41313772D01*
X30311799Y-41316678D01*
X30276155Y-41337257D01*
X30276148Y-41337264D01*
X30249680Y-41368805D01*
X30246025Y-41372793D01*
X30016293Y-41602525D01*
X30012305Y-41606180D01*
X29980764Y-41632648D01*
X29980758Y-41632654D01*
X29960177Y-41668300D01*
X29957272Y-41672861D01*
X29933659Y-41706584D01*
X29931706Y-41710771D01*
X29924025Y-41729318D01*
X29922447Y-41733653D01*
X29915300Y-41774189D01*
X29914129Y-41779472D01*
X29903475Y-41819232D01*
X29907064Y-41860242D01*
X29907300Y-41865649D01*
X29907300Y-41933120D01*
X29887615Y-42000159D01*
X29835705Y-42045502D01*
X29772255Y-42075089D01*
X29690590Y-42156754D01*
X29641779Y-42261427D01*
X29641778Y-42261431D01*
X29635499Y-42309123D01*
X29635500Y-42630956D01*
X29615815Y-42697995D01*
X29599185Y-42718632D01*
X29312337Y-43005482D01*
X29251017Y-43038966D01*
X29224658Y-43041800D01*
X28394343Y-43041800D01*
X28327304Y-43022115D01*
X28306662Y-43005481D01*
X27811019Y-42509837D01*
X27777534Y-42448514D01*
X27774700Y-42422156D01*
X27774700Y-41615851D01*
X27776552Y-41594680D01*
X27776552Y-41594314D01*
X27774700Y-41573149D01*
X27774700Y-41565569D01*
X27774700Y-41565565D01*
X27759551Y-41479649D01*
X27701239Y-41378651D01*
X27701237Y-41378649D01*
X27701236Y-41378648D01*
X27611902Y-41303688D01*
X27611901Y-41303687D01*
X27611898Y-41303686D01*
X27611895Y-41303684D01*
X27502313Y-41263800D01*
X27502311Y-41263800D01*
X27385689Y-41263800D01*
X27385686Y-41263800D01*
X27276104Y-41303684D01*
X27276097Y-41303688D01*
X27186763Y-41378648D01*
X27186758Y-41378654D01*
X27128450Y-41479646D01*
X27128448Y-41479651D01*
X27113300Y-41565562D01*
X27113300Y-41573149D01*
X27111448Y-41594314D01*
X27111448Y-41594680D01*
X27113300Y-41615851D01*
X27113300Y-42593349D01*
X27113064Y-42598755D01*
X27109475Y-42639767D01*
X27120129Y-42679528D01*
X27121300Y-42684810D01*
X27128449Y-42725352D01*
X27130033Y-42729704D01*
X27137702Y-42748218D01*
X27139658Y-42752412D01*
X27139659Y-42752414D01*
X27139660Y-42752416D01*
X27163279Y-42786148D01*
X27166176Y-42790696D01*
X27181248Y-42816800D01*
X27186761Y-42826349D01*
X27218298Y-42852812D01*
X27222288Y-42856468D01*
X27957938Y-43592119D01*
X27991423Y-43653442D01*
X27986439Y-43723134D01*
X27944567Y-43779067D01*
X27879103Y-43803484D01*
X27870257Y-43803800D01*
X27669064Y-43803800D01*
X27665909Y-43804356D01*
X27661600Y-43805116D01*
X27640437Y-43806967D01*
X27640074Y-43807031D01*
X27619558Y-43812527D01*
X27583151Y-43818947D01*
X27551131Y-43837434D01*
X27531885Y-43846408D01*
X27531576Y-43846587D01*
X27514174Y-43858770D01*
X27488898Y-43873365D01*
X27482149Y-43877262D01*
X27458388Y-43905579D01*
X27443357Y-43920611D01*
X27443134Y-43920877D01*
X27430949Y-43938279D01*
X27407187Y-43966597D01*
X27394544Y-44001334D01*
X27385566Y-44020588D01*
X27385439Y-44020936D01*
X27379942Y-44041449D01*
X27367301Y-44076182D01*
X27367300Y-44076190D01*
X27367300Y-44113149D01*
X27365448Y-44134314D01*
X27365448Y-44134680D01*
X27367300Y-44155851D01*
X27367300Y-44192812D01*
X27379943Y-44227549D01*
X27385440Y-44248065D01*
X27385566Y-44248411D01*
X27394542Y-44267661D01*
X27407187Y-44302402D01*
X27430945Y-44330715D01*
X27443132Y-44348119D01*
X27443366Y-44348398D01*
X27458387Y-44363419D01*
X27482151Y-44391739D01*
X27514172Y-44410227D01*
X27531576Y-44422413D01*
X27531884Y-44422591D01*
X27551133Y-44431567D01*
X27583149Y-44450051D01*
X27619560Y-44456471D01*
X27640072Y-44461967D01*
X27640248Y-44461998D01*
X27640253Y-44462000D01*
X27640258Y-44462000D01*
X27640438Y-44462032D01*
X27661600Y-44463883D01*
X27669065Y-44465200D01*
X28017658Y-44465200D01*
X28084697Y-44484885D01*
X28105339Y-44501519D01*
X28346981Y-44743161D01*
X28380466Y-44804484D01*
X28383300Y-44830842D01*
X28383300Y-46911349D01*
X28383064Y-46916755D01*
X28379475Y-46957767D01*
X28390129Y-46997528D01*
X28391300Y-47002810D01*
X28398449Y-47043352D01*
X28400033Y-47047704D01*
X28407702Y-47066218D01*
X28409658Y-47070412D01*
X28409659Y-47070414D01*
X28409660Y-47070416D01*
X28433279Y-47104148D01*
X28436176Y-47108696D01*
X28456761Y-47144349D01*
X28488306Y-47170819D01*
X28492289Y-47174469D01*
X28854981Y-47537161D01*
X28888466Y-47598484D01*
X28891300Y-47624842D01*
X28891300Y-53511149D01*
X28889448Y-53532314D01*
X28889448Y-53532680D01*
X28891300Y-53553851D01*
X28891300Y-53561437D01*
X28906448Y-53647348D01*
X28906450Y-53647353D01*
X28964758Y-53748345D01*
X28964763Y-53748351D01*
X29009429Y-53785830D01*
X29054099Y-53823313D01*
X29163689Y-53863200D01*
X29163691Y-53863200D01*
X29280309Y-53863200D01*
X29280311Y-53863200D01*
X29389901Y-53823313D01*
X29479239Y-53748349D01*
X29537551Y-53647351D01*
X29552700Y-53561435D01*
X29552700Y-53553851D01*
X29554552Y-53532680D01*
X29554552Y-53532314D01*
X29552700Y-53511149D01*
X29552700Y-52877717D01*
X29572385Y-52810678D01*
X29625189Y-52764923D01*
X29694347Y-52754979D01*
X29757903Y-52784004D01*
X29764381Y-52790036D01*
X29772256Y-52797911D01*
X29876929Y-52846721D01*
X29876931Y-52846721D01*
X29886033Y-52849374D01*
X29885578Y-52850934D01*
X29939577Y-52874819D01*
X29978051Y-52933142D01*
X29983500Y-52969496D01*
X29983499Y-53629719D01*
X29963814Y-53696759D01*
X29947180Y-53717400D01*
X29474366Y-54190214D01*
X29413043Y-54223699D01*
X29408219Y-54224649D01*
X29361149Y-54232949D01*
X29284181Y-54277387D01*
X29222181Y-54294000D01*
X26330779Y-54294000D01*
X26263740Y-54274315D01*
X26243098Y-54257681D01*
X25702818Y-53717401D01*
X25669333Y-53656078D01*
X25666499Y-53629720D01*
X25666499Y-53238260D01*
X25666499Y-52763914D01*
X25683111Y-52701920D01*
X25724497Y-52630239D01*
X25744552Y-52516500D01*
X25738754Y-52483620D01*
X25724497Y-52402762D01*
X25724494Y-52402755D01*
X25666752Y-52302743D01*
X25666751Y-52302742D01*
X25666750Y-52302740D01*
X25578276Y-52228502D01*
X25469747Y-52189000D01*
X25354253Y-52189000D01*
X25245723Y-52228502D01*
X25245724Y-52228502D01*
X25157249Y-52302741D01*
X25157247Y-52302743D01*
X25099505Y-52402755D01*
X25099502Y-52402762D01*
X25079448Y-52516499D01*
X25079448Y-52516500D01*
X25099502Y-52630237D01*
X25099505Y-52630244D01*
X25140886Y-52701918D01*
X25157499Y-52763918D01*
X25157499Y-53749224D01*
X25155117Y-53773411D01*
X25152514Y-53786499D01*
X25161086Y-53829602D01*
X25172264Y-53885797D01*
X25172265Y-53885799D01*
X25172265Y-53885800D01*
X25172266Y-53885801D01*
X25214316Y-53948734D01*
X25214318Y-53948736D01*
X25216763Y-53952395D01*
X25216765Y-53952398D01*
X25228515Y-53969983D01*
X25239609Y-53977396D01*
X25258400Y-53992818D01*
X25347901Y-54082319D01*
X25381386Y-54143642D01*
X25376402Y-54213334D01*
X25334530Y-54269267D01*
X25269066Y-54293684D01*
X25260220Y-54294000D01*
X21758780Y-54294000D01*
X21691741Y-54274315D01*
X21671099Y-54257681D01*
X21218998Y-53805580D01*
X20748234Y-53334816D01*
X20748233Y-53334816D01*
X20726419Y-53313002D01*
X20675581Y-53262162D01*
X20642097Y-53200839D01*
X20645569Y-53149444D01*
X20642613Y-53148923D01*
X20664552Y-53024500D01*
X20664552Y-53024499D01*
X20644497Y-52910762D01*
X20644494Y-52910755D01*
X20586752Y-52810743D01*
X20586751Y-52810742D01*
X20586750Y-52810740D01*
X20498276Y-52736502D01*
X20389747Y-52697000D01*
X20274253Y-52697000D01*
X20165724Y-52736502D01*
X20086476Y-52802999D01*
X20077249Y-52810741D01*
X20077247Y-52810743D01*
X20019505Y-52910755D01*
X20019502Y-52910762D01*
X19999448Y-53024499D01*
X19999448Y-53024500D01*
X20019502Y-53138237D01*
X20019505Y-53138244D01*
X20056345Y-53202052D01*
X20071929Y-53266288D01*
X20072514Y-53266288D01*
X20072514Y-53268698D01*
X20072818Y-53269952D01*
X20072514Y-53272434D01*
X20072514Y-53278499D01*
X20072514Y-53278500D01*
X20076641Y-53299249D01*
X20076644Y-53299267D01*
X20079664Y-53314451D01*
X20080246Y-53317375D01*
X20080518Y-53318739D01*
X20092266Y-53377802D01*
X20136756Y-53444386D01*
X20136765Y-53444398D01*
X20148513Y-53461981D01*
X20148516Y-53461984D01*
X20159609Y-53469396D01*
X20178399Y-53484817D01*
X20897871Y-54204289D01*
X20931356Y-54265612D01*
X20926372Y-54335304D01*
X20913288Y-54360867D01*
X20903099Y-54376114D01*
X20887682Y-54394898D01*
X20078650Y-55203931D01*
X20029524Y-55230755D01*
X20030447Y-55233290D01*
X20020254Y-55237000D01*
X20020253Y-55237000D01*
X19911724Y-55276502D01*
X19871207Y-55310500D01*
X19823249Y-55350741D01*
X19823247Y-55350743D01*
X19765505Y-55450755D01*
X19765502Y-55450762D01*
X19745448Y-55564499D01*
X19745448Y-55564500D01*
X19494500Y-55564500D01*
X19494500Y-35723234D01*
X21521475Y-35723234D01*
X21525063Y-35764244D01*
X21525299Y-35769650D01*
X21525300Y-36493149D01*
X21523448Y-36514314D01*
X21523448Y-36514680D01*
X21525300Y-36535851D01*
X21525300Y-36543437D01*
X21540448Y-36629348D01*
X21540450Y-36629353D01*
X21598758Y-36730345D01*
X21598763Y-36730351D01*
X21609744Y-36739565D01*
X21688099Y-36805313D01*
X21797689Y-36845200D01*
X21797691Y-36845200D01*
X21914309Y-36845200D01*
X21914311Y-36845200D01*
X22023901Y-36805313D01*
X22113239Y-36730349D01*
X22171551Y-36629351D01*
X22186700Y-36543435D01*
X22186700Y-36535851D01*
X22188552Y-36514680D01*
X22188552Y-36514314D01*
X22186700Y-36493149D01*
X22186700Y-35940842D01*
X22206385Y-35873803D01*
X22223019Y-35853161D01*
X22422859Y-35653321D01*
X22422870Y-35653309D01*
X22972661Y-35103519D01*
X23033985Y-35070034D01*
X23060343Y-35067200D01*
X31282933Y-35067200D01*
X31282935Y-35067200D01*
X31290399Y-35065883D01*
X31311569Y-35064031D01*
X31311746Y-35064000D01*
X31311747Y-35064000D01*
X31311748Y-35063999D01*
X31311928Y-35063968D01*
X31332440Y-35058470D01*
X31368851Y-35052051D01*
X31400868Y-35033565D01*
X31420106Y-35024595D01*
X31420269Y-35024500D01*
X31420276Y-35024498D01*
X31420281Y-35024493D01*
X31420448Y-35024397D01*
X31437832Y-35012223D01*
X31469849Y-34993739D01*
X31493607Y-34965424D01*
X31508632Y-34950400D01*
X31508747Y-34950261D01*
X31508750Y-34950260D01*
X31508751Y-34950257D01*
X31508870Y-34950116D01*
X31521056Y-34932713D01*
X31544809Y-34904406D01*
X31544809Y-34904405D01*
X31544813Y-34904401D01*
X31557456Y-34869662D01*
X31566430Y-34850421D01*
X31566495Y-34850242D01*
X31566497Y-34850239D01*
X31566497Y-34850235D01*
X31566560Y-34850064D01*
X31572055Y-34829551D01*
X31584700Y-34794811D01*
X31584700Y-34757851D01*
X31586552Y-34736680D01*
X31586552Y-34736314D01*
X31584700Y-34715149D01*
X31584700Y-34678191D01*
X31584700Y-34678189D01*
X31572058Y-34643455D01*
X31566560Y-34622934D01*
X31566434Y-34622589D01*
X31557454Y-34603330D01*
X31544813Y-34568599D01*
X31544813Y-34568598D01*
X31521054Y-34540284D01*
X31508872Y-34522886D01*
X31508751Y-34522742D01*
X31508750Y-34522740D01*
X31508747Y-34522738D01*
X31508625Y-34522592D01*
X31493611Y-34507578D01*
X31469850Y-34479262D01*
X31469849Y-34479261D01*
X31452465Y-34469224D01*
X31437827Y-34460772D01*
X31420436Y-34448594D01*
X31420121Y-34448412D01*
X31400870Y-34439435D01*
X31368851Y-34420949D01*
X31347897Y-34417254D01*
X31332440Y-34414528D01*
X31311919Y-34409030D01*
X31311566Y-34408968D01*
X31290399Y-34407116D01*
X31282935Y-34405800D01*
X22889149Y-34405800D01*
X22883748Y-34405564D01*
X22873623Y-34404678D01*
X22842732Y-34401975D01*
X22802972Y-34412629D01*
X22797689Y-34413800D01*
X22757153Y-34420947D01*
X22752823Y-34422523D01*
X22734259Y-34430212D01*
X22730084Y-34432159D01*
X22696351Y-34455778D01*
X22691791Y-34458683D01*
X22656151Y-34479260D01*
X22629685Y-34510799D01*
X22626031Y-34514787D01*
X21838032Y-35302787D01*
X21634293Y-35506526D01*
X21630305Y-35510180D01*
X21598764Y-35536648D01*
X21598758Y-35536654D01*
X21578177Y-35572300D01*
X21575272Y-35576861D01*
X21551659Y-35610584D01*
X21549706Y-35614771D01*
X21542025Y-35633318D01*
X21540447Y-35637653D01*
X21533300Y-35678189D01*
X21532129Y-35683472D01*
X21521475Y-35723233D01*
X21521475Y-35723234D01*
X19494500Y-35723234D01*
X19494500Y-26492501D01*
X19857704Y-26492501D01*
X19876863Y-26760384D01*
X19933948Y-27022797D01*
X19933950Y-27022804D01*
X19992222Y-27179037D01*
X20027803Y-27274435D01*
X20027805Y-27274439D01*
X20156508Y-27510140D01*
X20156513Y-27510148D01*
X20317449Y-27725134D01*
X20317465Y-27725152D01*
X20507347Y-27915034D01*
X20507365Y-27915050D01*
X20722351Y-28075986D01*
X20722359Y-28075991D01*
X20958060Y-28204694D01*
X20958064Y-28204696D01*
X20958066Y-28204697D01*
X21209696Y-28298550D01*
X21272394Y-28312189D01*
X21472115Y-28355636D01*
X21472117Y-28355636D01*
X21472121Y-28355637D01*
X21710174Y-28372662D01*
X21739999Y-28374796D01*
X21740000Y-28374796D01*
X21740001Y-28374796D01*
X21766837Y-28372876D01*
X21985577Y-28357232D01*
X27363475Y-28357232D01*
X27367063Y-28398240D01*
X27367299Y-28403646D01*
X27367299Y-32683149D01*
X27365448Y-32704314D01*
X27365448Y-32704680D01*
X27367300Y-32725851D01*
X27367300Y-32733437D01*
X27382448Y-32819348D01*
X27382450Y-32819353D01*
X27440758Y-32920345D01*
X27440760Y-32920347D01*
X27440761Y-32920349D01*
X27530099Y-32995313D01*
X27530103Y-32995314D01*
X27530104Y-32995315D01*
X27609318Y-33024146D01*
X27639689Y-33035200D01*
X27639691Y-33035200D01*
X27756309Y-33035200D01*
X27756311Y-33035200D01*
X27865901Y-32995313D01*
X27955239Y-32920349D01*
X28013551Y-32819351D01*
X28028700Y-32733435D01*
X28028700Y-32725851D01*
X28030552Y-32704680D01*
X28030552Y-32704314D01*
X28028700Y-32683149D01*
X28028700Y-28574842D01*
X28048385Y-28507803D01*
X28065019Y-28487161D01*
X28203831Y-28348349D01*
X28707699Y-27844480D01*
X28711656Y-27840855D01*
X28714750Y-27838260D01*
X28716763Y-27834771D01*
X28719651Y-27830237D01*
X28764340Y-27766416D01*
X28769500Y-27747157D01*
X28771122Y-27742014D01*
X28772494Y-27738243D01*
X28772497Y-27738239D01*
X28773196Y-27734270D01*
X28774361Y-27729015D01*
X28794524Y-27653767D01*
X28792786Y-27633914D01*
X28792550Y-27628496D01*
X28792550Y-27624505D01*
X28792552Y-27624500D01*
X28791854Y-27620541D01*
X28791148Y-27615175D01*
X28784360Y-27537589D01*
X28782295Y-27533161D01*
X28775938Y-27519527D01*
X28773867Y-27514526D01*
X28772497Y-27510766D01*
X28772497Y-27510761D01*
X28770482Y-27507271D01*
X28767994Y-27502493D01*
X28735073Y-27431892D01*
X28720990Y-27417809D01*
X28717334Y-27413819D01*
X28714751Y-27410740D01*
X28711671Y-27408156D01*
X28707691Y-27404510D01*
X28652608Y-27349427D01*
X28652607Y-27349426D01*
X28634542Y-27341002D01*
X28629742Y-27338503D01*
X28626273Y-27336500D01*
X28622494Y-27335124D01*
X28617501Y-27333056D01*
X28546911Y-27300139D01*
X28527065Y-27298402D01*
X28521715Y-27297698D01*
X28517752Y-27297000D01*
X28517747Y-27297000D01*
X28513726Y-27297000D01*
X28508324Y-27296764D01*
X28489657Y-27295131D01*
X28430732Y-27289975D01*
X28430731Y-27289975D01*
X28411491Y-27295131D01*
X28406212Y-27296302D01*
X28402251Y-27297000D01*
X28398473Y-27298375D01*
X28393320Y-27299999D01*
X28318085Y-27320159D01*
X28301758Y-27331591D01*
X28297197Y-27334496D01*
X28293725Y-27336500D01*
X28290642Y-27339087D01*
X28286356Y-27342375D01*
X28246619Y-27370199D01*
X28212318Y-27404500D01*
X28208337Y-27408148D01*
X28205249Y-27410739D01*
X28202658Y-27413827D01*
X28199008Y-27417809D01*
X27476287Y-28140532D01*
X27472298Y-28144187D01*
X27440765Y-28170647D01*
X27440758Y-28170654D01*
X27420177Y-28206300D01*
X27417272Y-28210861D01*
X27393659Y-28244584D01*
X27391706Y-28248771D01*
X27384025Y-28267318D01*
X27382447Y-28271653D01*
X27375300Y-28312189D01*
X27374129Y-28317473D01*
X27363476Y-28357231D01*
X27363475Y-28357232D01*
X21985577Y-28357232D01*
X22007879Y-28355637D01*
X22014444Y-28354209D01*
X22045576Y-28347436D01*
X22270304Y-28298550D01*
X22521934Y-28204697D01*
X22757646Y-28075988D01*
X22972642Y-27915044D01*
X23162544Y-27725142D01*
X23323488Y-27510146D01*
X23452197Y-27274434D01*
X23546050Y-27022804D01*
X23603137Y-26760379D01*
X23622296Y-26492500D01*
X23603137Y-26224621D01*
X23602650Y-26222384D01*
X23574593Y-26093408D01*
X23546050Y-25962196D01*
X23502897Y-25846499D01*
X26907770Y-25846499D01*
X26926643Y-26038126D01*
X26982538Y-26222384D01*
X27073302Y-26392192D01*
X27073306Y-26392199D01*
X27195458Y-26541041D01*
X27344300Y-26663193D01*
X27344307Y-26663197D01*
X27472475Y-26731704D01*
X27514117Y-26753962D01*
X27698376Y-26809857D01*
X27890000Y-26828730D01*
X28081624Y-26809857D01*
X28265883Y-26753962D01*
X28435698Y-26663194D01*
X28584541Y-26541041D01*
X28706694Y-26392198D01*
X28797462Y-26222383D01*
X28853357Y-26038124D01*
X28872230Y-25846500D01*
X28872230Y-25846499D01*
X29447770Y-25846499D01*
X29466643Y-26038126D01*
X29522538Y-26222384D01*
X29613302Y-26392192D01*
X29613306Y-26392199D01*
X29735458Y-26541041D01*
X29884300Y-26663193D01*
X29884307Y-26663197D01*
X30012475Y-26731704D01*
X30054117Y-26753962D01*
X30238376Y-26809857D01*
X30430000Y-26828730D01*
X30621624Y-26809857D01*
X30760701Y-26767668D01*
X30783787Y-26760665D01*
X30853654Y-26760041D01*
X30907464Y-26791644D01*
X32470029Y-28354209D01*
X32473680Y-28358193D01*
X32500151Y-28389739D01*
X32535793Y-28410317D01*
X32540358Y-28413225D01*
X32574083Y-28436840D01*
X32578301Y-28438807D01*
X32596764Y-28446454D01*
X32601147Y-28448050D01*
X32601149Y-28448051D01*
X32641703Y-28455200D01*
X32646969Y-28456368D01*
X32686733Y-28467024D01*
X32727747Y-28463435D01*
X32733149Y-28463200D01*
X33351658Y-28463200D01*
X33418697Y-28482885D01*
X33439339Y-28499519D01*
X35458981Y-30519161D01*
X35492466Y-30580484D01*
X35495300Y-30606842D01*
X35495300Y-34207149D01*
X35493448Y-34228314D01*
X35493448Y-34228680D01*
X35495300Y-34249851D01*
X35495300Y-34257437D01*
X35510448Y-34343348D01*
X35510450Y-34343353D01*
X35568758Y-34444345D01*
X35568760Y-34444347D01*
X35568761Y-34444349D01*
X35658099Y-34519313D01*
X35658103Y-34519314D01*
X35658104Y-34519315D01*
X35692888Y-34531975D01*
X35767689Y-34559200D01*
X35767691Y-34559200D01*
X35884309Y-34559200D01*
X35884311Y-34559200D01*
X35993901Y-34519313D01*
X36053594Y-34469223D01*
X36117602Y-34441211D01*
X36186594Y-34452250D01*
X36238665Y-34498836D01*
X36257300Y-34564213D01*
X36257300Y-35227349D01*
X36257064Y-35232755D01*
X36253475Y-35273767D01*
X36264129Y-35313528D01*
X36265300Y-35318810D01*
X36272449Y-35359352D01*
X36274033Y-35363704D01*
X36281702Y-35382218D01*
X36283658Y-35386412D01*
X36283659Y-35386414D01*
X36283660Y-35386416D01*
X36307279Y-35420148D01*
X36310180Y-35424702D01*
X36330761Y-35460349D01*
X36362298Y-35486812D01*
X36366288Y-35490468D01*
X37104034Y-36228215D01*
X37107685Y-36232199D01*
X37119566Y-36246357D01*
X37134151Y-36263739D01*
X37169798Y-36284320D01*
X37174360Y-36287227D01*
X37208084Y-36310840D01*
X37208086Y-36310840D01*
X37212283Y-36312798D01*
X37230794Y-36320465D01*
X37235147Y-36322050D01*
X37235149Y-36322051D01*
X37275703Y-36329200D01*
X37280969Y-36330368D01*
X37320733Y-36341024D01*
X37361747Y-36337435D01*
X37367149Y-36337200D01*
X39410933Y-36337200D01*
X39410935Y-36337200D01*
X39418399Y-36335883D01*
X39439569Y-36334031D01*
X39439746Y-36334000D01*
X39439747Y-36334000D01*
X39439748Y-36333999D01*
X39439928Y-36333968D01*
X39460440Y-36328470D01*
X39496851Y-36322051D01*
X39528868Y-36303565D01*
X39548106Y-36294595D01*
X39548269Y-36294500D01*
X39548276Y-36294498D01*
X39548281Y-36294493D01*
X39548448Y-36294397D01*
X39565832Y-36282223D01*
X39597849Y-36263739D01*
X39597851Y-36263736D01*
X39606155Y-36256769D01*
X39607935Y-36258890D01*
X39652477Y-36229255D01*
X39722338Y-36228143D01*
X39781710Y-36264978D01*
X39811742Y-36328064D01*
X39813300Y-36347661D01*
X39813300Y-36834156D01*
X39793615Y-36901195D01*
X39776982Y-36921836D01*
X39737339Y-36961480D01*
X39676017Y-36994966D01*
X39649657Y-36997800D01*
X39099064Y-36997800D01*
X39095909Y-36998356D01*
X39091600Y-36999116D01*
X39070437Y-37000967D01*
X39070074Y-37001031D01*
X39049558Y-37006527D01*
X39013151Y-37012947D01*
X38981131Y-37031434D01*
X38961885Y-37040408D01*
X38961576Y-37040587D01*
X38944174Y-37052770D01*
X38918898Y-37067365D01*
X38912149Y-37071262D01*
X38888388Y-37099579D01*
X38873357Y-37114611D01*
X38873134Y-37114877D01*
X38860949Y-37132279D01*
X38837187Y-37160597D01*
X38824544Y-37195334D01*
X38815566Y-37214588D01*
X38815439Y-37214936D01*
X38809942Y-37235449D01*
X38797301Y-37270182D01*
X38797300Y-37270190D01*
X38797300Y-37307149D01*
X38795448Y-37328314D01*
X38795448Y-37328680D01*
X38797300Y-37349851D01*
X38797300Y-37386812D01*
X38809943Y-37421549D01*
X38815440Y-37442065D01*
X38815566Y-37442411D01*
X38824542Y-37461661D01*
X38837187Y-37496402D01*
X38860945Y-37524715D01*
X38873132Y-37542119D01*
X38873366Y-37542398D01*
X38888387Y-37557419D01*
X38912151Y-37585739D01*
X38944172Y-37604227D01*
X38961576Y-37616413D01*
X38961884Y-37616591D01*
X38981133Y-37625567D01*
X39013149Y-37644051D01*
X39049560Y-37650471D01*
X39070072Y-37655967D01*
X39070248Y-37655998D01*
X39070253Y-37656000D01*
X39070258Y-37656000D01*
X39070438Y-37656032D01*
X39091600Y-37657883D01*
X39099065Y-37659200D01*
X39820851Y-37659200D01*
X39826252Y-37659435D01*
X39867267Y-37663024D01*
X39907037Y-37652366D01*
X39912297Y-37651200D01*
X39952851Y-37644051D01*
X39952855Y-37644048D01*
X39957248Y-37642450D01*
X39975662Y-37634822D01*
X39979910Y-37632841D01*
X39979916Y-37632840D01*
X40013642Y-37609223D01*
X40018190Y-37606325D01*
X40053849Y-37585739D01*
X40080319Y-37554191D01*
X40083959Y-37550219D01*
X40365719Y-37268459D01*
X40369691Y-37264819D01*
X40401239Y-37238349D01*
X40421823Y-37202694D01*
X40424715Y-37198154D01*
X40448340Y-37164417D01*
X40448341Y-37164411D01*
X40450314Y-37160181D01*
X40457950Y-37141748D01*
X40459550Y-37137352D01*
X40459551Y-37137351D01*
X40466702Y-37096785D01*
X40467868Y-37091528D01*
X40478523Y-37051767D01*
X40474933Y-37010734D01*
X40474700Y-37005380D01*
X40474700Y-36678680D01*
X40737448Y-36678680D01*
X40739300Y-36699851D01*
X40739300Y-36736812D01*
X40743062Y-36747149D01*
X40750765Y-36768314D01*
X40751943Y-36771549D01*
X40757440Y-36792065D01*
X40757566Y-36792411D01*
X40766542Y-36811661D01*
X40779187Y-36846402D01*
X40802945Y-36874715D01*
X40815132Y-36892119D01*
X40815366Y-36892398D01*
X40830387Y-36907419D01*
X40854151Y-36935739D01*
X40886172Y-36954227D01*
X40903576Y-36966413D01*
X40903884Y-36966591D01*
X40923133Y-36975567D01*
X40955149Y-36994051D01*
X40991560Y-37000471D01*
X41012072Y-37005967D01*
X41012248Y-37005998D01*
X41012253Y-37006000D01*
X41012258Y-37006000D01*
X41012438Y-37006032D01*
X41033600Y-37007883D01*
X41041065Y-37009200D01*
X42502851Y-37009200D01*
X42508252Y-37009435D01*
X42549267Y-37013024D01*
X42589037Y-37002366D01*
X42594297Y-37001200D01*
X42634851Y-36994051D01*
X42634855Y-36994048D01*
X42639248Y-36992450D01*
X42657662Y-36984822D01*
X42661910Y-36982841D01*
X42661916Y-36982840D01*
X42695642Y-36959223D01*
X42700190Y-36956325D01*
X42735849Y-36935739D01*
X42762319Y-36904191D01*
X42765959Y-36900219D01*
X43351719Y-36314459D01*
X43355691Y-36310819D01*
X43387239Y-36284349D01*
X43407823Y-36248694D01*
X43410715Y-36244154D01*
X43434340Y-36210417D01*
X43434341Y-36210411D01*
X43436314Y-36206181D01*
X43443950Y-36187748D01*
X43445548Y-36183356D01*
X43445551Y-36183351D01*
X43448839Y-36164697D01*
X43452701Y-36142800D01*
X43453868Y-36137530D01*
X43464524Y-36097767D01*
X43460935Y-36056752D01*
X43460700Y-36051349D01*
X43460700Y-26852435D01*
X43480385Y-26785396D01*
X43526243Y-26743078D01*
X43675698Y-26663194D01*
X43824541Y-26541041D01*
X43864377Y-26492501D01*
X44857704Y-26492501D01*
X44876863Y-26760384D01*
X44933948Y-27022797D01*
X44933950Y-27022804D01*
X44992222Y-27179037D01*
X45027803Y-27274435D01*
X45027805Y-27274439D01*
X45156508Y-27510140D01*
X45156513Y-27510148D01*
X45317449Y-27725134D01*
X45317465Y-27725152D01*
X45507347Y-27915034D01*
X45507365Y-27915050D01*
X45722351Y-28075986D01*
X45722359Y-28075991D01*
X45958060Y-28204694D01*
X45958064Y-28204696D01*
X45958066Y-28204697D01*
X46209696Y-28298550D01*
X46272394Y-28312189D01*
X46472115Y-28355636D01*
X46472117Y-28355636D01*
X46472121Y-28355637D01*
X46710174Y-28372662D01*
X46739999Y-28374796D01*
X46740000Y-28374796D01*
X46740001Y-28374796D01*
X46766837Y-28372876D01*
X47007879Y-28355637D01*
X47014444Y-28354209D01*
X47045576Y-28347436D01*
X47270304Y-28298550D01*
X47521934Y-28204697D01*
X47757646Y-28075988D01*
X47972642Y-27915044D01*
X48162544Y-27725142D01*
X48323488Y-27510146D01*
X48452197Y-27274434D01*
X48546050Y-27022804D01*
X48603137Y-26760379D01*
X48622296Y-26492500D01*
X48603137Y-26224621D01*
X48602650Y-26222384D01*
X48574593Y-26093408D01*
X48546050Y-25962196D01*
X48452197Y-25710566D01*
X48323488Y-25474854D01*
X48320315Y-25470615D01*
X48162550Y-25259865D01*
X48162534Y-25259847D01*
X47972652Y-25069965D01*
X47972634Y-25069949D01*
X47757648Y-24909013D01*
X47757640Y-24909008D01*
X47521939Y-24780305D01*
X47521935Y-24780303D01*
X47426537Y-24744722D01*
X47270304Y-24686450D01*
X47270300Y-24686449D01*
X47270297Y-24686448D01*
X47007884Y-24629363D01*
X46740001Y-24610204D01*
X46739999Y-24610204D01*
X46472115Y-24629363D01*
X46209702Y-24686448D01*
X46209697Y-24686449D01*
X46209696Y-24686450D01*
X46148858Y-24709141D01*
X45958064Y-24780303D01*
X45958060Y-24780305D01*
X45722359Y-24909008D01*
X45722351Y-24909013D01*
X45507365Y-25069949D01*
X45507347Y-25069965D01*
X45317465Y-25259847D01*
X45317449Y-25259865D01*
X45156513Y-25474851D01*
X45156508Y-25474859D01*
X45027805Y-25710560D01*
X45027803Y-25710564D01*
X44933948Y-25962202D01*
X44876863Y-26224615D01*
X44857704Y-26492498D01*
X44857704Y-26492501D01*
X43864377Y-26492501D01*
X43946694Y-26392198D01*
X44037462Y-26222383D01*
X44093357Y-26038124D01*
X44112230Y-25846500D01*
X44093357Y-25654876D01*
X44037462Y-25470617D01*
X43946694Y-25300802D01*
X43946693Y-25300800D01*
X43824541Y-25151958D01*
X43675699Y-25029806D01*
X43675692Y-25029802D01*
X43505884Y-24939038D01*
X43321626Y-24883143D01*
X43130000Y-24864270D01*
X42938373Y-24883143D01*
X42754115Y-24939038D01*
X42584307Y-25029802D01*
X42584300Y-25029806D01*
X42435458Y-25151958D01*
X42313306Y-25300800D01*
X42313302Y-25300807D01*
X42222538Y-25470615D01*
X42166643Y-25654873D01*
X42147770Y-25846499D01*
X42166643Y-26038126D01*
X42222538Y-26222384D01*
X42313302Y-26392192D01*
X42313306Y-26392199D01*
X42435458Y-26541041D01*
X42539036Y-26626045D01*
X42584302Y-26663194D01*
X42733755Y-26743078D01*
X42783597Y-26792039D01*
X42799300Y-26852435D01*
X42799300Y-35880158D01*
X42779615Y-35947197D01*
X42762981Y-35967839D01*
X42419339Y-36311481D01*
X42358016Y-36344966D01*
X42331658Y-36347800D01*
X41041064Y-36347800D01*
X41037909Y-36348356D01*
X41033600Y-36349116D01*
X41012437Y-36350967D01*
X41012074Y-36351031D01*
X40991558Y-36356527D01*
X40955151Y-36362947D01*
X40923131Y-36381434D01*
X40903885Y-36390408D01*
X40903576Y-36390587D01*
X40886174Y-36402770D01*
X40860898Y-36417365D01*
X40854149Y-36421262D01*
X40830388Y-36449579D01*
X40815357Y-36464611D01*
X40815134Y-36464877D01*
X40802949Y-36482279D01*
X40779187Y-36510597D01*
X40766544Y-36545334D01*
X40757566Y-36564588D01*
X40757439Y-36564936D01*
X40751942Y-36585449D01*
X40739301Y-36620182D01*
X40739300Y-36620190D01*
X40739300Y-36657149D01*
X40737448Y-36678314D01*
X40737448Y-36678680D01*
X40474700Y-36678680D01*
X40474700Y-35432841D01*
X40494385Y-35365801D01*
X40511015Y-35345164D01*
X40811720Y-35044458D01*
X40815691Y-35040819D01*
X40847239Y-35014349D01*
X40867823Y-34978694D01*
X40870715Y-34974154D01*
X40894340Y-34940417D01*
X40894341Y-34940411D01*
X40896314Y-34936181D01*
X40903950Y-34917748D01*
X40905548Y-34913356D01*
X40905551Y-34913351D01*
X40908839Y-34894697D01*
X40912701Y-34872800D01*
X40913868Y-34867530D01*
X40924524Y-34827767D01*
X40920935Y-34786752D01*
X40920700Y-34781349D01*
X40920700Y-26852435D01*
X40940385Y-26785396D01*
X40986243Y-26743078D01*
X41135698Y-26663194D01*
X41284541Y-26541041D01*
X41406694Y-26392198D01*
X41497462Y-26222383D01*
X41553357Y-26038124D01*
X41572230Y-25846500D01*
X41553357Y-25654876D01*
X41497462Y-25470617D01*
X41406694Y-25300802D01*
X41406693Y-25300800D01*
X41284541Y-25151958D01*
X41135699Y-25029806D01*
X41135692Y-25029802D01*
X40965884Y-24939038D01*
X40781626Y-24883143D01*
X40590000Y-24864270D01*
X40398373Y-24883143D01*
X40214115Y-24939038D01*
X40044307Y-25029802D01*
X40044300Y-25029806D01*
X39895458Y-25151958D01*
X39773306Y-25300800D01*
X39773302Y-25300807D01*
X39682538Y-25470615D01*
X39626643Y-25654873D01*
X39607770Y-25846499D01*
X39626643Y-26038126D01*
X39682538Y-26222384D01*
X39773302Y-26392192D01*
X39773306Y-26392199D01*
X39895458Y-26541041D01*
X39999036Y-26626045D01*
X40044302Y-26663194D01*
X40193755Y-26743078D01*
X40243597Y-26792039D01*
X40259300Y-26852435D01*
X40259300Y-34610157D01*
X40239615Y-34677196D01*
X40222981Y-34697838D01*
X39922293Y-34998526D01*
X39918305Y-35002180D01*
X39886764Y-35028648D01*
X39886758Y-35028654D01*
X39866177Y-35064300D01*
X39863272Y-35068861D01*
X39839659Y-35102584D01*
X39837706Y-35106771D01*
X39830025Y-35125318D01*
X39828447Y-35129653D01*
X39821300Y-35170189D01*
X39820129Y-35175472D01*
X39809475Y-35215232D01*
X39811009Y-35232755D01*
X39812955Y-35255003D01*
X39813064Y-35256242D01*
X39813300Y-35261649D01*
X39813300Y-35665338D01*
X39793615Y-35732377D01*
X39740811Y-35778132D01*
X39671653Y-35788076D01*
X39608097Y-35759051D01*
X39601365Y-35752211D01*
X39597849Y-35749261D01*
X39597849Y-35749260D01*
X39565827Y-35730772D01*
X39548436Y-35718594D01*
X39548121Y-35718412D01*
X39528870Y-35709435D01*
X39496851Y-35690949D01*
X39475897Y-35687254D01*
X39460440Y-35684528D01*
X39439919Y-35679030D01*
X39439566Y-35678968D01*
X39418399Y-35677116D01*
X39410935Y-35675800D01*
X38961161Y-35675800D01*
X38894122Y-35656115D01*
X38848367Y-35603311D01*
X38838423Y-35534153D01*
X38867448Y-35470597D01*
X38874287Y-35463864D01*
X38877234Y-35460352D01*
X38877239Y-35460349D01*
X38935551Y-35359351D01*
X38950700Y-35273435D01*
X38950700Y-35265851D01*
X38952552Y-35244680D01*
X38952552Y-35244314D01*
X38950700Y-35223149D01*
X38950700Y-33483649D01*
X38950936Y-33478243D01*
X38954524Y-33437234D01*
X38954524Y-33437233D01*
X38943868Y-33397469D01*
X38942700Y-33392199D01*
X38935551Y-33351650D01*
X38933965Y-33347294D01*
X38926298Y-33328783D01*
X38924340Y-33324585D01*
X38924340Y-33324584D01*
X38900727Y-33290860D01*
X38897820Y-33286298D01*
X38877239Y-33250651D01*
X38845704Y-33224190D01*
X38841715Y-33220534D01*
X38417019Y-32795838D01*
X38383534Y-32734515D01*
X38380700Y-32708157D01*
X38380700Y-26852435D01*
X38400385Y-26785396D01*
X38446243Y-26743078D01*
X38595698Y-26663194D01*
X38744541Y-26541041D01*
X38866694Y-26392198D01*
X38957462Y-26222383D01*
X39013357Y-26038124D01*
X39032230Y-25846500D01*
X39013357Y-25654876D01*
X38957462Y-25470617D01*
X38866694Y-25300802D01*
X38866693Y-25300800D01*
X38744541Y-25151958D01*
X38595699Y-25029806D01*
X38595692Y-25029802D01*
X38425884Y-24939038D01*
X38241626Y-24883143D01*
X38050000Y-24864270D01*
X37858373Y-24883143D01*
X37674115Y-24939038D01*
X37504307Y-25029802D01*
X37504300Y-25029806D01*
X37355458Y-25151958D01*
X37233306Y-25300800D01*
X37233302Y-25300807D01*
X37142538Y-25470615D01*
X37086643Y-25654873D01*
X37067770Y-25846499D01*
X37086643Y-26038126D01*
X37142538Y-26222384D01*
X37233302Y-26392192D01*
X37233306Y-26392199D01*
X37355458Y-26541041D01*
X37459036Y-26626045D01*
X37504302Y-26663194D01*
X37653755Y-26743078D01*
X37703597Y-26792039D01*
X37719300Y-26852435D01*
X37719300Y-29258757D01*
X37699615Y-29325796D01*
X37646811Y-29371551D01*
X37577653Y-29381495D01*
X37514097Y-29352470D01*
X37507619Y-29346438D01*
X35877019Y-27715838D01*
X35843534Y-27654515D01*
X35840700Y-27628157D01*
X35840700Y-26852435D01*
X35860385Y-26785396D01*
X35906243Y-26743078D01*
X36055698Y-26663194D01*
X36204541Y-26541041D01*
X36326694Y-26392198D01*
X36417462Y-26222383D01*
X36473357Y-26038124D01*
X36492230Y-25846500D01*
X36473357Y-25654876D01*
X36417462Y-25470617D01*
X36326694Y-25300802D01*
X36326693Y-25300800D01*
X36204541Y-25151958D01*
X36055699Y-25029806D01*
X36055692Y-25029802D01*
X35885884Y-24939038D01*
X35701626Y-24883143D01*
X35510000Y-24864270D01*
X35318373Y-24883143D01*
X35134115Y-24939038D01*
X34964307Y-25029802D01*
X34964300Y-25029806D01*
X34815458Y-25151958D01*
X34693306Y-25300800D01*
X34693302Y-25300807D01*
X34602538Y-25470615D01*
X34546643Y-25654873D01*
X34527770Y-25846499D01*
X34546643Y-26038126D01*
X34602538Y-26222384D01*
X34693302Y-26392192D01*
X34693306Y-26392199D01*
X34815458Y-26541041D01*
X34919036Y-26626045D01*
X34964302Y-26663194D01*
X35113755Y-26743078D01*
X35163597Y-26792039D01*
X35179300Y-26852435D01*
X35179300Y-27799349D01*
X35179064Y-27804755D01*
X35175475Y-27845767D01*
X35186129Y-27885528D01*
X35187300Y-27890810D01*
X35194449Y-27931352D01*
X35196033Y-27935704D01*
X35203702Y-27954218D01*
X35205659Y-27958415D01*
X35224354Y-27985114D01*
X35246681Y-28051320D01*
X35229671Y-28119087D01*
X35178723Y-28166900D01*
X35110013Y-28179578D01*
X35045356Y-28153096D01*
X35035098Y-28143918D01*
X34923019Y-28031839D01*
X34889534Y-27970516D01*
X34886700Y-27944158D01*
X34886700Y-27449649D01*
X34886936Y-27444243D01*
X34890524Y-27403234D01*
X34890524Y-27403233D01*
X34879868Y-27363469D01*
X34878700Y-27358199D01*
X34877153Y-27349427D01*
X34871551Y-27317649D01*
X34871550Y-27317647D01*
X34869965Y-27313294D01*
X34862298Y-27294783D01*
X34860340Y-27290585D01*
X34860340Y-27290584D01*
X34836727Y-27256860D01*
X34833820Y-27252298D01*
X34813239Y-27216651D01*
X34781705Y-27190191D01*
X34777716Y-27186535D01*
X34351222Y-26760041D01*
X33915143Y-26323963D01*
X33881659Y-26262641D01*
X33884165Y-26200287D01*
X33933356Y-26038126D01*
X33933357Y-26038124D01*
X33952230Y-25846500D01*
X33933357Y-25654876D01*
X33877462Y-25470617D01*
X33786694Y-25300802D01*
X33786693Y-25300800D01*
X33664541Y-25151958D01*
X33515699Y-25029806D01*
X33515692Y-25029802D01*
X33345884Y-24939038D01*
X33161626Y-24883143D01*
X32970000Y-24864270D01*
X32778373Y-24883143D01*
X32594115Y-24939038D01*
X32424307Y-25029802D01*
X32424300Y-25029806D01*
X32275458Y-25151958D01*
X32153306Y-25300800D01*
X32153302Y-25300807D01*
X32062538Y-25470615D01*
X32006643Y-25654873D01*
X31987770Y-25846499D01*
X32006643Y-26038126D01*
X32062538Y-26222384D01*
X32153302Y-26392192D01*
X32153306Y-26392199D01*
X32275458Y-26541041D01*
X32424300Y-26663193D01*
X32424307Y-26663197D01*
X32552475Y-26731704D01*
X32594117Y-26753962D01*
X32778376Y-26809857D01*
X32970000Y-26828730D01*
X33161624Y-26809857D01*
X33300701Y-26767668D01*
X33323787Y-26760665D01*
X33393654Y-26760041D01*
X33447464Y-26791644D01*
X34188981Y-27533161D01*
X34222466Y-27594484D01*
X34225300Y-27620842D01*
X34225300Y-28050757D01*
X34205615Y-28117796D01*
X34152811Y-28163551D01*
X34083653Y-28173495D01*
X34020097Y-28144470D01*
X34013619Y-28138438D01*
X33785969Y-27910789D01*
X33782319Y-27906806D01*
X33755849Y-27875261D01*
X33720196Y-27854676D01*
X33715648Y-27851779D01*
X33681916Y-27828160D01*
X33681914Y-27828159D01*
X33681912Y-27828158D01*
X33677718Y-27826202D01*
X33659204Y-27818533D01*
X33654852Y-27816949D01*
X33614310Y-27809800D01*
X33609028Y-27808629D01*
X33569266Y-27797975D01*
X33537098Y-27800790D01*
X33528251Y-27801564D01*
X33522851Y-27801800D01*
X32904342Y-27801800D01*
X32837303Y-27782115D01*
X32816661Y-27765481D01*
X31375144Y-26323964D01*
X31341659Y-26262641D01*
X31344165Y-26200287D01*
X31393356Y-26038126D01*
X31393357Y-26038124D01*
X31412230Y-25846500D01*
X31393357Y-25654876D01*
X31337462Y-25470617D01*
X31246694Y-25300802D01*
X31246693Y-25300800D01*
X31124541Y-25151958D01*
X30975699Y-25029806D01*
X30975692Y-25029802D01*
X30805884Y-24939038D01*
X30621626Y-24883143D01*
X30430000Y-24864270D01*
X30238373Y-24883143D01*
X30054115Y-24939038D01*
X29884307Y-25029802D01*
X29884300Y-25029806D01*
X29735458Y-25151958D01*
X29613306Y-25300800D01*
X29613302Y-25300807D01*
X29522538Y-25470615D01*
X29466643Y-25654873D01*
X29447770Y-25846499D01*
X28872230Y-25846499D01*
X28853357Y-25654876D01*
X28797462Y-25470617D01*
X28706694Y-25300802D01*
X28706693Y-25300800D01*
X28584541Y-25151958D01*
X28435699Y-25029806D01*
X28435692Y-25029802D01*
X28265884Y-24939038D01*
X28081626Y-24883143D01*
X27890000Y-24864270D01*
X27698373Y-24883143D01*
X27514115Y-24939038D01*
X27344307Y-25029802D01*
X27344300Y-25029806D01*
X27195458Y-25151958D01*
X27073306Y-25300800D01*
X27073302Y-25300807D01*
X26982538Y-25470615D01*
X26926643Y-25654873D01*
X26907770Y-25846499D01*
X23502897Y-25846499D01*
X23452197Y-25710566D01*
X23323488Y-25474854D01*
X23320315Y-25470615D01*
X23162550Y-25259865D01*
X23162534Y-25259847D01*
X22972652Y-25069965D01*
X22972634Y-25069949D01*
X22757648Y-24909013D01*
X22757640Y-24909008D01*
X22521939Y-24780305D01*
X22521935Y-24780303D01*
X22426537Y-24744722D01*
X22270304Y-24686450D01*
X22270300Y-24686449D01*
X22270297Y-24686448D01*
X22007884Y-24629363D01*
X21740001Y-24610204D01*
X21739999Y-24610204D01*
X21472115Y-24629363D01*
X21209702Y-24686448D01*
X21209697Y-24686449D01*
X21209696Y-24686450D01*
X21148858Y-24709141D01*
X20958064Y-24780303D01*
X20958060Y-24780305D01*
X20722359Y-24909008D01*
X20722351Y-24909013D01*
X20507365Y-25069949D01*
X20507347Y-25069965D01*
X20317465Y-25259847D01*
X20317449Y-25259865D01*
X20156513Y-25474851D01*
X20156508Y-25474859D01*
X20027805Y-25710560D01*
X20027803Y-25710564D01*
X19933948Y-25962202D01*
X19876863Y-26224615D01*
X19857704Y-26492498D01*
X19857704Y-26492501D01*
X19494500Y-26492501D01*
X19494500Y-24371000D01*
X19514185Y-24303961D01*
X19566989Y-24258206D01*
X19618500Y-24247000D01*
X48861500Y-24247000D01*
X48928539Y-24266685D01*
G37*
%TD.AperFunction*%
%TD*%
%TA.AperFunction,Conductor*%
%TO.N,Net-(F1-Pad1)*%
G36*
X41299497Y-54568185D02*
G01*
X41345252Y-54620989D01*
X41355196Y-54690147D01*
X41354579Y-54693997D01*
X41335448Y-54802500D01*
X41355502Y-54916237D01*
X41355505Y-54916244D01*
X41397387Y-54988785D01*
X41414000Y-55050785D01*
X41414000Y-55062215D01*
X41397387Y-55124215D01*
X41355505Y-55196755D01*
X41355502Y-55196762D01*
X41335448Y-55310499D01*
X41335448Y-55310500D01*
X41355502Y-55424237D01*
X41355505Y-55424244D01*
X41397386Y-55496783D01*
X41413999Y-55558783D01*
X41413999Y-55818499D01*
X41414000Y-55818499D01*
X41414000Y-55818500D01*
X42306000Y-55818500D01*
X42373039Y-55838185D01*
X42418794Y-55890989D01*
X42430000Y-55942500D01*
X42430000Y-56326500D01*
X44592000Y-56326500D01*
X44659039Y-56346185D01*
X44704794Y-56398989D01*
X44716000Y-56450500D01*
X44716000Y-62806500D01*
X44696315Y-62873539D01*
X44643511Y-62919294D01*
X44592000Y-62930500D01*
X44333401Y-62930500D01*
X44266362Y-62910815D01*
X44220607Y-62858011D01*
X44212518Y-62810320D01*
X44210620Y-62810496D01*
X44199993Y-62695805D01*
X44199993Y-62695802D01*
X44153772Y-62602978D01*
X44077140Y-62533119D01*
X43980447Y-62495660D01*
X43902901Y-62495660D01*
X43872408Y-62501360D01*
X43826668Y-62509910D01*
X43738506Y-62564498D01*
X43738503Y-62564501D01*
X43676020Y-62647243D01*
X43676015Y-62647252D01*
X43647640Y-62746983D01*
X43647639Y-62746984D01*
X43652094Y-62795061D01*
X43638678Y-62863630D01*
X43590320Y-62914061D01*
X43528623Y-62930500D01*
X41284000Y-62930500D01*
X41216961Y-62910815D01*
X41171206Y-62858011D01*
X41160000Y-62806500D01*
X41160000Y-60136500D01*
X43367448Y-60136500D01*
X43387502Y-60250237D01*
X43387505Y-60250244D01*
X43445247Y-60350256D01*
X43445248Y-60350257D01*
X43445250Y-60350260D01*
X43533724Y-60424498D01*
X43642253Y-60464000D01*
X43642254Y-60464000D01*
X43757745Y-60464000D01*
X43757747Y-60464000D01*
X43866276Y-60424498D01*
X43954750Y-60350260D01*
X44012497Y-60250239D01*
X44012497Y-60250235D01*
X44016208Y-60240043D01*
X44017778Y-60240614D01*
X44043232Y-60189244D01*
X44046625Y-60185712D01*
X44110337Y-60122000D01*
X44116812Y-60116368D01*
X44125594Y-60109736D01*
X44125599Y-60109734D01*
X44155551Y-60076877D01*
X44157481Y-60074856D01*
X44170258Y-60062081D01*
X44171501Y-60060265D01*
X44176840Y-60053525D01*
X44178797Y-60051378D01*
X44196098Y-60032401D01*
X44198071Y-60027307D01*
X44211397Y-60002023D01*
X44214486Y-59997516D01*
X44221032Y-59969680D01*
X44223568Y-59961489D01*
X44233900Y-59934822D01*
X44233900Y-59929350D01*
X44237194Y-59900960D01*
X44238443Y-59895651D01*
X44234494Y-59867344D01*
X44233899Y-59858768D01*
X44233899Y-59710582D01*
X44233899Y-59433308D01*
X44234495Y-59424742D01*
X44236014Y-59413846D01*
X44236017Y-59413840D01*
X44233966Y-59369465D01*
X44233900Y-59366603D01*
X44233900Y-59348567D01*
X44233900Y-59348565D01*
X44233495Y-59346405D01*
X44232504Y-59337858D01*
X44231185Y-59309307D01*
X44228979Y-59304311D01*
X44220524Y-59277006D01*
X44219520Y-59271638D01*
X44219520Y-59271637D01*
X44204468Y-59247329D01*
X44200466Y-59239738D01*
X44188916Y-59213578D01*
X44185052Y-59209714D01*
X44167306Y-59187310D01*
X44164431Y-59182667D01*
X44141620Y-59165440D01*
X44135135Y-59159797D01*
X44046650Y-59071312D01*
X44016843Y-59016725D01*
X44016208Y-59016957D01*
X44014685Y-59012772D01*
X44013165Y-59009989D01*
X44012568Y-59006957D01*
X44012496Y-59006759D01*
X43954752Y-58906743D01*
X43954751Y-58906742D01*
X43954750Y-58906740D01*
X43866276Y-58832502D01*
X43757747Y-58793000D01*
X43642253Y-58793000D01*
X43533723Y-58832501D01*
X43533724Y-58832502D01*
X43445249Y-58906741D01*
X43445247Y-58906743D01*
X43387505Y-59006755D01*
X43387502Y-59006762D01*
X43367448Y-59120499D01*
X43367448Y-59120500D01*
X43387502Y-59234237D01*
X43387505Y-59234244D01*
X43445247Y-59334256D01*
X43445248Y-59334257D01*
X43445250Y-59334260D01*
X43533724Y-59408498D01*
X43533727Y-59408499D01*
X43533729Y-59408500D01*
X43592509Y-59429894D01*
X43648773Y-59471319D01*
X43673710Y-59536587D01*
X43674100Y-59546416D01*
X43674100Y-59710582D01*
X43654415Y-59777621D01*
X43601611Y-59823376D01*
X43592513Y-59827103D01*
X43533726Y-59848501D01*
X43533725Y-59848501D01*
X43445249Y-59922741D01*
X43445247Y-59922743D01*
X43387505Y-60022755D01*
X43387502Y-60022762D01*
X43367448Y-60136499D01*
X43367448Y-60136500D01*
X41160000Y-60136500D01*
X41160000Y-57850500D01*
X40039900Y-57850500D01*
X39972861Y-57830815D01*
X39927106Y-57778011D01*
X39915900Y-57726500D01*
X39915900Y-56965943D01*
X43647639Y-56965943D01*
X43657206Y-57069194D01*
X43657206Y-57069196D01*
X43657207Y-57069198D01*
X43703428Y-57162022D01*
X43780060Y-57231881D01*
X43876753Y-57269340D01*
X43876755Y-57269340D01*
X43954297Y-57269340D01*
X43954299Y-57269340D01*
X44030529Y-57255090D01*
X44118693Y-57200502D01*
X44181183Y-57117751D01*
X44209560Y-57018015D01*
X44199993Y-56914762D01*
X44153772Y-56821938D01*
X44077140Y-56752079D01*
X43980447Y-56714620D01*
X43902901Y-56714620D01*
X43872408Y-56720320D01*
X43826668Y-56728870D01*
X43738506Y-56783458D01*
X43738503Y-56783461D01*
X43676020Y-56866203D01*
X43676015Y-56866212D01*
X43647640Y-56965943D01*
X43647639Y-56965943D01*
X39915900Y-56965943D01*
X39915900Y-56639322D01*
X39916495Y-56630746D01*
X39918014Y-56619846D01*
X39918017Y-56619840D01*
X39915966Y-56575465D01*
X39915900Y-56572603D01*
X39915900Y-56554567D01*
X39915900Y-56554565D01*
X39915495Y-56552405D01*
X39914504Y-56543858D01*
X39913185Y-56515307D01*
X39910979Y-56510311D01*
X39902524Y-56483006D01*
X39901520Y-56477638D01*
X39901520Y-56477637D01*
X39886468Y-56453329D01*
X39882466Y-56445738D01*
X39870916Y-56419578D01*
X39867052Y-56415714D01*
X39849306Y-56393310D01*
X39846431Y-56388667D01*
X39823620Y-56371440D01*
X39817135Y-56365797D01*
X39698219Y-56246881D01*
X39664734Y-56185558D01*
X39661900Y-56159200D01*
X39661900Y-54672500D01*
X39681585Y-54605461D01*
X39734389Y-54559706D01*
X39785900Y-54548500D01*
X41232458Y-54548500D01*
X41299497Y-54568185D01*
G37*
%TD.AperFunction*%
%TD*%
%TA.AperFunction,Conductor*%
%TO.N,Net-(D1-K)*%
G36*
X32213039Y-45170185D02*
G01*
X32258794Y-45222989D01*
X32270000Y-45274500D01*
X32270000Y-49598500D01*
X32250315Y-49665539D01*
X32197511Y-49711294D01*
X32146000Y-49722500D01*
X30616000Y-49722500D01*
X30548961Y-49702815D01*
X30503206Y-49650011D01*
X30492000Y-49598500D01*
X30492000Y-45274500D01*
X30511685Y-45207461D01*
X30564489Y-45161706D01*
X30616000Y-45150500D01*
X32146000Y-45150500D01*
X32213039Y-45170185D01*
G37*
%TD.AperFunction*%
%TD*%
M02*
