M48
; DRILL file {KiCad 7.99.0-728-gadc213a04d-dirty} date Sat 29 Apr 2023 04:02:42 AM CST
; FORMAT={-:-/ absolute / inch / decimal}
; #@! TF.CreationDate,2023-04-29T04:02:42+08:00
; #@! TF.GenerationSoftware,Kicad,Pcbnew,7.99.0-728-gadc213a04d-dirty
; #@! TF.FileFunction,Plated,1,2,PTH
FMAT,2
INCH
; #@! TA.AperFunction,Plated,PTH,ViaDrill
T1C0.0118
; #@! TA.AperFunction,Plated,PTH,ComponentDrill
T2C0.0236
; #@! TA.AperFunction,Plated,PTH,ComponentDrill
T3C0.0394
; #@! TA.AperFunction,Plated,PTH,ComponentDrill
T4C0.0866
%
G90
G05
T1
X4.0Y-5.22
X4.04Y-5.15
X4.05Y-5.1
X4.06Y-5.35
X4.1Y-4.19
X4.1Y-4.57
X4.1Y-4.88
X4.13Y-4.9361
X4.15Y-4.33
X4.17Y-5.17
X4.19Y-5.17
X4.2Y-4.18
X4.2Y-4.74
X4.21Y-5.17
X4.23Y-4.18
X4.23Y-5.17
X4.24Y-4.73
X4.25Y-4.47
X4.26Y-4.18
X4.27Y-4.92
X4.27Y-5.07
X4.3Y-4.3
X4.3Y-5.13
X4.32Y-4.65
X4.32Y-4.78
X4.34Y-4.82
X4.35Y-4.73
X4.35Y-5.12
X4.358Y-4.96
X4.36Y-4.92
X4.4Y-4.74
X4.41Y-5.05
X4.42Y-4.7654
X4.43Y-4.64
X4.45Y-4.9
X4.47Y-4.25
X4.47Y-4.41
X4.48Y-4.34
X4.48Y-4.86
X4.49Y-5.05
X4.55Y-4.28
X4.55Y-4.83
X4.55Y-4.99
X4.58Y-4.84
X4.59Y-4.57
X4.6Y-5.37
X4.61Y-4.95
X4.63Y-4.69
X4.66Y-5.13
X4.69Y-5.14
X4.7Y-4.95
X4.72Y-5.14
X4.73Y-4.6
X4.74Y-4.2853
X4.74Y-5.42
X4.76Y-5.08
X4.76Y-5.1
X4.77Y-4.28
X4.78Y-4.51
X4.79Y-5.16
X4.8Y-4.49
X4.8Y-4.65
X4.8Y-4.7
X4.8Y-4.72
X4.81Y-4.4
X4.81Y-5.36
X4.82Y-4.37
X4.82Y-4.65
X4.82Y-5.17
X4.82Y-5.42
X4.83Y-4.34
X4.84Y-4.27
X4.84Y-4.83
X4.84Y-4.86
X4.84Y-5.48
X4.85Y-4.45
X4.85Y-4.5652
X4.9Y-5.24
X4.9Y-5.2795
X4.93Y-5.02
X4.94Y-4.18
X5.02Y-5.48
X5.05Y-5.02
T3
X4.1776Y-4.01
X4.2776Y-4.01
X4.3776Y-4.01
X4.4776Y-4.01
X4.5776Y-4.01
X4.6776Y-4.01
X4.7776Y-4.01
X4.8776Y-4.01
X5.03Y-4.56
X5.03Y-4.66
X5.03Y-4.76
X5.03Y-4.86
T4
X4.0354Y-4.0354
X4.0354Y-5.6693
X5.0197Y-4.0354
X5.0197Y-5.6693
T2
G00X4.9106Y-5.0799
M15
G01X4.8672Y-5.0799
M16
G05
G00X4.9106Y-5.4201
M15
G01X4.8672Y-5.4201
M16
G05
G00X5.0692Y-5.0799
M15
G01X5.0377Y-5.0799
M16
G05
G00X5.0692Y-5.4201
M15
G01X5.0377Y-5.4201
M16
G05
T0
M30
