%TF.GenerationSoftware,KiCad,Pcbnew,7.99.0-728-gadc213a04d-dirty*%
%TF.CreationDate,2023-05-05T05:39:18+08:00*%
%TF.ProjectId,HeartRateMonitor,48656172-7452-4617-9465-4d6f6e69746f,rev?*%
%TF.SameCoordinates,Original*%
%TF.FileFunction,Drillmap*%
%TF.FilePolarity,Positive*%
%FSLAX45Y45*%
G04 Gerber Fmt 4.5, Leading zero omitted, Abs format (unit mm)*
G04 Created by KiCad (PCBNEW 7.99.0-728-gadc213a04d-dirty) date 2023-05-05 05:39:18*
%MOMM*%
%LPD*%
G01*
G04 APERTURE LIST*
%ADD10C,0.100000*%
%ADD11C,0.200000*%
%ADD12C,0.030000*%
%ADD13C,0.059944*%
%ADD14C,0.220000*%
G04 APERTURE END LIST*
D10*
X10000000Y-10000000D02*
X13000000Y-10000000D01*
X13000000Y-14650000D01*
X10000000Y-14650000D01*
X10000000Y-10000000D01*
D11*
D12*
X10068800Y-12989800D02*
X10098800Y-13019800D01*
X10098800Y-12989800D02*
X10068800Y-13019800D01*
X10068800Y-13142200D02*
X10098800Y-13172200D01*
X10098800Y-13142200D02*
X10068800Y-13172200D01*
X10094200Y-12405600D02*
X10124200Y-12435600D01*
X10124200Y-12405600D02*
X10094200Y-12435600D01*
X10094200Y-12888200D02*
X10124200Y-12918200D01*
X10124200Y-12888200D02*
X10094200Y-12918200D01*
X10119600Y-12024600D02*
X10149600Y-12054600D01*
X10149600Y-12024600D02*
X10119600Y-12054600D01*
X10195800Y-11567400D02*
X10225800Y-11597400D01*
X10225800Y-11567400D02*
X10195800Y-11597400D01*
X10246600Y-11237200D02*
X10276600Y-11267200D01*
X10276600Y-11237200D02*
X10246600Y-11267200D01*
X10297400Y-13320000D02*
X10327400Y-13350000D01*
X10327400Y-13320000D02*
X10297400Y-13350000D01*
X10322800Y-11796000D02*
X10352800Y-11826000D01*
X10352800Y-11796000D02*
X10322800Y-11826000D01*
X10348200Y-13091400D02*
X10378200Y-13121400D01*
X10378200Y-13091400D02*
X10348200Y-13121400D01*
X10373600Y-11846800D02*
X10403600Y-11876800D01*
X10403600Y-11846800D02*
X10373600Y-11876800D01*
X10449800Y-12075400D02*
X10479800Y-12105400D01*
X10479800Y-12075400D02*
X10449800Y-12105400D01*
X10526000Y-13370800D02*
X10556000Y-13400800D01*
X10556000Y-13370800D02*
X10526000Y-13400800D01*
X10552700Y-11262600D02*
X10582700Y-11292600D01*
X10582700Y-11262600D02*
X10552700Y-11292600D01*
X10576800Y-11415000D02*
X10606800Y-11445000D01*
X10606800Y-11415000D02*
X10576800Y-11445000D01*
X10602200Y-12837400D02*
X10632200Y-12867400D01*
X10632200Y-12837400D02*
X10602200Y-12867400D01*
X10602200Y-13142200D02*
X10632200Y-13172200D01*
X10632200Y-13142200D02*
X10602200Y-13172200D01*
X10780000Y-13421600D02*
X10810000Y-13451600D01*
X10810000Y-13421600D02*
X10780000Y-13451600D01*
X10805400Y-11643600D02*
X10835400Y-11673600D01*
X10835400Y-11643600D02*
X10805400Y-11673600D01*
X10805400Y-12634200D02*
X10835400Y-12664200D01*
X10835400Y-12634200D02*
X10805400Y-12664200D01*
X10805400Y-12888200D02*
X10835400Y-12918200D01*
X10835400Y-12888200D02*
X10805400Y-12918200D01*
X10830800Y-10856200D02*
X10860800Y-10886200D01*
X10860800Y-10856200D02*
X10830800Y-10886200D01*
X10830800Y-11999200D02*
X10860800Y-12029200D01*
X10860800Y-11999200D02*
X10830800Y-12029200D01*
X10907000Y-10348200D02*
X10937000Y-10378200D01*
X10937000Y-10348200D02*
X10907000Y-10378200D01*
X10983200Y-10602200D02*
X11013200Y-10632200D01*
X11013200Y-10602200D02*
X10983200Y-10632200D01*
X10983200Y-12939000D02*
X11013200Y-12969000D01*
X11013200Y-12939000D02*
X10983200Y-12969000D01*
X11008600Y-11923000D02*
X11038600Y-11953000D01*
X11038600Y-11923000D02*
X11008600Y-11953000D01*
X11008600Y-12227800D02*
X11038600Y-12257800D01*
X11038600Y-12227800D02*
X11008600Y-12257800D01*
X11186400Y-11059400D02*
X11216400Y-11089400D01*
X11216400Y-11059400D02*
X11186400Y-11089400D01*
X11288000Y-13472400D02*
X11318000Y-13502400D01*
X11318000Y-13472400D02*
X11288000Y-13502400D01*
X11313400Y-11084800D02*
X11343400Y-11114800D01*
X11343400Y-11084800D02*
X11313400Y-11114800D01*
X11338800Y-13015200D02*
X11368800Y-13045200D01*
X11368800Y-13015200D02*
X11338800Y-13045200D01*
X11409550Y-13116800D02*
X11439550Y-13146800D01*
X11439550Y-13116800D02*
X11409550Y-13146800D01*
X11415000Y-11440400D02*
X11445000Y-11470400D01*
X11445000Y-11440400D02*
X11415000Y-11470400D01*
X11415000Y-11669000D02*
X11445000Y-11699000D01*
X11445000Y-11669000D02*
X11415000Y-11699000D01*
X11440400Y-13472400D02*
X11470400Y-13502400D01*
X11470400Y-13472400D02*
X11440400Y-13502400D01*
X11465800Y-12456400D02*
X11495800Y-12486400D01*
X11495800Y-12456400D02*
X11465800Y-12486400D01*
X11465800Y-12786600D02*
X11495800Y-12816600D01*
X11495800Y-12786600D02*
X11465800Y-12816600D01*
X11592800Y-13472400D02*
X11622800Y-13502400D01*
X11622800Y-13472400D02*
X11592800Y-13502400D01*
X11618200Y-13091400D02*
X11648200Y-13121400D01*
X11648200Y-13091400D02*
X11618200Y-13121400D01*
X11643600Y-11008600D02*
X11673600Y-11038600D01*
X11673600Y-11008600D02*
X11643600Y-11038600D01*
X11719800Y-11923000D02*
X11749800Y-11953000D01*
X11749800Y-11923000D02*
X11719800Y-11953000D01*
X11745200Y-13472400D02*
X11775200Y-13502400D01*
X11775200Y-13472400D02*
X11745200Y-13502400D01*
X11796000Y-10983200D02*
X11826000Y-11013200D01*
X11826000Y-10983200D02*
X11796000Y-11013200D01*
X11846800Y-12913600D02*
X11876800Y-12943600D01*
X11876800Y-12913600D02*
X11846800Y-12943600D01*
X11846800Y-13116800D02*
X11876800Y-13146800D01*
X11876800Y-13116800D02*
X11846800Y-13146800D01*
X11923000Y-11110200D02*
X11953000Y-11140200D01*
X11953000Y-11110200D02*
X11923000Y-11140200D01*
X11923000Y-11578600D02*
X11953000Y-11608600D01*
X11953000Y-11578600D02*
X11923000Y-11608600D01*
X11923000Y-11643600D02*
X11953000Y-11673600D01*
X11953000Y-11643600D02*
X11923000Y-11673600D01*
X11923000Y-11897600D02*
X11953000Y-11927600D01*
X11953000Y-11897600D02*
X11923000Y-11927600D01*
X11923000Y-14412200D02*
X11953000Y-14442200D01*
X11953000Y-14412200D02*
X11923000Y-14442200D01*
X11973800Y-11318600D02*
X12003800Y-11348600D01*
X12003800Y-11318600D02*
X11973800Y-11348600D01*
X11973800Y-11821400D02*
X12003800Y-11851400D01*
X12003800Y-11821400D02*
X11973800Y-11851400D01*
X11973800Y-13421600D02*
X12003800Y-13451600D01*
X12003800Y-13421600D02*
X11973800Y-13451600D01*
X11999200Y-11186400D02*
X12029200Y-11216400D01*
X12029200Y-11186400D02*
X11999200Y-11216400D01*
X11999200Y-14285200D02*
X12029200Y-14315200D01*
X12029200Y-14285200D02*
X11999200Y-14315200D01*
X12024600Y-11371570D02*
X12054600Y-11401570D01*
X12054600Y-11371570D02*
X12024600Y-11401570D01*
X12024600Y-13396200D02*
X12054600Y-13426200D01*
X12054600Y-13396200D02*
X12024600Y-13426200D01*
X12024600Y-13853400D02*
X12054600Y-13883400D01*
X12054600Y-13853400D02*
X12024600Y-13883400D01*
X12050000Y-11440400D02*
X12080000Y-11470400D01*
X12080000Y-11440400D02*
X12050000Y-11470400D01*
X12050000Y-11846800D02*
X12080000Y-11876800D01*
X12080000Y-11846800D02*
X12050000Y-11876800D01*
X12050000Y-13066000D02*
X12080000Y-13096000D01*
X12080000Y-13066000D02*
X12050000Y-13096000D01*
X12050000Y-13116800D02*
X12080000Y-13146800D01*
X12080000Y-13116800D02*
X12050000Y-13146800D01*
X12074600Y-13421600D02*
X12104600Y-13451600D01*
X12104600Y-13421600D02*
X12074600Y-13451600D01*
X12100800Y-13066000D02*
X12130800Y-13096000D01*
X12130800Y-13066000D02*
X12100800Y-13096000D01*
X12100800Y-13116800D02*
X12130800Y-13146800D01*
X12130800Y-13116800D02*
X12100800Y-13146800D01*
X12151600Y-13066000D02*
X12181600Y-13096000D01*
X12181600Y-13066000D02*
X12151600Y-13096000D01*
X12151600Y-13116800D02*
X12181600Y-13146800D01*
X12181600Y-13116800D02*
X12151600Y-13146800D01*
X12168000Y-11253600D02*
X12198000Y-11283600D01*
X12198000Y-11253600D02*
X12168000Y-11283600D01*
X12177000Y-12685000D02*
X12207000Y-12715000D01*
X12207000Y-12685000D02*
X12177000Y-12715000D01*
X12202400Y-13751800D02*
X12232400Y-13781800D01*
X12232400Y-13751800D02*
X12202400Y-13781800D01*
X12202400Y-13802600D02*
X12232400Y-13832600D01*
X12232400Y-13802600D02*
X12202400Y-13832600D01*
X12202400Y-13853400D02*
X12232400Y-13883400D01*
X12232400Y-13853400D02*
X12202400Y-13883400D01*
X12227800Y-13066000D02*
X12257800Y-13096000D01*
X12257800Y-13066000D02*
X12227800Y-13096000D01*
X12227800Y-13116800D02*
X12257800Y-13146800D01*
X12257800Y-13116800D02*
X12227800Y-13146800D01*
X12227800Y-13929600D02*
X12257800Y-13959600D01*
X12257800Y-13929600D02*
X12227800Y-13959600D01*
X12227800Y-13980400D02*
X12257800Y-14010400D01*
X12257800Y-13980400D02*
X12227800Y-14010400D01*
X12253200Y-11491200D02*
X12283200Y-11521200D01*
X12283200Y-11491200D02*
X12253200Y-11521200D01*
X12253200Y-13320000D02*
X12283200Y-13350000D01*
X12283200Y-13320000D02*
X12253200Y-13350000D01*
X12253200Y-13370800D02*
X12283200Y-13400800D01*
X12283200Y-13370800D02*
X12253200Y-13400800D01*
X12253200Y-13802600D02*
X12283200Y-13832600D01*
X12283200Y-13802600D02*
X12253200Y-13832600D01*
X12253200Y-14285200D02*
X12283200Y-14315200D01*
X12283200Y-14285200D02*
X12253200Y-14315200D01*
X12405600Y-14285200D02*
X12435600Y-14315200D01*
X12435600Y-14285200D02*
X12405600Y-14315200D01*
X12431000Y-13345400D02*
X12461000Y-13375400D01*
X12461000Y-13345400D02*
X12431000Y-13375400D01*
X12431000Y-13497800D02*
X12461000Y-13527800D01*
X12461000Y-13497800D02*
X12431000Y-13527800D01*
X12431000Y-13599400D02*
X12461000Y-13629400D01*
X12461000Y-13599400D02*
X12431000Y-13629400D01*
X12431000Y-13802600D02*
X12461000Y-13832600D01*
X12461000Y-13802600D02*
X12431000Y-13832600D01*
X12481800Y-12964400D02*
X12511800Y-12994400D01*
X12511800Y-12964400D02*
X12481800Y-12994400D01*
X12481800Y-13751800D02*
X12511800Y-13781800D01*
X12511800Y-13751800D02*
X12481800Y-13781800D01*
X12481800Y-13802600D02*
X12511800Y-13832600D01*
X12511800Y-13802600D02*
X12481800Y-13832600D01*
X12786600Y-12964400D02*
X12816600Y-12994400D01*
X12816600Y-12964400D02*
X12786600Y-12994400D01*
D13*
X12446762Y-13156946D02*
G75*
G03*
X12446762Y-13156946I-29972J0D01*
G01*
D11*
X12376785Y-13186918D02*
X12456795Y-13186918D01*
X12456795Y-13186918D02*
G75*
G03*
X12456795Y-13126974I0J29972D01*
G01*
X12456795Y-13126974D02*
X12376785Y-13126974D01*
X12376785Y-13126974D02*
G75*
G03*
X12376785Y-13186918I0J-29972D01*
G01*
D13*
X12446762Y-14021054D02*
G75*
G03*
X12446762Y-14021054I-29972J0D01*
G01*
D11*
X12376785Y-14051026D02*
X12456795Y-14051026D01*
X12456795Y-14051026D02*
G75*
G03*
X12456795Y-13991082I0J29972D01*
G01*
X12456795Y-13991082D02*
X12376785Y-13991082D01*
X12376785Y-13991082D02*
G75*
G03*
X12376785Y-14051026I0J-29972D01*
G01*
D13*
X12866878Y-13156946D02*
G75*
G03*
X12866878Y-13156946I-29972J0D01*
G01*
D11*
X12796901Y-13186918D02*
X12876911Y-13186918D01*
X12876911Y-13186918D02*
G75*
G03*
X12876911Y-13126974I0J29972D01*
G01*
X12876911Y-13126974D02*
X12796901Y-13126974D01*
X12796901Y-13126974D02*
G75*
G03*
X12796901Y-13186918I0J-29972D01*
G01*
D13*
X12866878Y-14021054D02*
G75*
G03*
X12866878Y-14021054I-29972J0D01*
G01*
D11*
X12796901Y-14051026D02*
X12876911Y-14051026D01*
X12876911Y-14051026D02*
G75*
G03*
X12876911Y-13991082I0J29972D01*
G01*
X12876911Y-13991082D02*
X12796901Y-13991082D01*
X12796901Y-13991082D02*
G75*
G03*
X12796901Y-14051026I0J-29972D01*
G01*
D10*
X10611000Y-10135400D02*
X10611000Y-10235400D01*
X10561000Y-10185400D02*
X10661000Y-10185400D01*
X10865000Y-10135400D02*
X10865000Y-10235400D01*
X10815000Y-10185400D02*
X10915000Y-10185400D01*
X11119000Y-10135400D02*
X11119000Y-10235400D01*
X11069000Y-10185400D02*
X11169000Y-10185400D01*
X11373000Y-10135400D02*
X11373000Y-10235400D01*
X11323000Y-10185400D02*
X11423000Y-10185400D01*
X11627000Y-10135400D02*
X11627000Y-10235400D01*
X11577000Y-10185400D02*
X11677000Y-10185400D01*
X11881000Y-10135400D02*
X11881000Y-10235400D01*
X11831000Y-10185400D02*
X11931000Y-10185400D01*
X12135000Y-10135400D02*
X12135000Y-10235400D01*
X12085000Y-10185400D02*
X12185000Y-10185400D01*
X12389000Y-10135400D02*
X12389000Y-10235400D01*
X12339000Y-10185400D02*
X12439000Y-10185400D01*
X12801600Y-11887000D02*
X12801600Y-11987000D01*
X12751600Y-11937000D02*
X12851600Y-11937000D01*
X12801600Y-12141000D02*
X12801600Y-12241000D01*
X12751600Y-12191000D02*
X12851600Y-12191000D01*
X12801600Y-12395000D02*
X12801600Y-12495000D01*
X12751600Y-12445000D02*
X12851600Y-12445000D01*
X12801600Y-12649000D02*
X12801600Y-12749000D01*
X12751600Y-12699000D02*
X12851600Y-12699000D01*
D14*
X10327783Y-10327783D02*
X10327783Y-10172218D01*
X10172218Y-10172218D01*
X10172218Y-10327783D01*
X10327783Y-10327783D01*
X10327783Y-14477782D02*
X10327783Y-14322217D01*
X10172218Y-14322217D01*
X10172218Y-14477782D01*
X10327783Y-14477782D01*
X12827782Y-10327783D02*
X12827782Y-10172218D01*
X12672217Y-10172218D01*
X12672217Y-10327783D01*
X12827782Y-10327783D01*
X12827782Y-14477782D02*
X12827782Y-14322217D01*
X12672217Y-14322217D01*
X12672217Y-14477782D01*
X12827782Y-14477782D01*
D11*
X10242619Y-14967524D02*
X10242619Y-14767524D01*
X10242619Y-14767524D02*
X10290238Y-14767524D01*
X10290238Y-14767524D02*
X10318810Y-14777048D01*
X10318810Y-14777048D02*
X10337857Y-14796095D01*
X10337857Y-14796095D02*
X10347381Y-14815143D01*
X10347381Y-14815143D02*
X10356905Y-14853238D01*
X10356905Y-14853238D02*
X10356905Y-14881809D01*
X10356905Y-14881809D02*
X10347381Y-14919905D01*
X10347381Y-14919905D02*
X10337857Y-14938952D01*
X10337857Y-14938952D02*
X10318810Y-14958000D01*
X10318810Y-14958000D02*
X10290238Y-14967524D01*
X10290238Y-14967524D02*
X10242619Y-14967524D01*
X10442619Y-14967524D02*
X10442619Y-14834190D01*
X10442619Y-14872286D02*
X10452143Y-14853238D01*
X10452143Y-14853238D02*
X10461667Y-14843714D01*
X10461667Y-14843714D02*
X10480714Y-14834190D01*
X10480714Y-14834190D02*
X10499762Y-14834190D01*
X10566429Y-14967524D02*
X10566429Y-14834190D01*
X10566429Y-14767524D02*
X10556905Y-14777048D01*
X10556905Y-14777048D02*
X10566429Y-14786571D01*
X10566429Y-14786571D02*
X10575952Y-14777048D01*
X10575952Y-14777048D02*
X10566429Y-14767524D01*
X10566429Y-14767524D02*
X10566429Y-14786571D01*
X10690238Y-14967524D02*
X10671190Y-14958000D01*
X10671190Y-14958000D02*
X10661667Y-14938952D01*
X10661667Y-14938952D02*
X10661667Y-14767524D01*
X10795000Y-14967524D02*
X10775952Y-14958000D01*
X10775952Y-14958000D02*
X10766429Y-14938952D01*
X10766429Y-14938952D02*
X10766429Y-14767524D01*
X11023571Y-14967524D02*
X11023571Y-14767524D01*
X11023571Y-14767524D02*
X11090238Y-14910381D01*
X11090238Y-14910381D02*
X11156905Y-14767524D01*
X11156905Y-14767524D02*
X11156905Y-14967524D01*
X11337857Y-14967524D02*
X11337857Y-14862762D01*
X11337857Y-14862762D02*
X11328333Y-14843714D01*
X11328333Y-14843714D02*
X11309286Y-14834190D01*
X11309286Y-14834190D02*
X11271190Y-14834190D01*
X11271190Y-14834190D02*
X11252143Y-14843714D01*
X11337857Y-14958000D02*
X11318809Y-14967524D01*
X11318809Y-14967524D02*
X11271190Y-14967524D01*
X11271190Y-14967524D02*
X11252143Y-14958000D01*
X11252143Y-14958000D02*
X11242619Y-14938952D01*
X11242619Y-14938952D02*
X11242619Y-14919905D01*
X11242619Y-14919905D02*
X11252143Y-14900857D01*
X11252143Y-14900857D02*
X11271190Y-14891333D01*
X11271190Y-14891333D02*
X11318809Y-14891333D01*
X11318809Y-14891333D02*
X11337857Y-14881809D01*
X11433095Y-14834190D02*
X11433095Y-15034190D01*
X11433095Y-14843714D02*
X11452143Y-14834190D01*
X11452143Y-14834190D02*
X11490238Y-14834190D01*
X11490238Y-14834190D02*
X11509286Y-14843714D01*
X11509286Y-14843714D02*
X11518809Y-14853238D01*
X11518809Y-14853238D02*
X11528333Y-14872286D01*
X11528333Y-14872286D02*
X11528333Y-14929428D01*
X11528333Y-14929428D02*
X11518809Y-14948476D01*
X11518809Y-14948476D02*
X11509286Y-14958000D01*
X11509286Y-14958000D02*
X11490238Y-14967524D01*
X11490238Y-14967524D02*
X11452143Y-14967524D01*
X11452143Y-14967524D02*
X11433095Y-14958000D01*
X11614048Y-14948476D02*
X11623571Y-14958000D01*
X11623571Y-14958000D02*
X11614048Y-14967524D01*
X11614048Y-14967524D02*
X11604524Y-14958000D01*
X11604524Y-14958000D02*
X11614048Y-14948476D01*
X11614048Y-14948476D02*
X11614048Y-14967524D01*
X11614048Y-14843714D02*
X11623571Y-14853238D01*
X11623571Y-14853238D02*
X11614048Y-14862762D01*
X11614048Y-14862762D02*
X11604524Y-14853238D01*
X11604524Y-14853238D02*
X11614048Y-14843714D01*
X11614048Y-14843714D02*
X11614048Y-14862762D01*
D12*
X9965000Y-15280000D02*
X9995000Y-15310000D01*
X9995000Y-15280000D02*
X9965000Y-15310000D01*
D11*
X10280714Y-15187524D02*
X10299762Y-15187524D01*
X10299762Y-15187524D02*
X10318810Y-15197048D01*
X10318810Y-15197048D02*
X10328333Y-15206571D01*
X10328333Y-15206571D02*
X10337857Y-15225619D01*
X10337857Y-15225619D02*
X10347381Y-15263714D01*
X10347381Y-15263714D02*
X10347381Y-15311333D01*
X10347381Y-15311333D02*
X10337857Y-15349428D01*
X10337857Y-15349428D02*
X10328333Y-15368476D01*
X10328333Y-15368476D02*
X10318810Y-15378000D01*
X10318810Y-15378000D02*
X10299762Y-15387524D01*
X10299762Y-15387524D02*
X10280714Y-15387524D01*
X10280714Y-15387524D02*
X10261667Y-15378000D01*
X10261667Y-15378000D02*
X10252143Y-15368476D01*
X10252143Y-15368476D02*
X10242619Y-15349428D01*
X10242619Y-15349428D02*
X10233095Y-15311333D01*
X10233095Y-15311333D02*
X10233095Y-15263714D01*
X10233095Y-15263714D02*
X10242619Y-15225619D01*
X10242619Y-15225619D02*
X10252143Y-15206571D01*
X10252143Y-15206571D02*
X10261667Y-15197048D01*
X10261667Y-15197048D02*
X10280714Y-15187524D01*
X10433095Y-15368476D02*
X10442619Y-15378000D01*
X10442619Y-15378000D02*
X10433095Y-15387524D01*
X10433095Y-15387524D02*
X10423571Y-15378000D01*
X10423571Y-15378000D02*
X10433095Y-15368476D01*
X10433095Y-15368476D02*
X10433095Y-15387524D01*
X10509286Y-15187524D02*
X10633095Y-15187524D01*
X10633095Y-15187524D02*
X10566429Y-15263714D01*
X10566429Y-15263714D02*
X10595000Y-15263714D01*
X10595000Y-15263714D02*
X10614048Y-15273238D01*
X10614048Y-15273238D02*
X10623571Y-15282762D01*
X10623571Y-15282762D02*
X10633095Y-15301809D01*
X10633095Y-15301809D02*
X10633095Y-15349428D01*
X10633095Y-15349428D02*
X10623571Y-15368476D01*
X10623571Y-15368476D02*
X10614048Y-15378000D01*
X10614048Y-15378000D02*
X10595000Y-15387524D01*
X10595000Y-15387524D02*
X10537857Y-15387524D01*
X10537857Y-15387524D02*
X10518810Y-15378000D01*
X10518810Y-15378000D02*
X10509286Y-15368476D01*
X10756905Y-15187524D02*
X10775952Y-15187524D01*
X10775952Y-15187524D02*
X10795000Y-15197048D01*
X10795000Y-15197048D02*
X10804524Y-15206571D01*
X10804524Y-15206571D02*
X10814048Y-15225619D01*
X10814048Y-15225619D02*
X10823571Y-15263714D01*
X10823571Y-15263714D02*
X10823571Y-15311333D01*
X10823571Y-15311333D02*
X10814048Y-15349428D01*
X10814048Y-15349428D02*
X10804524Y-15368476D01*
X10804524Y-15368476D02*
X10795000Y-15378000D01*
X10795000Y-15378000D02*
X10775952Y-15387524D01*
X10775952Y-15387524D02*
X10756905Y-15387524D01*
X10756905Y-15387524D02*
X10737857Y-15378000D01*
X10737857Y-15378000D02*
X10728333Y-15368476D01*
X10728333Y-15368476D02*
X10718810Y-15349428D01*
X10718810Y-15349428D02*
X10709286Y-15311333D01*
X10709286Y-15311333D02*
X10709286Y-15263714D01*
X10709286Y-15263714D02*
X10718810Y-15225619D01*
X10718810Y-15225619D02*
X10728333Y-15206571D01*
X10728333Y-15206571D02*
X10737857Y-15197048D01*
X10737857Y-15197048D02*
X10756905Y-15187524D01*
X10947381Y-15187524D02*
X10966429Y-15187524D01*
X10966429Y-15187524D02*
X10985476Y-15197048D01*
X10985476Y-15197048D02*
X10995000Y-15206571D01*
X10995000Y-15206571D02*
X11004524Y-15225619D01*
X11004524Y-15225619D02*
X11014048Y-15263714D01*
X11014048Y-15263714D02*
X11014048Y-15311333D01*
X11014048Y-15311333D02*
X11004524Y-15349428D01*
X11004524Y-15349428D02*
X10995000Y-15368476D01*
X10995000Y-15368476D02*
X10985476Y-15378000D01*
X10985476Y-15378000D02*
X10966429Y-15387524D01*
X10966429Y-15387524D02*
X10947381Y-15387524D01*
X10947381Y-15387524D02*
X10928333Y-15378000D01*
X10928333Y-15378000D02*
X10918810Y-15368476D01*
X10918810Y-15368476D02*
X10909286Y-15349428D01*
X10909286Y-15349428D02*
X10899762Y-15311333D01*
X10899762Y-15311333D02*
X10899762Y-15263714D01*
X10899762Y-15263714D02*
X10909286Y-15225619D01*
X10909286Y-15225619D02*
X10918810Y-15206571D01*
X10918810Y-15206571D02*
X10928333Y-15197048D01*
X10928333Y-15197048D02*
X10947381Y-15187524D01*
X11099762Y-15387524D02*
X11099762Y-15254190D01*
X11099762Y-15273238D02*
X11109286Y-15263714D01*
X11109286Y-15263714D02*
X11128333Y-15254190D01*
X11128333Y-15254190D02*
X11156905Y-15254190D01*
X11156905Y-15254190D02*
X11175952Y-15263714D01*
X11175952Y-15263714D02*
X11185476Y-15282762D01*
X11185476Y-15282762D02*
X11185476Y-15387524D01*
X11185476Y-15282762D02*
X11195000Y-15263714D01*
X11195000Y-15263714D02*
X11214048Y-15254190D01*
X11214048Y-15254190D02*
X11242619Y-15254190D01*
X11242619Y-15254190D02*
X11261667Y-15263714D01*
X11261667Y-15263714D02*
X11271190Y-15282762D01*
X11271190Y-15282762D02*
X11271190Y-15387524D01*
X11366429Y-15387524D02*
X11366429Y-15254190D01*
X11366429Y-15273238D02*
X11375952Y-15263714D01*
X11375952Y-15263714D02*
X11395000Y-15254190D01*
X11395000Y-15254190D02*
X11423571Y-15254190D01*
X11423571Y-15254190D02*
X11442619Y-15263714D01*
X11442619Y-15263714D02*
X11452143Y-15282762D01*
X11452143Y-15282762D02*
X11452143Y-15387524D01*
X11452143Y-15282762D02*
X11461667Y-15263714D01*
X11461667Y-15263714D02*
X11480714Y-15254190D01*
X11480714Y-15254190D02*
X11509286Y-15254190D01*
X11509286Y-15254190D02*
X11528333Y-15263714D01*
X11528333Y-15263714D02*
X11537857Y-15282762D01*
X11537857Y-15282762D02*
X11537857Y-15387524D01*
X11928333Y-15178000D02*
X11756905Y-15435143D01*
X12185476Y-15187524D02*
X12204524Y-15187524D01*
X12204524Y-15187524D02*
X12223572Y-15197048D01*
X12223572Y-15197048D02*
X12233095Y-15206571D01*
X12233095Y-15206571D02*
X12242619Y-15225619D01*
X12242619Y-15225619D02*
X12252143Y-15263714D01*
X12252143Y-15263714D02*
X12252143Y-15311333D01*
X12252143Y-15311333D02*
X12242619Y-15349428D01*
X12242619Y-15349428D02*
X12233095Y-15368476D01*
X12233095Y-15368476D02*
X12223572Y-15378000D01*
X12223572Y-15378000D02*
X12204524Y-15387524D01*
X12204524Y-15387524D02*
X12185476Y-15387524D01*
X12185476Y-15387524D02*
X12166429Y-15378000D01*
X12166429Y-15378000D02*
X12156905Y-15368476D01*
X12156905Y-15368476D02*
X12147381Y-15349428D01*
X12147381Y-15349428D02*
X12137857Y-15311333D01*
X12137857Y-15311333D02*
X12137857Y-15263714D01*
X12137857Y-15263714D02*
X12147381Y-15225619D01*
X12147381Y-15225619D02*
X12156905Y-15206571D01*
X12156905Y-15206571D02*
X12166429Y-15197048D01*
X12166429Y-15197048D02*
X12185476Y-15187524D01*
X12337857Y-15368476D02*
X12347381Y-15378000D01*
X12347381Y-15378000D02*
X12337857Y-15387524D01*
X12337857Y-15387524D02*
X12328333Y-15378000D01*
X12328333Y-15378000D02*
X12337857Y-15368476D01*
X12337857Y-15368476D02*
X12337857Y-15387524D01*
X12471191Y-15187524D02*
X12490238Y-15187524D01*
X12490238Y-15187524D02*
X12509286Y-15197048D01*
X12509286Y-15197048D02*
X12518810Y-15206571D01*
X12518810Y-15206571D02*
X12528333Y-15225619D01*
X12528333Y-15225619D02*
X12537857Y-15263714D01*
X12537857Y-15263714D02*
X12537857Y-15311333D01*
X12537857Y-15311333D02*
X12528333Y-15349428D01*
X12528333Y-15349428D02*
X12518810Y-15368476D01*
X12518810Y-15368476D02*
X12509286Y-15378000D01*
X12509286Y-15378000D02*
X12490238Y-15387524D01*
X12490238Y-15387524D02*
X12471191Y-15387524D01*
X12471191Y-15387524D02*
X12452143Y-15378000D01*
X12452143Y-15378000D02*
X12442619Y-15368476D01*
X12442619Y-15368476D02*
X12433095Y-15349428D01*
X12433095Y-15349428D02*
X12423572Y-15311333D01*
X12423572Y-15311333D02*
X12423572Y-15263714D01*
X12423572Y-15263714D02*
X12433095Y-15225619D01*
X12433095Y-15225619D02*
X12442619Y-15206571D01*
X12442619Y-15206571D02*
X12452143Y-15197048D01*
X12452143Y-15197048D02*
X12471191Y-15187524D01*
X12728333Y-15387524D02*
X12614048Y-15387524D01*
X12671191Y-15387524D02*
X12671191Y-15187524D01*
X12671191Y-15187524D02*
X12652143Y-15216095D01*
X12652143Y-15216095D02*
X12633095Y-15235143D01*
X12633095Y-15235143D02*
X12614048Y-15244667D01*
X12918810Y-15387524D02*
X12804524Y-15387524D01*
X12861667Y-15387524D02*
X12861667Y-15187524D01*
X12861667Y-15187524D02*
X12842619Y-15216095D01*
X12842619Y-15216095D02*
X12823572Y-15235143D01*
X12823572Y-15235143D02*
X12804524Y-15244667D01*
X13033095Y-15273238D02*
X13014048Y-15263714D01*
X13014048Y-15263714D02*
X13004524Y-15254190D01*
X13004524Y-15254190D02*
X12995000Y-15235143D01*
X12995000Y-15235143D02*
X12995000Y-15225619D01*
X12995000Y-15225619D02*
X13004524Y-15206571D01*
X13004524Y-15206571D02*
X13014048Y-15197048D01*
X13014048Y-15197048D02*
X13033095Y-15187524D01*
X13033095Y-15187524D02*
X13071191Y-15187524D01*
X13071191Y-15187524D02*
X13090238Y-15197048D01*
X13090238Y-15197048D02*
X13099762Y-15206571D01*
X13099762Y-15206571D02*
X13109286Y-15225619D01*
X13109286Y-15225619D02*
X13109286Y-15235143D01*
X13109286Y-15235143D02*
X13099762Y-15254190D01*
X13099762Y-15254190D02*
X13090238Y-15263714D01*
X13090238Y-15263714D02*
X13071191Y-15273238D01*
X13071191Y-15273238D02*
X13033095Y-15273238D01*
X13033095Y-15273238D02*
X13014048Y-15282762D01*
X13014048Y-15282762D02*
X13004524Y-15292286D01*
X13004524Y-15292286D02*
X12995000Y-15311333D01*
X12995000Y-15311333D02*
X12995000Y-15349428D01*
X12995000Y-15349428D02*
X13004524Y-15368476D01*
X13004524Y-15368476D02*
X13014048Y-15378000D01*
X13014048Y-15378000D02*
X13033095Y-15387524D01*
X13033095Y-15387524D02*
X13071191Y-15387524D01*
X13071191Y-15387524D02*
X13090238Y-15378000D01*
X13090238Y-15378000D02*
X13099762Y-15368476D01*
X13099762Y-15368476D02*
X13109286Y-15349428D01*
X13109286Y-15349428D02*
X13109286Y-15311333D01*
X13109286Y-15311333D02*
X13099762Y-15292286D01*
X13099762Y-15292286D02*
X13090238Y-15282762D01*
X13090238Y-15282762D02*
X13071191Y-15273238D01*
X13185476Y-15187524D02*
X13185476Y-15225619D01*
X13261667Y-15187524D02*
X13261667Y-15225619D01*
X13556905Y-15463714D02*
X13547381Y-15454190D01*
X13547381Y-15454190D02*
X13528334Y-15425619D01*
X13528334Y-15425619D02*
X13518810Y-15406571D01*
X13518810Y-15406571D02*
X13509286Y-15378000D01*
X13509286Y-15378000D02*
X13499762Y-15330381D01*
X13499762Y-15330381D02*
X13499762Y-15292286D01*
X13499762Y-15292286D02*
X13509286Y-15244667D01*
X13509286Y-15244667D02*
X13518810Y-15216095D01*
X13518810Y-15216095D02*
X13528334Y-15197048D01*
X13528334Y-15197048D02*
X13547381Y-15168476D01*
X13547381Y-15168476D02*
X13556905Y-15158952D01*
X13642619Y-15387524D02*
X13680714Y-15387524D01*
X13680714Y-15387524D02*
X13699762Y-15378000D01*
X13699762Y-15378000D02*
X13709286Y-15368476D01*
X13709286Y-15368476D02*
X13728334Y-15339905D01*
X13728334Y-15339905D02*
X13737857Y-15301809D01*
X13737857Y-15301809D02*
X13737857Y-15225619D01*
X13737857Y-15225619D02*
X13728334Y-15206571D01*
X13728334Y-15206571D02*
X13718810Y-15197048D01*
X13718810Y-15197048D02*
X13699762Y-15187524D01*
X13699762Y-15187524D02*
X13661667Y-15187524D01*
X13661667Y-15187524D02*
X13642619Y-15197048D01*
X13642619Y-15197048D02*
X13633095Y-15206571D01*
X13633095Y-15206571D02*
X13623572Y-15225619D01*
X13623572Y-15225619D02*
X13623572Y-15273238D01*
X13623572Y-15273238D02*
X13633095Y-15292286D01*
X13633095Y-15292286D02*
X13642619Y-15301809D01*
X13642619Y-15301809D02*
X13661667Y-15311333D01*
X13661667Y-15311333D02*
X13699762Y-15311333D01*
X13699762Y-15311333D02*
X13718810Y-15301809D01*
X13718810Y-15301809D02*
X13728334Y-15292286D01*
X13728334Y-15292286D02*
X13737857Y-15273238D01*
X13928334Y-15387524D02*
X13814048Y-15387524D01*
X13871191Y-15387524D02*
X13871191Y-15187524D01*
X13871191Y-15187524D02*
X13852143Y-15216095D01*
X13852143Y-15216095D02*
X13833095Y-15235143D01*
X13833095Y-15235143D02*
X13814048Y-15244667D01*
X14166429Y-15387524D02*
X14166429Y-15187524D01*
X14252143Y-15387524D02*
X14252143Y-15282762D01*
X14252143Y-15282762D02*
X14242619Y-15263714D01*
X14242619Y-15263714D02*
X14223572Y-15254190D01*
X14223572Y-15254190D02*
X14195000Y-15254190D01*
X14195000Y-15254190D02*
X14175953Y-15263714D01*
X14175953Y-15263714D02*
X14166429Y-15273238D01*
X14375953Y-15387524D02*
X14356905Y-15378000D01*
X14356905Y-15378000D02*
X14347381Y-15368476D01*
X14347381Y-15368476D02*
X14337857Y-15349428D01*
X14337857Y-15349428D02*
X14337857Y-15292286D01*
X14337857Y-15292286D02*
X14347381Y-15273238D01*
X14347381Y-15273238D02*
X14356905Y-15263714D01*
X14356905Y-15263714D02*
X14375953Y-15254190D01*
X14375953Y-15254190D02*
X14404524Y-15254190D01*
X14404524Y-15254190D02*
X14423572Y-15263714D01*
X14423572Y-15263714D02*
X14433096Y-15273238D01*
X14433096Y-15273238D02*
X14442619Y-15292286D01*
X14442619Y-15292286D02*
X14442619Y-15349428D01*
X14442619Y-15349428D02*
X14433096Y-15368476D01*
X14433096Y-15368476D02*
X14423572Y-15378000D01*
X14423572Y-15378000D02*
X14404524Y-15387524D01*
X14404524Y-15387524D02*
X14375953Y-15387524D01*
X14556905Y-15387524D02*
X14537857Y-15378000D01*
X14537857Y-15378000D02*
X14528334Y-15358952D01*
X14528334Y-15358952D02*
X14528334Y-15187524D01*
X14709286Y-15378000D02*
X14690238Y-15387524D01*
X14690238Y-15387524D02*
X14652143Y-15387524D01*
X14652143Y-15387524D02*
X14633096Y-15378000D01*
X14633096Y-15378000D02*
X14623572Y-15358952D01*
X14623572Y-15358952D02*
X14623572Y-15282762D01*
X14623572Y-15282762D02*
X14633096Y-15263714D01*
X14633096Y-15263714D02*
X14652143Y-15254190D01*
X14652143Y-15254190D02*
X14690238Y-15254190D01*
X14690238Y-15254190D02*
X14709286Y-15263714D01*
X14709286Y-15263714D02*
X14718810Y-15282762D01*
X14718810Y-15282762D02*
X14718810Y-15301809D01*
X14718810Y-15301809D02*
X14623572Y-15320857D01*
X14795000Y-15378000D02*
X14814048Y-15387524D01*
X14814048Y-15387524D02*
X14852143Y-15387524D01*
X14852143Y-15387524D02*
X14871191Y-15378000D01*
X14871191Y-15378000D02*
X14880715Y-15358952D01*
X14880715Y-15358952D02*
X14880715Y-15349428D01*
X14880715Y-15349428D02*
X14871191Y-15330381D01*
X14871191Y-15330381D02*
X14852143Y-15320857D01*
X14852143Y-15320857D02*
X14823572Y-15320857D01*
X14823572Y-15320857D02*
X14804524Y-15311333D01*
X14804524Y-15311333D02*
X14795000Y-15292286D01*
X14795000Y-15292286D02*
X14795000Y-15282762D01*
X14795000Y-15282762D02*
X14804524Y-15263714D01*
X14804524Y-15263714D02*
X14823572Y-15254190D01*
X14823572Y-15254190D02*
X14852143Y-15254190D01*
X14852143Y-15254190D02*
X14871191Y-15263714D01*
X14947381Y-15463714D02*
X14956905Y-15454190D01*
X14956905Y-15454190D02*
X14975953Y-15425619D01*
X14975953Y-15425619D02*
X14985477Y-15406571D01*
X14985477Y-15406571D02*
X14995000Y-15378000D01*
X14995000Y-15378000D02*
X15004524Y-15330381D01*
X15004524Y-15330381D02*
X15004524Y-15292286D01*
X15004524Y-15292286D02*
X14995000Y-15244667D01*
X14995000Y-15244667D02*
X14985477Y-15216095D01*
X14985477Y-15216095D02*
X14975953Y-15197048D01*
X14975953Y-15197048D02*
X14956905Y-15168476D01*
X14956905Y-15168476D02*
X14947381Y-15158952D01*
D13*
X9995000Y-15559000D02*
G75*
G03*
X9995000Y-15559000I-29972J0D01*
G01*
D11*
X10280714Y-15451524D02*
X10299762Y-15451524D01*
X10299762Y-15451524D02*
X10318810Y-15461048D01*
X10318810Y-15461048D02*
X10328333Y-15470571D01*
X10328333Y-15470571D02*
X10337857Y-15489619D01*
X10337857Y-15489619D02*
X10347381Y-15527714D01*
X10347381Y-15527714D02*
X10347381Y-15575333D01*
X10347381Y-15575333D02*
X10337857Y-15613428D01*
X10337857Y-15613428D02*
X10328333Y-15632476D01*
X10328333Y-15632476D02*
X10318810Y-15642000D01*
X10318810Y-15642000D02*
X10299762Y-15651524D01*
X10299762Y-15651524D02*
X10280714Y-15651524D01*
X10280714Y-15651524D02*
X10261667Y-15642000D01*
X10261667Y-15642000D02*
X10252143Y-15632476D01*
X10252143Y-15632476D02*
X10242619Y-15613428D01*
X10242619Y-15613428D02*
X10233095Y-15575333D01*
X10233095Y-15575333D02*
X10233095Y-15527714D01*
X10233095Y-15527714D02*
X10242619Y-15489619D01*
X10242619Y-15489619D02*
X10252143Y-15470571D01*
X10252143Y-15470571D02*
X10261667Y-15461048D01*
X10261667Y-15461048D02*
X10280714Y-15451524D01*
X10433095Y-15632476D02*
X10442619Y-15642000D01*
X10442619Y-15642000D02*
X10433095Y-15651524D01*
X10433095Y-15651524D02*
X10423571Y-15642000D01*
X10423571Y-15642000D02*
X10433095Y-15632476D01*
X10433095Y-15632476D02*
X10433095Y-15651524D01*
X10623571Y-15451524D02*
X10528333Y-15451524D01*
X10528333Y-15451524D02*
X10518810Y-15546762D01*
X10518810Y-15546762D02*
X10528333Y-15537238D01*
X10528333Y-15537238D02*
X10547381Y-15527714D01*
X10547381Y-15527714D02*
X10595000Y-15527714D01*
X10595000Y-15527714D02*
X10614048Y-15537238D01*
X10614048Y-15537238D02*
X10623571Y-15546762D01*
X10623571Y-15546762D02*
X10633095Y-15565809D01*
X10633095Y-15565809D02*
X10633095Y-15613428D01*
X10633095Y-15613428D02*
X10623571Y-15632476D01*
X10623571Y-15632476D02*
X10614048Y-15642000D01*
X10614048Y-15642000D02*
X10595000Y-15651524D01*
X10595000Y-15651524D02*
X10547381Y-15651524D01*
X10547381Y-15651524D02*
X10528333Y-15642000D01*
X10528333Y-15642000D02*
X10518810Y-15632476D01*
X10728333Y-15651524D02*
X10766429Y-15651524D01*
X10766429Y-15651524D02*
X10785476Y-15642000D01*
X10785476Y-15642000D02*
X10795000Y-15632476D01*
X10795000Y-15632476D02*
X10814048Y-15603905D01*
X10814048Y-15603905D02*
X10823571Y-15565809D01*
X10823571Y-15565809D02*
X10823571Y-15489619D01*
X10823571Y-15489619D02*
X10814048Y-15470571D01*
X10814048Y-15470571D02*
X10804524Y-15461048D01*
X10804524Y-15461048D02*
X10785476Y-15451524D01*
X10785476Y-15451524D02*
X10747381Y-15451524D01*
X10747381Y-15451524D02*
X10728333Y-15461048D01*
X10728333Y-15461048D02*
X10718810Y-15470571D01*
X10718810Y-15470571D02*
X10709286Y-15489619D01*
X10709286Y-15489619D02*
X10709286Y-15537238D01*
X10709286Y-15537238D02*
X10718810Y-15556286D01*
X10718810Y-15556286D02*
X10728333Y-15565809D01*
X10728333Y-15565809D02*
X10747381Y-15575333D01*
X10747381Y-15575333D02*
X10785476Y-15575333D01*
X10785476Y-15575333D02*
X10804524Y-15565809D01*
X10804524Y-15565809D02*
X10814048Y-15556286D01*
X10814048Y-15556286D02*
X10823571Y-15537238D01*
X10918810Y-15651524D02*
X10956905Y-15651524D01*
X10956905Y-15651524D02*
X10975952Y-15642000D01*
X10975952Y-15642000D02*
X10985476Y-15632476D01*
X10985476Y-15632476D02*
X11004524Y-15603905D01*
X11004524Y-15603905D02*
X11014048Y-15565809D01*
X11014048Y-15565809D02*
X11014048Y-15489619D01*
X11014048Y-15489619D02*
X11004524Y-15470571D01*
X11004524Y-15470571D02*
X10995000Y-15461048D01*
X10995000Y-15461048D02*
X10975952Y-15451524D01*
X10975952Y-15451524D02*
X10937857Y-15451524D01*
X10937857Y-15451524D02*
X10918810Y-15461048D01*
X10918810Y-15461048D02*
X10909286Y-15470571D01*
X10909286Y-15470571D02*
X10899762Y-15489619D01*
X10899762Y-15489619D02*
X10899762Y-15537238D01*
X10899762Y-15537238D02*
X10909286Y-15556286D01*
X10909286Y-15556286D02*
X10918810Y-15565809D01*
X10918810Y-15565809D02*
X10937857Y-15575333D01*
X10937857Y-15575333D02*
X10975952Y-15575333D01*
X10975952Y-15575333D02*
X10995000Y-15565809D01*
X10995000Y-15565809D02*
X11004524Y-15556286D01*
X11004524Y-15556286D02*
X11014048Y-15537238D01*
X11099762Y-15651524D02*
X11099762Y-15518190D01*
X11099762Y-15537238D02*
X11109286Y-15527714D01*
X11109286Y-15527714D02*
X11128333Y-15518190D01*
X11128333Y-15518190D02*
X11156905Y-15518190D01*
X11156905Y-15518190D02*
X11175952Y-15527714D01*
X11175952Y-15527714D02*
X11185476Y-15546762D01*
X11185476Y-15546762D02*
X11185476Y-15651524D01*
X11185476Y-15546762D02*
X11195000Y-15527714D01*
X11195000Y-15527714D02*
X11214048Y-15518190D01*
X11214048Y-15518190D02*
X11242619Y-15518190D01*
X11242619Y-15518190D02*
X11261667Y-15527714D01*
X11261667Y-15527714D02*
X11271190Y-15546762D01*
X11271190Y-15546762D02*
X11271190Y-15651524D01*
X11366429Y-15651524D02*
X11366429Y-15518190D01*
X11366429Y-15537238D02*
X11375952Y-15527714D01*
X11375952Y-15527714D02*
X11395000Y-15518190D01*
X11395000Y-15518190D02*
X11423571Y-15518190D01*
X11423571Y-15518190D02*
X11442619Y-15527714D01*
X11442619Y-15527714D02*
X11452143Y-15546762D01*
X11452143Y-15546762D02*
X11452143Y-15651524D01*
X11452143Y-15546762D02*
X11461667Y-15527714D01*
X11461667Y-15527714D02*
X11480714Y-15518190D01*
X11480714Y-15518190D02*
X11509286Y-15518190D01*
X11509286Y-15518190D02*
X11528333Y-15527714D01*
X11528333Y-15527714D02*
X11537857Y-15546762D01*
X11537857Y-15546762D02*
X11537857Y-15651524D01*
X11928333Y-15442000D02*
X11756905Y-15699143D01*
X12185476Y-15451524D02*
X12204524Y-15451524D01*
X12204524Y-15451524D02*
X12223572Y-15461048D01*
X12223572Y-15461048D02*
X12233095Y-15470571D01*
X12233095Y-15470571D02*
X12242619Y-15489619D01*
X12242619Y-15489619D02*
X12252143Y-15527714D01*
X12252143Y-15527714D02*
X12252143Y-15575333D01*
X12252143Y-15575333D02*
X12242619Y-15613428D01*
X12242619Y-15613428D02*
X12233095Y-15632476D01*
X12233095Y-15632476D02*
X12223572Y-15642000D01*
X12223572Y-15642000D02*
X12204524Y-15651524D01*
X12204524Y-15651524D02*
X12185476Y-15651524D01*
X12185476Y-15651524D02*
X12166429Y-15642000D01*
X12166429Y-15642000D02*
X12156905Y-15632476D01*
X12156905Y-15632476D02*
X12147381Y-15613428D01*
X12147381Y-15613428D02*
X12137857Y-15575333D01*
X12137857Y-15575333D02*
X12137857Y-15527714D01*
X12137857Y-15527714D02*
X12147381Y-15489619D01*
X12147381Y-15489619D02*
X12156905Y-15470571D01*
X12156905Y-15470571D02*
X12166429Y-15461048D01*
X12166429Y-15461048D02*
X12185476Y-15451524D01*
X12337857Y-15632476D02*
X12347381Y-15642000D01*
X12347381Y-15642000D02*
X12337857Y-15651524D01*
X12337857Y-15651524D02*
X12328333Y-15642000D01*
X12328333Y-15642000D02*
X12337857Y-15632476D01*
X12337857Y-15632476D02*
X12337857Y-15651524D01*
X12471191Y-15451524D02*
X12490238Y-15451524D01*
X12490238Y-15451524D02*
X12509286Y-15461048D01*
X12509286Y-15461048D02*
X12518810Y-15470571D01*
X12518810Y-15470571D02*
X12528333Y-15489619D01*
X12528333Y-15489619D02*
X12537857Y-15527714D01*
X12537857Y-15527714D02*
X12537857Y-15575333D01*
X12537857Y-15575333D02*
X12528333Y-15613428D01*
X12528333Y-15613428D02*
X12518810Y-15632476D01*
X12518810Y-15632476D02*
X12509286Y-15642000D01*
X12509286Y-15642000D02*
X12490238Y-15651524D01*
X12490238Y-15651524D02*
X12471191Y-15651524D01*
X12471191Y-15651524D02*
X12452143Y-15642000D01*
X12452143Y-15642000D02*
X12442619Y-15632476D01*
X12442619Y-15632476D02*
X12433095Y-15613428D01*
X12433095Y-15613428D02*
X12423572Y-15575333D01*
X12423572Y-15575333D02*
X12423572Y-15527714D01*
X12423572Y-15527714D02*
X12433095Y-15489619D01*
X12433095Y-15489619D02*
X12442619Y-15470571D01*
X12442619Y-15470571D02*
X12452143Y-15461048D01*
X12452143Y-15461048D02*
X12471191Y-15451524D01*
X12614048Y-15470571D02*
X12623572Y-15461048D01*
X12623572Y-15461048D02*
X12642619Y-15451524D01*
X12642619Y-15451524D02*
X12690238Y-15451524D01*
X12690238Y-15451524D02*
X12709286Y-15461048D01*
X12709286Y-15461048D02*
X12718810Y-15470571D01*
X12718810Y-15470571D02*
X12728333Y-15489619D01*
X12728333Y-15489619D02*
X12728333Y-15508667D01*
X12728333Y-15508667D02*
X12718810Y-15537238D01*
X12718810Y-15537238D02*
X12604524Y-15651524D01*
X12604524Y-15651524D02*
X12728333Y-15651524D01*
X12795000Y-15451524D02*
X12918810Y-15451524D01*
X12918810Y-15451524D02*
X12852143Y-15527714D01*
X12852143Y-15527714D02*
X12880714Y-15527714D01*
X12880714Y-15527714D02*
X12899762Y-15537238D01*
X12899762Y-15537238D02*
X12909286Y-15546762D01*
X12909286Y-15546762D02*
X12918810Y-15565809D01*
X12918810Y-15565809D02*
X12918810Y-15613428D01*
X12918810Y-15613428D02*
X12909286Y-15632476D01*
X12909286Y-15632476D02*
X12899762Y-15642000D01*
X12899762Y-15642000D02*
X12880714Y-15651524D01*
X12880714Y-15651524D02*
X12823572Y-15651524D01*
X12823572Y-15651524D02*
X12804524Y-15642000D01*
X12804524Y-15642000D02*
X12795000Y-15632476D01*
X13090238Y-15451524D02*
X13052143Y-15451524D01*
X13052143Y-15451524D02*
X13033095Y-15461048D01*
X13033095Y-15461048D02*
X13023572Y-15470571D01*
X13023572Y-15470571D02*
X13004524Y-15499143D01*
X13004524Y-15499143D02*
X12995000Y-15537238D01*
X12995000Y-15537238D02*
X12995000Y-15613428D01*
X12995000Y-15613428D02*
X13004524Y-15632476D01*
X13004524Y-15632476D02*
X13014048Y-15642000D01*
X13014048Y-15642000D02*
X13033095Y-15651524D01*
X13033095Y-15651524D02*
X13071191Y-15651524D01*
X13071191Y-15651524D02*
X13090238Y-15642000D01*
X13090238Y-15642000D02*
X13099762Y-15632476D01*
X13099762Y-15632476D02*
X13109286Y-15613428D01*
X13109286Y-15613428D02*
X13109286Y-15565809D01*
X13109286Y-15565809D02*
X13099762Y-15546762D01*
X13099762Y-15546762D02*
X13090238Y-15537238D01*
X13090238Y-15537238D02*
X13071191Y-15527714D01*
X13071191Y-15527714D02*
X13033095Y-15527714D01*
X13033095Y-15527714D02*
X13014048Y-15537238D01*
X13014048Y-15537238D02*
X13004524Y-15546762D01*
X13004524Y-15546762D02*
X12995000Y-15565809D01*
X13185476Y-15451524D02*
X13185476Y-15489619D01*
X13261667Y-15451524D02*
X13261667Y-15489619D01*
X13556905Y-15727714D02*
X13547381Y-15718190D01*
X13547381Y-15718190D02*
X13528334Y-15689619D01*
X13528334Y-15689619D02*
X13518810Y-15670571D01*
X13518810Y-15670571D02*
X13509286Y-15642000D01*
X13509286Y-15642000D02*
X13499762Y-15594381D01*
X13499762Y-15594381D02*
X13499762Y-15556286D01*
X13499762Y-15556286D02*
X13509286Y-15508667D01*
X13509286Y-15508667D02*
X13518810Y-15480095D01*
X13518810Y-15480095D02*
X13528334Y-15461048D01*
X13528334Y-15461048D02*
X13547381Y-15432476D01*
X13547381Y-15432476D02*
X13556905Y-15422952D01*
X13671191Y-15451524D02*
X13690238Y-15451524D01*
X13690238Y-15451524D02*
X13709286Y-15461048D01*
X13709286Y-15461048D02*
X13718810Y-15470571D01*
X13718810Y-15470571D02*
X13728334Y-15489619D01*
X13728334Y-15489619D02*
X13737857Y-15527714D01*
X13737857Y-15527714D02*
X13737857Y-15575333D01*
X13737857Y-15575333D02*
X13728334Y-15613428D01*
X13728334Y-15613428D02*
X13718810Y-15632476D01*
X13718810Y-15632476D02*
X13709286Y-15642000D01*
X13709286Y-15642000D02*
X13690238Y-15651524D01*
X13690238Y-15651524D02*
X13671191Y-15651524D01*
X13671191Y-15651524D02*
X13652143Y-15642000D01*
X13652143Y-15642000D02*
X13642619Y-15632476D01*
X13642619Y-15632476D02*
X13633095Y-15613428D01*
X13633095Y-15613428D02*
X13623572Y-15575333D01*
X13623572Y-15575333D02*
X13623572Y-15527714D01*
X13623572Y-15527714D02*
X13633095Y-15489619D01*
X13633095Y-15489619D02*
X13642619Y-15470571D01*
X13642619Y-15470571D02*
X13652143Y-15461048D01*
X13652143Y-15461048D02*
X13671191Y-15451524D01*
X13975953Y-15651524D02*
X13975953Y-15451524D01*
X14061667Y-15651524D02*
X14061667Y-15546762D01*
X14061667Y-15546762D02*
X14052143Y-15527714D01*
X14052143Y-15527714D02*
X14033096Y-15518190D01*
X14033096Y-15518190D02*
X14004524Y-15518190D01*
X14004524Y-15518190D02*
X13985476Y-15527714D01*
X13985476Y-15527714D02*
X13975953Y-15537238D01*
X14185476Y-15651524D02*
X14166429Y-15642000D01*
X14166429Y-15642000D02*
X14156905Y-15632476D01*
X14156905Y-15632476D02*
X14147381Y-15613428D01*
X14147381Y-15613428D02*
X14147381Y-15556286D01*
X14147381Y-15556286D02*
X14156905Y-15537238D01*
X14156905Y-15537238D02*
X14166429Y-15527714D01*
X14166429Y-15527714D02*
X14185476Y-15518190D01*
X14185476Y-15518190D02*
X14214048Y-15518190D01*
X14214048Y-15518190D02*
X14233096Y-15527714D01*
X14233096Y-15527714D02*
X14242619Y-15537238D01*
X14242619Y-15537238D02*
X14252143Y-15556286D01*
X14252143Y-15556286D02*
X14252143Y-15613428D01*
X14252143Y-15613428D02*
X14242619Y-15632476D01*
X14242619Y-15632476D02*
X14233096Y-15642000D01*
X14233096Y-15642000D02*
X14214048Y-15651524D01*
X14214048Y-15651524D02*
X14185476Y-15651524D01*
X14366429Y-15651524D02*
X14347381Y-15642000D01*
X14347381Y-15642000D02*
X14337857Y-15622952D01*
X14337857Y-15622952D02*
X14337857Y-15451524D01*
X14518810Y-15642000D02*
X14499762Y-15651524D01*
X14499762Y-15651524D02*
X14461667Y-15651524D01*
X14461667Y-15651524D02*
X14442619Y-15642000D01*
X14442619Y-15642000D02*
X14433096Y-15622952D01*
X14433096Y-15622952D02*
X14433096Y-15546762D01*
X14433096Y-15546762D02*
X14442619Y-15527714D01*
X14442619Y-15527714D02*
X14461667Y-15518190D01*
X14461667Y-15518190D02*
X14499762Y-15518190D01*
X14499762Y-15518190D02*
X14518810Y-15527714D01*
X14518810Y-15527714D02*
X14528334Y-15546762D01*
X14528334Y-15546762D02*
X14528334Y-15565809D01*
X14528334Y-15565809D02*
X14433096Y-15584857D01*
X14604524Y-15642000D02*
X14623572Y-15651524D01*
X14623572Y-15651524D02*
X14661667Y-15651524D01*
X14661667Y-15651524D02*
X14680715Y-15642000D01*
X14680715Y-15642000D02*
X14690238Y-15622952D01*
X14690238Y-15622952D02*
X14690238Y-15613428D01*
X14690238Y-15613428D02*
X14680715Y-15594381D01*
X14680715Y-15594381D02*
X14661667Y-15584857D01*
X14661667Y-15584857D02*
X14633096Y-15584857D01*
X14633096Y-15584857D02*
X14614048Y-15575333D01*
X14614048Y-15575333D02*
X14604524Y-15556286D01*
X14604524Y-15556286D02*
X14604524Y-15546762D01*
X14604524Y-15546762D02*
X14614048Y-15527714D01*
X14614048Y-15527714D02*
X14633096Y-15518190D01*
X14633096Y-15518190D02*
X14661667Y-15518190D01*
X14661667Y-15518190D02*
X14680715Y-15527714D01*
X14928334Y-15575333D02*
X15080715Y-15575333D01*
X15004524Y-15651524D02*
X15004524Y-15499143D01*
X15414048Y-15518190D02*
X15414048Y-15651524D01*
X15366429Y-15442000D02*
X15318810Y-15584857D01*
X15318810Y-15584857D02*
X15442619Y-15584857D01*
X15661667Y-15642000D02*
X15680715Y-15651524D01*
X15680715Y-15651524D02*
X15718810Y-15651524D01*
X15718810Y-15651524D02*
X15737858Y-15642000D01*
X15737858Y-15642000D02*
X15747381Y-15622952D01*
X15747381Y-15622952D02*
X15747381Y-15613428D01*
X15747381Y-15613428D02*
X15737858Y-15594381D01*
X15737858Y-15594381D02*
X15718810Y-15584857D01*
X15718810Y-15584857D02*
X15690239Y-15584857D01*
X15690239Y-15584857D02*
X15671191Y-15575333D01*
X15671191Y-15575333D02*
X15661667Y-15556286D01*
X15661667Y-15556286D02*
X15661667Y-15546762D01*
X15661667Y-15546762D02*
X15671191Y-15527714D01*
X15671191Y-15527714D02*
X15690239Y-15518190D01*
X15690239Y-15518190D02*
X15718810Y-15518190D01*
X15718810Y-15518190D02*
X15737858Y-15527714D01*
X15861667Y-15651524D02*
X15842620Y-15642000D01*
X15842620Y-15642000D02*
X15833096Y-15622952D01*
X15833096Y-15622952D02*
X15833096Y-15451524D01*
X15966429Y-15651524D02*
X15947381Y-15642000D01*
X15947381Y-15642000D02*
X15937858Y-15632476D01*
X15937858Y-15632476D02*
X15928334Y-15613428D01*
X15928334Y-15613428D02*
X15928334Y-15556286D01*
X15928334Y-15556286D02*
X15937858Y-15537238D01*
X15937858Y-15537238D02*
X15947381Y-15527714D01*
X15947381Y-15527714D02*
X15966429Y-15518190D01*
X15966429Y-15518190D02*
X15995001Y-15518190D01*
X15995001Y-15518190D02*
X16014048Y-15527714D01*
X16014048Y-15527714D02*
X16023572Y-15537238D01*
X16023572Y-15537238D02*
X16033096Y-15556286D01*
X16033096Y-15556286D02*
X16033096Y-15613428D01*
X16033096Y-15613428D02*
X16023572Y-15632476D01*
X16023572Y-15632476D02*
X16014048Y-15642000D01*
X16014048Y-15642000D02*
X15995001Y-15651524D01*
X15995001Y-15651524D02*
X15966429Y-15651524D01*
X16090239Y-15518190D02*
X16166429Y-15518190D01*
X16118810Y-15451524D02*
X16118810Y-15622952D01*
X16118810Y-15622952D02*
X16128334Y-15642000D01*
X16128334Y-15642000D02*
X16147381Y-15651524D01*
X16147381Y-15651524D02*
X16166429Y-15651524D01*
X16223572Y-15642000D02*
X16242620Y-15651524D01*
X16242620Y-15651524D02*
X16280715Y-15651524D01*
X16280715Y-15651524D02*
X16299762Y-15642000D01*
X16299762Y-15642000D02*
X16309286Y-15622952D01*
X16309286Y-15622952D02*
X16309286Y-15613428D01*
X16309286Y-15613428D02*
X16299762Y-15594381D01*
X16299762Y-15594381D02*
X16280715Y-15584857D01*
X16280715Y-15584857D02*
X16252143Y-15584857D01*
X16252143Y-15584857D02*
X16233096Y-15575333D01*
X16233096Y-15575333D02*
X16223572Y-15556286D01*
X16223572Y-15556286D02*
X16223572Y-15546762D01*
X16223572Y-15546762D02*
X16233096Y-15527714D01*
X16233096Y-15527714D02*
X16252143Y-15518190D01*
X16252143Y-15518190D02*
X16280715Y-15518190D01*
X16280715Y-15518190D02*
X16299762Y-15527714D01*
X16375953Y-15727714D02*
X16385477Y-15718190D01*
X16385477Y-15718190D02*
X16404524Y-15689619D01*
X16404524Y-15689619D02*
X16414048Y-15670571D01*
X16414048Y-15670571D02*
X16423572Y-15642000D01*
X16423572Y-15642000D02*
X16433096Y-15594381D01*
X16433096Y-15594381D02*
X16433096Y-15556286D01*
X16433096Y-15556286D02*
X16423572Y-15508667D01*
X16423572Y-15508667D02*
X16414048Y-15480095D01*
X16414048Y-15480095D02*
X16404524Y-15461048D01*
X16404524Y-15461048D02*
X16385477Y-15432476D01*
X16385477Y-15432476D02*
X16375953Y-15422952D01*
D10*
X9945000Y-15773000D02*
X9945000Y-15873000D01*
X9895000Y-15823000D02*
X9995000Y-15823000D01*
D11*
X10347381Y-15915524D02*
X10233095Y-15915524D01*
X10290238Y-15915524D02*
X10290238Y-15715524D01*
X10290238Y-15715524D02*
X10271190Y-15744095D01*
X10271190Y-15744095D02*
X10252143Y-15763143D01*
X10252143Y-15763143D02*
X10233095Y-15772667D01*
X10433095Y-15896476D02*
X10442619Y-15906000D01*
X10442619Y-15906000D02*
X10433095Y-15915524D01*
X10433095Y-15915524D02*
X10423571Y-15906000D01*
X10423571Y-15906000D02*
X10433095Y-15896476D01*
X10433095Y-15896476D02*
X10433095Y-15915524D01*
X10566429Y-15715524D02*
X10585476Y-15715524D01*
X10585476Y-15715524D02*
X10604524Y-15725048D01*
X10604524Y-15725048D02*
X10614048Y-15734571D01*
X10614048Y-15734571D02*
X10623571Y-15753619D01*
X10623571Y-15753619D02*
X10633095Y-15791714D01*
X10633095Y-15791714D02*
X10633095Y-15839333D01*
X10633095Y-15839333D02*
X10623571Y-15877428D01*
X10623571Y-15877428D02*
X10614048Y-15896476D01*
X10614048Y-15896476D02*
X10604524Y-15906000D01*
X10604524Y-15906000D02*
X10585476Y-15915524D01*
X10585476Y-15915524D02*
X10566429Y-15915524D01*
X10566429Y-15915524D02*
X10547381Y-15906000D01*
X10547381Y-15906000D02*
X10537857Y-15896476D01*
X10537857Y-15896476D02*
X10528333Y-15877428D01*
X10528333Y-15877428D02*
X10518810Y-15839333D01*
X10518810Y-15839333D02*
X10518810Y-15791714D01*
X10518810Y-15791714D02*
X10528333Y-15753619D01*
X10528333Y-15753619D02*
X10537857Y-15734571D01*
X10537857Y-15734571D02*
X10547381Y-15725048D01*
X10547381Y-15725048D02*
X10566429Y-15715524D01*
X10756905Y-15715524D02*
X10775952Y-15715524D01*
X10775952Y-15715524D02*
X10795000Y-15725048D01*
X10795000Y-15725048D02*
X10804524Y-15734571D01*
X10804524Y-15734571D02*
X10814048Y-15753619D01*
X10814048Y-15753619D02*
X10823571Y-15791714D01*
X10823571Y-15791714D02*
X10823571Y-15839333D01*
X10823571Y-15839333D02*
X10814048Y-15877428D01*
X10814048Y-15877428D02*
X10804524Y-15896476D01*
X10804524Y-15896476D02*
X10795000Y-15906000D01*
X10795000Y-15906000D02*
X10775952Y-15915524D01*
X10775952Y-15915524D02*
X10756905Y-15915524D01*
X10756905Y-15915524D02*
X10737857Y-15906000D01*
X10737857Y-15906000D02*
X10728333Y-15896476D01*
X10728333Y-15896476D02*
X10718810Y-15877428D01*
X10718810Y-15877428D02*
X10709286Y-15839333D01*
X10709286Y-15839333D02*
X10709286Y-15791714D01*
X10709286Y-15791714D02*
X10718810Y-15753619D01*
X10718810Y-15753619D02*
X10728333Y-15734571D01*
X10728333Y-15734571D02*
X10737857Y-15725048D01*
X10737857Y-15725048D02*
X10756905Y-15715524D01*
X10947381Y-15715524D02*
X10966429Y-15715524D01*
X10966429Y-15715524D02*
X10985476Y-15725048D01*
X10985476Y-15725048D02*
X10995000Y-15734571D01*
X10995000Y-15734571D02*
X11004524Y-15753619D01*
X11004524Y-15753619D02*
X11014048Y-15791714D01*
X11014048Y-15791714D02*
X11014048Y-15839333D01*
X11014048Y-15839333D02*
X11004524Y-15877428D01*
X11004524Y-15877428D02*
X10995000Y-15896476D01*
X10995000Y-15896476D02*
X10985476Y-15906000D01*
X10985476Y-15906000D02*
X10966429Y-15915524D01*
X10966429Y-15915524D02*
X10947381Y-15915524D01*
X10947381Y-15915524D02*
X10928333Y-15906000D01*
X10928333Y-15906000D02*
X10918810Y-15896476D01*
X10918810Y-15896476D02*
X10909286Y-15877428D01*
X10909286Y-15877428D02*
X10899762Y-15839333D01*
X10899762Y-15839333D02*
X10899762Y-15791714D01*
X10899762Y-15791714D02*
X10909286Y-15753619D01*
X10909286Y-15753619D02*
X10918810Y-15734571D01*
X10918810Y-15734571D02*
X10928333Y-15725048D01*
X10928333Y-15725048D02*
X10947381Y-15715524D01*
X11099762Y-15915524D02*
X11099762Y-15782190D01*
X11099762Y-15801238D02*
X11109286Y-15791714D01*
X11109286Y-15791714D02*
X11128333Y-15782190D01*
X11128333Y-15782190D02*
X11156905Y-15782190D01*
X11156905Y-15782190D02*
X11175952Y-15791714D01*
X11175952Y-15791714D02*
X11185476Y-15810762D01*
X11185476Y-15810762D02*
X11185476Y-15915524D01*
X11185476Y-15810762D02*
X11195000Y-15791714D01*
X11195000Y-15791714D02*
X11214048Y-15782190D01*
X11214048Y-15782190D02*
X11242619Y-15782190D01*
X11242619Y-15782190D02*
X11261667Y-15791714D01*
X11261667Y-15791714D02*
X11271190Y-15810762D01*
X11271190Y-15810762D02*
X11271190Y-15915524D01*
X11366429Y-15915524D02*
X11366429Y-15782190D01*
X11366429Y-15801238D02*
X11375952Y-15791714D01*
X11375952Y-15791714D02*
X11395000Y-15782190D01*
X11395000Y-15782190D02*
X11423571Y-15782190D01*
X11423571Y-15782190D02*
X11442619Y-15791714D01*
X11442619Y-15791714D02*
X11452143Y-15810762D01*
X11452143Y-15810762D02*
X11452143Y-15915524D01*
X11452143Y-15810762D02*
X11461667Y-15791714D01*
X11461667Y-15791714D02*
X11480714Y-15782190D01*
X11480714Y-15782190D02*
X11509286Y-15782190D01*
X11509286Y-15782190D02*
X11528333Y-15791714D01*
X11528333Y-15791714D02*
X11537857Y-15810762D01*
X11537857Y-15810762D02*
X11537857Y-15915524D01*
X11928333Y-15706000D02*
X11756905Y-15963143D01*
X12185476Y-15715524D02*
X12204524Y-15715524D01*
X12204524Y-15715524D02*
X12223572Y-15725048D01*
X12223572Y-15725048D02*
X12233095Y-15734571D01*
X12233095Y-15734571D02*
X12242619Y-15753619D01*
X12242619Y-15753619D02*
X12252143Y-15791714D01*
X12252143Y-15791714D02*
X12252143Y-15839333D01*
X12252143Y-15839333D02*
X12242619Y-15877428D01*
X12242619Y-15877428D02*
X12233095Y-15896476D01*
X12233095Y-15896476D02*
X12223572Y-15906000D01*
X12223572Y-15906000D02*
X12204524Y-15915524D01*
X12204524Y-15915524D02*
X12185476Y-15915524D01*
X12185476Y-15915524D02*
X12166429Y-15906000D01*
X12166429Y-15906000D02*
X12156905Y-15896476D01*
X12156905Y-15896476D02*
X12147381Y-15877428D01*
X12147381Y-15877428D02*
X12137857Y-15839333D01*
X12137857Y-15839333D02*
X12137857Y-15791714D01*
X12137857Y-15791714D02*
X12147381Y-15753619D01*
X12147381Y-15753619D02*
X12156905Y-15734571D01*
X12156905Y-15734571D02*
X12166429Y-15725048D01*
X12166429Y-15725048D02*
X12185476Y-15715524D01*
X12337857Y-15896476D02*
X12347381Y-15906000D01*
X12347381Y-15906000D02*
X12337857Y-15915524D01*
X12337857Y-15915524D02*
X12328333Y-15906000D01*
X12328333Y-15906000D02*
X12337857Y-15896476D01*
X12337857Y-15896476D02*
X12337857Y-15915524D01*
X12471191Y-15715524D02*
X12490238Y-15715524D01*
X12490238Y-15715524D02*
X12509286Y-15725048D01*
X12509286Y-15725048D02*
X12518810Y-15734571D01*
X12518810Y-15734571D02*
X12528333Y-15753619D01*
X12528333Y-15753619D02*
X12537857Y-15791714D01*
X12537857Y-15791714D02*
X12537857Y-15839333D01*
X12537857Y-15839333D02*
X12528333Y-15877428D01*
X12528333Y-15877428D02*
X12518810Y-15896476D01*
X12518810Y-15896476D02*
X12509286Y-15906000D01*
X12509286Y-15906000D02*
X12490238Y-15915524D01*
X12490238Y-15915524D02*
X12471191Y-15915524D01*
X12471191Y-15915524D02*
X12452143Y-15906000D01*
X12452143Y-15906000D02*
X12442619Y-15896476D01*
X12442619Y-15896476D02*
X12433095Y-15877428D01*
X12433095Y-15877428D02*
X12423572Y-15839333D01*
X12423572Y-15839333D02*
X12423572Y-15791714D01*
X12423572Y-15791714D02*
X12433095Y-15753619D01*
X12433095Y-15753619D02*
X12442619Y-15734571D01*
X12442619Y-15734571D02*
X12452143Y-15725048D01*
X12452143Y-15725048D02*
X12471191Y-15715524D01*
X12604524Y-15715524D02*
X12728333Y-15715524D01*
X12728333Y-15715524D02*
X12661667Y-15791714D01*
X12661667Y-15791714D02*
X12690238Y-15791714D01*
X12690238Y-15791714D02*
X12709286Y-15801238D01*
X12709286Y-15801238D02*
X12718810Y-15810762D01*
X12718810Y-15810762D02*
X12728333Y-15829809D01*
X12728333Y-15829809D02*
X12728333Y-15877428D01*
X12728333Y-15877428D02*
X12718810Y-15896476D01*
X12718810Y-15896476D02*
X12709286Y-15906000D01*
X12709286Y-15906000D02*
X12690238Y-15915524D01*
X12690238Y-15915524D02*
X12633095Y-15915524D01*
X12633095Y-15915524D02*
X12614048Y-15906000D01*
X12614048Y-15906000D02*
X12604524Y-15896476D01*
X12823572Y-15915524D02*
X12861667Y-15915524D01*
X12861667Y-15915524D02*
X12880714Y-15906000D01*
X12880714Y-15906000D02*
X12890238Y-15896476D01*
X12890238Y-15896476D02*
X12909286Y-15867905D01*
X12909286Y-15867905D02*
X12918810Y-15829809D01*
X12918810Y-15829809D02*
X12918810Y-15753619D01*
X12918810Y-15753619D02*
X12909286Y-15734571D01*
X12909286Y-15734571D02*
X12899762Y-15725048D01*
X12899762Y-15725048D02*
X12880714Y-15715524D01*
X12880714Y-15715524D02*
X12842619Y-15715524D01*
X12842619Y-15715524D02*
X12823572Y-15725048D01*
X12823572Y-15725048D02*
X12814048Y-15734571D01*
X12814048Y-15734571D02*
X12804524Y-15753619D01*
X12804524Y-15753619D02*
X12804524Y-15801238D01*
X12804524Y-15801238D02*
X12814048Y-15820286D01*
X12814048Y-15820286D02*
X12823572Y-15829809D01*
X12823572Y-15829809D02*
X12842619Y-15839333D01*
X12842619Y-15839333D02*
X12880714Y-15839333D01*
X12880714Y-15839333D02*
X12899762Y-15829809D01*
X12899762Y-15829809D02*
X12909286Y-15820286D01*
X12909286Y-15820286D02*
X12918810Y-15801238D01*
X13090238Y-15782190D02*
X13090238Y-15915524D01*
X13042619Y-15706000D02*
X12995000Y-15848857D01*
X12995000Y-15848857D02*
X13118810Y-15848857D01*
X13185476Y-15715524D02*
X13185476Y-15753619D01*
X13261667Y-15715524D02*
X13261667Y-15753619D01*
X13556905Y-15991714D02*
X13547381Y-15982190D01*
X13547381Y-15982190D02*
X13528334Y-15953619D01*
X13528334Y-15953619D02*
X13518810Y-15934571D01*
X13518810Y-15934571D02*
X13509286Y-15906000D01*
X13509286Y-15906000D02*
X13499762Y-15858381D01*
X13499762Y-15858381D02*
X13499762Y-15820286D01*
X13499762Y-15820286D02*
X13509286Y-15772667D01*
X13509286Y-15772667D02*
X13518810Y-15744095D01*
X13518810Y-15744095D02*
X13528334Y-15725048D01*
X13528334Y-15725048D02*
X13547381Y-15696476D01*
X13547381Y-15696476D02*
X13556905Y-15686952D01*
X13737857Y-15915524D02*
X13623572Y-15915524D01*
X13680714Y-15915524D02*
X13680714Y-15715524D01*
X13680714Y-15715524D02*
X13661667Y-15744095D01*
X13661667Y-15744095D02*
X13642619Y-15763143D01*
X13642619Y-15763143D02*
X13623572Y-15772667D01*
X13814048Y-15734571D02*
X13823572Y-15725048D01*
X13823572Y-15725048D02*
X13842619Y-15715524D01*
X13842619Y-15715524D02*
X13890238Y-15715524D01*
X13890238Y-15715524D02*
X13909286Y-15725048D01*
X13909286Y-15725048D02*
X13918810Y-15734571D01*
X13918810Y-15734571D02*
X13928334Y-15753619D01*
X13928334Y-15753619D02*
X13928334Y-15772667D01*
X13928334Y-15772667D02*
X13918810Y-15801238D01*
X13918810Y-15801238D02*
X13804524Y-15915524D01*
X13804524Y-15915524D02*
X13928334Y-15915524D01*
X14166429Y-15915524D02*
X14166429Y-15715524D01*
X14252143Y-15915524D02*
X14252143Y-15810762D01*
X14252143Y-15810762D02*
X14242619Y-15791714D01*
X14242619Y-15791714D02*
X14223572Y-15782190D01*
X14223572Y-15782190D02*
X14195000Y-15782190D01*
X14195000Y-15782190D02*
X14175953Y-15791714D01*
X14175953Y-15791714D02*
X14166429Y-15801238D01*
X14375953Y-15915524D02*
X14356905Y-15906000D01*
X14356905Y-15906000D02*
X14347381Y-15896476D01*
X14347381Y-15896476D02*
X14337857Y-15877428D01*
X14337857Y-15877428D02*
X14337857Y-15820286D01*
X14337857Y-15820286D02*
X14347381Y-15801238D01*
X14347381Y-15801238D02*
X14356905Y-15791714D01*
X14356905Y-15791714D02*
X14375953Y-15782190D01*
X14375953Y-15782190D02*
X14404524Y-15782190D01*
X14404524Y-15782190D02*
X14423572Y-15791714D01*
X14423572Y-15791714D02*
X14433096Y-15801238D01*
X14433096Y-15801238D02*
X14442619Y-15820286D01*
X14442619Y-15820286D02*
X14442619Y-15877428D01*
X14442619Y-15877428D02*
X14433096Y-15896476D01*
X14433096Y-15896476D02*
X14423572Y-15906000D01*
X14423572Y-15906000D02*
X14404524Y-15915524D01*
X14404524Y-15915524D02*
X14375953Y-15915524D01*
X14556905Y-15915524D02*
X14537857Y-15906000D01*
X14537857Y-15906000D02*
X14528334Y-15886952D01*
X14528334Y-15886952D02*
X14528334Y-15715524D01*
X14709286Y-15906000D02*
X14690238Y-15915524D01*
X14690238Y-15915524D02*
X14652143Y-15915524D01*
X14652143Y-15915524D02*
X14633096Y-15906000D01*
X14633096Y-15906000D02*
X14623572Y-15886952D01*
X14623572Y-15886952D02*
X14623572Y-15810762D01*
X14623572Y-15810762D02*
X14633096Y-15791714D01*
X14633096Y-15791714D02*
X14652143Y-15782190D01*
X14652143Y-15782190D02*
X14690238Y-15782190D01*
X14690238Y-15782190D02*
X14709286Y-15791714D01*
X14709286Y-15791714D02*
X14718810Y-15810762D01*
X14718810Y-15810762D02*
X14718810Y-15829809D01*
X14718810Y-15829809D02*
X14623572Y-15848857D01*
X14795000Y-15906000D02*
X14814048Y-15915524D01*
X14814048Y-15915524D02*
X14852143Y-15915524D01*
X14852143Y-15915524D02*
X14871191Y-15906000D01*
X14871191Y-15906000D02*
X14880715Y-15886952D01*
X14880715Y-15886952D02*
X14880715Y-15877428D01*
X14880715Y-15877428D02*
X14871191Y-15858381D01*
X14871191Y-15858381D02*
X14852143Y-15848857D01*
X14852143Y-15848857D02*
X14823572Y-15848857D01*
X14823572Y-15848857D02*
X14804524Y-15839333D01*
X14804524Y-15839333D02*
X14795000Y-15820286D01*
X14795000Y-15820286D02*
X14795000Y-15810762D01*
X14795000Y-15810762D02*
X14804524Y-15791714D01*
X14804524Y-15791714D02*
X14823572Y-15782190D01*
X14823572Y-15782190D02*
X14852143Y-15782190D01*
X14852143Y-15782190D02*
X14871191Y-15791714D01*
X14947381Y-15991714D02*
X14956905Y-15982190D01*
X14956905Y-15982190D02*
X14975953Y-15953619D01*
X14975953Y-15953619D02*
X14985477Y-15934571D01*
X14985477Y-15934571D02*
X14995000Y-15906000D01*
X14995000Y-15906000D02*
X15004524Y-15858381D01*
X15004524Y-15858381D02*
X15004524Y-15820286D01*
X15004524Y-15820286D02*
X14995000Y-15772667D01*
X14995000Y-15772667D02*
X14985477Y-15744095D01*
X14985477Y-15744095D02*
X14975953Y-15725048D01*
X14975953Y-15725048D02*
X14956905Y-15696476D01*
X14956905Y-15696476D02*
X14947381Y-15686952D01*
X9965711Y-16157711D02*
X9965711Y-16016289D01*
X9824289Y-16016289D01*
X9824289Y-16157711D01*
X9965711Y-16157711D01*
X10233095Y-15998571D02*
X10242619Y-15989048D01*
X10242619Y-15989048D02*
X10261667Y-15979524D01*
X10261667Y-15979524D02*
X10309286Y-15979524D01*
X10309286Y-15979524D02*
X10328333Y-15989048D01*
X10328333Y-15989048D02*
X10337857Y-15998571D01*
X10337857Y-15998571D02*
X10347381Y-16017619D01*
X10347381Y-16017619D02*
X10347381Y-16036667D01*
X10347381Y-16036667D02*
X10337857Y-16065238D01*
X10337857Y-16065238D02*
X10223571Y-16179524D01*
X10223571Y-16179524D02*
X10347381Y-16179524D01*
X10433095Y-16160476D02*
X10442619Y-16170000D01*
X10442619Y-16170000D02*
X10433095Y-16179524D01*
X10433095Y-16179524D02*
X10423571Y-16170000D01*
X10423571Y-16170000D02*
X10433095Y-16160476D01*
X10433095Y-16160476D02*
X10433095Y-16179524D01*
X10518810Y-15998571D02*
X10528333Y-15989048D01*
X10528333Y-15989048D02*
X10547381Y-15979524D01*
X10547381Y-15979524D02*
X10595000Y-15979524D01*
X10595000Y-15979524D02*
X10614048Y-15989048D01*
X10614048Y-15989048D02*
X10623571Y-15998571D01*
X10623571Y-15998571D02*
X10633095Y-16017619D01*
X10633095Y-16017619D02*
X10633095Y-16036667D01*
X10633095Y-16036667D02*
X10623571Y-16065238D01*
X10623571Y-16065238D02*
X10509286Y-16179524D01*
X10509286Y-16179524D02*
X10633095Y-16179524D01*
X10756905Y-15979524D02*
X10775952Y-15979524D01*
X10775952Y-15979524D02*
X10795000Y-15989048D01*
X10795000Y-15989048D02*
X10804524Y-15998571D01*
X10804524Y-15998571D02*
X10814048Y-16017619D01*
X10814048Y-16017619D02*
X10823571Y-16055714D01*
X10823571Y-16055714D02*
X10823571Y-16103333D01*
X10823571Y-16103333D02*
X10814048Y-16141428D01*
X10814048Y-16141428D02*
X10804524Y-16160476D01*
X10804524Y-16160476D02*
X10795000Y-16170000D01*
X10795000Y-16170000D02*
X10775952Y-16179524D01*
X10775952Y-16179524D02*
X10756905Y-16179524D01*
X10756905Y-16179524D02*
X10737857Y-16170000D01*
X10737857Y-16170000D02*
X10728333Y-16160476D01*
X10728333Y-16160476D02*
X10718810Y-16141428D01*
X10718810Y-16141428D02*
X10709286Y-16103333D01*
X10709286Y-16103333D02*
X10709286Y-16055714D01*
X10709286Y-16055714D02*
X10718810Y-16017619D01*
X10718810Y-16017619D02*
X10728333Y-15998571D01*
X10728333Y-15998571D02*
X10737857Y-15989048D01*
X10737857Y-15989048D02*
X10756905Y-15979524D01*
X10947381Y-15979524D02*
X10966429Y-15979524D01*
X10966429Y-15979524D02*
X10985476Y-15989048D01*
X10985476Y-15989048D02*
X10995000Y-15998571D01*
X10995000Y-15998571D02*
X11004524Y-16017619D01*
X11004524Y-16017619D02*
X11014048Y-16055714D01*
X11014048Y-16055714D02*
X11014048Y-16103333D01*
X11014048Y-16103333D02*
X11004524Y-16141428D01*
X11004524Y-16141428D02*
X10995000Y-16160476D01*
X10995000Y-16160476D02*
X10985476Y-16170000D01*
X10985476Y-16170000D02*
X10966429Y-16179524D01*
X10966429Y-16179524D02*
X10947381Y-16179524D01*
X10947381Y-16179524D02*
X10928333Y-16170000D01*
X10928333Y-16170000D02*
X10918810Y-16160476D01*
X10918810Y-16160476D02*
X10909286Y-16141428D01*
X10909286Y-16141428D02*
X10899762Y-16103333D01*
X10899762Y-16103333D02*
X10899762Y-16055714D01*
X10899762Y-16055714D02*
X10909286Y-16017619D01*
X10909286Y-16017619D02*
X10918810Y-15998571D01*
X10918810Y-15998571D02*
X10928333Y-15989048D01*
X10928333Y-15989048D02*
X10947381Y-15979524D01*
X11099762Y-16179524D02*
X11099762Y-16046190D01*
X11099762Y-16065238D02*
X11109286Y-16055714D01*
X11109286Y-16055714D02*
X11128333Y-16046190D01*
X11128333Y-16046190D02*
X11156905Y-16046190D01*
X11156905Y-16046190D02*
X11175952Y-16055714D01*
X11175952Y-16055714D02*
X11185476Y-16074762D01*
X11185476Y-16074762D02*
X11185476Y-16179524D01*
X11185476Y-16074762D02*
X11195000Y-16055714D01*
X11195000Y-16055714D02*
X11214048Y-16046190D01*
X11214048Y-16046190D02*
X11242619Y-16046190D01*
X11242619Y-16046190D02*
X11261667Y-16055714D01*
X11261667Y-16055714D02*
X11271190Y-16074762D01*
X11271190Y-16074762D02*
X11271190Y-16179524D01*
X11366429Y-16179524D02*
X11366429Y-16046190D01*
X11366429Y-16065238D02*
X11375952Y-16055714D01*
X11375952Y-16055714D02*
X11395000Y-16046190D01*
X11395000Y-16046190D02*
X11423571Y-16046190D01*
X11423571Y-16046190D02*
X11442619Y-16055714D01*
X11442619Y-16055714D02*
X11452143Y-16074762D01*
X11452143Y-16074762D02*
X11452143Y-16179524D01*
X11452143Y-16074762D02*
X11461667Y-16055714D01*
X11461667Y-16055714D02*
X11480714Y-16046190D01*
X11480714Y-16046190D02*
X11509286Y-16046190D01*
X11509286Y-16046190D02*
X11528333Y-16055714D01*
X11528333Y-16055714D02*
X11537857Y-16074762D01*
X11537857Y-16074762D02*
X11537857Y-16179524D01*
X11928333Y-15970000D02*
X11756905Y-16227143D01*
X12185476Y-15979524D02*
X12204524Y-15979524D01*
X12204524Y-15979524D02*
X12223572Y-15989048D01*
X12223572Y-15989048D02*
X12233095Y-15998571D01*
X12233095Y-15998571D02*
X12242619Y-16017619D01*
X12242619Y-16017619D02*
X12252143Y-16055714D01*
X12252143Y-16055714D02*
X12252143Y-16103333D01*
X12252143Y-16103333D02*
X12242619Y-16141428D01*
X12242619Y-16141428D02*
X12233095Y-16160476D01*
X12233095Y-16160476D02*
X12223572Y-16170000D01*
X12223572Y-16170000D02*
X12204524Y-16179524D01*
X12204524Y-16179524D02*
X12185476Y-16179524D01*
X12185476Y-16179524D02*
X12166429Y-16170000D01*
X12166429Y-16170000D02*
X12156905Y-16160476D01*
X12156905Y-16160476D02*
X12147381Y-16141428D01*
X12147381Y-16141428D02*
X12137857Y-16103333D01*
X12137857Y-16103333D02*
X12137857Y-16055714D01*
X12137857Y-16055714D02*
X12147381Y-16017619D01*
X12147381Y-16017619D02*
X12156905Y-15998571D01*
X12156905Y-15998571D02*
X12166429Y-15989048D01*
X12166429Y-15989048D02*
X12185476Y-15979524D01*
X12337857Y-16160476D02*
X12347381Y-16170000D01*
X12347381Y-16170000D02*
X12337857Y-16179524D01*
X12337857Y-16179524D02*
X12328333Y-16170000D01*
X12328333Y-16170000D02*
X12337857Y-16160476D01*
X12337857Y-16160476D02*
X12337857Y-16179524D01*
X12471191Y-15979524D02*
X12490238Y-15979524D01*
X12490238Y-15979524D02*
X12509286Y-15989048D01*
X12509286Y-15989048D02*
X12518810Y-15998571D01*
X12518810Y-15998571D02*
X12528333Y-16017619D01*
X12528333Y-16017619D02*
X12537857Y-16055714D01*
X12537857Y-16055714D02*
X12537857Y-16103333D01*
X12537857Y-16103333D02*
X12528333Y-16141428D01*
X12528333Y-16141428D02*
X12518810Y-16160476D01*
X12518810Y-16160476D02*
X12509286Y-16170000D01*
X12509286Y-16170000D02*
X12490238Y-16179524D01*
X12490238Y-16179524D02*
X12471191Y-16179524D01*
X12471191Y-16179524D02*
X12452143Y-16170000D01*
X12452143Y-16170000D02*
X12442619Y-16160476D01*
X12442619Y-16160476D02*
X12433095Y-16141428D01*
X12433095Y-16141428D02*
X12423572Y-16103333D01*
X12423572Y-16103333D02*
X12423572Y-16055714D01*
X12423572Y-16055714D02*
X12433095Y-16017619D01*
X12433095Y-16017619D02*
X12442619Y-15998571D01*
X12442619Y-15998571D02*
X12452143Y-15989048D01*
X12452143Y-15989048D02*
X12471191Y-15979524D01*
X12652143Y-16065238D02*
X12633095Y-16055714D01*
X12633095Y-16055714D02*
X12623572Y-16046190D01*
X12623572Y-16046190D02*
X12614048Y-16027143D01*
X12614048Y-16027143D02*
X12614048Y-16017619D01*
X12614048Y-16017619D02*
X12623572Y-15998571D01*
X12623572Y-15998571D02*
X12633095Y-15989048D01*
X12633095Y-15989048D02*
X12652143Y-15979524D01*
X12652143Y-15979524D02*
X12690238Y-15979524D01*
X12690238Y-15979524D02*
X12709286Y-15989048D01*
X12709286Y-15989048D02*
X12718810Y-15998571D01*
X12718810Y-15998571D02*
X12728333Y-16017619D01*
X12728333Y-16017619D02*
X12728333Y-16027143D01*
X12728333Y-16027143D02*
X12718810Y-16046190D01*
X12718810Y-16046190D02*
X12709286Y-16055714D01*
X12709286Y-16055714D02*
X12690238Y-16065238D01*
X12690238Y-16065238D02*
X12652143Y-16065238D01*
X12652143Y-16065238D02*
X12633095Y-16074762D01*
X12633095Y-16074762D02*
X12623572Y-16084286D01*
X12623572Y-16084286D02*
X12614048Y-16103333D01*
X12614048Y-16103333D02*
X12614048Y-16141428D01*
X12614048Y-16141428D02*
X12623572Y-16160476D01*
X12623572Y-16160476D02*
X12633095Y-16170000D01*
X12633095Y-16170000D02*
X12652143Y-16179524D01*
X12652143Y-16179524D02*
X12690238Y-16179524D01*
X12690238Y-16179524D02*
X12709286Y-16170000D01*
X12709286Y-16170000D02*
X12718810Y-16160476D01*
X12718810Y-16160476D02*
X12728333Y-16141428D01*
X12728333Y-16141428D02*
X12728333Y-16103333D01*
X12728333Y-16103333D02*
X12718810Y-16084286D01*
X12718810Y-16084286D02*
X12709286Y-16074762D01*
X12709286Y-16074762D02*
X12690238Y-16065238D01*
X12899762Y-15979524D02*
X12861667Y-15979524D01*
X12861667Y-15979524D02*
X12842619Y-15989048D01*
X12842619Y-15989048D02*
X12833095Y-15998571D01*
X12833095Y-15998571D02*
X12814048Y-16027143D01*
X12814048Y-16027143D02*
X12804524Y-16065238D01*
X12804524Y-16065238D02*
X12804524Y-16141428D01*
X12804524Y-16141428D02*
X12814048Y-16160476D01*
X12814048Y-16160476D02*
X12823572Y-16170000D01*
X12823572Y-16170000D02*
X12842619Y-16179524D01*
X12842619Y-16179524D02*
X12880714Y-16179524D01*
X12880714Y-16179524D02*
X12899762Y-16170000D01*
X12899762Y-16170000D02*
X12909286Y-16160476D01*
X12909286Y-16160476D02*
X12918810Y-16141428D01*
X12918810Y-16141428D02*
X12918810Y-16093809D01*
X12918810Y-16093809D02*
X12909286Y-16074762D01*
X12909286Y-16074762D02*
X12899762Y-16065238D01*
X12899762Y-16065238D02*
X12880714Y-16055714D01*
X12880714Y-16055714D02*
X12842619Y-16055714D01*
X12842619Y-16055714D02*
X12823572Y-16065238D01*
X12823572Y-16065238D02*
X12814048Y-16074762D01*
X12814048Y-16074762D02*
X12804524Y-16093809D01*
X13090238Y-15979524D02*
X13052143Y-15979524D01*
X13052143Y-15979524D02*
X13033095Y-15989048D01*
X13033095Y-15989048D02*
X13023572Y-15998571D01*
X13023572Y-15998571D02*
X13004524Y-16027143D01*
X13004524Y-16027143D02*
X12995000Y-16065238D01*
X12995000Y-16065238D02*
X12995000Y-16141428D01*
X12995000Y-16141428D02*
X13004524Y-16160476D01*
X13004524Y-16160476D02*
X13014048Y-16170000D01*
X13014048Y-16170000D02*
X13033095Y-16179524D01*
X13033095Y-16179524D02*
X13071191Y-16179524D01*
X13071191Y-16179524D02*
X13090238Y-16170000D01*
X13090238Y-16170000D02*
X13099762Y-16160476D01*
X13099762Y-16160476D02*
X13109286Y-16141428D01*
X13109286Y-16141428D02*
X13109286Y-16093809D01*
X13109286Y-16093809D02*
X13099762Y-16074762D01*
X13099762Y-16074762D02*
X13090238Y-16065238D01*
X13090238Y-16065238D02*
X13071191Y-16055714D01*
X13071191Y-16055714D02*
X13033095Y-16055714D01*
X13033095Y-16055714D02*
X13014048Y-16065238D01*
X13014048Y-16065238D02*
X13004524Y-16074762D01*
X13004524Y-16074762D02*
X12995000Y-16093809D01*
X13185476Y-15979524D02*
X13185476Y-16017619D01*
X13261667Y-15979524D02*
X13261667Y-16017619D01*
X13556905Y-16255714D02*
X13547381Y-16246190D01*
X13547381Y-16246190D02*
X13528334Y-16217619D01*
X13528334Y-16217619D02*
X13518810Y-16198571D01*
X13518810Y-16198571D02*
X13509286Y-16170000D01*
X13509286Y-16170000D02*
X13499762Y-16122381D01*
X13499762Y-16122381D02*
X13499762Y-16084286D01*
X13499762Y-16084286D02*
X13509286Y-16036667D01*
X13509286Y-16036667D02*
X13518810Y-16008095D01*
X13518810Y-16008095D02*
X13528334Y-15989048D01*
X13528334Y-15989048D02*
X13547381Y-15960476D01*
X13547381Y-15960476D02*
X13556905Y-15950952D01*
X13718810Y-16046190D02*
X13718810Y-16179524D01*
X13671191Y-15970000D02*
X13623572Y-16112857D01*
X13623572Y-16112857D02*
X13747381Y-16112857D01*
X13975953Y-16179524D02*
X13975953Y-15979524D01*
X14061667Y-16179524D02*
X14061667Y-16074762D01*
X14061667Y-16074762D02*
X14052143Y-16055714D01*
X14052143Y-16055714D02*
X14033096Y-16046190D01*
X14033096Y-16046190D02*
X14004524Y-16046190D01*
X14004524Y-16046190D02*
X13985476Y-16055714D01*
X13985476Y-16055714D02*
X13975953Y-16065238D01*
X14185476Y-16179524D02*
X14166429Y-16170000D01*
X14166429Y-16170000D02*
X14156905Y-16160476D01*
X14156905Y-16160476D02*
X14147381Y-16141428D01*
X14147381Y-16141428D02*
X14147381Y-16084286D01*
X14147381Y-16084286D02*
X14156905Y-16065238D01*
X14156905Y-16065238D02*
X14166429Y-16055714D01*
X14166429Y-16055714D02*
X14185476Y-16046190D01*
X14185476Y-16046190D02*
X14214048Y-16046190D01*
X14214048Y-16046190D02*
X14233096Y-16055714D01*
X14233096Y-16055714D02*
X14242619Y-16065238D01*
X14242619Y-16065238D02*
X14252143Y-16084286D01*
X14252143Y-16084286D02*
X14252143Y-16141428D01*
X14252143Y-16141428D02*
X14242619Y-16160476D01*
X14242619Y-16160476D02*
X14233096Y-16170000D01*
X14233096Y-16170000D02*
X14214048Y-16179524D01*
X14214048Y-16179524D02*
X14185476Y-16179524D01*
X14366429Y-16179524D02*
X14347381Y-16170000D01*
X14347381Y-16170000D02*
X14337857Y-16150952D01*
X14337857Y-16150952D02*
X14337857Y-15979524D01*
X14518810Y-16170000D02*
X14499762Y-16179524D01*
X14499762Y-16179524D02*
X14461667Y-16179524D01*
X14461667Y-16179524D02*
X14442619Y-16170000D01*
X14442619Y-16170000D02*
X14433096Y-16150952D01*
X14433096Y-16150952D02*
X14433096Y-16074762D01*
X14433096Y-16074762D02*
X14442619Y-16055714D01*
X14442619Y-16055714D02*
X14461667Y-16046190D01*
X14461667Y-16046190D02*
X14499762Y-16046190D01*
X14499762Y-16046190D02*
X14518810Y-16055714D01*
X14518810Y-16055714D02*
X14528334Y-16074762D01*
X14528334Y-16074762D02*
X14528334Y-16093809D01*
X14528334Y-16093809D02*
X14433096Y-16112857D01*
X14604524Y-16170000D02*
X14623572Y-16179524D01*
X14623572Y-16179524D02*
X14661667Y-16179524D01*
X14661667Y-16179524D02*
X14680715Y-16170000D01*
X14680715Y-16170000D02*
X14690238Y-16150952D01*
X14690238Y-16150952D02*
X14690238Y-16141428D01*
X14690238Y-16141428D02*
X14680715Y-16122381D01*
X14680715Y-16122381D02*
X14661667Y-16112857D01*
X14661667Y-16112857D02*
X14633096Y-16112857D01*
X14633096Y-16112857D02*
X14614048Y-16103333D01*
X14614048Y-16103333D02*
X14604524Y-16084286D01*
X14604524Y-16084286D02*
X14604524Y-16074762D01*
X14604524Y-16074762D02*
X14614048Y-16055714D01*
X14614048Y-16055714D02*
X14633096Y-16046190D01*
X14633096Y-16046190D02*
X14661667Y-16046190D01*
X14661667Y-16046190D02*
X14680715Y-16055714D01*
X14756905Y-16255714D02*
X14766429Y-16246190D01*
X14766429Y-16246190D02*
X14785477Y-16217619D01*
X14785477Y-16217619D02*
X14795000Y-16198571D01*
X14795000Y-16198571D02*
X14804524Y-16170000D01*
X14804524Y-16170000D02*
X14814048Y-16122381D01*
X14814048Y-16122381D02*
X14814048Y-16084286D01*
X14814048Y-16084286D02*
X14804524Y-16036667D01*
X14804524Y-16036667D02*
X14795000Y-16008095D01*
X14795000Y-16008095D02*
X14785477Y-15989048D01*
X14785477Y-15989048D02*
X14766429Y-15960476D01*
X14766429Y-15960476D02*
X14756905Y-15950952D01*
M02*
