M48
; DRILL file {KiCad 7.99.0-950-gc4668c1d3a-dirty} date Thu 01 Jun 2023 03:31:43 AM CST
; FORMAT={-:-/ absolute / inch / decimal}
; #@! TF.CreationDate,2023-06-01T03:31:43+08:00
; #@! TF.GenerationSoftware,Kicad,Pcbnew,7.99.0-950-gc4668c1d3a-dirty
; #@! TF.FileFunction,Plated,1,2,PTH
FMAT,2
INCH
; #@! TA.AperFunction,Plated,PTH,ViaDrill
T1C0.0118
; #@! TA.AperFunction,Plated,PTH,ComponentDrill
T2C0.0236
; #@! TA.AperFunction,Plated,PTH,ComponentDrill
T3C0.0394
; #@! TA.AperFunction,Plated,PTH,ComponentDrill
T4C0.0866
%
G90
G05
T1
X0.7905Y-2.1276
X0.7905Y-2.1876
X0.8005Y-1.8976
X0.8005Y-2.0876
X0.8105Y-1.7476
X0.8405Y-1.5676
X0.8605Y-1.4376
X0.8805Y-2.2576
X0.8905Y-1.6576
X0.9005Y-2.1676
X0.9105Y-1.6776
X0.9405Y-1.7076
X0.9705Y-2.2776
X0.981Y-1.4476
X0.9905Y-1.5076
X1.0005Y-2.0676
X1.0005Y-2.1876
X1.0705Y-2.2976
X1.0805Y-1.6376
X1.0805Y-1.9876
X1.0805Y-2.0876
X1.0905Y-1.2876
X1.0905Y-1.7376
X1.1205Y-1.0876
X1.1505Y-1.1876
X1.1505Y-2.1076
X1.1605Y-1.7076
X1.1605Y-1.8276
X1.2305Y-1.3676
X1.2705Y-2.3176
X1.2805Y-1.3776
X1.2905Y-2.1376
X1.3183Y-2.1776
X1.3205Y-1.6076
X1.3305Y-2.3176
X1.3405Y-1.5376
X1.3405Y-1.9176
X1.3405Y-2.0476
X1.4005Y-2.1676
X1.4105Y-1.3476
X1.4405Y-1.7076
X1.4705Y-1.3376
X1.4905Y-1.6976
X1.4905Y-2.0976
X1.4905Y-2.1776
X1.5205Y-1.3876
X1.5205Y-1.572
X1.5205Y-1.5976
X1.5205Y-2.6876
X1.5305Y-1.5076
X1.5405Y-1.4696
X1.5405Y-1.6676
X1.5405Y-2.2976
X1.5505Y-1.4176
X1.5505Y-1.5376
X1.5505Y-2.6076
X1.5605Y-2.2876
X1.5605Y-2.4676
X1.5705Y-1.6476
X1.5705Y-2.1576
X1.5705Y-2.1776
X1.5802Y-2.2976
X1.5905Y-2.1576
X1.5905Y-2.1776
X1.6105Y-2.1576
X1.6105Y-2.1776
X1.6169Y-1.444
X1.6205Y-2.0076
X1.6305Y-2.4276
X1.6305Y-2.4476
X1.6305Y-2.4676
X1.6405Y-2.1576
X1.6405Y-2.1776
X1.6405Y-2.4976
X1.6405Y-2.5176
X1.6505Y-1.5376
X1.6505Y-2.2576
X1.6505Y-2.2776
X1.6505Y-2.4476
X1.6505Y-2.6376
X1.7105Y-2.6376
X1.7205Y-2.2676
X1.7205Y-2.3276
X1.7205Y-2.3676
X1.7205Y-2.4476
X1.7405Y-2.1176
X1.7405Y-2.4276
X1.7405Y-2.4476
X1.8605Y-2.1176
T3
X0.998Y-1.0176
X1.098Y-1.0176
X1.198Y-1.0176
X1.298Y-1.0176
X1.398Y-1.0176
X1.498Y-1.0176
X1.598Y-1.0176
X1.698Y-1.0176
X1.8605Y-1.7072
X1.8605Y-1.8072
X1.8605Y-1.9072
X1.8605Y-2.0072
T4
X0.8559Y-1.043
X0.8559Y-2.6769
X1.8402Y-1.043
X1.8402Y-2.6769
T2
G00X1.6932Y-2.1875
M15
G01X1.7247Y-2.1875
M16
G05
G00X1.6932Y-2.5277
M15
G01X1.7247Y-2.5277
M16
G05
G00X1.8586Y-2.1875
M15
G01X1.8901Y-2.1875
M16
G05
G00X1.8586Y-2.5277
M15
G01X1.8901Y-2.5277
M16
G05
T0
M30
