%TF.GenerationSoftware,KiCad,Pcbnew,7.99.0-728-gadc213a04d-dirty*%
%TF.CreationDate,2023-05-05T05:39:13+08:00*%
%TF.ProjectId,HeartRateMonitor,48656172-7452-4617-9465-4d6f6e69746f,rev?*%
%TF.SameCoordinates,Original*%
%TF.FileFunction,Copper,L1,Top*%
%TF.FilePolarity,Positive*%
%FSLAX46Y46*%
G04 Gerber Fmt 4.6, Leading zero omitted, Abs format (unit mm)*
G04 Created by KiCad (PCBNEW 7.99.0-728-gadc213a04d-dirty) date 2023-05-05 05:39:13*
%MOMM*%
%LPD*%
G01*
G04 APERTURE LIST*
G04 Aperture macros list*
%AMRoundRect*
0 Rectangle with rounded corners*
0 $1 Rounding radius*
0 $2 $3 $4 $5 $6 $7 $8 $9 X,Y pos of 4 corners*
0 Add a 4 corners polygon primitive as box body*
4,1,4,$2,$3,$4,$5,$6,$7,$8,$9,$2,$3,0*
0 Add four circle primitives for the rounded corners*
1,1,$1+$1,$2,$3*
1,1,$1+$1,$4,$5*
1,1,$1+$1,$6,$7*
1,1,$1+$1,$8,$9*
0 Add four rect primitives between the rounded corners*
20,1,$1+$1,$2,$3,$4,$5,0*
20,1,$1+$1,$4,$5,$6,$7,0*
20,1,$1+$1,$6,$7,$8,$9,0*
20,1,$1+$1,$8,$9,$2,$3,0*%
G04 Aperture macros list end*
%TA.AperFunction,SMDPad,CuDef*%
%ADD10RoundRect,0.150000X0.150000X-0.512500X0.150000X0.512500X-0.150000X0.512500X-0.150000X-0.512500X0*%
%TD*%
%TA.AperFunction,SMDPad,CuDef*%
%ADD11RoundRect,0.225000X-0.225000X-0.250000X0.225000X-0.250000X0.225000X0.250000X-0.225000X0.250000X0*%
%TD*%
%TA.AperFunction,SMDPad,CuDef*%
%ADD12R,0.450000X1.450000*%
%TD*%
%TA.AperFunction,SMDPad,CuDef*%
%ADD13RoundRect,0.062500X0.062500X-0.365000X0.062500X0.365000X-0.062500X0.365000X-0.062500X-0.365000X0*%
%TD*%
%TA.AperFunction,SMDPad,CuDef*%
%ADD14R,2.380000X1.640000*%
%TD*%
%TA.AperFunction,SMDPad,CuDef*%
%ADD15R,1.450000X0.450000*%
%TD*%
%TA.AperFunction,SMDPad,CuDef*%
%ADD16RoundRect,0.100000X0.637500X0.100000X-0.637500X0.100000X-0.637500X-0.100000X0.637500X-0.100000X0*%
%TD*%
%TA.AperFunction,SMDPad,CuDef*%
%ADD17RoundRect,0.062500X-0.062500X0.350000X-0.062500X-0.350000X0.062500X-0.350000X0.062500X0.350000X0*%
%TD*%
%TA.AperFunction,SMDPad,CuDef*%
%ADD18RoundRect,0.062500X-0.350000X0.062500X-0.350000X-0.062500X0.350000X-0.062500X0.350000X0.062500X0*%
%TD*%
%TA.AperFunction,SMDPad,CuDef*%
%ADD19R,1.680000X1.680000*%
%TD*%
%TA.AperFunction,SMDPad,CuDef*%
%ADD20R,0.300000X1.400000*%
%TD*%
%TA.AperFunction,SMDPad,CuDef*%
%ADD21RoundRect,0.200000X-0.275000X0.200000X-0.275000X-0.200000X0.275000X-0.200000X0.275000X0.200000X0*%
%TD*%
%TA.AperFunction,SMDPad,CuDef*%
%ADD22RoundRect,0.200000X-0.200000X-0.275000X0.200000X-0.275000X0.200000X0.275000X-0.200000X0.275000X0*%
%TD*%
%TA.AperFunction,SMDPad,CuDef*%
%ADD23RoundRect,0.200000X0.275000X-0.200000X0.275000X0.200000X-0.275000X0.200000X-0.275000X-0.200000X0*%
%TD*%
%TA.AperFunction,SMDPad,CuDef*%
%ADD24RoundRect,0.200000X0.200000X0.275000X-0.200000X0.275000X-0.200000X-0.275000X0.200000X-0.275000X0*%
%TD*%
%TA.AperFunction,SMDPad,CuDef*%
%ADD25RoundRect,0.250000X0.375000X0.850000X-0.375000X0.850000X-0.375000X-0.850000X0.375000X-0.850000X0*%
%TD*%
%TA.AperFunction,ComponentPad*%
%ADD26R,1.700000X1.700000*%
%TD*%
%TA.AperFunction,ComponentPad*%
%ADD27O,1.700000X1.700000*%
%TD*%
%TA.AperFunction,SMDPad,CuDef*%
%ADD28R,1.140460X0.500380*%
%TD*%
%TA.AperFunction,SMDPad,CuDef*%
%ADD29R,1.140460X0.299720*%
%TD*%
%TA.AperFunction,ComponentPad*%
%ADD30O,1.800860X1.000760*%
%TD*%
%TA.AperFunction,SMDPad,CuDef*%
%ADD31RoundRect,0.243750X0.243750X0.456250X-0.243750X0.456250X-0.243750X-0.456250X0.243750X-0.456250X0*%
%TD*%
%TA.AperFunction,SMDPad,CuDef*%
%ADD32RoundRect,0.140000X-0.170000X0.140000X-0.170000X-0.140000X0.170000X-0.140000X0.170000X0.140000X0*%
%TD*%
%TA.AperFunction,SMDPad,CuDef*%
%ADD33RoundRect,0.250000X-0.325000X-0.650000X0.325000X-0.650000X0.325000X0.650000X-0.325000X0.650000X0*%
%TD*%
%TA.AperFunction,SMDPad,CuDef*%
%ADD34RoundRect,0.225000X-0.250000X0.225000X-0.250000X-0.225000X0.250000X-0.225000X0.250000X0.225000X0*%
%TD*%
%TA.AperFunction,SMDPad,CuDef*%
%ADD35RoundRect,0.225000X0.250000X-0.225000X0.250000X0.225000X-0.250000X0.225000X-0.250000X-0.225000X0*%
%TD*%
%TA.AperFunction,SMDPad,CuDef*%
%ADD36RoundRect,0.225000X0.225000X0.250000X-0.225000X0.250000X-0.225000X-0.250000X0.225000X-0.250000X0*%
%TD*%
%TA.AperFunction,ComponentPad*%
%ADD37C,3.500000*%
%TD*%
%TA.AperFunction,ViaPad*%
%ADD38C,0.400000*%
%TD*%
%TA.AperFunction,Conductor*%
%ADD39C,0.254000*%
%TD*%
%TA.AperFunction,Conductor*%
%ADD40C,0.406400*%
%TD*%
%TA.AperFunction,Conductor*%
%ADD41C,0.304800*%
%TD*%
%TA.AperFunction,Conductor*%
%ADD42C,0.508000*%
%TD*%
G04 APERTURE END LIST*
D10*
%TO.P,U5,1,VOUT*%
%TO.N,-3V3*%
X101158000Y-121533500D03*
%TO.P,U5,2,VIN*%
%TO.N,+3V3*%
X102108000Y-121533500D03*
%TO.P,U5,3,C1-*%
%TO.N,Net-(U5-C1-)*%
X103058000Y-121533500D03*
%TO.P,U5,4,GND*%
%TO.N,GND*%
X103058000Y-119258500D03*
%TO.P,U5,5,C1+*%
%TO.N,Net-(U5-C1+)*%
X101158000Y-119258500D03*
%TD*%
D11*
%TO.P,C15,1*%
%TO.N,Net-(C15-Pad1)*%
X110223000Y-111760000D03*
%TO.P,C15,2*%
%TO.N,/HIGH_PH*%
X111773000Y-111760000D03*
%TD*%
D12*
%TO.P,U11,8,V+*%
%TO.N,+3V3*%
X109941000Y-131994000D03*
%TO.P,U11,7*%
%TO.N,/AMP_PH*%
X109291000Y-131994000D03*
%TO.P,U11,6,-*%
%TO.N,/DIGIPOT_A*%
X108641000Y-131994000D03*
%TO.P,U11,5,+*%
%TO.N,/RAW_PH*%
X107991000Y-131994000D03*
%TO.P,U11,4,V-*%
%TO.N,-3V3*%
X107991000Y-127594000D03*
%TO.P,U11,3,+*%
%TO.N,GND*%
X108641000Y-127594000D03*
%TO.P,U11,2,-*%
%TO.N,Net-(D1-K)*%
X109291000Y-127594000D03*
%TO.P,U11,1*%
%TO.N,/RAW_PH*%
X109941000Y-127594000D03*
%TD*%
D13*
%TO.P,U9,1,VDD*%
%TO.N,+3V3*%
X102604000Y-132413500D03*
%TO.P,U9,2,A*%
%TO.N,/DIGIPOT_A*%
X103104000Y-132413500D03*
%TO.P,U9,3,W*%
%TO.N,/AMP_PH*%
X103604000Y-132413500D03*
%TO.P,U9,4,VSS*%
%TO.N,GND*%
X104104000Y-132413500D03*
%TO.P,U9,5,EXT_CAP*%
%TO.N,Net-(U9-EXT_CAP)*%
X104604000Y-132413500D03*
%TO.P,U9,6,GND*%
%TO.N,GND*%
X104604000Y-129518500D03*
%TO.P,U9,7,~{RESET}*%
%TO.N,+3V3*%
X104104000Y-129518500D03*
%TO.P,U9,8,SDA*%
%TO.N,/DIGIPOT_SDA*%
X103604000Y-129518500D03*
%TO.P,U9,9,SCL*%
%TO.N,/DIGIPOT_SCL*%
X103104000Y-129518500D03*
%TO.P,U9,10,ADDR*%
%TO.N,unconnected-(U9-ADDR-Pad10)*%
X102604000Y-129518500D03*
D14*
%TO.P,U9,11,VSS*%
%TO.N,GND*%
X103604000Y-130966000D03*
%TD*%
D15*
%TO.P,U6,8,V+*%
%TO.N,+3V3*%
X106766000Y-109941000D03*
%TO.P,U6,7*%
%TO.N,/LOW_PH*%
X106766000Y-109291000D03*
%TO.P,U6,6,-*%
X106766000Y-108641000D03*
%TO.P,U6,5,+*%
%TO.N,Net-(U6B-+)*%
X106766000Y-107991000D03*
%TO.P,U6,4,V-*%
%TO.N,-3V3*%
X111166000Y-107991000D03*
%TO.P,U6,3,+*%
%TO.N,Net-(U6A-+)*%
X111166000Y-108641000D03*
%TO.P,U6,2,-*%
%TO.N,/HIGH_PH*%
X111166000Y-109291000D03*
%TO.P,U6,1*%
X111166000Y-109941000D03*
%TD*%
D16*
%TO.P,U4,1,PB7/PB8*%
%TO.N,/MCU_RX*%
X123952000Y-117236000D03*
%TO.P,U4,2,PC14/PB9*%
%TO.N,Net-(D2-K)*%
X123952000Y-116586000D03*
%TO.P,U4,3,PC15*%
%TO.N,Net-(D3-K)*%
X123952000Y-115936000D03*
%TO.P,U4,4,VDD*%
%TO.N,+3V3*%
X123952000Y-115286000D03*
%TO.P,U4,5,VSS*%
%TO.N,GND*%
X123952000Y-114636000D03*
%TO.P,U4,6,NRST*%
%TO.N,Net-(U4-NRST)*%
X123952000Y-113986000D03*
%TO.P,U4,7,PA0*%
%TO.N,/HIGH_PH*%
X123952000Y-113336000D03*
%TO.P,U4,8,PA1*%
%TO.N,/LOW_PH*%
X123952000Y-112686000D03*
%TO.P,U4,9,PA2*%
%TO.N,/SCR_DATA*%
X123952000Y-112036000D03*
%TO.P,U4,10,PA3*%
%TO.N,/SCR_DC*%
X123952000Y-111386000D03*
%TO.P,U4,11,PA4*%
%TO.N,/SCR_RES*%
X118227000Y-111386000D03*
%TO.P,U4,12,PA5*%
%TO.N,/SCR_SCK*%
X118227000Y-112036000D03*
%TO.P,U4,13,PA6*%
%TO.N,/SCR_BLK*%
X118227000Y-112686000D03*
%TO.P,U4,14,PA7*%
%TO.N,/SCR_CS*%
X118227000Y-113336000D03*
%TO.P,U4,15,PB0/PB1/PB2/PA8*%
%TO.N,unconnected-(U4-PB0{slash}PB1{slash}PB2{slash}PA8-Pad15)*%
X118227000Y-113986000D03*
%TO.P,U4,16,PA11/PA9*%
%TO.N,/DIGIPOT_SCL*%
X118227000Y-114636000D03*
%TO.P,U4,17,PA12/PA10*%
%TO.N,/DIGIPOT_SDA*%
X118227000Y-115286000D03*
%TO.P,U4,18,PA13*%
%TO.N,Net-(J2-Pin_3)*%
X118227000Y-115936000D03*
%TO.P,U4,19,PA14/PA15*%
%TO.N,Net-(J2-Pin_2)*%
X118227000Y-116586000D03*
%TO.P,U4,20,PB3/PB4/PB5/PB6*%
%TO.N,/MCU_TX*%
X118227000Y-117236000D03*
%TD*%
D17*
%TO.P,U3,1,SW*%
%TO.N,Net-(L1-Pad1)*%
X117082000Y-129601500D03*
%TO.P,U3,2,SW*%
X116582000Y-129601500D03*
%TO.P,U3,3,SW*%
X116082000Y-129601500D03*
%TO.P,U3,4,PG*%
%TO.N,unconnected-(U3-PG-Pad4)*%
X115582000Y-129601500D03*
D18*
%TO.P,U3,5,FB*%
%TO.N,Net-(U3-FB)*%
X114869500Y-130314000D03*
%TO.P,U3,6,AGND*%
%TO.N,GND*%
X114869500Y-130814000D03*
%TO.P,U3,7,FSW*%
%TO.N,+3V3*%
X114869500Y-131314000D03*
%TO.P,U3,8,DEF*%
%TO.N,unconnected-(U3-DEF-Pad8)*%
X114869500Y-131814000D03*
D17*
%TO.P,U3,9,SS*%
%TO.N,Net-(U3-SS)*%
X115582000Y-132526500D03*
%TO.P,U3,10,AVIN*%
%TO.N,+5V*%
X116082000Y-132526500D03*
%TO.P,U3,11,PVIN*%
X116582000Y-132526500D03*
%TO.P,U3,12,PVIN*%
X117082000Y-132526500D03*
D18*
%TO.P,U3,13,EN*%
X117794500Y-131814000D03*
%TO.P,U3,14,VOS*%
%TO.N,+3V3*%
X117794500Y-131314000D03*
%TO.P,U3,15,PGND*%
%TO.N,GND*%
X117794500Y-130814000D03*
%TO.P,U3,16,PGND*%
X117794500Y-130314000D03*
D19*
%TO.P,U3,17,PGND*%
X116332000Y-131064000D03*
%TD*%
D15*
%TO.P,U2,1*%
%TO.N,Net-(U2A--)*%
X105242000Y-116373000D03*
%TO.P,U2,2,-*%
X105242000Y-117023000D03*
%TO.P,U2,3,+*%
%TO.N,Net-(U2A-+)*%
X105242000Y-117673000D03*
%TO.P,U2,4,V-*%
%TO.N,-3V3*%
X105242000Y-118323000D03*
%TO.P,U2,5,+*%
%TO.N,Net-(U2B-+)*%
X109642000Y-118323000D03*
%TO.P,U2,6,-*%
%TO.N,Net-(U2B--)*%
X109642000Y-117673000D03*
%TO.P,U2,7*%
X109642000Y-117023000D03*
%TO.P,U2,8,V+*%
%TO.N,+3V3*%
X109642000Y-116373000D03*
%TD*%
D20*
%TO.P,U1,1,UD+*%
%TO.N,Net-(U1-UD+)*%
X119396000Y-139868000D03*
%TO.P,U1,2,UD-*%
%TO.N,Net-(U1-UD-)*%
X119896000Y-139868000D03*
%TO.P,U1,3,GND*%
%TO.N,GND*%
X120396000Y-139868000D03*
%TO.P,U1,4,~{RTS}*%
%TO.N,unconnected-(U1-~{RTS}-Pad4)*%
X120896000Y-139868000D03*
%TO.P,U1,5,~{CTS}*%
%TO.N,unconnected-(U1-~{CTS}-Pad5)*%
X121396000Y-139868000D03*
%TO.P,U1,6,TNOW*%
%TO.N,unconnected-(U1-TNOW-Pad6)*%
X121396000Y-135468000D03*
%TO.P,U1,7,VCC*%
%TO.N,+5V*%
X120896000Y-135468000D03*
%TO.P,U1,8,TXD*%
%TO.N,/MCU_RX*%
X120396000Y-135468000D03*
%TO.P,U1,9,RXD*%
%TO.N,/MCU_TX*%
X119896000Y-135468000D03*
%TO.P,U1,10,V3*%
%TO.N,Net-(U1-V3)*%
X119396000Y-135468000D03*
%TD*%
D21*
%TO.P,R26,1*%
%TO.N,Net-(C21-Pad2)*%
X111760000Y-115253000D03*
%TO.P,R26,2*%
%TO.N,Net-(U2B--)*%
X111760000Y-116903000D03*
%TD*%
D22*
%TO.P,R25,1*%
%TO.N,Net-(U2B-+)*%
X111697000Y-118364000D03*
%TO.P,R25,2*%
%TO.N,GND*%
X113347000Y-118364000D03*
%TD*%
D21*
%TO.P,R22,2*%
%TO.N,/DIGIPOT_A*%
X106172000Y-132397000D03*
%TO.P,R22,1*%
%TO.N,GND*%
X106172000Y-130747000D03*
%TD*%
%TO.P,R21,1*%
%TO.N,/DIGIPOT_SDA*%
X112522000Y-123889000D03*
%TO.P,R21,2*%
%TO.N,+3V3*%
X112522000Y-125539000D03*
%TD*%
%TO.P,R20,2*%
%TO.N,+3V3*%
X101092000Y-128079000D03*
%TO.P,R20,1*%
%TO.N,/DIGIPOT_SCL*%
X101092000Y-126429000D03*
%TD*%
D23*
%TO.P,R19,1*%
%TO.N,Net-(C17-Pad1)*%
X104648000Y-109537000D03*
%TO.P,R19,2*%
%TO.N,Net-(U6B-+)*%
X104648000Y-107887000D03*
%TD*%
%TO.P,R18,1*%
%TO.N,/HIGH_PH*%
X102616000Y-113347000D03*
%TO.P,R18,2*%
%TO.N,Net-(C17-Pad1)*%
X102616000Y-111697000D03*
%TD*%
D22*
%TO.P,R17,1*%
%TO.N,Net-(C15-Pad1)*%
X107125000Y-111760000D03*
%TO.P,R17,2*%
%TO.N,Net-(U6A-+)*%
X108775000Y-111760000D03*
%TD*%
D23*
%TO.P,R16,1*%
%TO.N,Net-(U2B--)*%
X110236000Y-114871000D03*
%TO.P,R16,2*%
%TO.N,Net-(C15-Pad1)*%
X110236000Y-113221000D03*
%TD*%
D24*
%TO.P,R14,1*%
%TO.N,Net-(U2A-+)*%
X102933000Y-115824000D03*
%TO.P,R14,2*%
%TO.N,GND*%
X101283000Y-115824000D03*
%TD*%
D22*
%TO.P,R13,2*%
%TO.N,/RAW_PH*%
X111061000Y-125476000D03*
%TO.P,R13,1*%
%TO.N,Net-(D1-K)*%
X109411000Y-125476000D03*
%TD*%
D21*
%TO.P,R8,1*%
%TO.N,Net-(U4-NRST)*%
X125984000Y-113475000D03*
%TO.P,R8,2*%
%TO.N,+3V3*%
X125984000Y-115125000D03*
%TD*%
D23*
%TO.P,R5,1*%
%TO.N,GND*%
X114554000Y-135699000D03*
%TO.P,R5,2*%
%TO.N,Net-(U3-FB)*%
X114554000Y-134049000D03*
%TD*%
D21*
%TO.P,R4,1*%
%TO.N,Net-(U3-FB)*%
X113030000Y-134049000D03*
%TO.P,R4,2*%
%TO.N,+3V3*%
X113030000Y-135699000D03*
%TD*%
D23*
%TO.P,R3,1*%
%TO.N,GND*%
X122682000Y-143573000D03*
%TO.P,R3,2*%
%TO.N,Net-(J1-SHIELD)*%
X122682000Y-141923000D03*
%TD*%
D24*
%TO.P,R2,1*%
%TO.N,Net-(J1-CC2)*%
X125793000Y-129794000D03*
%TO.P,R2,2*%
%TO.N,GND*%
X124143000Y-129794000D03*
%TD*%
D22*
%TO.P,R1,1*%
%TO.N,Net-(J1-CC1)*%
X127191000Y-129794000D03*
%TO.P,R1,2*%
%TO.N,GND*%
X128841000Y-129794000D03*
%TD*%
D25*
%TO.P,L1,1*%
%TO.N,Net-(L1-Pad1)*%
X117407000Y-127254000D03*
%TO.P,L1,2*%
%TO.N,+3V3*%
X115257000Y-127254000D03*
%TD*%
D26*
%TO.P,J2,1,Pin_1*%
%TO.N,GND*%
X128016000Y-126990000D03*
D27*
%TO.P,J2,2,Pin_2*%
%TO.N,Net-(J2-Pin_2)*%
X128016000Y-124450000D03*
%TO.P,J2,3,Pin_3*%
%TO.N,Net-(J2-Pin_3)*%
X128016000Y-121910000D03*
%TO.P,J2,4,Pin_4*%
%TO.N,+3V3*%
X128016000Y-119370000D03*
%TD*%
D28*
%TO.P,J1,A1,GND*%
%TO.N,GND*%
X123601480Y-139090400D03*
%TO.P,J1,A4,VBUS*%
%TO.N,Net-(F1-Pad1)*%
X123601480Y-138290300D03*
D29*
%TO.P,J1,A5,CC1*%
%TO.N,Net-(J1-CC1)*%
X123601480Y-137139680D03*
%TO.P,J1,A6,D+*%
%TO.N,Net-(U1-UD+)*%
X123601480Y-136138920D03*
%TO.P,J1,A7,D-*%
%TO.N,Net-(U1-UD-)*%
X123601480Y-135641080D03*
%TO.P,J1,A8,SBU1*%
%TO.N,unconnected-(J1-SBU1-PadA8)*%
X123598940Y-134640320D03*
D28*
%TO.P,J1,A9,VBUS*%
%TO.N,Net-(F1-Pad1)*%
X123601480Y-133489700D03*
%TO.P,J1,A12,GND*%
%TO.N,GND*%
X123601480Y-132689600D03*
D29*
%TO.P,J1,B5,CC2*%
%TO.N,Net-(J1-CC2)*%
X123601480Y-134139940D03*
%TO.P,J1,B6,D+*%
%TO.N,Net-(U1-UD+)*%
X123601480Y-135140700D03*
%TO.P,J1,B7,D-*%
%TO.N,Net-(U1-UD-)*%
X123601480Y-136639300D03*
%TO.P,J1,B8,SBU2*%
%TO.N,unconnected-(J1-SBU2-PadB8)*%
X123598940Y-137640060D03*
D30*
%TO.P,J1,S1,SHIELD*%
%TO.N,Net-(J1-SHIELD)*%
X124167900Y-140210540D03*
X128369060Y-140210540D03*
X124167900Y-131569460D03*
X128369060Y-131569460D03*
%TD*%
D31*
%TO.P,F1,1*%
%TO.N,Net-(F1-Pad1)*%
X121333500Y-132588000D03*
%TO.P,F1,2*%
%TO.N,+5V*%
X119458500Y-132588000D03*
%TD*%
D32*
%TO.P,C22,1*%
%TO.N,Net-(C21-Pad2)*%
X113030000Y-116106000D03*
%TO.P,C22,2*%
%TO.N,Net-(U2B-+)*%
X113030000Y-117066000D03*
%TD*%
D33*
%TO.P,C21,1*%
%TO.N,Net-(U2A--)*%
X104697000Y-114300000D03*
%TO.P,C21,2*%
%TO.N,Net-(C21-Pad2)*%
X107647000Y-114300000D03*
%TD*%
D11*
%TO.P,C20,1*%
%TO.N,Net-(U9-EXT_CAP)*%
X104635000Y-133858000D03*
%TO.P,C20,2*%
%TO.N,GND*%
X106185000Y-133858000D03*
%TD*%
D34*
%TO.P,C19,1*%
%TO.N,GND*%
X100838000Y-130797000D03*
%TO.P,C19,2*%
%TO.N,+3V3*%
X100838000Y-132347000D03*
%TD*%
D35*
%TO.P,C18,1*%
%TO.N,GND*%
X106172000Y-129312000D03*
%TO.P,C18,2*%
%TO.N,+3V3*%
X106172000Y-127762000D03*
%TD*%
D11*
%TO.P,C17,1*%
%TO.N,Net-(C17-Pad1)*%
X104127000Y-111760000D03*
%TO.P,C17,2*%
%TO.N,/LOW_PH*%
X105677000Y-111760000D03*
%TD*%
%TO.P,C16,1*%
%TO.N,Net-(U6B-+)*%
X109207000Y-106172000D03*
%TO.P,C16,2*%
%TO.N,GND*%
X110757000Y-106172000D03*
%TD*%
D34*
%TO.P,C14,2*%
%TO.N,GND*%
X113284000Y-111773000D03*
%TO.P,C14,1*%
%TO.N,Net-(U6A-+)*%
X113284000Y-110223000D03*
%TD*%
D36*
%TO.P,C12,2*%
%TO.N,Net-(U2A-+)*%
X106159000Y-120142000D03*
%TO.P,C12,1*%
%TO.N,/AMP_PH*%
X107709000Y-120142000D03*
%TD*%
D34*
%TO.P,C11,1*%
%TO.N,-3V3*%
X101092000Y-123444000D03*
%TO.P,C11,2*%
%TO.N,GND*%
X101092000Y-124994000D03*
%TD*%
D35*
%TO.P,C10,1*%
%TO.N,+3V3*%
X104648000Y-121679000D03*
%TO.P,C10,2*%
%TO.N,GND*%
X104648000Y-120129000D03*
%TD*%
D11*
%TO.P,C9,1*%
%TO.N,Net-(U5-C1+)*%
X101333000Y-117348000D03*
%TO.P,C9,2*%
%TO.N,Net-(U5-C1-)*%
X102883000Y-117348000D03*
%TD*%
%TO.P,C8,2*%
%TO.N,/RAW_PH*%
X111011000Y-123952000D03*
%TO.P,C8,1*%
%TO.N,Net-(D1-K)*%
X109461000Y-123952000D03*
%TD*%
%TO.P,C7,1*%
%TO.N,+3V3*%
X119621000Y-127000000D03*
%TO.P,C7,2*%
%TO.N,GND*%
X121171000Y-127000000D03*
%TD*%
D34*
%TO.P,C6,2*%
%TO.N,GND*%
X116078000Y-135649000D03*
%TO.P,C6,1*%
%TO.N,Net-(U3-SS)*%
X116078000Y-134099000D03*
%TD*%
D35*
%TO.P,C5,1*%
%TO.N,+5V*%
X119380000Y-130823000D03*
%TO.P,C5,2*%
%TO.N,GND*%
X119380000Y-129273000D03*
%TD*%
D34*
%TO.P,C4,1*%
%TO.N,+5V*%
X117602000Y-134099000D03*
%TO.P,C4,2*%
%TO.N,GND*%
X117602000Y-135649000D03*
%TD*%
D11*
%TO.P,C3,1*%
%TO.N,Net-(U1-V3)*%
X119367000Y-141732000D03*
%TO.P,C3,2*%
%TO.N,GND*%
X120917000Y-141732000D03*
%TD*%
D36*
%TO.P,C2,2*%
%TO.N,GND*%
X119367000Y-143256000D03*
%TO.P,C2,1*%
%TO.N,+5V*%
X120917000Y-143256000D03*
%TD*%
D34*
%TO.P,C1,1*%
%TO.N,Net-(J1-SHIELD)*%
X124206000Y-141973000D03*
%TO.P,C1,2*%
%TO.N,GND*%
X124206000Y-143523000D03*
%TD*%
D26*
%TO.P,J3,1,Pin_1*%
%TO.N,GND*%
X106110000Y-101854000D03*
D27*
%TO.P,J3,2,Pin_2*%
%TO.N,+3V3*%
X108650000Y-101854000D03*
%TO.P,J3,3,Pin_3*%
%TO.N,/SCR_SCK*%
X111190000Y-101854000D03*
%TO.P,J3,4,Pin_4*%
%TO.N,/SCR_DATA*%
X113730000Y-101854000D03*
%TO.P,J3,5,Pin_5*%
%TO.N,/SCR_DC*%
X116270000Y-101854000D03*
%TO.P,J3,6,Pin_6*%
%TO.N,/SCR_RES*%
X118810000Y-101854000D03*
%TO.P,J3,7,Pin_7*%
%TO.N,/SCR_CS*%
X121350000Y-101854000D03*
%TO.P,J3,8,Pin_8*%
%TO.N,/SCR_BLK*%
X123890000Y-101854000D03*
%TD*%
D37*
%TO.P,REF\u002A\u002A,1*%
%TO.N,N/C*%
X127500000Y-102500000D03*
%TD*%
%TO.P,REF\u002A\u002A,1*%
%TO.N,N/C*%
X102500000Y-144000000D03*
%TD*%
%TO.P,REF\u002A\u002A,1*%
%TO.N,N/C*%
X102500000Y-102500000D03*
%TD*%
%TO.P,REF\u002A\u002A,1*%
%TO.N,N/C*%
X127500000Y-144000000D03*
%TD*%
D38*
%TO.N,+3V3*%
X114808000Y-128016000D03*
%TO.N,GND*%
X100838000Y-130048000D03*
X119380000Y-144272000D03*
%TO.N,/LOW_PH*%
X105677000Y-112776000D03*
%TO.N,-3V3*%
X105918000Y-114300000D03*
%TO.N,/LOW_PH*%
X120396000Y-113865700D03*
%TO.N,/HIGH_PH*%
X114300000Y-114554000D03*
X120650000Y-114554000D03*
%TO.N,+3V3*%
X108458000Y-108712000D03*
X109220000Y-103632000D03*
%TO.N,/HIGH_PH*%
X112014000Y-110744000D03*
X102616000Y-112522000D03*
%TO.N,GND*%
X109982000Y-106172000D03*
X113284000Y-110998000D03*
X121920000Y-127000000D03*
X114300000Y-116840000D03*
%TO.N,+3V3*%
X108204000Y-116586000D03*
%TO.N,-3V3*%
X103886000Y-118618000D03*
%TO.N,GND*%
X102108000Y-115824000D03*
%TO.N,/AMP_PH*%
X108458000Y-120142000D03*
%TO.N,+3V3*%
X106172000Y-128524000D03*
%TO.N,/AMP_PH*%
X109982000Y-129540000D03*
%TO.N,+3V3*%
X114808000Y-124714000D03*
X110236000Y-119380000D03*
X100838000Y-131572000D03*
X101092000Y-129032000D03*
%TO.N,/DIGIPOT_A*%
X107950000Y-134366000D03*
X103124000Y-133350000D03*
%TO.N,GND*%
X103632000Y-131064000D03*
X106172000Y-131572000D03*
X105410000Y-133858000D03*
%TO.N,-3V3*%
X108204000Y-126492000D03*
X101346000Y-120396000D03*
%TO.N,GND*%
X101092000Y-124206000D03*
X104648000Y-120904000D03*
X103378000Y-118110000D03*
X108204000Y-129032000D03*
%TO.N,Net-(D1-K)*%
X110236000Y-122428000D03*
%TO.N,Net-(D2-K)*%
X119380000Y-119126000D03*
%TO.N,Net-(D3-K)*%
X117348000Y-119380000D03*
%TO.N,/SCR_DATA*%
X120142000Y-112014000D03*
%TO.N,/SCR_DC*%
X118110000Y-109982000D03*
%TO.N,/SCR_BLK*%
X121830000Y-112686000D03*
%TO.N,/SCR_CS*%
X119888000Y-113336000D03*
%TO.N,/SCR_SCK*%
X116586000Y-110236000D03*
%TO.N,/SCR_RES*%
X119380000Y-111252000D03*
%TO.N,GND*%
X122682000Y-115062000D03*
%TO.N,Net-(J2-Pin_3)*%
X119380000Y-115936000D03*
%TO.N,Net-(J2-Pin_2)*%
X119380000Y-116586000D03*
%TO.N,/MCU_RX*%
X120396000Y-134112000D03*
X120650000Y-118618000D03*
%TO.N,/MCU_TX*%
X119888000Y-134366000D03*
X119888000Y-118364000D03*
%TO.N,+3V3*%
X118618000Y-131318000D03*
X114245500Y-131318000D03*
X113030000Y-134874000D03*
X113538000Y-130302000D03*
%TO.N,GND*%
X114554000Y-134874000D03*
X116078000Y-134874000D03*
X116332000Y-131064000D03*
X118618000Y-129286000D03*
X117602000Y-134874000D03*
%TO.N,+5V*%
X120142000Y-143002000D03*
X120896000Y-134366000D03*
%TO.N,Net-(F1-Pad1)*%
X121666000Y-131318000D03*
X121158000Y-131318000D03*
X120650000Y-131318000D03*
X120650000Y-130810000D03*
X121158000Y-130810000D03*
X121666000Y-130810000D03*
X122682000Y-133858000D03*
X122682000Y-133350000D03*
X124460000Y-133604000D03*
X124968000Y-137668000D03*
X124968000Y-138176000D03*
X124460000Y-138176000D03*
X122682000Y-138176000D03*
X122174000Y-138684000D03*
X122174000Y-138176000D03*
X122174000Y-137668000D03*
%TO.N,GND*%
X124968000Y-129794000D03*
X128016000Y-129794000D03*
X122428000Y-131318000D03*
X122428000Y-130810000D03*
X122428000Y-139446000D03*
X122428000Y-139954000D03*
X124206000Y-143002000D03*
X122682000Y-143002000D03*
X120396000Y-138684000D03*
%TO.N,Net-(U1-UD+)*%
X124460000Y-136144000D03*
X124460000Y-135128000D03*
%TD*%
D39*
%TO.N,+3V3*%
X113538000Y-129286000D02*
X114300000Y-128524000D01*
X113538000Y-130302000D02*
X113538000Y-129286000D01*
X114300000Y-128524000D02*
X114554000Y-128524000D01*
D40*
%TO.N,GND*%
X100838000Y-130797000D02*
X100838000Y-130048000D01*
X119367000Y-144259000D02*
X119380000Y-144272000D01*
X119367000Y-143256000D02*
X119367000Y-144259000D01*
%TO.N,Net-(J1-SHIELD)*%
X128369060Y-140210540D02*
X128369060Y-131569460D01*
X124167900Y-140210540D02*
X128369060Y-140210540D01*
%TO.N,-3V3*%
X105918000Y-114300000D02*
X105918000Y-113538000D01*
X106934000Y-110744000D02*
X108204000Y-110744000D01*
X108204000Y-110744000D02*
X109220000Y-109728000D01*
X105918000Y-113538000D02*
X106426000Y-113030000D01*
X109220000Y-109728000D02*
X109220000Y-108458000D01*
X106426000Y-113030000D02*
X106426000Y-111252000D01*
X106426000Y-111252000D02*
X106934000Y-110744000D01*
X109220000Y-108458000D02*
X109687000Y-107991000D01*
X109687000Y-107991000D02*
X111166000Y-107991000D01*
%TO.N,/LOW_PH*%
X105677000Y-111760000D02*
X105677000Y-112776000D01*
%TO.N,Net-(C15-Pad1)*%
X108395000Y-113221000D02*
X107125000Y-111951000D01*
X107125000Y-111951000D02*
X107125000Y-111760000D01*
X110236000Y-113221000D02*
X108395000Y-113221000D01*
%TO.N,/LOW_PH*%
X123952000Y-112686000D02*
X122772000Y-112686000D01*
X122772000Y-112686000D02*
X122174000Y-113284000D01*
X122174000Y-113284000D02*
X120904000Y-113284000D01*
X120904000Y-113284000D02*
X120396000Y-113792000D01*
X120396000Y-113792000D02*
X120396000Y-113865700D01*
%TO.N,/HIGH_PH*%
X113030000Y-114554000D02*
X114300000Y-114554000D01*
X112268000Y-113792000D02*
X113030000Y-114554000D01*
X111773000Y-111760000D02*
X111773000Y-113297000D01*
X111773000Y-113297000D02*
X112268000Y-113792000D01*
%TO.N,Net-(U6A-+)*%
X109982000Y-108966000D02*
X109982000Y-110553000D01*
X111166000Y-108641000D02*
X110307000Y-108641000D01*
X110307000Y-108641000D02*
X109982000Y-108966000D01*
X109982000Y-110553000D02*
X108775000Y-111760000D01*
%TO.N,+3V3*%
X106766000Y-109941000D02*
X107991000Y-109941000D01*
X107991000Y-109941000D02*
X108458000Y-109474000D01*
X108458000Y-109474000D02*
X108458000Y-108712000D01*
X128524000Y-104902000D02*
X129286000Y-105664000D01*
X109220000Y-103632000D02*
X108650000Y-103062000D01*
X108650000Y-103062000D02*
X108650000Y-101854000D01*
X109220000Y-103632000D02*
X124968000Y-103632000D01*
X124968000Y-103632000D02*
X126238000Y-104902000D01*
X126238000Y-104902000D02*
X128524000Y-104902000D01*
X129286000Y-105664000D02*
X129286000Y-114300000D01*
%TO.N,/HIGH_PH*%
X102616000Y-113347000D02*
X102616000Y-112522000D01*
%TO.N,Net-(C17-Pad1)*%
X104127000Y-111760000D02*
X102679000Y-111760000D01*
X102679000Y-111760000D02*
X102616000Y-111697000D01*
X104648000Y-109537000D02*
X104648000Y-110236000D01*
X104648000Y-110236000D02*
X104127000Y-110757000D01*
X104127000Y-110757000D02*
X104127000Y-111760000D01*
%TO.N,Net-(U6B-+)*%
X106766000Y-107991000D02*
X104752000Y-107991000D01*
X104752000Y-107991000D02*
X104648000Y-107887000D01*
%TO.N,GND*%
X110757000Y-106172000D02*
X109982000Y-106172000D01*
%TO.N,Net-(U6B-+)*%
X108671000Y-107991000D02*
X109220000Y-107442000D01*
X106766000Y-107991000D02*
X108671000Y-107991000D01*
X109220000Y-107442000D02*
X109207000Y-107429000D01*
X109207000Y-107429000D02*
X109207000Y-106172000D01*
%TO.N,GND*%
X113284000Y-111773000D02*
X113284000Y-110998000D01*
%TO.N,Net-(U6A-+)*%
X113284000Y-110223000D02*
X113284000Y-108966000D01*
X113284000Y-108966000D02*
X112959000Y-108641000D01*
X112959000Y-108641000D02*
X111166000Y-108641000D01*
%TO.N,Net-(C15-Pad1)*%
X110223000Y-111760000D02*
X110223000Y-113208000D01*
X110223000Y-113208000D02*
X110236000Y-113221000D01*
%TO.N,Net-(U2B--)*%
X110744000Y-115570000D02*
X110744000Y-116840000D01*
X110236000Y-114871000D02*
X110236000Y-115062000D01*
X110236000Y-115062000D02*
X110744000Y-115570000D01*
%TO.N,Net-(C21-Pad2)*%
X111760000Y-114300000D02*
X111506000Y-114046000D01*
X111760000Y-115253000D02*
X111760000Y-114300000D01*
X111506000Y-114046000D02*
X107901000Y-114046000D01*
X107901000Y-114046000D02*
X107647000Y-114300000D01*
%TO.N,GND*%
X121171000Y-127000000D02*
X121920000Y-127000000D01*
X114300000Y-118110000D02*
X114300000Y-116840000D01*
X113347000Y-118364000D02*
X114046000Y-118364000D01*
X114046000Y-118364000D02*
X114300000Y-118110000D01*
%TO.N,+3V3*%
X109642000Y-116373000D02*
X108417000Y-116373000D01*
X108417000Y-116373000D02*
X108204000Y-116586000D01*
%TO.N,-3V3*%
X104181000Y-118323000D02*
X103886000Y-118618000D01*
X105242000Y-118323000D02*
X104181000Y-118323000D01*
%TO.N,Net-(C21-Pad2)*%
X113030000Y-116106000D02*
X113030000Y-115570000D01*
X113030000Y-115570000D02*
X112713000Y-115253000D01*
X112713000Y-115253000D02*
X111760000Y-115253000D01*
%TO.N,Net-(U2B-+)*%
X113030000Y-117066000D02*
X112995000Y-117066000D01*
X112995000Y-117066000D02*
X111697000Y-118364000D01*
X109642000Y-118323000D02*
X111656000Y-118323000D01*
X111656000Y-118323000D02*
X111697000Y-118364000D01*
%TO.N,GND*%
X101283000Y-115824000D02*
X102108000Y-115824000D01*
%TO.N,Net-(U2A-+)*%
X102933000Y-115824000D02*
X103632000Y-115824000D01*
X103632000Y-115824000D02*
X103886000Y-116078000D01*
X103886000Y-116078000D02*
X103886000Y-117348000D01*
X103886000Y-117348000D02*
X104211000Y-117673000D01*
X104211000Y-117673000D02*
X105242000Y-117673000D01*
X106680000Y-118618000D02*
X106680000Y-117856000D01*
X106159000Y-120142000D02*
X106159000Y-119139000D01*
X106680000Y-117856000D02*
X106497000Y-117673000D01*
X106497000Y-117673000D02*
X105242000Y-117673000D01*
X106159000Y-119139000D02*
X106680000Y-118618000D01*
%TO.N,/AMP_PH*%
X108458000Y-120142000D02*
X107709000Y-120142000D01*
%TO.N,+3V3*%
X110236000Y-119380000D02*
X110236000Y-119634000D01*
X110236000Y-119634000D02*
X108191000Y-121679000D01*
X108191000Y-121679000D02*
X104648000Y-121679000D01*
%TO.N,Net-(D1-K)*%
X110236000Y-122428000D02*
X109461000Y-123203000D01*
X109461000Y-123203000D02*
X109461000Y-123952000D01*
D39*
%TO.N,+3V3*%
X106172000Y-127762000D02*
X106172000Y-128524000D01*
D40*
%TO.N,/AMP_PH*%
X109291000Y-131994000D02*
X109291000Y-130231000D01*
X109291000Y-130231000D02*
X109982000Y-129540000D01*
D39*
X109291000Y-134295000D02*
X109291000Y-131994000D01*
D40*
%TO.N,/RAW_PH*%
X109941000Y-127594000D02*
X109941000Y-128311000D01*
X109941000Y-128311000D02*
X107991000Y-130261000D01*
X107991000Y-130261000D02*
X107991000Y-131994000D01*
%TO.N,GND*%
X108204000Y-129032000D02*
X108641000Y-128595000D01*
X108641000Y-128595000D02*
X108641000Y-127594000D01*
%TO.N,+3V3*%
X115257000Y-127254000D02*
X114046000Y-127254000D01*
X110490000Y-130048000D02*
X109941000Y-130597000D01*
X114046000Y-127254000D02*
X111252000Y-130048000D01*
X109941000Y-130597000D02*
X109941000Y-131994000D01*
X111252000Y-130048000D02*
X110490000Y-130048000D01*
D39*
X100838000Y-132347000D02*
X100838000Y-131572000D01*
X101092000Y-128079000D02*
X101092000Y-129032000D01*
%TO.N,/DIGIPOT_SCL*%
X101092000Y-126429000D02*
X102807000Y-126429000D01*
X102807000Y-126429000D02*
X103104000Y-126726000D01*
X103104000Y-126726000D02*
X103104000Y-128016000D01*
X103104000Y-127782000D02*
X103104000Y-128016000D01*
X103104000Y-128016000D02*
X103104000Y-129518500D01*
%TO.N,+3V3*%
X114491000Y-125539000D02*
X114554000Y-125476000D01*
X112522000Y-125539000D02*
X114491000Y-125539000D01*
%TO.N,/DIGIPOT_SDA*%
X115570000Y-121920000D02*
X113030000Y-121920000D01*
X112522000Y-123889000D02*
X112522000Y-122428000D01*
X112522000Y-122428000D02*
X113030000Y-121920000D01*
X113030000Y-121920000D02*
X109474000Y-121920000D01*
X118227000Y-115286000D02*
X116870000Y-115286000D01*
X116870000Y-115286000D02*
X116078000Y-116078000D01*
X109474000Y-121920000D02*
X108458000Y-122936000D01*
X104902000Y-126746000D02*
X103604000Y-128044000D01*
X116078000Y-116078000D02*
X116078000Y-121412000D01*
X116078000Y-121412000D02*
X115570000Y-121920000D01*
X108458000Y-122936000D02*
X108458000Y-125476000D01*
X106426000Y-126746000D02*
X104902000Y-126746000D01*
X108458000Y-125476000D02*
X107950000Y-125984000D01*
X107950000Y-125984000D02*
X107188000Y-125984000D01*
X107188000Y-125984000D02*
X106426000Y-126746000D01*
X103604000Y-128044000D02*
X103604000Y-129518500D01*
%TO.N,/DIGIPOT_SCL*%
X118227000Y-114636000D02*
X116758000Y-114636000D01*
X116758000Y-114636000D02*
X115570000Y-115824000D01*
X107950000Y-125222000D02*
X107696000Y-125476000D01*
X115570000Y-115824000D02*
X115570000Y-121158000D01*
X115570000Y-121158000D02*
X115316000Y-121412000D01*
X104648000Y-126238000D02*
X103104000Y-127782000D01*
X115316000Y-121412000D02*
X109220000Y-121412000D01*
X109220000Y-121412000D02*
X107950000Y-122682000D01*
X107950000Y-122682000D02*
X107950000Y-125222000D01*
X107696000Y-125476000D02*
X106934000Y-125476000D01*
X106934000Y-125476000D02*
X106172000Y-126238000D01*
X106172000Y-126238000D02*
X104648000Y-126238000D01*
%TO.N,GND*%
X106172000Y-129312000D02*
X106172000Y-130747000D01*
%TO.N,+3V3*%
X104104000Y-129518500D02*
X104104000Y-128306000D01*
X104104000Y-128306000D02*
X104648000Y-127762000D01*
X106172000Y-127762000D02*
X104648000Y-127762000D01*
X102604000Y-132413500D02*
X102604000Y-133362000D01*
X102604000Y-133362000D02*
X102362000Y-133604000D01*
X102362000Y-133604000D02*
X101092000Y-133604000D01*
X101092000Y-133604000D02*
X100838000Y-133350000D01*
X100838000Y-133350000D02*
X100838000Y-132347000D01*
%TO.N,/DIGIPOT_A*%
X108641000Y-132842000D02*
X108641000Y-134183000D01*
X108641000Y-134183000D02*
X108458000Y-134366000D01*
X108458000Y-134366000D02*
X107950000Y-134366000D01*
X103104000Y-132413500D02*
X103104000Y-133330000D01*
X103104000Y-133330000D02*
X103124000Y-133350000D01*
%TO.N,/AMP_PH*%
X103604000Y-132413500D02*
X103604000Y-134338000D01*
X103604000Y-134338000D02*
X104140000Y-134874000D01*
X104140000Y-134874000D02*
X108712000Y-134874000D01*
X108712000Y-134874000D02*
X109291000Y-134295000D01*
%TO.N,GND*%
X103632000Y-130994000D02*
X103604000Y-130966000D01*
X103632000Y-131064000D02*
X103632000Y-130994000D01*
X103702000Y-131064000D02*
X103632000Y-131064000D01*
X104604000Y-129518500D02*
X104604000Y-129966000D01*
X104604000Y-129966000D02*
X103604000Y-130966000D01*
X104104000Y-132413500D02*
X104104000Y-131466000D01*
X104104000Y-131466000D02*
X103702000Y-131064000D01*
X106172000Y-130747000D02*
X106172000Y-131572000D01*
X106185000Y-133858000D02*
X105410000Y-133858000D01*
%TO.N,Net-(U9-EXT_CAP)*%
X104604000Y-132413500D02*
X104604000Y-133827000D01*
X104604000Y-133827000D02*
X104635000Y-133858000D01*
D40*
%TO.N,/DIGIPOT_A*%
X108641000Y-131994000D02*
X108641000Y-132842000D01*
X108641000Y-132842000D02*
X108387000Y-133096000D01*
X108387000Y-133096000D02*
X106871000Y-133096000D01*
X106871000Y-133096000D02*
X106172000Y-132397000D01*
%TO.N,-3V3*%
X108204000Y-126492000D02*
X107991000Y-126705000D01*
X107991000Y-126705000D02*
X107991000Y-127594000D01*
X101158000Y-120584000D02*
X101346000Y-120396000D01*
X101158000Y-121533500D02*
X101158000Y-120584000D01*
%TO.N,GND*%
X101092000Y-124994000D02*
X101092000Y-124206000D01*
%TO.N,-3V3*%
X101158000Y-121533500D02*
X101158000Y-123378000D01*
X101158000Y-123378000D02*
X101092000Y-123444000D01*
%TO.N,GND*%
X104648000Y-120129000D02*
X104648000Y-120904000D01*
X103058000Y-118430000D02*
X103378000Y-118110000D01*
X103058000Y-119258500D02*
X103058000Y-118430000D01*
%TO.N,Net-(U5-C1+)*%
X101158000Y-119258500D02*
X101158000Y-117523000D01*
X101158000Y-117523000D02*
X101333000Y-117348000D01*
%TO.N,Net-(U5-C1-)*%
X103058000Y-121533500D02*
X103058000Y-120584000D01*
X103058000Y-120584000D02*
X102108000Y-119634000D01*
X102108000Y-119634000D02*
X102108000Y-118123000D01*
X102108000Y-118123000D02*
X102883000Y-117348000D01*
%TO.N,+3V3*%
X104394000Y-122682000D02*
X102362000Y-122682000D01*
X104648000Y-121679000D02*
X104648000Y-122428000D01*
X102362000Y-122682000D02*
X102108000Y-122428000D01*
X104648000Y-122428000D02*
X104394000Y-122682000D01*
X102108000Y-122428000D02*
X102108000Y-121533500D01*
%TO.N,Net-(D1-K)*%
X109291000Y-127594000D02*
X109291000Y-125596000D01*
X109291000Y-125596000D02*
X109411000Y-125476000D01*
X109411000Y-125476000D02*
X109411000Y-124002000D01*
X109411000Y-124002000D02*
X109461000Y-123952000D01*
%TO.N,/RAW_PH*%
X111061000Y-125476000D02*
X111061000Y-124002000D01*
X111061000Y-124002000D02*
X111011000Y-123952000D01*
X109941000Y-127594000D02*
X109941000Y-126787000D01*
X110744000Y-126492000D02*
X111061000Y-126175000D01*
X109941000Y-126787000D02*
X110236000Y-126492000D01*
X110236000Y-126492000D02*
X110744000Y-126492000D01*
X111061000Y-126175000D02*
X111061000Y-125476000D01*
%TO.N,Net-(D3-K)*%
X117348000Y-119380000D02*
X118618000Y-119380000D01*
X118618000Y-119380000D02*
X118872000Y-119634000D01*
X118872000Y-119634000D02*
X125222000Y-119634000D01*
X125222000Y-119634000D02*
X125984000Y-118872000D01*
X125984000Y-116586000D02*
X125334000Y-115936000D01*
X125984000Y-118872000D02*
X125984000Y-116586000D01*
X125334000Y-115936000D02*
X123952000Y-115936000D01*
%TO.N,Net-(D2-K)*%
X125222000Y-118364000D02*
X125222000Y-116840000D01*
X119380000Y-119126000D02*
X124460000Y-119126000D01*
X124460000Y-119126000D02*
X125222000Y-118364000D01*
X125222000Y-116840000D02*
X124968000Y-116586000D01*
X124968000Y-116586000D02*
X123952000Y-116586000D01*
%TO.N,+3V3*%
X129286000Y-115062000D02*
X129286000Y-114300000D01*
X125984000Y-115125000D02*
X128461000Y-115125000D01*
X128461000Y-115125000D02*
X129286000Y-114300000D01*
X125984000Y-115125000D02*
X125159000Y-115125000D01*
X125159000Y-115125000D02*
X124998000Y-115286000D01*
X123952000Y-115286000D02*
X124998000Y-115286000D01*
%TO.N,Net-(U4-NRST)*%
X123952000Y-113986000D02*
X125473000Y-113986000D01*
X125473000Y-113986000D02*
X125984000Y-113475000D01*
%TO.N,/HIGH_PH*%
X123952000Y-113336000D02*
X123138000Y-113336000D01*
X121158000Y-114046000D02*
X120650000Y-114554000D01*
X123138000Y-113336000D02*
X122428000Y-114046000D01*
X122428000Y-114046000D02*
X121158000Y-114046000D01*
%TO.N,GND*%
X122682000Y-115062000D02*
X123108000Y-114636000D01*
X123108000Y-114636000D02*
X123952000Y-114636000D01*
%TO.N,/SCR_SCK*%
X116586000Y-110236000D02*
X116586000Y-111506000D01*
X116586000Y-111506000D02*
X117116000Y-112036000D01*
X117116000Y-112036000D02*
X118227000Y-112036000D01*
%TO.N,/SCR_DATA*%
X123952000Y-112036000D02*
X120164000Y-112036000D01*
X120164000Y-112036000D02*
X120142000Y-112014000D01*
%TO.N,/SCR_BLK*%
X121830000Y-112686000D02*
X118227000Y-112686000D01*
%TO.N,/SCR_DC*%
X118110000Y-109982000D02*
X118618000Y-110490000D01*
X118618000Y-110490000D02*
X122174000Y-110490000D01*
X122174000Y-110490000D02*
X123070000Y-111386000D01*
X123070000Y-111386000D02*
X123952000Y-111386000D01*
%TO.N,/SCR_CS*%
X119888000Y-113336000D02*
X118227000Y-113336000D01*
%TO.N,/SCR_RES*%
X118227000Y-111386000D02*
X119246000Y-111386000D01*
X119246000Y-111386000D02*
X119380000Y-111252000D01*
%TO.N,+3V3*%
X129286000Y-118110000D02*
X129286000Y-115062000D01*
X129286000Y-126492000D02*
X129286000Y-118110000D01*
X129286000Y-118110000D02*
X129276000Y-118110000D01*
X129276000Y-118110000D02*
X128016000Y-119370000D01*
X128778000Y-128524000D02*
X129159000Y-128143000D01*
X129159000Y-128143000D02*
X129286000Y-128016000D01*
X129286000Y-128016000D02*
X129286000Y-126492000D01*
X126746000Y-128524000D02*
X128778000Y-128524000D01*
X121412000Y-128016000D02*
X126238000Y-128016000D01*
X126238000Y-128016000D02*
X126746000Y-128524000D01*
X119634000Y-128016000D02*
X121412000Y-128016000D01*
%TO.N,Net-(J2-Pin_3)*%
X119380000Y-115936000D02*
X118227000Y-115936000D01*
%TO.N,Net-(J2-Pin_2)*%
X118227000Y-116586000D02*
X119380000Y-116586000D01*
D41*
%TO.N,+5V*%
X120896000Y-134366000D02*
X120896000Y-133850000D01*
X120896000Y-133850000D02*
X120650000Y-133604000D01*
X120650000Y-133604000D02*
X119888000Y-133604000D01*
X119458500Y-132588000D02*
X119458500Y-132666500D01*
%TO.N,/MCU_RX*%
X120396000Y-134112000D02*
X120396000Y-135468000D01*
D42*
%TO.N,GND*%
X119380000Y-129273000D02*
X118631000Y-129273000D01*
X118631000Y-129273000D02*
X118618000Y-129286000D01*
D41*
%TO.N,/MCU_RX*%
X120650000Y-117602000D02*
X120650000Y-118618000D01*
X123952000Y-117236000D02*
X121016000Y-117236000D01*
X121016000Y-117236000D02*
X120650000Y-117602000D01*
%TO.N,/MCU_TX*%
X119888000Y-117602000D02*
X119522000Y-117236000D01*
X119896000Y-134374000D02*
X119888000Y-134366000D01*
X119896000Y-135468000D02*
X119896000Y-134374000D01*
X119888000Y-118364000D02*
X119888000Y-117602000D01*
X119522000Y-117236000D02*
X118227000Y-117236000D01*
D39*
%TO.N,+3V3*%
X118614000Y-131314000D02*
X118618000Y-131318000D01*
X117794500Y-131314000D02*
X118614000Y-131314000D01*
X114249500Y-131314000D02*
X114245500Y-131318000D01*
X114869500Y-131314000D02*
X114249500Y-131314000D01*
%TO.N,Net-(U3-FB)*%
X114554000Y-134049000D02*
X114046000Y-134049000D01*
X114046000Y-134049000D02*
X113792000Y-133795000D01*
X113792000Y-133795000D02*
X113792000Y-130810000D01*
X113792000Y-130810000D02*
X114288000Y-130314000D01*
X114288000Y-130314000D02*
X114869500Y-130314000D01*
%TO.N,+3V3*%
X113030000Y-135699000D02*
X113030000Y-134874000D01*
D40*
%TO.N,GND*%
X114554000Y-135699000D02*
X114554000Y-134874000D01*
X116078000Y-135649000D02*
X116078000Y-134874000D01*
D39*
%TO.N,Net-(U3-FB)*%
X114554000Y-134049000D02*
X113030000Y-134049000D01*
%TO.N,Net-(U3-SS)*%
X115582000Y-132526500D02*
X115582000Y-133603000D01*
X115582000Y-133603000D02*
X116078000Y-134099000D01*
%TO.N,GND*%
X114869500Y-130814000D02*
X116082000Y-130814000D01*
X116082000Y-130814000D02*
X116332000Y-131064000D01*
X117794500Y-130314000D02*
X117794500Y-130814000D01*
X117794500Y-130814000D02*
X116582000Y-130814000D01*
X116582000Y-130814000D02*
X116332000Y-131064000D01*
D42*
X117602000Y-135649000D02*
X117602000Y-134874000D01*
D41*
%TO.N,+5V*%
X120917000Y-143256000D02*
X120396000Y-143256000D01*
X120396000Y-143256000D02*
X120142000Y-143002000D01*
X120896000Y-135468000D02*
X120896000Y-134366000D01*
D42*
%TO.N,GND*%
X122428000Y-139446000D02*
X122428000Y-139954000D01*
X123601480Y-139090400D02*
X122783600Y-139090400D01*
X122783600Y-139090400D02*
X122428000Y-139446000D01*
X123601480Y-132689600D02*
X122783600Y-132689600D01*
X122783600Y-132689600D02*
X122428000Y-132334000D01*
X122428000Y-132334000D02*
X122428000Y-131318000D01*
X122428000Y-131318000D02*
X122428000Y-130810000D01*
D41*
X120396000Y-139868000D02*
X120396000Y-141211000D01*
X120396000Y-141211000D02*
X120917000Y-141732000D01*
%TO.N,Net-(U1-V3)*%
X119396000Y-135468000D02*
X119396000Y-136382000D01*
X119396000Y-136382000D02*
X118872000Y-136906000D01*
X118872000Y-136906000D02*
X118872000Y-141237000D01*
X118872000Y-141237000D02*
X119367000Y-141732000D01*
%TO.N,GND*%
X124143000Y-129794000D02*
X124968000Y-129794000D01*
X128841000Y-129794000D02*
X128016000Y-129794000D01*
%TO.N,Net-(J1-CC2)*%
X125793000Y-129794000D02*
X125793000Y-133287000D01*
X125793000Y-133287000D02*
X124940060Y-134139940D01*
X124940060Y-134139940D02*
X123601480Y-134139940D01*
%TO.N,Net-(J1-CC1)*%
X123601480Y-137139680D02*
X126258320Y-137139680D01*
X126258320Y-137139680D02*
X126746000Y-136652000D01*
X126746000Y-136652000D02*
X126746000Y-130239000D01*
X126746000Y-130239000D02*
X127191000Y-129794000D01*
D42*
%TO.N,GND*%
X124206000Y-143523000D02*
X124206000Y-143002000D01*
X122682000Y-143573000D02*
X122682000Y-143002000D01*
D41*
X120396000Y-139868000D02*
X120396000Y-138684000D01*
%TO.N,Net-(U1-UD+)*%
X124454920Y-136138920D02*
X124460000Y-136144000D01*
X123601480Y-136138920D02*
X124454920Y-136138920D01*
X124447300Y-135140700D02*
X124460000Y-135128000D01*
X123601480Y-135140700D02*
X124447300Y-135140700D01*
%TO.N,Net-(U1-UD-)*%
X125222000Y-135890000D02*
X125222000Y-136398000D01*
X123601480Y-135641080D02*
X124973080Y-135641080D01*
X124973080Y-135641080D02*
X125222000Y-135890000D01*
X125222000Y-136398000D02*
X124980700Y-136639300D01*
X124980700Y-136639300D02*
X123601480Y-136639300D01*
X119896000Y-139868000D02*
X119896000Y-137406000D01*
X119896000Y-137406000D02*
X120142000Y-137160000D01*
X120142000Y-137160000D02*
X122174000Y-137160000D01*
X122174000Y-137160000D02*
X122694700Y-136639300D01*
X122694700Y-136639300D02*
X123601480Y-136639300D01*
%TO.N,Net-(U1-UD+)*%
X119396000Y-139868000D02*
X119396000Y-137144000D01*
X119396000Y-137144000D02*
X119888000Y-136652000D01*
X119888000Y-136652000D02*
X121920000Y-136652000D01*
X122433080Y-136138920D02*
X123601480Y-136138920D01*
X121920000Y-136652000D02*
X122433080Y-136138920D01*
%TD*%
%TA.AperFunction,Conductor*%
%TO.N,Net-(J1-SHIELD)*%
G36*
X125419039Y-139465685D02*
G01*
X125464794Y-139518489D01*
X125476000Y-139570000D01*
X125476000Y-141100000D01*
X125456315Y-141167039D01*
X125403511Y-141212794D01*
X125352000Y-141224000D01*
X124968000Y-141224000D01*
X124968000Y-142370000D01*
X124948315Y-142437039D01*
X124895511Y-142482794D01*
X124844000Y-142494000D01*
X122044000Y-142494000D01*
X121976961Y-142474315D01*
X121931206Y-142421511D01*
X121920000Y-142370000D01*
X121920000Y-141348000D01*
X121939685Y-141280961D01*
X121992489Y-141235206D01*
X122044000Y-141224000D01*
X122936000Y-141224000D01*
X122936000Y-139595900D01*
X122955685Y-139528861D01*
X123008489Y-139483106D01*
X123060000Y-139471900D01*
X123633091Y-139471900D01*
X123645790Y-139469781D01*
X123666199Y-139468090D01*
X124184268Y-139468090D01*
X124245648Y-139455880D01*
X124245748Y-139456383D01*
X124278847Y-139446020D01*
X124281061Y-139446000D01*
X125352000Y-139446000D01*
X125419039Y-139465685D01*
G37*
%TD.AperFunction*%
%TD*%
%TA.AperFunction,Conductor*%
%TO.N,Net-(F1-Pad1)*%
G36*
X122625039Y-137433685D02*
G01*
X122670794Y-137486489D01*
X122682000Y-137538000D01*
X122682000Y-137922000D01*
X124460000Y-137922000D01*
X124460000Y-137543580D01*
X124479685Y-137476541D01*
X124532489Y-137430786D01*
X124584000Y-137419580D01*
X125352000Y-137419580D01*
X125419039Y-137439265D01*
X125464794Y-137492069D01*
X125476000Y-137543580D01*
X125476000Y-138560000D01*
X125456315Y-138627039D01*
X125403511Y-138672794D01*
X125352000Y-138684000D01*
X125027159Y-138684000D01*
X124960120Y-138664315D01*
X124916159Y-138615272D01*
X124913772Y-138610478D01*
X124837140Y-138540619D01*
X124837139Y-138540618D01*
X124740449Y-138503160D01*
X124740447Y-138503160D01*
X124662901Y-138503160D01*
X124586671Y-138517409D01*
X124586671Y-138517410D01*
X124498506Y-138571998D01*
X124466729Y-138614079D01*
X124456943Y-138627039D01*
X124451138Y-138634726D01*
X124395029Y-138676362D01*
X124352183Y-138684000D01*
X122428000Y-138684000D01*
X122428000Y-138814000D01*
X122408315Y-138881039D01*
X122355511Y-138926794D01*
X122304000Y-138938000D01*
X122044000Y-138938000D01*
X121976961Y-138918315D01*
X121931206Y-138865511D01*
X121920000Y-138814000D01*
X121920000Y-137563900D01*
X121939685Y-137496861D01*
X121992489Y-137451106D01*
X122044000Y-137439900D01*
X122108114Y-137439900D01*
X122124089Y-137442506D01*
X122134658Y-137442017D01*
X122134660Y-137442018D01*
X122177614Y-137440032D01*
X122183341Y-137439900D01*
X122201198Y-137439900D01*
X122214922Y-137438306D01*
X122239193Y-137437185D01*
X122244195Y-137434976D01*
X122271491Y-137426523D01*
X122276863Y-137425520D01*
X122276864Y-137425519D01*
X122299656Y-137421260D01*
X122299937Y-137422767D01*
X122330751Y-137414000D01*
X122558000Y-137414000D01*
X122625039Y-137433685D01*
G37*
%TD.AperFunction*%
%TD*%
%TA.AperFunction,Conductor*%
%TO.N,Net-(F1-Pad1)*%
G36*
X124417080Y-133115685D02*
G01*
X124461041Y-133164728D01*
X124463428Y-133169522D01*
X124540060Y-133239381D01*
X124636751Y-133276840D01*
X124636753Y-133276840D01*
X124714297Y-133276840D01*
X124714299Y-133276840D01*
X124790529Y-133262590D01*
X124878693Y-133208002D01*
X124926063Y-133145273D01*
X124982171Y-133103638D01*
X125025017Y-133096000D01*
X125176638Y-133096000D01*
X125243677Y-133115685D01*
X125289432Y-133168489D01*
X125299376Y-133237647D01*
X125270351Y-133301203D01*
X125264319Y-133307681D01*
X124750319Y-133821681D01*
X124688996Y-133855166D01*
X124662638Y-133858000D01*
X122428000Y-133858000D01*
X122428000Y-133220000D01*
X122447685Y-133152961D01*
X122500489Y-133107206D01*
X122552000Y-133096000D01*
X124350041Y-133096000D01*
X124417080Y-133115685D01*
G37*
%TD.AperFunction*%
%TD*%
%TA.AperFunction,Conductor*%
%TO.N,Net-(F1-Pad1)*%
G36*
X122936000Y-133865523D02*
G01*
X122916315Y-133932562D01*
X122915103Y-133934413D01*
X122911147Y-133940332D01*
X122903750Y-133977521D01*
X122903750Y-133988000D01*
X122884065Y-134055039D01*
X122831261Y-134100794D01*
X122779750Y-134112000D01*
X122552000Y-134112000D01*
X122484961Y-134092315D01*
X122439206Y-134039511D01*
X122428000Y-133988000D01*
X122428000Y-133858000D01*
X122936000Y-133858000D01*
X122936000Y-133865523D01*
G37*
%TD.AperFunction*%
%TD*%
%TA.AperFunction,Conductor*%
%TO.N,Net-(F1-Pad1)*%
G36*
X121863039Y-130575685D02*
G01*
X121908794Y-130628489D01*
X121920000Y-130680000D01*
X121920000Y-132334000D01*
X122068442Y-132482442D01*
X122092162Y-132515663D01*
X122116643Y-132565740D01*
X122117053Y-132566291D01*
X122133984Y-132581877D01*
X122169973Y-132641764D01*
X122173999Y-132673105D01*
X122174000Y-133226000D01*
X122154316Y-133293039D01*
X122101512Y-133338794D01*
X122050000Y-133350000D01*
X120806978Y-133350000D01*
X120778586Y-133346706D01*
X120765016Y-133343514D01*
X120744948Y-133338794D01*
X120741373Y-133337953D01*
X120724973Y-133332874D01*
X120702323Y-133324100D01*
X120702322Y-133324100D01*
X120696856Y-133324100D01*
X120668466Y-133320806D01*
X120663151Y-133319555D01*
X120639098Y-133322911D01*
X120621968Y-133324100D01*
X120520000Y-133324100D01*
X120452961Y-133304415D01*
X120407206Y-133251611D01*
X120396000Y-133200100D01*
X120396000Y-130680000D01*
X120415685Y-130612961D01*
X120468489Y-130567206D01*
X120520000Y-130556000D01*
X121796000Y-130556000D01*
X121863039Y-130575685D01*
G37*
%TD.AperFunction*%
%TD*%
%TA.AperFunction,Conductor*%
%TO.N,+5V*%
G36*
X120085039Y-130067685D02*
G01*
X120130794Y-130120489D01*
X120142000Y-130172000D01*
X120142000Y-133863715D01*
X120125387Y-133925715D01*
X120092408Y-133982836D01*
X120041841Y-134031052D01*
X119973234Y-134044274D01*
X119947666Y-134038500D01*
X119945747Y-134038500D01*
X119830253Y-134038500D01*
X119775988Y-134058250D01*
X119721723Y-134078002D01*
X119715778Y-134082991D01*
X119651770Y-134111003D01*
X119636074Y-134112000D01*
X118364000Y-134112000D01*
X118364000Y-134750000D01*
X118344315Y-134817039D01*
X118291511Y-134862794D01*
X118240000Y-134874000D01*
X118093797Y-134874000D01*
X118026758Y-134854315D01*
X117981003Y-134801511D01*
X117971488Y-134770409D01*
X117969609Y-134759149D01*
X117967818Y-134748414D01*
X117907220Y-134636438D01*
X117813546Y-134550205D01*
X117696948Y-134499060D01*
X117570060Y-134488546D01*
X117570059Y-134488546D01*
X117446633Y-134519802D01*
X117340044Y-134589439D01*
X117261841Y-134689916D01*
X117227392Y-134790263D01*
X117187007Y-134847278D01*
X117122207Y-134873409D01*
X117110111Y-134874000D01*
X116964000Y-134874000D01*
X116896961Y-134854315D01*
X116851206Y-134801511D01*
X116840000Y-134750000D01*
X116840000Y-133096000D01*
X115960500Y-133096000D01*
X115893461Y-133076315D01*
X115847706Y-133023511D01*
X115836500Y-132972000D01*
X115836500Y-132499472D01*
X115834500Y-132479164D01*
X115834500Y-132204000D01*
X115854185Y-132136961D01*
X115906989Y-132091206D01*
X115958500Y-132080000D01*
X117348000Y-132080000D01*
X117348000Y-131696000D01*
X117367685Y-131628961D01*
X117420489Y-131583206D01*
X117472000Y-131572000D01*
X118366074Y-131572000D01*
X118433113Y-131591685D01*
X118445778Y-131601009D01*
X118451724Y-131605998D01*
X118560253Y-131645500D01*
X118560254Y-131645500D01*
X118675746Y-131645500D01*
X118675747Y-131645500D01*
X118784276Y-131605998D01*
X118872750Y-131531760D01*
X118930497Y-131431739D01*
X118950552Y-131318000D01*
X118930497Y-131204261D01*
X118930497Y-131204260D01*
X118872750Y-131104240D01*
X118784277Y-131030002D01*
X118699589Y-130999178D01*
X118643325Y-130957751D01*
X118618390Y-130892483D01*
X118618000Y-130882656D01*
X118618000Y-130172000D01*
X118637685Y-130104961D01*
X118690489Y-130059206D01*
X118742000Y-130048000D01*
X120018000Y-130048000D01*
X120085039Y-130067685D01*
G37*
%TD.AperFunction*%
%TD*%
%TA.AperFunction,Conductor*%
%TO.N,Net-(L1-Pad1)*%
G36*
X118053039Y-126003685D02*
G01*
X118098794Y-126056489D01*
X118110000Y-126108000D01*
X118110000Y-129924000D01*
X118090315Y-129991039D01*
X118037511Y-130036794D01*
X117986000Y-130048000D01*
X115958500Y-130048000D01*
X115891461Y-130028315D01*
X115845706Y-129975511D01*
X115834500Y-129924000D01*
X115834500Y-129232785D01*
X115826383Y-129191979D01*
X115824000Y-129167788D01*
X115824000Y-129156000D01*
X115843685Y-129088961D01*
X115896489Y-129043206D01*
X115948000Y-129032000D01*
X116586000Y-129032000D01*
X116586000Y-126108000D01*
X116605685Y-126040961D01*
X116658489Y-125995206D01*
X116710000Y-125984000D01*
X117986000Y-125984000D01*
X118053039Y-126003685D01*
G37*
%TD.AperFunction*%
%TD*%
%TA.AperFunction,Conductor*%
%TO.N,+3V3*%
G36*
X120339039Y-124225685D02*
G01*
X120384794Y-124278489D01*
X120396000Y-124330000D01*
X120396000Y-128400000D01*
X120376315Y-128467039D01*
X120323511Y-128512794D01*
X120272000Y-128524000D01*
X118488000Y-128524000D01*
X118420961Y-128504315D01*
X118375206Y-128451511D01*
X118364000Y-128400000D01*
X118364000Y-125730000D01*
X116332000Y-125730000D01*
X116332000Y-128654000D01*
X116312315Y-128721039D01*
X116259511Y-128766794D01*
X116208000Y-128778000D01*
X114424000Y-128778000D01*
X114356961Y-128758315D01*
X114311206Y-128705511D01*
X114300000Y-128654000D01*
X114300000Y-124330000D01*
X114319685Y-124262961D01*
X114372489Y-124217206D01*
X114424000Y-124206000D01*
X120272000Y-124206000D01*
X120339039Y-124225685D01*
G37*
%TD.AperFunction*%
%TD*%
%TA.AperFunction,Conductor*%
%TO.N,Net-(U2A--)*%
G36*
X105487134Y-113049685D02*
G01*
X105499801Y-113059011D01*
X105509099Y-113066813D01*
X105625294Y-113109104D01*
X105681558Y-113150530D01*
X105706494Y-113215798D01*
X105692184Y-113284187D01*
X105662596Y-113320610D01*
X105660761Y-113322149D01*
X105641528Y-113355459D01*
X105635721Y-113364574D01*
X105613126Y-113396845D01*
X105602610Y-113422232D01*
X105595770Y-113461026D01*
X105593429Y-113471586D01*
X105583475Y-113508732D01*
X105586828Y-113547047D01*
X105587300Y-113557855D01*
X105587300Y-114278649D01*
X105585432Y-114299999D01*
X105587300Y-114321351D01*
X105587300Y-114328935D01*
X105602449Y-114414851D01*
X105660761Y-114515849D01*
X105750099Y-114590813D01*
X105859689Y-114630700D01*
X105976309Y-114630700D01*
X105976311Y-114630700D01*
X106005591Y-114620042D01*
X106075318Y-114615612D01*
X106136374Y-114649582D01*
X106169371Y-114711169D01*
X106172000Y-114736565D01*
X106172000Y-117207685D01*
X106152315Y-117274724D01*
X106099511Y-117320479D01*
X106030353Y-117330423D01*
X106023808Y-117329302D01*
X105979560Y-117320500D01*
X105979558Y-117320500D01*
X104518000Y-117320500D01*
X104450961Y-117300815D01*
X104405206Y-117248011D01*
X104394000Y-117196500D01*
X104394000Y-115570000D01*
X104010000Y-115570000D01*
X103942961Y-115550315D01*
X103897206Y-115497511D01*
X103886000Y-115446000D01*
X103886000Y-113154000D01*
X103905685Y-113086961D01*
X103958489Y-113041206D01*
X104010000Y-113030000D01*
X105420095Y-113030000D01*
X105487134Y-113049685D01*
G37*
%TD.AperFunction*%
%TD*%
%TA.AperFunction,Conductor*%
%TO.N,Net-(U2B--)*%
G36*
X112465039Y-116097685D02*
G01*
X112510794Y-116150489D01*
X112522000Y-116202000D01*
X112522000Y-117019957D01*
X112502315Y-117086996D01*
X112485681Y-117107638D01*
X112027638Y-117565681D01*
X111966315Y-117599166D01*
X111939957Y-117602000D01*
X110490000Y-117602000D01*
X110490000Y-117846500D01*
X110470315Y-117913539D01*
X110417511Y-117959294D01*
X110366000Y-117970500D01*
X108904440Y-117970500D01*
X108860192Y-117979302D01*
X108790601Y-117973075D01*
X108735423Y-117930213D01*
X108712178Y-117864323D01*
X108712000Y-117857685D01*
X108712000Y-116838314D01*
X108731685Y-116771275D01*
X108784489Y-116725520D01*
X108853647Y-116715576D01*
X108860194Y-116716697D01*
X108867250Y-116718100D01*
X108867252Y-116718102D01*
X108904442Y-116725500D01*
X108904444Y-116725500D01*
X110379558Y-116725500D01*
X110416748Y-116718102D01*
X110458922Y-116689922D01*
X110487102Y-116647748D01*
X110487102Y-116647747D01*
X110491538Y-116641109D01*
X110545150Y-116596304D01*
X110594640Y-116586000D01*
X110998000Y-116586000D01*
X110998000Y-116202000D01*
X111017685Y-116134961D01*
X111070489Y-116089206D01*
X111122000Y-116078000D01*
X112398000Y-116078000D01*
X112465039Y-116097685D01*
G37*
%TD.AperFunction*%
%TD*%
%TA.AperFunction,Conductor*%
%TO.N,/HIGH_PH*%
G36*
X112465039Y-108991385D02*
G01*
X112510794Y-109044189D01*
X112522000Y-109095700D01*
X112522000Y-112398000D01*
X112502315Y-112465039D01*
X112449511Y-112510794D01*
X112398000Y-112522000D01*
X111122000Y-112522000D01*
X111054961Y-112502315D01*
X111009206Y-112449511D01*
X110998000Y-112398000D01*
X110998000Y-110490000D01*
X110436700Y-110490000D01*
X110369661Y-110470315D01*
X110323906Y-110417511D01*
X110312700Y-110366000D01*
X110312700Y-109154340D01*
X110332385Y-109087301D01*
X110349015Y-109066663D01*
X110385860Y-109029817D01*
X110447185Y-108996333D01*
X110473541Y-108993500D01*
X111903558Y-108993500D01*
X111964938Y-108981290D01*
X111965067Y-108981939D01*
X111997704Y-108971720D01*
X111999917Y-108971700D01*
X112398000Y-108971700D01*
X112465039Y-108991385D01*
G37*
%TD.AperFunction*%
%TD*%
%TA.AperFunction,Conductor*%
%TO.N,/LOW_PH*%
G36*
X105966933Y-108331933D02*
G01*
X105967062Y-108331290D01*
X105991251Y-108336101D01*
X105991252Y-108336102D01*
X106028442Y-108343500D01*
X107503558Y-108343500D01*
X107564938Y-108331290D01*
X107565067Y-108331939D01*
X107597704Y-108321720D01*
X107599917Y-108321700D01*
X107826000Y-108321700D01*
X107893039Y-108341385D01*
X107938794Y-108394189D01*
X107950000Y-108445700D01*
X107950000Y-109462956D01*
X107930315Y-109529995D01*
X107913683Y-109550635D01*
X107890340Y-109573979D01*
X107829018Y-109607466D01*
X107802657Y-109610300D01*
X107599917Y-109610300D01*
X107565066Y-109600066D01*
X107564938Y-109600710D01*
X107503558Y-109588500D01*
X106028442Y-109588500D01*
X105991252Y-109595897D01*
X105949077Y-109624077D01*
X105920897Y-109666252D01*
X105913500Y-109703441D01*
X105913500Y-110178556D01*
X105915617Y-110189198D01*
X105918000Y-110213392D01*
X105918000Y-110998000D01*
X105987207Y-110998000D01*
X106054246Y-111017685D01*
X106100001Y-111070489D01*
X106109945Y-111139647D01*
X106109323Y-111143532D01*
X106103770Y-111175025D01*
X106101429Y-111185586D01*
X106091475Y-111222732D01*
X106094828Y-111261047D01*
X106095300Y-111271855D01*
X106095300Y-112398000D01*
X106075615Y-112465039D01*
X106022811Y-112510794D01*
X105971300Y-112522000D01*
X105280000Y-112522000D01*
X105212961Y-112502315D01*
X105167206Y-112449511D01*
X105156000Y-112398000D01*
X105156000Y-110033361D01*
X105175685Y-109966322D01*
X105192314Y-109945685D01*
X105410000Y-109728000D01*
X105410000Y-108445700D01*
X105429685Y-108378661D01*
X105482489Y-108332906D01*
X105534000Y-108321700D01*
X105932083Y-108321700D01*
X105966933Y-108331933D01*
G37*
%TD.AperFunction*%
%TD*%
M02*
