M48
; DRILL file {KiCad 7.99.0-728-gadc213a04d-dirty} date Fri 05 May 2023 05:39:17 AM CST
; FORMAT={-:-/ absolute / inch / decimal}
; #@! TF.CreationDate,2023-05-05T05:39:17+08:00
; #@! TF.GenerationSoftware,Kicad,Pcbnew,7.99.0-728-gadc213a04d-dirty
; #@! TF.FileFunction,Plated,1,2,PTH
FMAT,2
INCH
; #@! TA.AperFunction,Plated,PTH,ViaDrill
T1C0.0118
; #@! TA.AperFunction,Plated,PTH,ComponentDrill
T2C0.0236
; #@! TA.AperFunction,Plated,PTH,ComponentDrill
T3C0.0394
; #@! TA.AperFunction,Plated,PTH,ComponentDrill
T4C0.0866
%
G90
G05
T1
X3.97Y-5.12
X3.97Y-5.18
X3.98Y-4.89
X3.98Y-5.08
X3.99Y-4.74
X4.02Y-4.56
X4.04Y-4.43
X4.06Y-5.25
X4.07Y-4.65
X4.08Y-5.16
X4.09Y-4.67
X4.12Y-4.76
X4.15Y-5.27
X4.1605Y-4.44
X4.17Y-4.5
X4.18Y-5.06
X4.18Y-5.18
X4.25Y-5.29
X4.26Y-4.59
X4.26Y-4.98
X4.26Y-5.08
X4.27Y-4.28
X4.27Y-4.73
X4.3Y-4.08
X4.33Y-4.18
X4.33Y-5.1
X4.34Y-4.7
X4.34Y-4.82
X4.41Y-4.36
X4.45Y-5.31
X4.46Y-4.37
X4.47Y-5.13
X4.4979Y-5.17
X4.5Y-4.51
X4.5Y-4.6
X4.51Y-5.31
X4.52Y-4.91
X4.52Y-5.04
X4.57Y-5.31
X4.58Y-5.16
X4.59Y-4.34
X4.62Y-4.7
X4.63Y-5.31
X4.65Y-4.33
X4.67Y-5.09
X4.67Y-5.17
X4.7Y-4.38
X4.7Y-4.5644
X4.7Y-4.59
X4.7Y-4.69
X4.7Y-5.68
X4.72Y-4.462
X4.72Y-4.66
X4.72Y-5.29
X4.73Y-4.41
X4.73Y-5.63
X4.74Y-4.4829
X4.74Y-5.28
X4.74Y-5.46
X4.75Y-4.51
X4.75Y-4.67
X4.75Y-5.15
X4.75Y-5.17
X4.7597Y-5.29
X4.77Y-5.15
X4.77Y-5.17
X4.79Y-5.15
X4.79Y-5.17
X4.7965Y-4.4365
X4.8Y-5.0
X4.81Y-5.42
X4.81Y-5.44
X4.81Y-5.46
X4.82Y-5.15
X4.82Y-5.17
X4.82Y-5.49
X4.82Y-5.51
X4.83Y-4.53
X4.83Y-5.25
X4.83Y-5.27
X4.83Y-5.44
X4.83Y-5.63
X4.89Y-5.63
X4.9Y-5.26
X4.9Y-5.32
X4.9Y-5.36
X4.9Y-5.44
X4.92Y-5.11
X4.92Y-5.42
X4.92Y-5.44
X5.04Y-5.11
T3
X4.1776Y-4.01
X4.2776Y-4.01
X4.3776Y-4.01
X4.4776Y-4.01
X4.5776Y-4.01
X4.6776Y-4.01
X4.7776Y-4.01
X4.8776Y-4.01
X5.04Y-4.6996
X5.04Y-4.7996
X5.04Y-4.8996
X5.04Y-4.9996
T4
X4.0354Y-4.0354
X4.0354Y-5.6693
X5.0197Y-4.0354
X5.0197Y-5.6693
T2
G00X4.8727Y-5.1799
M15
G01X4.9043Y-5.1799
M16
G05
G00X4.8727Y-5.5201
M15
G01X4.9043Y-5.5201
M16
G05
G00X5.0381Y-5.1799
M15
G01X5.0697Y-5.1799
M16
G05
G00X5.0381Y-5.5201
M15
G01X5.0697Y-5.5201
M16
G05
T0
M30
