%TF.GenerationSoftware,KiCad,Pcbnew,7.99.0-728-gadc213a04d-dirty*%
%TF.CreationDate,2023-04-29T04:02:39+08:00*%
%TF.ProjectId,HeartRateMonitor,48656172-7452-4617-9465-4d6f6e69746f,rev?*%
%TF.SameCoordinates,Original*%
%TF.FileFunction,Soldermask,Bot*%
%TF.FilePolarity,Negative*%
%FSLAX46Y46*%
G04 Gerber Fmt 4.6, Leading zero omitted, Abs format (unit mm)*
G04 Created by KiCad (PCBNEW 7.99.0-728-gadc213a04d-dirty) date 2023-04-29 04:02:39*
%MOMM*%
%LPD*%
G01*
G04 APERTURE LIST*
G04 Aperture macros list*
%AMRoundRect*
0 Rectangle with rounded corners*
0 $1 Rounding radius*
0 $2 $3 $4 $5 $6 $7 $8 $9 X,Y pos of 4 corners*
0 Add a 4 corners polygon primitive as box body*
4,1,4,$2,$3,$4,$5,$6,$7,$8,$9,$2,$3,0*
0 Add four circle primitives for the rounded corners*
1,1,$1+$1,$2,$3*
1,1,$1+$1,$4,$5*
1,1,$1+$1,$6,$7*
1,1,$1+$1,$8,$9*
0 Add four rect primitives between the rounded corners*
20,1,$1+$1,$2,$3,$4,$5,0*
20,1,$1+$1,$4,$5,$6,$7,0*
20,1,$1+$1,$6,$7,$8,$9,0*
20,1,$1+$1,$8,$9,$2,$3,0*%
G04 Aperture macros list end*
%ADD10R,1.700000X1.700000*%
%ADD11O,1.700000X1.700000*%
%ADD12C,3.500000*%
%ADD13C,0.350000*%
%ADD14O,1.800000X1.000000*%
%ADD15O,2.000000X1.000000*%
%ADD16RoundRect,0.200000X-0.200000X-0.275000X0.200000X-0.275000X0.200000X0.275000X-0.200000X0.275000X0*%
%ADD17R,1.550000X1.000000*%
%ADD18RoundRect,0.200000X0.275000X-0.200000X0.275000X0.200000X-0.275000X0.200000X-0.275000X-0.200000X0*%
%ADD19RoundRect,0.250000X-0.925000X0.412500X-0.925000X-0.412500X0.925000X-0.412500X0.925000X0.412500X0*%
%ADD20RoundRect,0.200000X0.200000X0.275000X-0.200000X0.275000X-0.200000X-0.275000X0.200000X-0.275000X0*%
%ADD21RoundRect,0.225000X0.250000X-0.225000X0.250000X0.225000X-0.250000X0.225000X-0.250000X-0.225000X0*%
%ADD22RoundRect,0.150000X-0.150000X0.512500X-0.150000X-0.512500X0.150000X-0.512500X0.150000X0.512500X0*%
G04 APERTURE END LIST*
D10*
%TO.C,J3*%
X106110000Y-101854000D03*
D11*
X108650000Y-101854000D03*
X111190000Y-101854000D03*
X113730000Y-101854000D03*
X116270000Y-101854000D03*
X118810000Y-101854000D03*
X121350000Y-101854000D03*
X123890000Y-101854000D03*
%TD*%
D12*
%TO.C,REF\u002A\u002A*%
X127500000Y-102500000D03*
%TD*%
%TO.C,REF\u002A\u002A*%
X102500000Y-144000000D03*
%TD*%
%TO.C,REF\u002A\u002A*%
X102500000Y-102500000D03*
%TD*%
D13*
%TO.C,J1*%
X124678000Y-130460000D03*
X124678000Y-136240000D03*
D14*
X128358000Y-129030000D03*
D15*
X124178000Y-129030000D03*
D14*
X128358000Y-137670000D03*
D15*
X124178000Y-137670000D03*
%TD*%
D12*
%TO.C,REF\u002A\u002A*%
X127500000Y-144000000D03*
%TD*%
D16*
%TO.C,R24*%
X113475000Y-138684000D03*
X115125000Y-138684000D03*
%TD*%
D17*
%TO.C,D1*%
X111239000Y-133215000D03*
X108689000Y-133214999D03*
X111239000Y-137415000D03*
X108689000Y-137415000D03*
%TD*%
D18*
%TO.C,R13*%
X114554000Y-131127000D03*
X114554000Y-129477000D03*
%TD*%
D10*
%TO.C,J2*%
X127762000Y-123444000D03*
D11*
X127762000Y-120904000D03*
X127762000Y-118364001D03*
X127762000Y-115824000D03*
%TD*%
D19*
%TO.C,D3*%
X114300000Y-133833500D03*
X114300000Y-136908500D03*
%TD*%
%TO.C,D2*%
X105664000Y-133844500D03*
X105664000Y-136919500D03*
%TD*%
D20*
%TO.C,R23*%
X106489000Y-138684000D03*
X104839000Y-138684000D03*
%TD*%
D21*
%TO.C,C8*%
X113030000Y-131077000D03*
X113030000Y-129527000D03*
%TD*%
D22*
%TO.C,U2*%
X109540001Y-129164500D03*
X110490000Y-129164500D03*
X111439999Y-129164500D03*
X111439999Y-131439500D03*
X109540001Y-131439500D03*
%TD*%
M02*
