%TF.GenerationSoftware,KiCad,Pcbnew,7.99.0-950-gc4668c1d3a-dirty*%
%TF.CreationDate,2023-06-01T03:31:39+08:00*%
%TF.ProjectId,HeartRateMonitor,48656172-7452-4617-9465-4d6f6e69746f,C*%
%TF.SameCoordinates,Original*%
%TF.FileFunction,Copper,L1,Top*%
%TF.FilePolarity,Positive*%
%FSLAX46Y46*%
G04 Gerber Fmt 4.6, Leading zero omitted, Abs format (unit mm)*
G04 Created by KiCad (PCBNEW 7.99.0-950-gc4668c1d3a-dirty) date 2023-06-01 03:31:39*
%MOMM*%
%LPD*%
G01*
G04 APERTURE LIST*
G04 Aperture macros list*
%AMRoundRect*
0 Rectangle with rounded corners*
0 $1 Rounding radius*
0 $2 $3 $4 $5 $6 $7 $8 $9 X,Y pos of 4 corners*
0 Add a 4 corners polygon primitive as box body*
4,1,4,$2,$3,$4,$5,$6,$7,$8,$9,$2,$3,0*
0 Add four circle primitives for the rounded corners*
1,1,$1+$1,$2,$3*
1,1,$1+$1,$4,$5*
1,1,$1+$1,$6,$7*
1,1,$1+$1,$8,$9*
0 Add four rect primitives between the rounded corners*
20,1,$1+$1,$2,$3,$4,$5,0*
20,1,$1+$1,$4,$5,$6,$7,0*
20,1,$1+$1,$6,$7,$8,$9,0*
20,1,$1+$1,$8,$9,$2,$3,0*%
G04 Aperture macros list end*
%TA.AperFunction,SMDPad,CuDef*%
%ADD10RoundRect,0.225000X-0.250000X0.225000X-0.250000X-0.225000X0.250000X-0.225000X0.250000X0.225000X0*%
%TD*%
%TA.AperFunction,SMDPad,CuDef*%
%ADD11R,1.450000X0.450000*%
%TD*%
%TA.AperFunction,SMDPad,CuDef*%
%ADD12RoundRect,0.200000X-0.275000X0.200000X-0.275000X-0.200000X0.275000X-0.200000X0.275000X0.200000X0*%
%TD*%
%TA.AperFunction,ComponentPad*%
%ADD13C,3.500000*%
%TD*%
%TA.AperFunction,SMDPad,CuDef*%
%ADD14RoundRect,0.200000X0.275000X-0.200000X0.275000X0.200000X-0.275000X0.200000X-0.275000X-0.200000X0*%
%TD*%
%TA.AperFunction,SMDPad,CuDef*%
%ADD15RoundRect,0.062500X0.062500X-0.365000X0.062500X0.365000X-0.062500X0.365000X-0.062500X-0.365000X0*%
%TD*%
%TA.AperFunction,SMDPad,CuDef*%
%ADD16R,2.380000X1.640000*%
%TD*%
%TA.AperFunction,SMDPad,CuDef*%
%ADD17RoundRect,0.225000X0.225000X0.250000X-0.225000X0.250000X-0.225000X-0.250000X0.225000X-0.250000X0*%
%TD*%
%TA.AperFunction,SMDPad,CuDef*%
%ADD18RoundRect,0.225000X-0.225000X-0.250000X0.225000X-0.250000X0.225000X0.250000X-0.225000X0.250000X0*%
%TD*%
%TA.AperFunction,SMDPad,CuDef*%
%ADD19RoundRect,0.200000X0.200000X0.275000X-0.200000X0.275000X-0.200000X-0.275000X0.200000X-0.275000X0*%
%TD*%
%TA.AperFunction,SMDPad,CuDef*%
%ADD20RoundRect,0.200000X-0.200000X-0.275000X0.200000X-0.275000X0.200000X0.275000X-0.200000X0.275000X0*%
%TD*%
%TA.AperFunction,SMDPad,CuDef*%
%ADD21RoundRect,0.100000X0.637500X0.100000X-0.637500X0.100000X-0.637500X-0.100000X0.637500X-0.100000X0*%
%TD*%
%TA.AperFunction,SMDPad,CuDef*%
%ADD22R,0.300000X1.400000*%
%TD*%
%TA.AperFunction,SMDPad,CuDef*%
%ADD23R,1.140460X0.500380*%
%TD*%
%TA.AperFunction,SMDPad,CuDef*%
%ADD24R,1.140460X0.299720*%
%TD*%
%TA.AperFunction,ComponentPad*%
%ADD25O,1.800860X1.000760*%
%TD*%
%TA.AperFunction,SMDPad,CuDef*%
%ADD26RoundRect,0.243750X0.243750X0.456250X-0.243750X0.456250X-0.243750X-0.456250X0.243750X-0.456250X0*%
%TD*%
%TA.AperFunction,SMDPad,CuDef*%
%ADD27RoundRect,0.225000X0.250000X-0.225000X0.250000X0.225000X-0.250000X0.225000X-0.250000X-0.225000X0*%
%TD*%
%TA.AperFunction,SMDPad,CuDef*%
%ADD28R,0.450000X1.450000*%
%TD*%
%TA.AperFunction,SMDPad,CuDef*%
%ADD29RoundRect,0.062500X-0.062500X0.350000X-0.062500X-0.350000X0.062500X-0.350000X0.062500X0.350000X0*%
%TD*%
%TA.AperFunction,SMDPad,CuDef*%
%ADD30RoundRect,0.062500X-0.350000X0.062500X-0.350000X-0.062500X0.350000X-0.062500X0.350000X0.062500X0*%
%TD*%
%TA.AperFunction,SMDPad,CuDef*%
%ADD31R,1.680000X1.680000*%
%TD*%
%TA.AperFunction,SMDPad,CuDef*%
%ADD32RoundRect,0.250000X0.375000X0.850000X-0.375000X0.850000X-0.375000X-0.850000X0.375000X-0.850000X0*%
%TD*%
%TA.AperFunction,SMDPad,CuDef*%
%ADD33RoundRect,0.150000X0.150000X-0.512500X0.150000X0.512500X-0.150000X0.512500X-0.150000X-0.512500X0*%
%TD*%
%TA.AperFunction,SMDPad,CuDef*%
%ADD34RoundRect,0.140000X-0.170000X0.140000X-0.170000X-0.140000X0.170000X-0.140000X0.170000X0.140000X0*%
%TD*%
%TA.AperFunction,SMDPad,CuDef*%
%ADD35RoundRect,0.250000X-0.325000X-0.650000X0.325000X-0.650000X0.325000X0.650000X-0.325000X0.650000X0*%
%TD*%
%TA.AperFunction,ComponentPad*%
%ADD36R,1.700000X1.700000*%
%TD*%
%TA.AperFunction,ComponentPad*%
%ADD37O,1.700000X1.700000*%
%TD*%
%TA.AperFunction,ViaPad*%
%ADD38C,0.400000*%
%TD*%
%TA.AperFunction,ViaPad*%
%ADD39C,0.450000*%
%TD*%
%TA.AperFunction,Conductor*%
%ADD40C,0.406400*%
%TD*%
%TA.AperFunction,Conductor*%
%ADD41C,0.304800*%
%TD*%
%TA.AperFunction,Conductor*%
%ADD42C,0.254000*%
%TD*%
%TA.AperFunction,Conductor*%
%ADD43C,0.508000*%
%TD*%
G04 APERTURE END LIST*
D10*
%TO.P,C6,1*%
%TO.N,Net-(U3-SS)*%
X35318000Y-58091500D03*
%TO.P,C6,2*%
%TO.N,GND*%
X35318000Y-59641500D03*
%TD*%
D11*
%TO.P,U6,1*%
%TO.N,/HIGH_PH*%
X30406000Y-33933500D03*
%TO.P,U6,2,-*%
X30406000Y-33283500D03*
%TO.P,U6,3,+*%
%TO.N,Net-(U6A-+)*%
X30406000Y-32633500D03*
%TO.P,U6,4,V-*%
%TO.N,-3V3*%
X30406000Y-31983500D03*
%TO.P,U6,5,+*%
%TO.N,Net-(U6B-+)*%
X26006000Y-31983500D03*
%TO.P,U6,6,-*%
%TO.N,/LOW_PH*%
X26006000Y-32633500D03*
%TO.P,U6,7*%
X26006000Y-33283500D03*
%TO.P,U6,8,V+*%
%TO.N,+3V3*%
X26006000Y-33933500D03*
%TD*%
D10*
%TO.P,C19,1*%
%TO.N,GND*%
X20078000Y-54789500D03*
%TO.P,C19,2*%
%TO.N,+3V3*%
X20078000Y-56339500D03*
%TD*%
D12*
%TO.P,R26,1*%
%TO.N,Net-(C21-Pad2)*%
X31000000Y-39245500D03*
%TO.P,R26,2*%
%TO.N,Net-(U2B--)*%
X31000000Y-40895500D03*
%TD*%
D13*
%TO.P,REF\u002A\u002A,1*%
%TO.N,N/C*%
X46740000Y-67992500D03*
%TD*%
D14*
%TO.P,R5,1*%
%TO.N,GND*%
X33794000Y-59691500D03*
%TO.P,R5,2*%
%TO.N,Net-(U3-FB)*%
X33794000Y-58041500D03*
%TD*%
D12*
%TO.P,R21,1*%
%TO.N,/DIGIPOT_SDA*%
X31762000Y-47881500D03*
%TO.P,R21,2*%
%TO.N,+3V3*%
X31762000Y-49531500D03*
%TD*%
D15*
%TO.P,U9,1,VDD*%
%TO.N,+3V3*%
X21844000Y-56406000D03*
%TO.P,U9,2,A*%
%TO.N,/DIGIPOT_A*%
X22344000Y-56406000D03*
%TO.P,U9,3,W*%
%TO.N,/AMP_PH*%
X22844000Y-56406000D03*
%TO.P,U9,4,VSS*%
%TO.N,GND*%
X23344000Y-56406000D03*
%TO.P,U9,5,EXT_CAP*%
%TO.N,Net-(U9-EXT_CAP)*%
X23844000Y-56406000D03*
%TO.P,U9,6,GND*%
%TO.N,GND*%
X23844000Y-53511000D03*
%TO.P,U9,7,~{RESET}*%
%TO.N,+3V3*%
X23344000Y-53511000D03*
%TO.P,U9,8,SDA*%
%TO.N,/DIGIPOT_SDA*%
X22844000Y-53511000D03*
%TO.P,U9,9,SCL*%
%TO.N,/DIGIPOT_SCL*%
X22344000Y-53511000D03*
%TO.P,U9,10,ADDR*%
%TO.N,unconnected-(U9-ADDR-Pad10)*%
X21844000Y-53511000D03*
D16*
%TO.P,U9,11,VSS*%
%TO.N,GND*%
X22844000Y-54958500D03*
%TD*%
D17*
%TO.P,C2,1*%
%TO.N,+5V*%
X40157000Y-67248500D03*
%TO.P,C2,2*%
%TO.N,GND*%
X38607000Y-67248500D03*
%TD*%
D18*
%TO.P,C3,1*%
%TO.N,Net-(U1-V3)*%
X38607000Y-65724500D03*
%TO.P,C3,2*%
%TO.N,GND*%
X40157000Y-65724500D03*
%TD*%
D19*
%TO.P,R14,1*%
%TO.N,Net-(U2A-+)*%
X22173000Y-39816500D03*
%TO.P,R14,2*%
%TO.N,GND*%
X20523000Y-39816500D03*
%TD*%
D14*
%TO.P,R3,1*%
%TO.N,GND*%
X41922000Y-67565500D03*
%TO.P,R3,2*%
%TO.N,Net-(J1-SHIELD)*%
X41922000Y-65915500D03*
%TD*%
D10*
%TO.P,C4,1*%
%TO.N,+5V*%
X36842000Y-58091500D03*
%TO.P,C4,2*%
%TO.N,GND*%
X36842000Y-59641500D03*
%TD*%
D20*
%TO.P,R1,1*%
%TO.N,Net-(J1-CC1)*%
X46431000Y-53786500D03*
%TO.P,R1,2*%
%TO.N,GND*%
X48081000Y-53786500D03*
%TD*%
D13*
%TO.P,REF\u002A\u002A,1*%
%TO.N,N/C*%
X21740000Y-26492500D03*
%TD*%
D21*
%TO.P,U4,1,PB7/PB8*%
%TO.N,/MCU_RX*%
X43192000Y-41228500D03*
%TO.P,U4,2,PC14/PB9*%
%TO.N,Net-(D2-K)*%
X43192000Y-40578500D03*
%TO.P,U4,3,PC15*%
%TO.N,Net-(D3-K)*%
X43192000Y-39928500D03*
%TO.P,U4,4,VDD*%
%TO.N,+3V3*%
X43192000Y-39278500D03*
%TO.P,U4,5,VSS*%
%TO.N,GND*%
X43192000Y-38628500D03*
%TO.P,U4,6,NRST*%
%TO.N,Net-(U4-NRST)*%
X43192000Y-37978500D03*
%TO.P,U4,7,PA0*%
%TO.N,/HIGH_PH*%
X43192000Y-37328500D03*
%TO.P,U4,8,PA1*%
%TO.N,/LOW_PH*%
X43192000Y-36678500D03*
%TO.P,U4,9,PA2*%
%TO.N,/SCR_DATA*%
X43192000Y-36028500D03*
%TO.P,U4,10,PA3*%
%TO.N,/SCR_DC*%
X43192000Y-35378500D03*
%TO.P,U4,11,PA4*%
%TO.N,/SCR_RES*%
X37467000Y-35378500D03*
%TO.P,U4,12,PA5*%
%TO.N,/SCR_SCK*%
X37467000Y-36028500D03*
%TO.P,U4,13,PA6*%
%TO.N,/SCR_BLK*%
X37467000Y-36678500D03*
%TO.P,U4,14,PA7*%
%TO.N,/SCR_CS*%
X37467000Y-37328500D03*
%TO.P,U4,15,PB0/PB1/PB2/PA8*%
%TO.N,unconnected-(U4-PB0{slash}PB1{slash}PB2{slash}PA8-Pad15)*%
X37467000Y-37978500D03*
%TO.P,U4,16,PA11/PA9*%
%TO.N,/DIGIPOT_SCL*%
X37467000Y-38628500D03*
%TO.P,U4,17,PA12/PA10*%
%TO.N,/DIGIPOT_SDA*%
X37467000Y-39278500D03*
%TO.P,U4,18,PA13*%
%TO.N,Net-(J2-Pin_3)*%
X37467000Y-39928500D03*
%TO.P,U4,19,PA14/PA15*%
%TO.N,Net-(J2-Pin_2)*%
X37467000Y-40578500D03*
%TO.P,U4,20,PB3/PB4/PB5/PB6*%
%TO.N,/MCU_TX*%
X37467000Y-41228500D03*
%TD*%
D12*
%TO.P,R20,1*%
%TO.N,/DIGIPOT_SCL*%
X20332000Y-50421500D03*
%TO.P,R20,2*%
%TO.N,+3V3*%
X20332000Y-52071500D03*
%TD*%
D22*
%TO.P,U1,1,UD+*%
%TO.N,Net-(U1-UD+)*%
X38636000Y-63860500D03*
%TO.P,U1,2,UD-*%
%TO.N,Net-(U1-UD-)*%
X39136000Y-63860500D03*
%TO.P,U1,3,GND*%
%TO.N,GND*%
X39636000Y-63860500D03*
%TO.P,U1,4,~{RTS}*%
%TO.N,unconnected-(U1-~{RTS}-Pad4)*%
X40136000Y-63860500D03*
%TO.P,U1,5,~{CTS}*%
%TO.N,unconnected-(U1-~{CTS}-Pad5)*%
X40636000Y-63860500D03*
%TO.P,U1,6,TNOW*%
%TO.N,unconnected-(U1-TNOW-Pad6)*%
X40636000Y-59460500D03*
%TO.P,U1,7,VCC*%
%TO.N,+5V*%
X40136000Y-59460500D03*
%TO.P,U1,8,TXD*%
%TO.N,/MCU_RX*%
X39636000Y-59460500D03*
%TO.P,U1,9,RXD*%
%TO.N,/MCU_TX*%
X39136000Y-59460500D03*
%TO.P,U1,10,V3*%
%TO.N,Net-(U1-V3)*%
X38636000Y-59460500D03*
%TD*%
D12*
%TO.P,R22,1*%
%TO.N,GND*%
X25412000Y-54739500D03*
%TO.P,R22,2*%
%TO.N,/DIGIPOT_A*%
X25412000Y-56389500D03*
%TD*%
D18*
%TO.P,C8,1*%
%TO.N,Net-(D1-K)*%
X28701000Y-47944500D03*
%TO.P,C8,2*%
%TO.N,/RAW_PH*%
X30251000Y-47944500D03*
%TD*%
D13*
%TO.P,REF\u002A\u002A,1*%
%TO.N,N/C*%
X21740000Y-67992500D03*
%TD*%
D23*
%TO.P,J1,A1,GND*%
%TO.N,GND*%
X42841480Y-63082900D03*
%TO.P,J1,A4,VBUS*%
%TO.N,Net-(F1-Pad1)*%
X42841480Y-62282800D03*
D24*
%TO.P,J1,A5,CC1*%
%TO.N,Net-(J1-CC1)*%
X42841480Y-61132180D03*
%TO.P,J1,A6,D+*%
%TO.N,Net-(U1-UD+)*%
X42841480Y-60131420D03*
%TO.P,J1,A7,D-*%
%TO.N,Net-(U1-UD-)*%
X42841480Y-59633580D03*
%TO.P,J1,A8,SBU1*%
%TO.N,unconnected-(J1-SBU1-PadA8)*%
X42838940Y-58632820D03*
D23*
%TO.P,J1,A9,VBUS*%
%TO.N,Net-(F1-Pad1)*%
X42841480Y-57482200D03*
%TO.P,J1,A12,GND*%
%TO.N,GND*%
X42841480Y-56682100D03*
D24*
%TO.P,J1,B5,CC2*%
%TO.N,Net-(J1-CC2)*%
X42841480Y-58132440D03*
%TO.P,J1,B6,D+*%
%TO.N,Net-(U1-UD+)*%
X42841480Y-59133200D03*
%TO.P,J1,B7,D-*%
%TO.N,Net-(U1-UD-)*%
X42841480Y-60631800D03*
%TO.P,J1,B8,SBU2*%
%TO.N,unconnected-(J1-SBU2-PadB8)*%
X42838940Y-61632560D03*
D25*
%TO.P,J1,S1,SHIELD*%
%TO.N,Net-(J1-SHIELD)*%
X43407900Y-64203040D03*
X47609060Y-64203040D03*
X43407900Y-55561960D03*
X47609060Y-55561960D03*
%TD*%
D13*
%TO.P,REF\u002A\u002A,1*%
%TO.N,N/C*%
X46740000Y-26492500D03*
%TD*%
D18*
%TO.P,C16,1*%
%TO.N,Net-(U6B-+)*%
X28447000Y-30164500D03*
%TO.P,C16,2*%
%TO.N,GND*%
X29997000Y-30164500D03*
%TD*%
D26*
%TO.P,F1,1*%
%TO.N,Net-(F1-Pad1)*%
X40573500Y-56580500D03*
%TO.P,F1,2*%
%TO.N,+5V*%
X38698500Y-56580500D03*
%TD*%
D20*
%TO.P,R13,1*%
%TO.N,Net-(D1-K)*%
X28651000Y-49468500D03*
%TO.P,R13,2*%
%TO.N,/RAW_PH*%
X30301000Y-49468500D03*
%TD*%
D27*
%TO.P,C18,1*%
%TO.N,GND*%
X25412000Y-53304500D03*
%TO.P,C18,2*%
%TO.N,+3V3*%
X25412000Y-51754500D03*
%TD*%
%TO.P,C5,1*%
%TO.N,+5V*%
X38620000Y-54815500D03*
%TO.P,C5,2*%
%TO.N,GND*%
X38620000Y-53265500D03*
%TD*%
D12*
%TO.P,R4,1*%
%TO.N,Net-(U3-FB)*%
X32270000Y-58041500D03*
%TO.P,R4,2*%
%TO.N,+3V3*%
X32270000Y-59691500D03*
%TD*%
D18*
%TO.P,C7,1*%
%TO.N,+3V3*%
X38861000Y-50992500D03*
%TO.P,C7,2*%
%TO.N,GND*%
X40411000Y-50992500D03*
%TD*%
D20*
%TO.P,R25,1*%
%TO.N,Net-(U2B-+)*%
X30937000Y-42356500D03*
%TO.P,R25,2*%
%TO.N,GND*%
X32587000Y-42356500D03*
%TD*%
D28*
%TO.P,U11,1*%
%TO.N,/RAW_PH*%
X29181000Y-51586500D03*
%TO.P,U11,2,-*%
%TO.N,Net-(D1-K)*%
X28531000Y-51586500D03*
%TO.P,U11,3,+*%
%TO.N,GND*%
X27881000Y-51586500D03*
%TO.P,U11,4,V-*%
%TO.N,-3V3*%
X27231000Y-51586500D03*
%TO.P,U11,5,+*%
%TO.N,/RAW_PH*%
X27231000Y-55986500D03*
%TO.P,U11,6,-*%
%TO.N,/DIGIPOT_A*%
X27881000Y-55986500D03*
%TO.P,U11,7*%
%TO.N,/AMP_PH*%
X28531000Y-55986500D03*
%TO.P,U11,8,V+*%
%TO.N,+3V3*%
X29181000Y-55986500D03*
%TD*%
D29*
%TO.P,U3,1,SW*%
%TO.N,Net-(L1-Pad1)*%
X36322000Y-53594000D03*
%TO.P,U3,2,SW*%
X35822000Y-53594000D03*
%TO.P,U3,3,SW*%
X35322000Y-53594000D03*
%TO.P,U3,4,PG*%
%TO.N,unconnected-(U3-PG-Pad4)*%
X34822000Y-53594000D03*
D30*
%TO.P,U3,5,FB*%
%TO.N,Net-(U3-FB)*%
X34109500Y-54306500D03*
%TO.P,U3,6,AGND*%
%TO.N,GND*%
X34109500Y-54806500D03*
%TO.P,U3,7,FSW*%
%TO.N,+3V3*%
X34109500Y-55306500D03*
%TO.P,U3,8,DEF*%
%TO.N,unconnected-(U3-DEF-Pad8)*%
X34109500Y-55806500D03*
D29*
%TO.P,U3,9,SS*%
%TO.N,Net-(U3-SS)*%
X34822000Y-56519000D03*
%TO.P,U3,10,AVIN*%
%TO.N,+5V*%
X35322000Y-56519000D03*
%TO.P,U3,11,PVIN*%
X35822000Y-56519000D03*
%TO.P,U3,12,PVIN*%
X36322000Y-56519000D03*
D30*
%TO.P,U3,13,EN*%
X37034500Y-55806500D03*
%TO.P,U3,14,VOS*%
%TO.N,+3V3*%
X37034500Y-55306500D03*
%TO.P,U3,15,PGND*%
%TO.N,GND*%
X37034500Y-54806500D03*
%TO.P,U3,16,PGND*%
X37034500Y-54306500D03*
D31*
%TO.P,U3,17,PGND*%
X35572000Y-55056500D03*
%TD*%
D14*
%TO.P,R18,1*%
%TO.N,/HIGH_PH*%
X21856000Y-37339500D03*
%TO.P,R18,2*%
%TO.N,Net-(C17-Pad1)*%
X21856000Y-35689500D03*
%TD*%
D32*
%TO.P,L1,1*%
%TO.N,Net-(L1-Pad1)*%
X36647000Y-51246500D03*
%TO.P,L1,2*%
%TO.N,+3V3*%
X34497000Y-51246500D03*
%TD*%
D33*
%TO.P,U5,1,VOUT*%
%TO.N,-3V3*%
X20398000Y-45526000D03*
%TO.P,U5,2,VIN*%
%TO.N,+3V3*%
X21348000Y-45526000D03*
%TO.P,U5,3,C1-*%
%TO.N,Net-(U5-C1-)*%
X22298000Y-45526000D03*
%TO.P,U5,4,GND*%
%TO.N,GND*%
X22298000Y-43251000D03*
%TO.P,U5,5,C1+*%
%TO.N,Net-(U5-C1+)*%
X20398000Y-43251000D03*
%TD*%
D10*
%TO.P,C11,1*%
%TO.N,-3V3*%
X20332000Y-47436500D03*
%TO.P,C11,2*%
%TO.N,GND*%
X20332000Y-48986500D03*
%TD*%
D11*
%TO.P,U2,1*%
%TO.N,Net-(U2A--)*%
X24482000Y-40365500D03*
%TO.P,U2,2,-*%
X24482000Y-41015500D03*
%TO.P,U2,3,+*%
%TO.N,Net-(U2A-+)*%
X24482000Y-41665500D03*
%TO.P,U2,4,V-*%
%TO.N,-3V3*%
X24482000Y-42315500D03*
%TO.P,U2,5,+*%
%TO.N,Net-(U2B-+)*%
X28882000Y-42315500D03*
%TO.P,U2,6,-*%
%TO.N,Net-(U2B--)*%
X28882000Y-41665500D03*
%TO.P,U2,7*%
X28882000Y-41015500D03*
%TO.P,U2,8,V+*%
%TO.N,+3V3*%
X28882000Y-40365500D03*
%TD*%
D14*
%TO.P,R16,1*%
%TO.N,Net-(U2B--)*%
X29476000Y-38863500D03*
%TO.P,R16,2*%
%TO.N,Net-(C15-Pad1)*%
X29476000Y-37213500D03*
%TD*%
D34*
%TO.P,C22,1*%
%TO.N,Net-(C21-Pad2)*%
X32270000Y-40098500D03*
%TO.P,C22,2*%
%TO.N,Net-(U2B-+)*%
X32270000Y-41058500D03*
%TD*%
D18*
%TO.P,C20,1*%
%TO.N,Net-(U9-EXT_CAP)*%
X23875000Y-57850500D03*
%TO.P,C20,2*%
%TO.N,GND*%
X25425000Y-57850500D03*
%TD*%
%TO.P,C15,1*%
%TO.N,Net-(C15-Pad1)*%
X29463000Y-35752500D03*
%TO.P,C15,2*%
%TO.N,/HIGH_PH*%
X31013000Y-35752500D03*
%TD*%
D10*
%TO.P,C1,1*%
%TO.N,Net-(J1-SHIELD)*%
X43446000Y-65965500D03*
%TO.P,C1,2*%
%TO.N,GND*%
X43446000Y-67515500D03*
%TD*%
D14*
%TO.P,R19,1*%
%TO.N,Net-(C17-Pad1)*%
X23888000Y-33529500D03*
%TO.P,R19,2*%
%TO.N,Net-(U6B-+)*%
X23888000Y-31879500D03*
%TD*%
D12*
%TO.P,R8,1*%
%TO.N,Net-(U4-NRST)*%
X45224000Y-37467500D03*
%TO.P,R8,2*%
%TO.N,+3V3*%
X45224000Y-39117500D03*
%TD*%
D35*
%TO.P,C21,1*%
%TO.N,Net-(U2A--)*%
X23937000Y-38292500D03*
%TO.P,C21,2*%
%TO.N,Net-(C21-Pad2)*%
X26887000Y-38292500D03*
%TD*%
D36*
%TO.P,J3,1,Pin_1*%
%TO.N,GND*%
X25350000Y-25846500D03*
D37*
%TO.P,J3,2,Pin_2*%
%TO.N,+3V3*%
X27890000Y-25846500D03*
%TO.P,J3,3,Pin_3*%
%TO.N,/SCR_SCK*%
X30430000Y-25846500D03*
%TO.P,J3,4,Pin_4*%
%TO.N,/SCR_DATA*%
X32970000Y-25846500D03*
%TO.P,J3,5,Pin_5*%
%TO.N,/SCR_DC*%
X35510000Y-25846500D03*
%TO.P,J3,6,Pin_6*%
%TO.N,/SCR_RES*%
X38050000Y-25846500D03*
%TO.P,J3,7,Pin_7*%
%TO.N,/SCR_CS*%
X40590000Y-25846500D03*
%TO.P,J3,8,Pin_8*%
%TO.N,/SCR_BLK*%
X43130000Y-25846500D03*
%TD*%
D18*
%TO.P,C17,1*%
%TO.N,Net-(C17-Pad1)*%
X23367000Y-35752500D03*
%TO.P,C17,2*%
%TO.N,/LOW_PH*%
X24917000Y-35752500D03*
%TD*%
D27*
%TO.P,C10,1*%
%TO.N,+3V3*%
X23888000Y-45671500D03*
%TO.P,C10,2*%
%TO.N,GND*%
X23888000Y-44121500D03*
%TD*%
D10*
%TO.P,C14,1*%
%TO.N,Net-(U6A-+)*%
X32524000Y-34215500D03*
%TO.P,C14,2*%
%TO.N,GND*%
X32524000Y-35765500D03*
%TD*%
D36*
%TO.P,J2,1,Pin_1*%
%TO.N,GND*%
X47256000Y-50982500D03*
D37*
%TO.P,J2,2,Pin_2*%
%TO.N,Net-(J2-Pin_2)*%
X47256000Y-48442500D03*
%TO.P,J2,3,Pin_3*%
%TO.N,Net-(J2-Pin_3)*%
X47256000Y-45902500D03*
%TO.P,J2,4,Pin_4*%
%TO.N,+3V3*%
X47256000Y-43362500D03*
%TD*%
D18*
%TO.P,C9,1*%
%TO.N,Net-(U5-C1+)*%
X20573000Y-41340500D03*
%TO.P,C9,2*%
%TO.N,Net-(U5-C1-)*%
X22123000Y-41340500D03*
%TD*%
D17*
%TO.P,C12,1*%
%TO.N,/AMP_PH*%
X26949000Y-44134500D03*
%TO.P,C12,2*%
%TO.N,Net-(U2A-+)*%
X25399000Y-44134500D03*
%TD*%
D19*
%TO.P,R2,1*%
%TO.N,Net-(J1-CC2)*%
X45033000Y-53786500D03*
%TO.P,R2,2*%
%TO.N,GND*%
X43383000Y-53786500D03*
%TD*%
D20*
%TO.P,R17,1*%
%TO.N,Net-(C15-Pad1)*%
X26365000Y-35752500D03*
%TO.P,R17,2*%
%TO.N,Net-(U6A-+)*%
X28015000Y-35752500D03*
%TD*%
D38*
%TO.N,+5V*%
X39382000Y-66232500D03*
X40136000Y-58358500D03*
%TO.N,-3V3*%
X25158000Y-38292500D03*
X23126000Y-42610500D03*
X27444000Y-50484500D03*
X20586000Y-44388500D03*
%TO.N,/AMP_PH*%
X27698000Y-44134500D03*
X29222000Y-53532500D03*
%TO.N,/DIGIPOT_A*%
X22364000Y-57342500D03*
X27190000Y-58358500D03*
%TO.N,/HIGH_PH*%
X31254000Y-34736500D03*
%TO.N,/MCU_RX*%
X39636000Y-58104500D03*
X39890000Y-41848500D03*
%TO.N,/MCU_TX*%
X39128000Y-42356500D03*
X39128000Y-58358500D03*
%TO.N,/SCR_CS*%
X39128000Y-37328500D03*
%TO.N,/SCR_DC*%
X37350000Y-33974500D03*
%TO.N,/SCR_RES*%
X38620000Y-35244500D03*
%TO.N,Net-(D2-K)*%
X37858000Y-43118500D03*
%TO.N,Net-(D3-K)*%
X36588000Y-43372500D03*
%TO.N,Net-(J2-Pin_2)*%
X38620000Y-40578500D03*
%TO.N,Net-(J2-Pin_3)*%
X38620000Y-39928500D03*
%TO.N,Net-(U1-UD+)*%
X43700000Y-59120500D03*
X43700000Y-60136500D03*
%TO.N,Net-(F1-Pad1)*%
X41414000Y-61660500D03*
X44208000Y-61660500D03*
X41922000Y-57342500D03*
X41414000Y-62168500D03*
X40398000Y-55310500D03*
X40906000Y-54802500D03*
X41922000Y-62168500D03*
X39890000Y-54802500D03*
X41922000Y-57850500D03*
X40398000Y-54802500D03*
X41414000Y-62676500D03*
X43700000Y-62168500D03*
X44208000Y-62168500D03*
X43700000Y-57596500D03*
X39890000Y-55310500D03*
X40906000Y-55310500D03*
%TO.N,Net-(D1-K)*%
X29476000Y-46420500D03*
%TO.N,/SCR_BLK*%
X41070000Y-36678500D03*
%TO.N,/SCR_DATA*%
X39382000Y-36006500D03*
%TO.N,/SCR_SCK*%
X35826000Y-34228500D03*
%TO.N,/HIGH_PH*%
X34048000Y-39054500D03*
X39382000Y-39054500D03*
X21856000Y-36514500D03*
D39*
%TO.N,/LOW_PH*%
X38874000Y-38292500D03*
D38*
X24917000Y-36768500D03*
%TO.N,+3V3*%
X37858000Y-55310500D03*
X28460000Y-27624500D03*
X33485500Y-55310500D03*
X27444000Y-41594500D03*
X34048000Y-48706500D03*
X34048000Y-52008500D03*
X27698000Y-32704500D03*
X20078000Y-55564500D03*
X20332000Y-53024500D03*
X29476000Y-43372500D03*
X32270000Y-58866500D03*
X32778000Y-54294500D03*
X25412000Y-52516500D03*
%TO.N,GND*%
X35572000Y-55056500D03*
X37858000Y-53278500D03*
X33540000Y-40832500D03*
X38620000Y-68264500D03*
X41160000Y-50992500D03*
X41668000Y-55310500D03*
X20078000Y-54040500D03*
X41668000Y-54802500D03*
X44208000Y-53786500D03*
X47256000Y-53786500D03*
X41922000Y-39054500D03*
X25412000Y-55564500D03*
X29222000Y-30164500D03*
X21348000Y-39816500D03*
X23888000Y-43372500D03*
X41922000Y-66994500D03*
X39636000Y-62676500D03*
X22618000Y-42102500D03*
X41668000Y-63946500D03*
X20332000Y-48198500D03*
X41668000Y-63438500D03*
X43446000Y-66994500D03*
X27444000Y-53024500D03*
X22872000Y-55056500D03*
X32524000Y-34990500D03*
X33794000Y-58866500D03*
X24650000Y-57850500D03*
%TD*%
D40*
%TO.N,Net-(U2B--)*%
X29476000Y-39054500D02*
X29984000Y-39562500D01*
X29984000Y-39562500D02*
X29984000Y-40832500D01*
X29476000Y-38863500D02*
X29476000Y-39054500D01*
%TO.N,Net-(U6B-+)*%
X23992000Y-31983500D02*
X23888000Y-31879500D01*
X28460000Y-31434500D02*
X28447000Y-31421500D01*
X27911000Y-31983500D02*
X28460000Y-31434500D01*
X26006000Y-31983500D02*
X23992000Y-31983500D01*
X26006000Y-31983500D02*
X27911000Y-31983500D01*
X28447000Y-31421500D02*
X28447000Y-30164500D01*
%TO.N,Net-(U6A-+)*%
X30406000Y-32633500D02*
X29547000Y-32633500D01*
X29222000Y-32958500D02*
X29222000Y-34545500D01*
X29222000Y-34545500D02*
X28015000Y-35752500D01*
X32199000Y-32633500D02*
X30406000Y-32633500D01*
X32524000Y-32958500D02*
X32199000Y-32633500D01*
X32524000Y-34215500D02*
X32524000Y-32958500D01*
X29547000Y-32633500D02*
X29222000Y-32958500D01*
%TO.N,Net-(U2A-+)*%
X22173000Y-39816500D02*
X22872000Y-39816500D01*
X23451000Y-41665500D02*
X24482000Y-41665500D01*
X23126000Y-40070500D02*
X23126000Y-41340500D01*
X22872000Y-39816500D02*
X23126000Y-40070500D01*
X25920000Y-41848500D02*
X25737000Y-41665500D01*
X25399000Y-43131500D02*
X25920000Y-42610500D01*
X25399000Y-44134500D02*
X25399000Y-43131500D01*
X25737000Y-41665500D02*
X24482000Y-41665500D01*
X23126000Y-41340500D02*
X23451000Y-41665500D01*
X25920000Y-42610500D02*
X25920000Y-41848500D01*
D41*
%TO.N,+5V*%
X40136000Y-58358500D02*
X40136000Y-57842500D01*
X40136000Y-59460500D02*
X40136000Y-58358500D01*
X39382000Y-66232500D02*
X39382000Y-66473500D01*
X40136000Y-57842500D02*
X39890000Y-57596500D01*
X38698500Y-56580500D02*
X38698500Y-56659000D01*
X39890000Y-57596500D02*
X39128000Y-57596500D01*
X39382000Y-66473500D02*
X40157000Y-67248500D01*
D40*
%TO.N,-3V3*%
X27444000Y-50484500D02*
X27231000Y-50697500D01*
X20398000Y-45526000D02*
X20398000Y-44576500D01*
D41*
X27444000Y-34736500D02*
X28460000Y-33720500D01*
D40*
X20398000Y-44576500D02*
X20586000Y-44388500D01*
X24482000Y-42315500D02*
X23421000Y-42315500D01*
D41*
X25158000Y-37530500D02*
X25666000Y-37022500D01*
X26174000Y-34736500D02*
X27444000Y-34736500D01*
X28927000Y-31983500D02*
X30406000Y-31983500D01*
X28460000Y-32450500D02*
X28927000Y-31983500D01*
X25158000Y-38292500D02*
X25158000Y-37530500D01*
D40*
X20398000Y-47370500D02*
X20332000Y-47436500D01*
X20398000Y-45526000D02*
X20398000Y-47370500D01*
X27231000Y-50697500D02*
X27231000Y-51586500D01*
X23421000Y-42315500D02*
X23126000Y-42610500D01*
D41*
X25666000Y-37022500D02*
X25666000Y-35244500D01*
X28460000Y-33720500D02*
X28460000Y-32450500D01*
X25666000Y-35244500D02*
X26174000Y-34736500D01*
D42*
%TO.N,/AMP_PH*%
X22844000Y-58330500D02*
X23380000Y-58866500D01*
X23380000Y-58866500D02*
X27952000Y-58866500D01*
X28531000Y-58287500D02*
X28531000Y-55986500D01*
D40*
X28531000Y-55986500D02*
X28531000Y-54223500D01*
D42*
X27952000Y-58866500D02*
X28531000Y-58287500D01*
X22844000Y-56406000D02*
X22844000Y-58330500D01*
D40*
X28531000Y-54223500D02*
X29222000Y-53532500D01*
X27698000Y-44134500D02*
X26949000Y-44134500D01*
D42*
%TO.N,/DIGIPOT_A*%
X27881000Y-58175500D02*
X27698000Y-58358500D01*
D40*
X27627000Y-57088500D02*
X26111000Y-57088500D01*
D42*
X27881000Y-56834500D02*
X27881000Y-58175500D01*
D40*
X27881000Y-55986500D02*
X27881000Y-56834500D01*
D42*
X22344000Y-56406000D02*
X22344000Y-57322500D01*
D40*
X27881000Y-56834500D02*
X27627000Y-57088500D01*
X26111000Y-57088500D02*
X25412000Y-56389500D01*
D42*
X27698000Y-58358500D02*
X27190000Y-58358500D01*
X22344000Y-57322500D02*
X22364000Y-57342500D01*
%TO.N,/DIGIPOT_SCL*%
X22344000Y-51774500D02*
X22344000Y-52008500D01*
X34810000Y-45150500D02*
X34556000Y-45404500D01*
X27190000Y-49214500D02*
X26936000Y-49468500D01*
X34556000Y-45404500D02*
X28460000Y-45404500D01*
X22047000Y-50421500D02*
X22344000Y-50718500D01*
X34810000Y-39816500D02*
X34810000Y-45150500D01*
X23888000Y-50230500D02*
X22344000Y-51774500D01*
X20332000Y-50421500D02*
X22047000Y-50421500D01*
X25412000Y-50230500D02*
X23888000Y-50230500D01*
X22344000Y-52008500D02*
X22344000Y-53511000D01*
X27190000Y-46674500D02*
X27190000Y-49214500D01*
X26936000Y-49468500D02*
X26174000Y-49468500D01*
X35998000Y-38628500D02*
X34810000Y-39816500D01*
X37467000Y-38628500D02*
X35998000Y-38628500D01*
X22344000Y-50718500D02*
X22344000Y-52008500D01*
X28460000Y-45404500D02*
X27190000Y-46674500D01*
X26174000Y-49468500D02*
X25412000Y-50230500D01*
%TO.N,/DIGIPOT_SDA*%
X36110000Y-39278500D02*
X35318000Y-40070500D01*
X27698000Y-46928500D02*
X27698000Y-49468500D01*
X35318000Y-40070500D02*
X35318000Y-45404500D01*
X26428000Y-49976500D02*
X25666000Y-50738500D01*
X37467000Y-39278500D02*
X36110000Y-39278500D01*
X24142000Y-50738500D02*
X22844000Y-52036500D01*
X32270000Y-45912500D02*
X28714000Y-45912500D01*
X25666000Y-50738500D02*
X24142000Y-50738500D01*
X27698000Y-49468500D02*
X27190000Y-49976500D01*
X31762000Y-47881500D02*
X31762000Y-46420500D01*
X35318000Y-45404500D02*
X34810000Y-45912500D01*
X34810000Y-45912500D02*
X32270000Y-45912500D01*
X22844000Y-52036500D02*
X22844000Y-53511000D01*
X28714000Y-45912500D02*
X27698000Y-46928500D01*
X27190000Y-49976500D02*
X26428000Y-49976500D01*
X31762000Y-46420500D02*
X32270000Y-45912500D01*
D41*
%TO.N,/MCU_RX*%
X39636000Y-58104500D02*
X39636000Y-59460500D01*
X39890000Y-41594500D02*
X40256000Y-41228500D01*
X39890000Y-41848500D02*
X39890000Y-41594500D01*
X40256000Y-41228500D02*
X43192000Y-41228500D01*
%TO.N,/MCU_TX*%
X39136000Y-58366500D02*
X39128000Y-58358500D01*
X39128000Y-41594500D02*
X38762000Y-41228500D01*
X38762000Y-41228500D02*
X37467000Y-41228500D01*
X39128000Y-42356500D02*
X39128000Y-41594500D01*
X39136000Y-59460500D02*
X39136000Y-58366500D01*
D40*
%TO.N,/RAW_PH*%
X29181000Y-51586500D02*
X29181000Y-50779500D01*
X30301000Y-47994500D02*
X30251000Y-47944500D01*
X30301000Y-50167500D02*
X30301000Y-49468500D01*
X27231000Y-54548500D02*
X27231000Y-55986500D01*
X29181000Y-52598500D02*
X27231000Y-54548500D01*
X29984000Y-50484500D02*
X30301000Y-50167500D01*
X29181000Y-50779500D02*
X29476000Y-50484500D01*
X29181000Y-51586500D02*
X29181000Y-52598500D01*
X29476000Y-50484500D02*
X29984000Y-50484500D01*
X30301000Y-49468500D02*
X30301000Y-47994500D01*
%TO.N,/SCR_CS*%
X39128000Y-37328500D02*
X37467000Y-37328500D01*
%TO.N,/SCR_DC*%
X37350000Y-33974500D02*
X37858000Y-34482500D01*
X42310000Y-35378500D02*
X43192000Y-35378500D01*
X41414000Y-34482500D02*
X42310000Y-35378500D01*
X37858000Y-34482500D02*
X41414000Y-34482500D01*
%TO.N,/SCR_RES*%
X37467000Y-35378500D02*
X38486000Y-35378500D01*
X38486000Y-35378500D02*
X38620000Y-35244500D01*
%TO.N,Net-(C15-Pad1)*%
X29463000Y-37200500D02*
X29476000Y-37213500D01*
X29463000Y-35752500D02*
X29463000Y-37200500D01*
X26365000Y-35943500D02*
X26365000Y-35752500D01*
X29476000Y-37213500D02*
X27635000Y-37213500D01*
X27635000Y-37213500D02*
X26365000Y-35943500D01*
%TO.N,Net-(C17-Pad1)*%
X23888000Y-34228500D02*
X23367000Y-34749500D01*
X23367000Y-35752500D02*
X21919000Y-35752500D01*
X21919000Y-35752500D02*
X21856000Y-35689500D01*
X23888000Y-33529500D02*
X23888000Y-34228500D01*
X23367000Y-34749500D02*
X23367000Y-35752500D01*
%TO.N,Net-(D2-K)*%
X43700000Y-43118500D02*
X37858000Y-43118500D01*
X44208000Y-40578500D02*
X44462000Y-40832500D01*
X44462000Y-40832500D02*
X44462000Y-42356500D01*
X44462000Y-42356500D02*
X43700000Y-43118500D01*
X43192000Y-40578500D02*
X44208000Y-40578500D01*
%TO.N,Net-(D3-K)*%
X36588000Y-43372500D02*
X37096000Y-43372500D01*
X44208000Y-43880500D02*
X45224000Y-42864500D01*
X45224000Y-42864500D02*
X45224000Y-40578500D01*
X37096000Y-43372500D02*
X37604000Y-43880500D01*
X37604000Y-43880500D02*
X44208000Y-43880500D01*
X44574000Y-39928500D02*
X43192000Y-39928500D01*
X45224000Y-40578500D02*
X44574000Y-39928500D01*
%TO.N,Net-(J2-Pin_2)*%
X37467000Y-40578500D02*
X38620000Y-40578500D01*
%TO.N,Net-(J2-Pin_3)*%
X38620000Y-39928500D02*
X37467000Y-39928500D01*
D41*
%TO.N,Net-(U1-V3)*%
X38636000Y-60374500D02*
X38112000Y-60898500D01*
X38112000Y-60898500D02*
X38112000Y-65229500D01*
X38636000Y-59460500D02*
X38636000Y-60374500D01*
X38112000Y-65229500D02*
X38607000Y-65724500D01*
%TO.N,Net-(J1-CC2)*%
X44180060Y-58132440D02*
X42841480Y-58132440D01*
X45033000Y-57279500D02*
X44180060Y-58132440D01*
X45033000Y-53786500D02*
X45033000Y-57279500D01*
%TO.N,Net-(U1-UD-)*%
X41414000Y-61152500D02*
X41934700Y-60631800D01*
X44462000Y-59882500D02*
X44462000Y-60390500D01*
X41934700Y-60631800D02*
X42841480Y-60631800D01*
X39382000Y-61152500D02*
X41414000Y-61152500D01*
X39136000Y-63860500D02*
X39136000Y-61398500D01*
X44220700Y-60631800D02*
X42841480Y-60631800D01*
X39136000Y-61398500D02*
X39382000Y-61152500D01*
X44213080Y-59633580D02*
X44462000Y-59882500D01*
X42841480Y-59633580D02*
X44213080Y-59633580D01*
X44462000Y-60390500D02*
X44220700Y-60631800D01*
%TO.N,Net-(U1-UD+)*%
X38636000Y-63860500D02*
X38636000Y-61136500D01*
X38636000Y-61136500D02*
X39128000Y-60644500D01*
X43687300Y-59133200D02*
X43700000Y-59120500D01*
X41160000Y-60644500D02*
X41673080Y-60131420D01*
X39128000Y-60644500D02*
X41160000Y-60644500D01*
X43694920Y-60131420D02*
X43700000Y-60136500D01*
X41673080Y-60131420D02*
X42841480Y-60131420D01*
X42841480Y-59133200D02*
X43687300Y-59133200D01*
X42841480Y-60131420D02*
X43694920Y-60131420D01*
%TO.N,Net-(J1-CC1)*%
X42841480Y-61132180D02*
X45498320Y-61132180D01*
X45498320Y-61132180D02*
X45986000Y-60644500D01*
X45986000Y-54231500D02*
X46431000Y-53786500D01*
X45986000Y-60644500D02*
X45986000Y-54231500D01*
D42*
%TO.N,Net-(U3-FB)*%
X33794000Y-58041500D02*
X33286000Y-58041500D01*
X33032000Y-54802500D02*
X33528000Y-54306500D01*
X33794000Y-58041500D02*
X32270000Y-58041500D01*
X33528000Y-54306500D02*
X34109500Y-54306500D01*
X33032000Y-57787500D02*
X33032000Y-54802500D01*
X33286000Y-58041500D02*
X33032000Y-57787500D01*
%TO.N,Net-(U3-SS)*%
X34822000Y-57595500D02*
X35318000Y-58091500D01*
X34822000Y-56519000D02*
X34822000Y-57595500D01*
D40*
%TO.N,Net-(U4-NRST)*%
X44713000Y-37978500D02*
X45224000Y-37467500D01*
X43192000Y-37978500D02*
X44713000Y-37978500D01*
%TO.N,Net-(U5-C1+)*%
X20398000Y-43251000D02*
X20398000Y-41515500D01*
X20398000Y-41515500D02*
X20573000Y-41340500D01*
%TO.N,Net-(U5-C1-)*%
X22298000Y-45526000D02*
X22298000Y-44576500D01*
X22298000Y-44576500D02*
X22110000Y-44388500D01*
X22110000Y-44388500D02*
X21856000Y-44388500D01*
X21348000Y-42115500D02*
X22123000Y-41340500D01*
X21348000Y-43880500D02*
X21348000Y-42115500D01*
X21856000Y-44388500D02*
X21348000Y-43880500D01*
D42*
%TO.N,Net-(U9-EXT_CAP)*%
X23844000Y-57819500D02*
X23875000Y-57850500D01*
X23844000Y-56406000D02*
X23844000Y-57819500D01*
D40*
%TO.N,Net-(D1-K)*%
X28531000Y-51586500D02*
X28531000Y-49588500D01*
X28531000Y-49588500D02*
X28651000Y-49468500D01*
X28701000Y-47195500D02*
X28701000Y-47944500D01*
X28651000Y-47994500D02*
X28701000Y-47944500D01*
X29476000Y-46420500D02*
X28701000Y-47195500D01*
X28651000Y-49468500D02*
X28651000Y-47994500D01*
%TO.N,/SCR_BLK*%
X41070000Y-36678500D02*
X37467000Y-36678500D01*
%TO.N,Net-(U2B-+)*%
X32270000Y-41058500D02*
X32235000Y-41058500D01*
X32235000Y-41058500D02*
X30937000Y-42356500D01*
X28882000Y-42315500D02*
X30896000Y-42315500D01*
X30896000Y-42315500D02*
X30937000Y-42356500D01*
%TO.N,Net-(C21-Pad2)*%
X32270000Y-40098500D02*
X32270000Y-39562500D01*
X31000000Y-38292500D02*
X30746000Y-38038500D01*
X32270000Y-39562500D02*
X31953000Y-39245500D01*
X31000000Y-39245500D02*
X31000000Y-38292500D01*
X31953000Y-39245500D02*
X31000000Y-39245500D01*
X27141000Y-38038500D02*
X26887000Y-38292500D01*
X30746000Y-38038500D02*
X27141000Y-38038500D01*
%TO.N,/SCR_DATA*%
X39404000Y-36028500D02*
X39382000Y-36006500D01*
X43192000Y-36028500D02*
X39404000Y-36028500D01*
%TO.N,/SCR_SCK*%
X36356000Y-36028500D02*
X37467000Y-36028500D01*
X35826000Y-35498500D02*
X36356000Y-36028500D01*
X35826000Y-34228500D02*
X35826000Y-35498500D01*
%TO.N,/HIGH_PH*%
X32778000Y-39054500D02*
X31013000Y-37289500D01*
X31013000Y-37289500D02*
X31013000Y-35752500D01*
X21856000Y-37339500D02*
X21856000Y-36514500D01*
X39382000Y-39054500D02*
X40652000Y-39054500D01*
X40652000Y-39054500D02*
X42378000Y-37328500D01*
X34048000Y-39054500D02*
X32778000Y-39054500D01*
X42378000Y-37328500D02*
X43192000Y-37328500D01*
%TO.N,/LOW_PH*%
X24917000Y-35752500D02*
X24917000Y-36768500D01*
X40398000Y-38292500D02*
X38874000Y-38292500D01*
X43192000Y-36678500D02*
X42012000Y-36678500D01*
X42012000Y-36678500D02*
X40398000Y-38292500D01*
%TO.N,+3V3*%
X23888000Y-46420500D02*
X23634000Y-46674500D01*
D42*
X20332000Y-57596500D02*
X20078000Y-57342500D01*
D40*
X38874000Y-52008500D02*
X40652000Y-52008500D01*
D42*
X33489500Y-55306500D02*
X33485500Y-55310500D01*
D40*
X48526000Y-42102500D02*
X48526000Y-39054500D01*
D42*
X37034500Y-55306500D02*
X37854000Y-55306500D01*
D40*
X48399000Y-52135500D02*
X48526000Y-52008500D01*
X48526000Y-29656500D02*
X48526000Y-38292500D01*
X23634000Y-46674500D02*
X21602000Y-46674500D01*
X27890000Y-27054500D02*
X27890000Y-25846500D01*
X34497000Y-51246500D02*
X33286000Y-51246500D01*
D42*
X32778000Y-54294500D02*
X32778000Y-53278500D01*
D40*
X21348000Y-46420500D02*
X21348000Y-45526000D01*
D42*
X21844000Y-57354500D02*
X21602000Y-57596500D01*
D40*
X48526000Y-52008500D02*
X48526000Y-50484500D01*
X48526000Y-50484500D02*
X48526000Y-42102500D01*
X28460000Y-27624500D02*
X27890000Y-27054500D01*
D42*
X25412000Y-51754500D02*
X23888000Y-51754500D01*
X20078000Y-56339500D02*
X20078000Y-55564500D01*
D40*
X26006000Y-33933500D02*
X27231000Y-33933500D01*
D42*
X23344000Y-52298500D02*
X23888000Y-51754500D01*
D40*
X44208000Y-27624500D02*
X45478000Y-28894500D01*
D42*
X20332000Y-52071500D02*
X20332000Y-53024500D01*
D40*
X44399000Y-39117500D02*
X44238000Y-39278500D01*
X29181000Y-54589500D02*
X29181000Y-55986500D01*
X27444000Y-41594500D02*
X27444000Y-40832500D01*
D42*
X33540000Y-52516500D02*
X33794000Y-52516500D01*
D40*
X29476000Y-43372500D02*
X29476000Y-43626500D01*
X27444000Y-40832500D02*
X27911000Y-40365500D01*
X47764000Y-28894500D02*
X48526000Y-29656500D01*
D42*
X20078000Y-57342500D02*
X20078000Y-56339500D01*
D40*
X21602000Y-46674500D02*
X21348000Y-46420500D01*
X45478000Y-28894500D02*
X47764000Y-28894500D01*
D42*
X34109500Y-55306500D02*
X33489500Y-55306500D01*
D40*
X27911000Y-40365500D02*
X28882000Y-40365500D01*
X27231000Y-33933500D02*
X27698000Y-33466500D01*
X48526000Y-42102500D02*
X48516000Y-42102500D01*
X43192000Y-39278500D02*
X44238000Y-39278500D01*
D42*
X33731000Y-49531500D02*
X33794000Y-49468500D01*
D40*
X40652000Y-52008500D02*
X45478000Y-52008500D01*
D42*
X32270000Y-59691500D02*
X32270000Y-58866500D01*
D40*
X23888000Y-45671500D02*
X23888000Y-46420500D01*
D42*
X25412000Y-51754500D02*
X25412000Y-52516500D01*
X21602000Y-57596500D02*
X20332000Y-57596500D01*
D40*
X45478000Y-52008500D02*
X45986000Y-52516500D01*
X48018000Y-52516500D02*
X48399000Y-52135500D01*
X27431000Y-45671500D02*
X23888000Y-45671500D01*
X28460000Y-27624500D02*
X44208000Y-27624500D01*
X45224000Y-39117500D02*
X47701000Y-39117500D01*
X48516000Y-42102500D02*
X47256000Y-43362500D01*
D42*
X37854000Y-55306500D02*
X37858000Y-55310500D01*
D40*
X47701000Y-39117500D02*
X48526000Y-38292500D01*
X30492000Y-54040500D02*
X29730000Y-54040500D01*
D42*
X31762000Y-49531500D02*
X33731000Y-49531500D01*
X23344000Y-53511000D02*
X23344000Y-52298500D01*
D40*
X29730000Y-54040500D02*
X29181000Y-54589500D01*
D42*
X21844000Y-56406000D02*
X21844000Y-57354500D01*
D40*
X27698000Y-33466500D02*
X27698000Y-32704500D01*
X45986000Y-52516500D02*
X48018000Y-52516500D01*
X45224000Y-39117500D02*
X44399000Y-39117500D01*
X29476000Y-43626500D02*
X27431000Y-45671500D01*
X33286000Y-51246500D02*
X30492000Y-54040500D01*
D42*
X32778000Y-53278500D02*
X33540000Y-52516500D01*
D40*
X48526000Y-39054500D02*
X48526000Y-38292500D01*
%TO.N,GND*%
X22298000Y-43251000D02*
X22298000Y-42422500D01*
D43*
X36842000Y-59641500D02*
X35318000Y-59641500D01*
D40*
X27444000Y-53024500D02*
X27881000Y-52587500D01*
X29997000Y-30164500D02*
X29222000Y-30164500D01*
D43*
X37871000Y-53265500D02*
X37858000Y-53278500D01*
X42023600Y-63082900D02*
X41668000Y-63438500D01*
D40*
X32524000Y-35765500D02*
X32524000Y-34990500D01*
X27881000Y-52587500D02*
X27881000Y-51586500D01*
D42*
X25412000Y-54739500D02*
X25412000Y-55564500D01*
D43*
X42841480Y-63082900D02*
X42023600Y-63082900D01*
D42*
X23844000Y-53958500D02*
X22844000Y-54958500D01*
X37034500Y-54806500D02*
X35822000Y-54806500D01*
X22872000Y-55056500D02*
X22872000Y-54986500D01*
D41*
X39636000Y-65203500D02*
X40157000Y-65724500D01*
D40*
X20078000Y-54789500D02*
X20078000Y-54040500D01*
X32587000Y-42356500D02*
X33286000Y-42356500D01*
D42*
X23344000Y-55458500D02*
X22942000Y-55056500D01*
D41*
X43383000Y-53786500D02*
X44208000Y-53786500D01*
D43*
X41922000Y-67565500D02*
X41922000Y-66994500D01*
D42*
X37034500Y-54306500D02*
X37034500Y-54806500D01*
D41*
X48081000Y-53786500D02*
X47256000Y-53786500D01*
D43*
X43446000Y-67515500D02*
X43446000Y-66994500D01*
D41*
X39636000Y-63860500D02*
X39636000Y-62676500D01*
D40*
X35318000Y-59641500D02*
X33844000Y-59641500D01*
X22298000Y-42422500D02*
X22618000Y-42102500D01*
D42*
X22942000Y-55056500D02*
X22872000Y-55056500D01*
D43*
X42841480Y-56682100D02*
X42023600Y-56682100D01*
D42*
X22872000Y-54986500D02*
X22844000Y-54958500D01*
D40*
X42348000Y-38628500D02*
X43192000Y-38628500D01*
D41*
X39636000Y-63860500D02*
X39636000Y-65203500D01*
D42*
X23344000Y-56406000D02*
X23344000Y-55458500D01*
D40*
X33540000Y-42102500D02*
X33540000Y-40832500D01*
D43*
X38620000Y-53265500D02*
X37871000Y-53265500D01*
D42*
X25425000Y-57850500D02*
X24650000Y-57850500D01*
X23844000Y-53511000D02*
X23844000Y-53958500D01*
D40*
X23888000Y-44121500D02*
X23888000Y-43372500D01*
X33286000Y-42356500D02*
X33540000Y-42102500D01*
X38607000Y-67248500D02*
X38607000Y-68251500D01*
D42*
X35822000Y-54806500D02*
X35572000Y-55056500D01*
D40*
X41922000Y-39054500D02*
X42348000Y-38628500D01*
D42*
X25412000Y-53304500D02*
X25412000Y-54739500D01*
D43*
X41668000Y-55310500D02*
X41668000Y-54802500D01*
D40*
X33794000Y-59691500D02*
X33794000Y-58866500D01*
X33844000Y-59641500D02*
X33794000Y-59691500D01*
X40411000Y-50992500D02*
X41160000Y-50992500D01*
D43*
X41668000Y-56326500D02*
X41668000Y-55310500D01*
D42*
X35322000Y-54806500D02*
X35572000Y-55056500D01*
D43*
X42023600Y-56682100D02*
X41668000Y-56326500D01*
D42*
X34109500Y-54806500D02*
X35322000Y-54806500D01*
D43*
X41668000Y-63438500D02*
X41668000Y-63946500D01*
D40*
X20332000Y-48986500D02*
X20332000Y-48198500D01*
X38607000Y-68251500D02*
X38620000Y-68264500D01*
X20523000Y-39816500D02*
X21348000Y-39816500D01*
%TD*%
%TA.AperFunction,Conductor*%
%TO.N,+5V*%
G36*
X39325039Y-54060185D02*
G01*
X39370794Y-54112989D01*
X39382000Y-54164500D01*
X39381999Y-57856215D01*
X39365387Y-57918214D01*
X39332409Y-57975335D01*
X39281842Y-58023551D01*
X39213235Y-58036775D01*
X39194488Y-58032541D01*
X39185747Y-58031000D01*
X39070253Y-58031000D01*
X38961724Y-58070502D01*
X38961723Y-58070502D01*
X38961722Y-58070503D01*
X38955778Y-58075491D01*
X38891770Y-58103503D01*
X38876074Y-58104500D01*
X37604000Y-58104500D01*
X37604000Y-58742500D01*
X37584315Y-58809539D01*
X37531511Y-58855294D01*
X37480000Y-58866500D01*
X36204000Y-58866500D01*
X36136961Y-58846815D01*
X36091206Y-58794011D01*
X36080000Y-58742500D01*
X36080000Y-57088500D01*
X35200500Y-57088500D01*
X35133461Y-57068815D01*
X35087706Y-57016011D01*
X35076500Y-56964500D01*
X35076500Y-56493931D01*
X35075903Y-56487870D01*
X35076094Y-56487851D01*
X35074500Y-56471664D01*
X35074500Y-56196500D01*
X35094185Y-56129461D01*
X35146989Y-56083706D01*
X35198500Y-56072500D01*
X36587999Y-56072500D01*
X36588000Y-56072500D01*
X36588000Y-55688500D01*
X36607685Y-55621461D01*
X36660489Y-55575706D01*
X36712000Y-55564500D01*
X37606074Y-55564500D01*
X37673113Y-55584185D01*
X37685778Y-55593509D01*
X37691724Y-55598498D01*
X37800253Y-55638000D01*
X37800254Y-55638000D01*
X37915745Y-55638000D01*
X37915747Y-55638000D01*
X38024276Y-55598498D01*
X38112750Y-55524260D01*
X38170497Y-55424239D01*
X38190552Y-55310500D01*
X38170497Y-55196761D01*
X38112750Y-55096740D01*
X38024276Y-55022502D01*
X38024274Y-55022501D01*
X37939588Y-54991677D01*
X37883325Y-54950251D01*
X37858390Y-54884982D01*
X37858000Y-54875156D01*
X37858000Y-54164500D01*
X37877685Y-54097461D01*
X37930489Y-54051706D01*
X37982000Y-54040500D01*
X39258000Y-54040500D01*
X39325039Y-54060185D01*
G37*
%TD.AperFunction*%
%TD*%
%TA.AperFunction,Conductor*%
%TO.N,+3V3*%
G36*
X39579039Y-48218185D02*
G01*
X39624794Y-48270989D01*
X39636000Y-48322500D01*
X39636000Y-52392500D01*
X39616315Y-52459539D01*
X39563511Y-52505294D01*
X39512000Y-52516500D01*
X37728000Y-52516500D01*
X37660961Y-52496815D01*
X37615206Y-52444011D01*
X37604000Y-52392500D01*
X37604000Y-49722500D01*
X35572000Y-49722500D01*
X35572000Y-52646500D01*
X35552315Y-52713539D01*
X35499511Y-52759294D01*
X35448000Y-52770500D01*
X33664000Y-52770500D01*
X33596961Y-52750815D01*
X33551206Y-52698011D01*
X33540000Y-52646500D01*
X33540000Y-48322500D01*
X33559685Y-48255461D01*
X33612489Y-48209706D01*
X33664000Y-48198500D01*
X39512000Y-48198500D01*
X39579039Y-48218185D01*
G37*
%TD.AperFunction*%
%TD*%
%TA.AperFunction,Conductor*%
%TO.N,Net-(F1-Pad1)*%
G36*
X43657080Y-57108185D02*
G01*
X43701040Y-57157227D01*
X43703428Y-57162022D01*
X43780060Y-57231881D01*
X43876753Y-57269340D01*
X43876755Y-57269340D01*
X43954297Y-57269340D01*
X43954299Y-57269340D01*
X44030529Y-57255090D01*
X44118693Y-57200502D01*
X44166063Y-57137773D01*
X44222171Y-57096138D01*
X44265017Y-57088500D01*
X44416638Y-57088500D01*
X44483677Y-57108185D01*
X44529432Y-57160989D01*
X44539376Y-57230147D01*
X44510351Y-57293703D01*
X44504319Y-57300181D01*
X43990319Y-57814181D01*
X43928996Y-57847666D01*
X43902638Y-57850500D01*
X41668000Y-57850500D01*
X41668000Y-57212500D01*
X41687685Y-57145461D01*
X41740489Y-57099706D01*
X41792000Y-57088500D01*
X43590041Y-57088500D01*
X43657080Y-57108185D01*
G37*
%TD.AperFunction*%
%TD*%
%TA.AperFunction,Conductor*%
%TO.N,Net-(J1-SHIELD)*%
G36*
X44659039Y-63458185D02*
G01*
X44704794Y-63510989D01*
X44716000Y-63562500D01*
X44716000Y-65092500D01*
X44696315Y-65159539D01*
X44643511Y-65205294D01*
X44592000Y-65216500D01*
X44208000Y-65216500D01*
X44208000Y-66362500D01*
X44188315Y-66429539D01*
X44135511Y-66475294D01*
X44084000Y-66486500D01*
X41284000Y-66486500D01*
X41216961Y-66466815D01*
X41171206Y-66414011D01*
X41160000Y-66362500D01*
X41160000Y-65340500D01*
X41179685Y-65273461D01*
X41232489Y-65227706D01*
X41284000Y-65216500D01*
X42176000Y-65216500D01*
X42176000Y-63588400D01*
X42195685Y-63521361D01*
X42248489Y-63475606D01*
X42300000Y-63464400D01*
X42873091Y-63464400D01*
X42885790Y-63462281D01*
X42906199Y-63460590D01*
X43424269Y-63460590D01*
X43436555Y-63458145D01*
X43461458Y-63453192D01*
X43461458Y-63453191D01*
X43461461Y-63453191D01*
X43472743Y-63448518D01*
X43474369Y-63452444D01*
X43518879Y-63438519D01*
X43521062Y-63438500D01*
X44592000Y-63438500D01*
X44659039Y-63458185D01*
G37*
%TD.AperFunction*%
%TD*%
%TA.AperFunction,Conductor*%
%TO.N,/LOW_PH*%
G36*
X25218366Y-32327790D02*
G01*
X25219967Y-32323928D01*
X25231248Y-32328601D01*
X25231251Y-32328601D01*
X25231252Y-32328602D01*
X25250092Y-32332349D01*
X25268441Y-32336000D01*
X25268442Y-32336000D01*
X26743557Y-32336000D01*
X26743558Y-32336000D01*
X26780748Y-32328602D01*
X26780750Y-32328600D01*
X26787805Y-32327197D01*
X26857396Y-32333423D01*
X26912575Y-32376284D01*
X26935822Y-32442173D01*
X26936000Y-32448814D01*
X26936000Y-33468185D01*
X26916315Y-33535224D01*
X26863511Y-33580979D01*
X26794353Y-33590923D01*
X26787807Y-33589802D01*
X26743560Y-33581000D01*
X26743558Y-33581000D01*
X25268442Y-33581000D01*
X25268441Y-33581000D01*
X25231250Y-33588398D01*
X25189077Y-33616577D01*
X25160898Y-33658750D01*
X25153500Y-33695941D01*
X25153500Y-34171061D01*
X25155616Y-34181697D01*
X25158000Y-34205893D01*
X25158000Y-34990500D01*
X25281655Y-34990500D01*
X25348694Y-35010185D01*
X25394449Y-35062989D01*
X25404393Y-35132147D01*
X25402359Y-35142898D01*
X25398968Y-35157315D01*
X25396426Y-35165521D01*
X25386100Y-35192176D01*
X25386100Y-35197642D01*
X25382807Y-35226029D01*
X25381556Y-35231346D01*
X25381556Y-35231349D01*
X25385505Y-35259656D01*
X25386100Y-35268232D01*
X25386100Y-36390500D01*
X25366415Y-36457539D01*
X25313611Y-36503294D01*
X25262100Y-36514500D01*
X24520000Y-36514500D01*
X24452961Y-36494815D01*
X24407206Y-36442011D01*
X24396000Y-36390500D01*
X24396000Y-34025862D01*
X24415685Y-33958823D01*
X24432319Y-33938181D01*
X24432319Y-33938180D01*
X24650000Y-33720500D01*
X24650000Y-32438199D01*
X24669685Y-32371161D01*
X24722489Y-32325406D01*
X24774000Y-32314200D01*
X25172082Y-32314200D01*
X25218366Y-32327790D01*
G37*
%TD.AperFunction*%
%TD*%
%TA.AperFunction,Conductor*%
%TO.N,Net-(F1-Pad1)*%
G36*
X41865039Y-61426185D02*
G01*
X41910794Y-61478989D01*
X41922000Y-61530500D01*
X41922000Y-61914500D01*
X43699999Y-61914500D01*
X43700000Y-61914500D01*
X43700000Y-61536080D01*
X43719685Y-61469041D01*
X43772489Y-61423286D01*
X43824000Y-61412080D01*
X44592000Y-61412080D01*
X44659039Y-61431765D01*
X44704794Y-61484569D01*
X44716000Y-61536080D01*
X44716000Y-62552500D01*
X44696315Y-62619539D01*
X44643511Y-62665294D01*
X44592000Y-62676500D01*
X44267159Y-62676500D01*
X44200120Y-62656815D01*
X44156159Y-62607772D01*
X44153772Y-62602978D01*
X44077140Y-62533119D01*
X43980447Y-62495660D01*
X43902901Y-62495660D01*
X43872408Y-62501360D01*
X43826668Y-62509910D01*
X43738507Y-62564497D01*
X43738507Y-62564498D01*
X43696943Y-62619539D01*
X43691138Y-62627226D01*
X43635029Y-62668862D01*
X43592183Y-62676500D01*
X41668000Y-62676500D01*
X41668000Y-62806500D01*
X41648315Y-62873539D01*
X41595511Y-62919294D01*
X41544000Y-62930500D01*
X41284000Y-62930500D01*
X41216961Y-62910815D01*
X41171206Y-62858011D01*
X41160000Y-62806500D01*
X41160000Y-61556400D01*
X41179685Y-61489361D01*
X41232489Y-61443606D01*
X41284000Y-61432400D01*
X41355169Y-61432400D01*
X41363745Y-61432995D01*
X41374655Y-61434516D01*
X41374660Y-61434518D01*
X41413089Y-61432741D01*
X41419046Y-61432466D01*
X41421909Y-61432400D01*
X41439927Y-61432400D01*
X41439935Y-61432400D01*
X41442100Y-61431994D01*
X41450622Y-61431005D01*
X41479193Y-61429685D01*
X41484192Y-61427477D01*
X41511491Y-61419024D01*
X41516863Y-61418020D01*
X41516866Y-61418017D01*
X41516870Y-61418017D01*
X41524985Y-61414874D01*
X41569780Y-61406500D01*
X41798000Y-61406500D01*
X41865039Y-61426185D01*
G37*
%TD.AperFunction*%
%TD*%
%TA.AperFunction,Conductor*%
%TO.N,Net-(U2A--)*%
G36*
X24727134Y-37042185D02*
G01*
X24739793Y-37051505D01*
X24749099Y-37059313D01*
X24749102Y-37059314D01*
X24749104Y-37059315D01*
X24858686Y-37099199D01*
X24858689Y-37099200D01*
X24858691Y-37099200D01*
X24891598Y-37099200D01*
X24958637Y-37118885D01*
X25004392Y-37171689D01*
X25014336Y-37240847D01*
X24985311Y-37304403D01*
X24983233Y-37306741D01*
X24956468Y-37336099D01*
X24954494Y-37338167D01*
X24941741Y-37350921D01*
X24941731Y-37350932D01*
X24940486Y-37352750D01*
X24935161Y-37359470D01*
X24915903Y-37380596D01*
X24915902Y-37380598D01*
X24913925Y-37385701D01*
X24900605Y-37410970D01*
X24897518Y-37415476D01*
X24897514Y-37415485D01*
X24890969Y-37443311D01*
X24888426Y-37451520D01*
X24878100Y-37478175D01*
X24878100Y-37483642D01*
X24874807Y-37512029D01*
X24873556Y-37517346D01*
X24873556Y-37517353D01*
X24877504Y-37545659D01*
X24878099Y-37554233D01*
X24878099Y-38089076D01*
X24861488Y-38151073D01*
X24845503Y-38178760D01*
X24825448Y-38292500D01*
X24845502Y-38406237D01*
X24845505Y-38406244D01*
X24903247Y-38506256D01*
X24903248Y-38506257D01*
X24903250Y-38506260D01*
X24991724Y-38580498D01*
X25100253Y-38620000D01*
X25100254Y-38620000D01*
X25215746Y-38620000D01*
X25215747Y-38620000D01*
X25245590Y-38609137D01*
X25315316Y-38604705D01*
X25376372Y-38638674D01*
X25409371Y-38700260D01*
X25412000Y-38725659D01*
X25412000Y-41200185D01*
X25392315Y-41267224D01*
X25339511Y-41312979D01*
X25270353Y-41322923D01*
X25263807Y-41321802D01*
X25219560Y-41313000D01*
X25219558Y-41313000D01*
X23758000Y-41313000D01*
X23690961Y-41293315D01*
X23645206Y-41240511D01*
X23634000Y-41189000D01*
X23634000Y-39562500D01*
X23250000Y-39562500D01*
X23182961Y-39542815D01*
X23137206Y-39490011D01*
X23126000Y-39438500D01*
X23126000Y-37146500D01*
X23145685Y-37079461D01*
X23198489Y-37033706D01*
X23250000Y-37022500D01*
X24660095Y-37022500D01*
X24727134Y-37042185D01*
G37*
%TD.AperFunction*%
%TD*%
%TA.AperFunction,Conductor*%
%TO.N,/HIGH_PH*%
G36*
X31705039Y-32983885D02*
G01*
X31750794Y-33036689D01*
X31762000Y-33088200D01*
X31762000Y-36390500D01*
X31742315Y-36457539D01*
X31689511Y-36503294D01*
X31638000Y-36514500D01*
X30362000Y-36514500D01*
X30294961Y-36494815D01*
X30249206Y-36442011D01*
X30238000Y-36390500D01*
X30238000Y-34482500D01*
X29676699Y-34482500D01*
X29609660Y-34462815D01*
X29563905Y-34410011D01*
X29552699Y-34358500D01*
X29552699Y-33146838D01*
X29572384Y-33079803D01*
X29589016Y-33059163D01*
X29607570Y-33040609D01*
X29625862Y-33022318D01*
X29687186Y-32988833D01*
X29713542Y-32986000D01*
X31143559Y-32986000D01*
X31155845Y-32983555D01*
X31180748Y-32978602D01*
X31180748Y-32978601D01*
X31180751Y-32978601D01*
X31192033Y-32973928D01*
X31193714Y-32977987D01*
X31237768Y-32964219D01*
X31239918Y-32964200D01*
X31638000Y-32964200D01*
X31705039Y-32983885D01*
G37*
%TD.AperFunction*%
%TD*%
%TA.AperFunction,Conductor*%
%TO.N,Net-(F1-Pad1)*%
G36*
X42176000Y-57858023D02*
G01*
X42156315Y-57925062D01*
X42155104Y-57926911D01*
X42151148Y-57932830D01*
X42143750Y-57970022D01*
X42143750Y-57980500D01*
X42124065Y-58047539D01*
X42071261Y-58093294D01*
X42019750Y-58104500D01*
X41792000Y-58104500D01*
X41724961Y-58084815D01*
X41679206Y-58032011D01*
X41668000Y-57980500D01*
X41668000Y-57850500D01*
X42176000Y-57850500D01*
X42176000Y-57858023D01*
G37*
%TD.AperFunction*%
%TD*%
%TA.AperFunction,Conductor*%
%TO.N,Net-(L1-Pad1)*%
G36*
X37293039Y-49996185D02*
G01*
X37338794Y-50048989D01*
X37350000Y-50100500D01*
X37350000Y-53916500D01*
X37330315Y-53983539D01*
X37277511Y-54029294D01*
X37226000Y-54040500D01*
X35198500Y-54040500D01*
X35131461Y-54020815D01*
X35085706Y-53968011D01*
X35074500Y-53916500D01*
X35074500Y-53225286D01*
X35074499Y-53225284D01*
X35066383Y-53184479D01*
X35064000Y-53160288D01*
X35064000Y-53148500D01*
X35083685Y-53081461D01*
X35136489Y-53035706D01*
X35188000Y-53024500D01*
X35826000Y-53024500D01*
X35826000Y-50100500D01*
X35845685Y-50033461D01*
X35898489Y-49987706D01*
X35950000Y-49976500D01*
X37226000Y-49976500D01*
X37293039Y-49996185D01*
G37*
%TD.AperFunction*%
%TD*%
%TA.AperFunction,Conductor*%
%TO.N,Net-(F1-Pad1)*%
G36*
X41103039Y-54568185D02*
G01*
X41148794Y-54620989D01*
X41160000Y-54672500D01*
X41160000Y-56326500D01*
X41308442Y-56474942D01*
X41332161Y-56508162D01*
X41353224Y-56551247D01*
X41357869Y-56557753D01*
X41362777Y-56564059D01*
X41362779Y-56564061D01*
X41362780Y-56564062D01*
X41373982Y-56574374D01*
X41409973Y-56634259D01*
X41414000Y-56665604D01*
X41414000Y-57218500D01*
X41394315Y-57285539D01*
X41341511Y-57331294D01*
X41290000Y-57342500D01*
X40045864Y-57342500D01*
X40016740Y-57336357D01*
X40016202Y-57338645D01*
X40005016Y-57336014D01*
X39977186Y-57329468D01*
X39968980Y-57326927D01*
X39959445Y-57323233D01*
X39942322Y-57316600D01*
X39942321Y-57316600D01*
X39936856Y-57316600D01*
X39908466Y-57313306D01*
X39903151Y-57312056D01*
X39874841Y-57316005D01*
X39866266Y-57316600D01*
X39760000Y-57316600D01*
X39692961Y-57296915D01*
X39647206Y-57244111D01*
X39636000Y-57192600D01*
X39636000Y-54672500D01*
X39655685Y-54605461D01*
X39708489Y-54559706D01*
X39760000Y-54548500D01*
X41036000Y-54548500D01*
X41103039Y-54568185D01*
G37*
%TD.AperFunction*%
%TD*%
%TA.AperFunction,Conductor*%
%TO.N,Net-(U2B--)*%
G36*
X31705039Y-40090185D02*
G01*
X31750794Y-40142989D01*
X31762000Y-40194500D01*
X31762000Y-41012456D01*
X31742315Y-41079495D01*
X31725681Y-41100137D01*
X31267638Y-41558181D01*
X31206315Y-41591666D01*
X31179957Y-41594500D01*
X29730000Y-41594500D01*
X29730000Y-41839000D01*
X29710315Y-41906039D01*
X29657511Y-41951794D01*
X29606000Y-41963000D01*
X28144440Y-41963000D01*
X28100193Y-41971802D01*
X28030601Y-41965576D01*
X27975423Y-41922713D01*
X27952178Y-41856824D01*
X27952000Y-41850185D01*
X27952000Y-40843543D01*
X27971685Y-40776504D01*
X27988315Y-40755866D01*
X27989893Y-40754287D01*
X27998932Y-40745247D01*
X28060252Y-40711761D01*
X28110806Y-40711309D01*
X28144442Y-40718000D01*
X28144444Y-40718000D01*
X29619559Y-40718000D01*
X29626957Y-40716528D01*
X29656748Y-40710602D01*
X29698922Y-40682422D01*
X29727102Y-40640248D01*
X29727102Y-40640247D01*
X29731538Y-40633609D01*
X29785150Y-40588804D01*
X29834640Y-40578500D01*
X30237999Y-40578500D01*
X30238000Y-40578500D01*
X30238000Y-40194500D01*
X30257685Y-40127461D01*
X30310489Y-40081706D01*
X30362000Y-40070500D01*
X31638000Y-40070500D01*
X31705039Y-40090185D01*
G37*
%TD.AperFunction*%
%TD*%
M02*
