%TF.GenerationSoftware,KiCad,Pcbnew,7.99.0-728-gadc213a04d-dirty*%
%TF.CreationDate,2023-05-05T05:39:13+08:00*%
%TF.ProjectId,HeartRateMonitor,48656172-7452-4617-9465-4d6f6e69746f,rev?*%
%TF.SameCoordinates,Original*%
%TF.FileFunction,Paste,Top*%
%TF.FilePolarity,Positive*%
%FSLAX46Y46*%
G04 Gerber Fmt 4.6, Leading zero omitted, Abs format (unit mm)*
G04 Created by KiCad (PCBNEW 7.99.0-728-gadc213a04d-dirty) date 2023-05-05 05:39:13*
%MOMM*%
%LPD*%
G01*
G04 APERTURE LIST*
G04 Aperture macros list*
%AMRoundRect*
0 Rectangle with rounded corners*
0 $1 Rounding radius*
0 $2 $3 $4 $5 $6 $7 $8 $9 X,Y pos of 4 corners*
0 Add a 4 corners polygon primitive as box body*
4,1,4,$2,$3,$4,$5,$6,$7,$8,$9,$2,$3,0*
0 Add four circle primitives for the rounded corners*
1,1,$1+$1,$2,$3*
1,1,$1+$1,$4,$5*
1,1,$1+$1,$6,$7*
1,1,$1+$1,$8,$9*
0 Add four rect primitives between the rounded corners*
20,1,$1+$1,$2,$3,$4,$5,0*
20,1,$1+$1,$4,$5,$6,$7,0*
20,1,$1+$1,$6,$7,$8,$9,0*
20,1,$1+$1,$8,$9,$2,$3,0*%
G04 Aperture macros list end*
%ADD10RoundRect,0.150000X0.150000X-0.512500X0.150000X0.512500X-0.150000X0.512500X-0.150000X-0.512500X0*%
%ADD11RoundRect,0.225000X-0.225000X-0.250000X0.225000X-0.250000X0.225000X0.250000X-0.225000X0.250000X0*%
%ADD12R,0.450000X1.450000*%
%ADD13RoundRect,0.160000X0.160000X-0.170000X0.160000X0.170000X-0.160000X0.170000X-0.160000X-0.170000X0*%
%ADD14RoundRect,0.062500X0.062500X-0.365000X0.062500X0.365000X-0.062500X0.365000X-0.062500X-0.365000X0*%
%ADD15R,1.450000X0.450000*%
%ADD16RoundRect,0.100000X0.637500X0.100000X-0.637500X0.100000X-0.637500X-0.100000X0.637500X-0.100000X0*%
%ADD17RoundRect,0.170000X-0.170000X0.170000X-0.170000X-0.170000X0.170000X-0.170000X0.170000X0.170000X0*%
%ADD18RoundRect,0.062500X-0.062500X0.350000X-0.062500X-0.350000X0.062500X-0.350000X0.062500X0.350000X0*%
%ADD19RoundRect,0.062500X-0.350000X0.062500X-0.350000X-0.062500X0.350000X-0.062500X0.350000X0.062500X0*%
%ADD20R,0.300000X1.400000*%
%ADD21RoundRect,0.200000X-0.275000X0.200000X-0.275000X-0.200000X0.275000X-0.200000X0.275000X0.200000X0*%
%ADD22RoundRect,0.200000X-0.200000X-0.275000X0.200000X-0.275000X0.200000X0.275000X-0.200000X0.275000X0*%
%ADD23RoundRect,0.200000X0.275000X-0.200000X0.275000X0.200000X-0.275000X0.200000X-0.275000X-0.200000X0*%
%ADD24RoundRect,0.200000X0.200000X0.275000X-0.200000X0.275000X-0.200000X-0.275000X0.200000X-0.275000X0*%
%ADD25RoundRect,0.250000X0.375000X0.850000X-0.375000X0.850000X-0.375000X-0.850000X0.375000X-0.850000X0*%
%ADD26R,1.140460X0.500380*%
%ADD27R,1.140460X0.299720*%
%ADD28RoundRect,0.243750X0.243750X0.456250X-0.243750X0.456250X-0.243750X-0.456250X0.243750X-0.456250X0*%
%ADD29RoundRect,0.140000X-0.170000X0.140000X-0.170000X-0.140000X0.170000X-0.140000X0.170000X0.140000X0*%
%ADD30RoundRect,0.250000X-0.325000X-0.650000X0.325000X-0.650000X0.325000X0.650000X-0.325000X0.650000X0*%
%ADD31RoundRect,0.225000X-0.250000X0.225000X-0.250000X-0.225000X0.250000X-0.225000X0.250000X0.225000X0*%
%ADD32RoundRect,0.225000X0.250000X-0.225000X0.250000X0.225000X-0.250000X0.225000X-0.250000X-0.225000X0*%
%ADD33RoundRect,0.225000X0.225000X0.250000X-0.225000X0.250000X-0.225000X-0.250000X0.225000X-0.250000X0*%
G04 APERTURE END LIST*
D10*
%TO.C,U5*%
X101158000Y-121533500D03*
X102108000Y-121533500D03*
X103058000Y-121533500D03*
X103058000Y-119258500D03*
X101158000Y-119258500D03*
%TD*%
D11*
%TO.C,C15*%
X110223000Y-111760000D03*
X111773000Y-111760000D03*
%TD*%
D12*
%TO.C,U11*%
X109941000Y-131994000D03*
X109291000Y-131994000D03*
X108641000Y-131994000D03*
X107991000Y-131994000D03*
X107991000Y-127594000D03*
X108641000Y-127594000D03*
X109291000Y-127594000D03*
X109941000Y-127594000D03*
%TD*%
D13*
%TO.C,U9*%
X103604000Y-131376000D03*
X102814000Y-130556000D03*
X104394000Y-130556000D03*
X103604000Y-130556000D03*
X102814000Y-131376000D03*
X104394000Y-131376000D03*
D14*
X102604000Y-132413500D03*
X103104000Y-132413500D03*
X103604000Y-132413500D03*
X104104000Y-132413500D03*
X104604000Y-132413500D03*
X104604000Y-129518500D03*
X104104000Y-129518500D03*
X103604000Y-129518500D03*
X103104000Y-129518500D03*
X102604000Y-129518500D03*
%TD*%
D15*
%TO.C,U6*%
X106766000Y-109941000D03*
X106766000Y-109291000D03*
X106766000Y-108641000D03*
X106766000Y-107991000D03*
X111166000Y-107991000D03*
X111166000Y-108641000D03*
X111166000Y-109291000D03*
X111166000Y-109941000D03*
%TD*%
D16*
%TO.C,U4*%
X123952000Y-117236000D03*
X123952000Y-116586000D03*
X123952000Y-115936000D03*
X123952000Y-115286000D03*
X123952000Y-114636000D03*
X123952000Y-113986000D03*
X123952000Y-113336000D03*
X123952000Y-112686000D03*
X123952000Y-112036000D03*
X123952000Y-111386000D03*
X118227000Y-111386000D03*
X118227000Y-112036000D03*
X118227000Y-112686000D03*
X118227000Y-113336000D03*
X118227000Y-113986000D03*
X118227000Y-114636000D03*
X118227000Y-115286000D03*
X118227000Y-115936000D03*
X118227000Y-116586000D03*
X118227000Y-117236000D03*
%TD*%
D17*
%TO.C,U3*%
X115912000Y-130644000D03*
X116752000Y-130644000D03*
X116752000Y-131484000D03*
X115912000Y-131484000D03*
D18*
X117082000Y-129601500D03*
X116582000Y-129601500D03*
X116082000Y-129601500D03*
X115582000Y-129601500D03*
D19*
X114869500Y-130314000D03*
X114869500Y-130814000D03*
X114869500Y-131314000D03*
X114869500Y-131814000D03*
D18*
X115582000Y-132526500D03*
X116082000Y-132526500D03*
X116582000Y-132526500D03*
X117082000Y-132526500D03*
D19*
X117794500Y-131814000D03*
X117794500Y-131314000D03*
X117794500Y-130814000D03*
X117794500Y-130314000D03*
%TD*%
D15*
%TO.C,U2*%
X105242000Y-116373000D03*
X105242000Y-117023000D03*
X105242000Y-117673000D03*
X105242000Y-118323000D03*
X109642000Y-118323000D03*
X109642000Y-117673000D03*
X109642000Y-117023000D03*
X109642000Y-116373000D03*
%TD*%
D20*
%TO.C,U1*%
X119396000Y-139868000D03*
X119896000Y-139868000D03*
X120396000Y-139868000D03*
X120896000Y-139868000D03*
X121396000Y-139868000D03*
X121396000Y-135468000D03*
X120896000Y-135468000D03*
X120396000Y-135468000D03*
X119896000Y-135468000D03*
X119396000Y-135468000D03*
%TD*%
D21*
%TO.C,R26*%
X111760000Y-115253000D03*
X111760000Y-116903000D03*
%TD*%
D22*
%TO.C,R25*%
X111697000Y-118364000D03*
X113347000Y-118364000D03*
%TD*%
D21*
%TO.C,R22*%
X106172000Y-132397000D03*
X106172000Y-130747000D03*
%TD*%
%TO.C,R21*%
X112522000Y-123889000D03*
X112522000Y-125539000D03*
%TD*%
%TO.C,R20*%
X101092000Y-128079000D03*
X101092000Y-126429000D03*
%TD*%
D23*
%TO.C,R19*%
X104648000Y-109537000D03*
X104648000Y-107887000D03*
%TD*%
%TO.C,R18*%
X102616000Y-113347000D03*
X102616000Y-111697000D03*
%TD*%
D22*
%TO.C,R17*%
X107125000Y-111760000D03*
X108775000Y-111760000D03*
%TD*%
D23*
%TO.C,R16*%
X110236000Y-114871000D03*
X110236000Y-113221000D03*
%TD*%
D24*
%TO.C,R14*%
X102933000Y-115824000D03*
X101283000Y-115824000D03*
%TD*%
D22*
%TO.C,R13*%
X111061000Y-125476000D03*
X109411000Y-125476000D03*
%TD*%
D21*
%TO.C,R8*%
X125984000Y-113475000D03*
X125984000Y-115125000D03*
%TD*%
D23*
%TO.C,R5*%
X114554000Y-135699000D03*
X114554000Y-134049000D03*
%TD*%
D21*
%TO.C,R4*%
X113030000Y-134049000D03*
X113030000Y-135699000D03*
%TD*%
D23*
%TO.C,R3*%
X122682000Y-143573000D03*
X122682000Y-141923000D03*
%TD*%
D24*
%TO.C,R2*%
X125793000Y-129794000D03*
X124143000Y-129794000D03*
%TD*%
D22*
%TO.C,R1*%
X127191000Y-129794000D03*
X128841000Y-129794000D03*
%TD*%
D25*
%TO.C,L1*%
X117407000Y-127254000D03*
X115257000Y-127254000D03*
%TD*%
D26*
%TO.C,J1*%
X123601480Y-139090400D03*
X123601480Y-138290300D03*
D27*
X123601480Y-137139680D03*
X123601480Y-136138920D03*
X123601480Y-135641080D03*
X123598940Y-134640320D03*
D26*
X123601480Y-133489700D03*
X123601480Y-132689600D03*
D27*
X123601480Y-134139940D03*
X123601480Y-135140700D03*
X123601480Y-136639300D03*
X123598940Y-137640060D03*
%TD*%
D28*
%TO.C,F1*%
X121333500Y-132588000D03*
X119458500Y-132588000D03*
%TD*%
D29*
%TO.C,C22*%
X113030000Y-116106000D03*
X113030000Y-117066000D03*
%TD*%
D30*
%TO.C,C21*%
X104697000Y-114300000D03*
X107647000Y-114300000D03*
%TD*%
D11*
%TO.C,C20*%
X104635000Y-133858000D03*
X106185000Y-133858000D03*
%TD*%
D31*
%TO.C,C19*%
X100838000Y-130797000D03*
X100838000Y-132347000D03*
%TD*%
D32*
%TO.C,C18*%
X106172000Y-129312000D03*
X106172000Y-127762000D03*
%TD*%
D11*
%TO.C,C17*%
X104127000Y-111760000D03*
X105677000Y-111760000D03*
%TD*%
%TO.C,C16*%
X109207000Y-106172000D03*
X110757000Y-106172000D03*
%TD*%
D31*
%TO.C,C14*%
X113284000Y-111773000D03*
X113284000Y-110223000D03*
%TD*%
D33*
%TO.C,C12*%
X106159000Y-120142000D03*
X107709000Y-120142000D03*
%TD*%
D31*
%TO.C,C11*%
X101092000Y-123444000D03*
X101092000Y-124994000D03*
%TD*%
D32*
%TO.C,C10*%
X104648000Y-121679000D03*
X104648000Y-120129000D03*
%TD*%
D11*
%TO.C,C9*%
X101333000Y-117348000D03*
X102883000Y-117348000D03*
%TD*%
%TO.C,C8*%
X111011000Y-123952000D03*
X109461000Y-123952000D03*
%TD*%
%TO.C,C7*%
X119621000Y-127000000D03*
X121171000Y-127000000D03*
%TD*%
D31*
%TO.C,C6*%
X116078000Y-135649000D03*
X116078000Y-134099000D03*
%TD*%
D32*
%TO.C,C5*%
X119380000Y-130823000D03*
X119380000Y-129273000D03*
%TD*%
D31*
%TO.C,C4*%
X117602000Y-134099000D03*
X117602000Y-135649000D03*
%TD*%
D11*
%TO.C,C3*%
X119367000Y-141732000D03*
X120917000Y-141732000D03*
%TD*%
D33*
%TO.C,C2*%
X119367000Y-143256000D03*
X120917000Y-143256000D03*
%TD*%
D31*
%TO.C,C1*%
X124206000Y-141973000D03*
X124206000Y-143523000D03*
%TD*%
M02*
