%TF.GenerationSoftware,KiCad,Pcbnew,7.99.0-950-gc4668c1d3a-dirty*%
%TF.CreationDate,2023-06-01T03:31:39+08:00*%
%TF.ProjectId,HeartRateMonitor,48656172-7452-4617-9465-4d6f6e69746f,C*%
%TF.SameCoordinates,Original*%
%TF.FileFunction,Legend,Bot*%
%TF.FilePolarity,Positive*%
%FSLAX46Y46*%
G04 Gerber Fmt 4.6, Leading zero omitted, Abs format (unit mm)*
G04 Created by KiCad (PCBNEW 7.99.0-950-gc4668c1d3a-dirty) date 2023-06-01 03:31:39*
%MOMM*%
%LPD*%
G01*
G04 APERTURE LIST*
%ADD10C,0.150000*%
%ADD11C,0.010000*%
%ADD12C,0.120000*%
G04 APERTURE END LIST*
D10*
X35318000Y-63692500D02*
X35318000Y-64962500D01*
X25158000Y-68772500D02*
X26428000Y-68772500D01*
X35318000Y-63692500D02*
X34048000Y-63692500D01*
X25158000Y-67502500D02*
X25158000Y-68772500D01*
X34611428Y-64623928D02*
X34611428Y-65100119D01*
X34944761Y-64100119D02*
X34611428Y-64623928D01*
X34611428Y-64623928D02*
X34278095Y-64100119D01*
X33516190Y-65100119D02*
X33516190Y-64576309D01*
X33516190Y-64576309D02*
X33563809Y-64481071D01*
X33563809Y-64481071D02*
X33659047Y-64433452D01*
X33659047Y-64433452D02*
X33849523Y-64433452D01*
X33849523Y-64433452D02*
X33944761Y-64481071D01*
X33516190Y-65052500D02*
X33611428Y-65100119D01*
X33611428Y-65100119D02*
X33849523Y-65100119D01*
X33849523Y-65100119D02*
X33944761Y-65052500D01*
X33944761Y-65052500D02*
X33992380Y-64957261D01*
X33992380Y-64957261D02*
X33992380Y-64862023D01*
X33992380Y-64862023D02*
X33944761Y-64766785D01*
X33944761Y-64766785D02*
X33849523Y-64719166D01*
X33849523Y-64719166D02*
X33611428Y-64719166D01*
X33611428Y-64719166D02*
X33516190Y-64671547D01*
X32897142Y-65100119D02*
X32992380Y-65052500D01*
X32992380Y-65052500D02*
X33039999Y-65004880D01*
X33039999Y-65004880D02*
X33087618Y-64909642D01*
X33087618Y-64909642D02*
X33087618Y-64623928D01*
X33087618Y-64623928D02*
X33039999Y-64528690D01*
X33039999Y-64528690D02*
X32992380Y-64481071D01*
X32992380Y-64481071D02*
X32897142Y-64433452D01*
X32897142Y-64433452D02*
X32754285Y-64433452D01*
X32754285Y-64433452D02*
X32659047Y-64481071D01*
X32659047Y-64481071D02*
X32611428Y-64528690D01*
X32611428Y-64528690D02*
X32563809Y-64623928D01*
X32563809Y-64623928D02*
X32563809Y-64909642D01*
X32563809Y-64909642D02*
X32611428Y-65004880D01*
X32611428Y-65004880D02*
X32659047Y-65052500D01*
X32659047Y-65052500D02*
X32754285Y-65100119D01*
X32754285Y-65100119D02*
X32897142Y-65100119D01*
X31373332Y-65100119D02*
X31373332Y-64100119D01*
X31373332Y-64576309D02*
X30801904Y-64576309D01*
X30801904Y-65100119D02*
X30801904Y-64100119D01*
X29897142Y-65100119D02*
X29897142Y-64576309D01*
X29897142Y-64576309D02*
X29944761Y-64481071D01*
X29944761Y-64481071D02*
X30039999Y-64433452D01*
X30039999Y-64433452D02*
X30230475Y-64433452D01*
X30230475Y-64433452D02*
X30325713Y-64481071D01*
X29897142Y-65052500D02*
X29992380Y-65100119D01*
X29992380Y-65100119D02*
X30230475Y-65100119D01*
X30230475Y-65100119D02*
X30325713Y-65052500D01*
X30325713Y-65052500D02*
X30373332Y-64957261D01*
X30373332Y-64957261D02*
X30373332Y-64862023D01*
X30373332Y-64862023D02*
X30325713Y-64766785D01*
X30325713Y-64766785D02*
X30230475Y-64719166D01*
X30230475Y-64719166D02*
X29992380Y-64719166D01*
X29992380Y-64719166D02*
X29897142Y-64671547D01*
X29420951Y-65100119D02*
X29420951Y-64433452D01*
X29420951Y-64100119D02*
X29468570Y-64147738D01*
X29468570Y-64147738D02*
X29420951Y-64195357D01*
X29420951Y-64195357D02*
X29373332Y-64147738D01*
X29373332Y-64147738D02*
X29420951Y-64100119D01*
X29420951Y-64100119D02*
X29420951Y-64195357D01*
X29039999Y-64433452D02*
X28516190Y-64433452D01*
X28516190Y-64433452D02*
X29039999Y-65100119D01*
X29039999Y-65100119D02*
X28516190Y-65100119D01*
X28135237Y-65100119D02*
X28135237Y-64100119D01*
X27706666Y-65100119D02*
X27706666Y-64576309D01*
X27706666Y-64576309D02*
X27754285Y-64481071D01*
X27754285Y-64481071D02*
X27849523Y-64433452D01*
X27849523Y-64433452D02*
X27992380Y-64433452D01*
X27992380Y-64433452D02*
X28087618Y-64481071D01*
X28087618Y-64481071D02*
X28135237Y-64528690D01*
X27087618Y-65100119D02*
X27182856Y-65052500D01*
X27182856Y-65052500D02*
X27230475Y-65004880D01*
X27230475Y-65004880D02*
X27278094Y-64909642D01*
X27278094Y-64909642D02*
X27278094Y-64623928D01*
X27278094Y-64623928D02*
X27230475Y-64528690D01*
X27230475Y-64528690D02*
X27182856Y-64481071D01*
X27182856Y-64481071D02*
X27087618Y-64433452D01*
X27087618Y-64433452D02*
X26944761Y-64433452D01*
X26944761Y-64433452D02*
X26849523Y-64481071D01*
X26849523Y-64481071D02*
X26801904Y-64528690D01*
X26801904Y-64528690D02*
X26754285Y-64623928D01*
X26754285Y-64623928D02*
X26754285Y-64909642D01*
X26754285Y-64909642D02*
X26801904Y-65004880D01*
X26801904Y-65004880D02*
X26849523Y-65052500D01*
X26849523Y-65052500D02*
X26944761Y-65100119D01*
X26944761Y-65100119D02*
X27087618Y-65100119D01*
X25897142Y-64433452D02*
X25897142Y-65100119D01*
X26325713Y-64433452D02*
X26325713Y-64957261D01*
X26325713Y-64957261D02*
X26278094Y-65052500D01*
X26278094Y-65052500D02*
X26182856Y-65100119D01*
X26182856Y-65100119D02*
X26039999Y-65100119D01*
X26039999Y-65100119D02*
X25944761Y-65052500D01*
X25944761Y-65052500D02*
X25897142Y-65004880D01*
X34325714Y-66720119D02*
X34801904Y-66720119D01*
X34801904Y-66720119D02*
X34801904Y-65720119D01*
X33992380Y-66720119D02*
X33992380Y-66053452D01*
X33992380Y-65720119D02*
X34039999Y-65767738D01*
X34039999Y-65767738D02*
X33992380Y-65815357D01*
X33992380Y-65815357D02*
X33944761Y-65767738D01*
X33944761Y-65767738D02*
X33992380Y-65720119D01*
X33992380Y-65720119D02*
X33992380Y-65815357D01*
X32420952Y-66196309D02*
X32278095Y-66243928D01*
X32278095Y-66243928D02*
X32230476Y-66291547D01*
X32230476Y-66291547D02*
X32182857Y-66386785D01*
X32182857Y-66386785D02*
X32182857Y-66529642D01*
X32182857Y-66529642D02*
X32230476Y-66624880D01*
X32230476Y-66624880D02*
X32278095Y-66672500D01*
X32278095Y-66672500D02*
X32373333Y-66720119D01*
X32373333Y-66720119D02*
X32754285Y-66720119D01*
X32754285Y-66720119D02*
X32754285Y-65720119D01*
X32754285Y-65720119D02*
X32420952Y-65720119D01*
X32420952Y-65720119D02*
X32325714Y-65767738D01*
X32325714Y-65767738D02*
X32278095Y-65815357D01*
X32278095Y-65815357D02*
X32230476Y-65910595D01*
X32230476Y-65910595D02*
X32230476Y-66005833D01*
X32230476Y-66005833D02*
X32278095Y-66101071D01*
X32278095Y-66101071D02*
X32325714Y-66148690D01*
X32325714Y-66148690D02*
X32420952Y-66196309D01*
X32420952Y-66196309D02*
X32754285Y-66196309D01*
X31611428Y-66720119D02*
X31706666Y-66672500D01*
X31706666Y-66672500D02*
X31754285Y-66624880D01*
X31754285Y-66624880D02*
X31801904Y-66529642D01*
X31801904Y-66529642D02*
X31801904Y-66243928D01*
X31801904Y-66243928D02*
X31754285Y-66148690D01*
X31754285Y-66148690D02*
X31706666Y-66101071D01*
X31706666Y-66101071D02*
X31611428Y-66053452D01*
X31611428Y-66053452D02*
X31468571Y-66053452D01*
X31468571Y-66053452D02*
X31373333Y-66101071D01*
X31373333Y-66101071D02*
X31325714Y-66148690D01*
X31325714Y-66148690D02*
X31278095Y-66243928D01*
X31278095Y-66243928D02*
X31278095Y-66529642D01*
X31278095Y-66529642D02*
X31325714Y-66624880D01*
X31325714Y-66624880D02*
X31373333Y-66672500D01*
X31373333Y-66672500D02*
X31468571Y-66720119D01*
X31468571Y-66720119D02*
X31611428Y-66720119D01*
X30849523Y-66720119D02*
X30849523Y-65720119D01*
X30420952Y-66720119D02*
X30420952Y-66196309D01*
X30420952Y-66196309D02*
X30468571Y-66101071D01*
X30468571Y-66101071D02*
X30563809Y-66053452D01*
X30563809Y-66053452D02*
X30706666Y-66053452D01*
X30706666Y-66053452D02*
X30801904Y-66101071D01*
X30801904Y-66101071D02*
X30849523Y-66148690D01*
X29516190Y-66720119D02*
X29516190Y-66196309D01*
X29516190Y-66196309D02*
X29563809Y-66101071D01*
X29563809Y-66101071D02*
X29659047Y-66053452D01*
X29659047Y-66053452D02*
X29849523Y-66053452D01*
X29849523Y-66053452D02*
X29944761Y-66101071D01*
X29516190Y-66672500D02*
X29611428Y-66720119D01*
X29611428Y-66720119D02*
X29849523Y-66720119D01*
X29849523Y-66720119D02*
X29944761Y-66672500D01*
X29944761Y-66672500D02*
X29992380Y-66577261D01*
X29992380Y-66577261D02*
X29992380Y-66482023D01*
X29992380Y-66482023D02*
X29944761Y-66386785D01*
X29944761Y-66386785D02*
X29849523Y-66339166D01*
X29849523Y-66339166D02*
X29611428Y-66339166D01*
X29611428Y-66339166D02*
X29516190Y-66291547D01*
X29039999Y-66053452D02*
X29039999Y-66720119D01*
X29039999Y-66148690D02*
X28992380Y-66101071D01*
X28992380Y-66101071D02*
X28897142Y-66053452D01*
X28897142Y-66053452D02*
X28754285Y-66053452D01*
X28754285Y-66053452D02*
X28659047Y-66101071D01*
X28659047Y-66101071D02*
X28611428Y-66196309D01*
X28611428Y-66196309D02*
X28611428Y-66720119D01*
X34897142Y-67340119D02*
X34659047Y-68340119D01*
X34659047Y-68340119D02*
X34468571Y-67625833D01*
X34468571Y-67625833D02*
X34278095Y-68340119D01*
X34278095Y-68340119D02*
X34040000Y-67340119D01*
X33230476Y-68340119D02*
X33230476Y-67816309D01*
X33230476Y-67816309D02*
X33278095Y-67721071D01*
X33278095Y-67721071D02*
X33373333Y-67673452D01*
X33373333Y-67673452D02*
X33563809Y-67673452D01*
X33563809Y-67673452D02*
X33659047Y-67721071D01*
X33230476Y-68292500D02*
X33325714Y-68340119D01*
X33325714Y-68340119D02*
X33563809Y-68340119D01*
X33563809Y-68340119D02*
X33659047Y-68292500D01*
X33659047Y-68292500D02*
X33706666Y-68197261D01*
X33706666Y-68197261D02*
X33706666Y-68102023D01*
X33706666Y-68102023D02*
X33659047Y-68006785D01*
X33659047Y-68006785D02*
X33563809Y-67959166D01*
X33563809Y-67959166D02*
X33325714Y-67959166D01*
X33325714Y-67959166D02*
X33230476Y-67911547D01*
X32754285Y-67673452D02*
X32754285Y-68340119D01*
X32754285Y-67768690D02*
X32706666Y-67721071D01*
X32706666Y-67721071D02*
X32611428Y-67673452D01*
X32611428Y-67673452D02*
X32468571Y-67673452D01*
X32468571Y-67673452D02*
X32373333Y-67721071D01*
X32373333Y-67721071D02*
X32325714Y-67816309D01*
X32325714Y-67816309D02*
X32325714Y-68340119D01*
X31420952Y-67673452D02*
X31420952Y-68482976D01*
X31420952Y-68482976D02*
X31468571Y-68578214D01*
X31468571Y-68578214D02*
X31516190Y-68625833D01*
X31516190Y-68625833D02*
X31611428Y-68673452D01*
X31611428Y-68673452D02*
X31754285Y-68673452D01*
X31754285Y-68673452D02*
X31849523Y-68625833D01*
X31420952Y-68292500D02*
X31516190Y-68340119D01*
X31516190Y-68340119D02*
X31706666Y-68340119D01*
X31706666Y-68340119D02*
X31801904Y-68292500D01*
X31801904Y-68292500D02*
X31849523Y-68244880D01*
X31849523Y-68244880D02*
X31897142Y-68149642D01*
X31897142Y-68149642D02*
X31897142Y-67863928D01*
X31897142Y-67863928D02*
X31849523Y-67768690D01*
X31849523Y-67768690D02*
X31801904Y-67721071D01*
X31801904Y-67721071D02*
X31706666Y-67673452D01*
X31706666Y-67673452D02*
X31516190Y-67673452D01*
X31516190Y-67673452D02*
X31420952Y-67721071D01*
X30278094Y-67340119D02*
X29611428Y-68340119D01*
X29611428Y-67340119D02*
X30278094Y-68340119D01*
X29230475Y-68340119D02*
X29230475Y-67673452D01*
X29230475Y-67340119D02*
X29278094Y-67387738D01*
X29278094Y-67387738D02*
X29230475Y-67435357D01*
X29230475Y-67435357D02*
X29182856Y-67387738D01*
X29182856Y-67387738D02*
X29230475Y-67340119D01*
X29230475Y-67340119D02*
X29230475Y-67435357D01*
X28754285Y-67673452D02*
X28754285Y-68340119D01*
X28754285Y-67768690D02*
X28706666Y-67721071D01*
X28706666Y-67721071D02*
X28611428Y-67673452D01*
X28611428Y-67673452D02*
X28468571Y-67673452D01*
X28468571Y-67673452D02*
X28373333Y-67721071D01*
X28373333Y-67721071D02*
X28325714Y-67816309D01*
X28325714Y-67816309D02*
X28325714Y-68340119D01*
X27897142Y-68292500D02*
X27801904Y-68340119D01*
X27801904Y-68340119D02*
X27611428Y-68340119D01*
X27611428Y-68340119D02*
X27516190Y-68292500D01*
X27516190Y-68292500D02*
X27468571Y-68197261D01*
X27468571Y-68197261D02*
X27468571Y-68149642D01*
X27468571Y-68149642D02*
X27516190Y-68054404D01*
X27516190Y-68054404D02*
X27611428Y-68006785D01*
X27611428Y-68006785D02*
X27754285Y-68006785D01*
X27754285Y-68006785D02*
X27849523Y-67959166D01*
X27849523Y-67959166D02*
X27897142Y-67863928D01*
X27897142Y-67863928D02*
X27897142Y-67816309D01*
X27897142Y-67816309D02*
X27849523Y-67721071D01*
X27849523Y-67721071D02*
X27754285Y-67673452D01*
X27754285Y-67673452D02*
X27611428Y-67673452D01*
X27611428Y-67673452D02*
X27516190Y-67721071D01*
X27039999Y-68340119D02*
X27039999Y-67340119D01*
X26611428Y-68340119D02*
X26611428Y-67816309D01*
X26611428Y-67816309D02*
X26659047Y-67721071D01*
X26659047Y-67721071D02*
X26754285Y-67673452D01*
X26754285Y-67673452D02*
X26897142Y-67673452D01*
X26897142Y-67673452D02*
X26992380Y-67721071D01*
X26992380Y-67721071D02*
X27039999Y-67768690D01*
X25706666Y-67673452D02*
X25706666Y-68340119D01*
X26135237Y-67673452D02*
X26135237Y-68197261D01*
X26135237Y-68197261D02*
X26087618Y-68292500D01*
X26087618Y-68292500D02*
X25992380Y-68340119D01*
X25992380Y-68340119D02*
X25849523Y-68340119D01*
X25849523Y-68340119D02*
X25754285Y-68292500D01*
X25754285Y-68292500D02*
X25706666Y-68244880D01*
D11*
%TO.C,REF\u002A\u002A*%
X22224836Y-48440863D02*
X22239023Y-48454532D01*
X22280392Y-48496219D01*
X22335107Y-48552972D01*
X22400510Y-48621897D01*
X22473943Y-48700099D01*
X22552746Y-48784682D01*
X22634260Y-48872753D01*
X22715827Y-48961416D01*
X22794788Y-49047776D01*
X22868483Y-49128939D01*
X22934254Y-49202010D01*
X22989441Y-49264094D01*
X23031386Y-49312295D01*
X23057431Y-49343720D01*
X23064915Y-49355474D01*
X23062346Y-49356772D01*
X23037785Y-49370478D01*
X22989204Y-49398113D01*
X22918652Y-49438498D01*
X22828173Y-49490455D01*
X22719815Y-49552805D01*
X22595624Y-49624371D01*
X22457645Y-49703975D01*
X22307926Y-49790438D01*
X22148513Y-49882583D01*
X21981451Y-49979232D01*
X21919008Y-50015367D01*
X21754883Y-50110306D01*
X21599358Y-50200214D01*
X21454454Y-50283924D01*
X21322195Y-50360271D01*
X21204604Y-50428089D01*
X21103702Y-50486211D01*
X21021513Y-50533471D01*
X20960059Y-50568703D01*
X20921364Y-50590742D01*
X20907449Y-50598420D01*
X20908075Y-50594331D01*
X20919493Y-50570830D01*
X20940493Y-50533286D01*
X20953376Y-50511064D01*
X20980772Y-50463673D01*
X21021087Y-50393877D01*
X21073009Y-50303944D01*
X21135231Y-50196142D01*
X21206443Y-50072740D01*
X21285335Y-49936006D01*
X21370598Y-49788209D01*
X21460924Y-49631617D01*
X21555002Y-49468500D01*
X21647121Y-49308823D01*
X21736680Y-49153687D01*
X21820893Y-49007912D01*
X21898497Y-48873683D01*
X21968225Y-48753185D01*
X22028814Y-48648602D01*
X22078998Y-48562119D01*
X22117512Y-48495921D01*
X22143092Y-48452193D01*
X22154472Y-48433119D01*
X22177820Y-48396701D01*
X22224836Y-48440863D01*
G36*
X22224836Y-48440863D02*
G01*
X22239023Y-48454532D01*
X22280392Y-48496219D01*
X22335107Y-48552972D01*
X22400510Y-48621897D01*
X22473943Y-48700099D01*
X22552746Y-48784682D01*
X22634260Y-48872753D01*
X22715827Y-48961416D01*
X22794788Y-49047776D01*
X22868483Y-49128939D01*
X22934254Y-49202010D01*
X22989441Y-49264094D01*
X23031386Y-49312295D01*
X23057431Y-49343720D01*
X23064915Y-49355474D01*
X23062346Y-49356772D01*
X23037785Y-49370478D01*
X22989204Y-49398113D01*
X22918652Y-49438498D01*
X22828173Y-49490455D01*
X22719815Y-49552805D01*
X22595624Y-49624371D01*
X22457645Y-49703975D01*
X22307926Y-49790438D01*
X22148513Y-49882583D01*
X21981451Y-49979232D01*
X21919008Y-50015367D01*
X21754883Y-50110306D01*
X21599358Y-50200214D01*
X21454454Y-50283924D01*
X21322195Y-50360271D01*
X21204604Y-50428089D01*
X21103702Y-50486211D01*
X21021513Y-50533471D01*
X20960059Y-50568703D01*
X20921364Y-50590742D01*
X20907449Y-50598420D01*
X20908075Y-50594331D01*
X20919493Y-50570830D01*
X20940493Y-50533286D01*
X20953376Y-50511064D01*
X20980772Y-50463673D01*
X21021087Y-50393877D01*
X21073009Y-50303944D01*
X21135231Y-50196142D01*
X21206443Y-50072740D01*
X21285335Y-49936006D01*
X21370598Y-49788209D01*
X21460924Y-49631617D01*
X21555002Y-49468500D01*
X21647121Y-49308823D01*
X21736680Y-49153687D01*
X21820893Y-49007912D01*
X21898497Y-48873683D01*
X21968225Y-48753185D01*
X22028814Y-48648602D01*
X22078998Y-48562119D01*
X22117512Y-48495921D01*
X22143092Y-48452193D01*
X22154472Y-48433119D01*
X22177820Y-48396701D01*
X22224836Y-48440863D01*
G37*
X23987560Y-45271675D02*
X23999093Y-45289011D01*
X24024500Y-45330662D01*
X24062507Y-45394411D01*
X24111837Y-45478045D01*
X24171213Y-45579349D01*
X24239359Y-45696109D01*
X24315000Y-45826108D01*
X24396859Y-45967133D01*
X24483660Y-46116968D01*
X24574126Y-46273400D01*
X24666982Y-46434213D01*
X24760951Y-46597193D01*
X24854757Y-46760124D01*
X24947124Y-46920792D01*
X25036776Y-47076982D01*
X25122436Y-47226480D01*
X25202828Y-47367071D01*
X25276677Y-47496540D01*
X25342705Y-47612672D01*
X25399637Y-47713252D01*
X25446197Y-47796067D01*
X25481108Y-47858900D01*
X25503094Y-47899537D01*
X25510879Y-47915764D01*
X25510887Y-47915888D01*
X25498333Y-47932916D01*
X25462258Y-47961779D01*
X25406417Y-47999747D01*
X25334561Y-48044087D01*
X25286373Y-48072452D01*
X25217032Y-48111896D01*
X25168734Y-48136754D01*
X25138242Y-48148424D01*
X25122320Y-48148306D01*
X25117732Y-48137797D01*
X25117382Y-48136083D01*
X25104268Y-48115182D01*
X25076000Y-48079639D01*
X25037786Y-48036083D01*
X25020155Y-48017375D01*
X24965482Y-47967012D01*
X24905022Y-47923965D01*
X24835182Y-47886973D01*
X24752370Y-47854773D01*
X24652992Y-47826102D01*
X24533455Y-47799698D01*
X24390166Y-47774300D01*
X24219531Y-47748645D01*
X24023134Y-47719727D01*
X23833274Y-47688673D01*
X23667260Y-47657544D01*
X23521382Y-47625442D01*
X23391927Y-47591469D01*
X23275183Y-47554726D01*
X23167440Y-47514317D01*
X23064985Y-47469343D01*
X22989688Y-47432254D01*
X22917765Y-47393225D01*
X22860886Y-47358382D01*
X22823499Y-47330465D01*
X22810049Y-47312214D01*
X22810446Y-47310870D01*
X22821280Y-47289362D01*
X22845845Y-47244322D01*
X22882685Y-47178272D01*
X22930347Y-47093733D01*
X22987376Y-46993227D01*
X23052318Y-46879276D01*
X23123719Y-46754401D01*
X23200124Y-46621124D01*
X23280079Y-46481967D01*
X23362130Y-46339451D01*
X23444822Y-46196098D01*
X23526701Y-46054430D01*
X23606313Y-45916968D01*
X23682204Y-45786234D01*
X23752919Y-45664750D01*
X23817004Y-45555038D01*
X23873004Y-45459618D01*
X23919466Y-45381014D01*
X23954935Y-45321745D01*
X23977957Y-45284335D01*
X23987077Y-45271305D01*
X23987560Y-45271675D01*
G36*
X23987560Y-45271675D02*
G01*
X23999093Y-45289011D01*
X24024500Y-45330662D01*
X24062507Y-45394411D01*
X24111837Y-45478045D01*
X24171213Y-45579349D01*
X24239359Y-45696109D01*
X24315000Y-45826108D01*
X24396859Y-45967133D01*
X24483660Y-46116968D01*
X24574126Y-46273400D01*
X24666982Y-46434213D01*
X24760951Y-46597193D01*
X24854757Y-46760124D01*
X24947124Y-46920792D01*
X25036776Y-47076982D01*
X25122436Y-47226480D01*
X25202828Y-47367071D01*
X25276677Y-47496540D01*
X25342705Y-47612672D01*
X25399637Y-47713252D01*
X25446197Y-47796067D01*
X25481108Y-47858900D01*
X25503094Y-47899537D01*
X25510879Y-47915764D01*
X25510887Y-47915888D01*
X25498333Y-47932916D01*
X25462258Y-47961779D01*
X25406417Y-47999747D01*
X25334561Y-48044087D01*
X25286373Y-48072452D01*
X25217032Y-48111896D01*
X25168734Y-48136754D01*
X25138242Y-48148424D01*
X25122320Y-48148306D01*
X25117732Y-48137797D01*
X25117382Y-48136083D01*
X25104268Y-48115182D01*
X25076000Y-48079639D01*
X25037786Y-48036083D01*
X25020155Y-48017375D01*
X24965482Y-47967012D01*
X24905022Y-47923965D01*
X24835182Y-47886973D01*
X24752370Y-47854773D01*
X24652992Y-47826102D01*
X24533455Y-47799698D01*
X24390166Y-47774300D01*
X24219531Y-47748645D01*
X24023134Y-47719727D01*
X23833274Y-47688673D01*
X23667260Y-47657544D01*
X23521382Y-47625442D01*
X23391927Y-47591469D01*
X23275183Y-47554726D01*
X23167440Y-47514317D01*
X23064985Y-47469343D01*
X22989688Y-47432254D01*
X22917765Y-47393225D01*
X22860886Y-47358382D01*
X22823499Y-47330465D01*
X22810049Y-47312214D01*
X22810446Y-47310870D01*
X22821280Y-47289362D01*
X22845845Y-47244322D01*
X22882685Y-47178272D01*
X22930347Y-47093733D01*
X22987376Y-46993227D01*
X23052318Y-46879276D01*
X23123719Y-46754401D01*
X23200124Y-46621124D01*
X23280079Y-46481967D01*
X23362130Y-46339451D01*
X23444822Y-46196098D01*
X23526701Y-46054430D01*
X23606313Y-45916968D01*
X23682204Y-45786234D01*
X23752919Y-45664750D01*
X23817004Y-45555038D01*
X23873004Y-45459618D01*
X23919466Y-45381014D01*
X23954935Y-45321745D01*
X23977957Y-45284335D01*
X23987077Y-45271305D01*
X23987560Y-45271675D01*
G37*
X25852047Y-48494540D02*
X25857802Y-48503125D01*
X25878365Y-48536846D01*
X25912179Y-48593700D01*
X25957950Y-48671468D01*
X26014383Y-48767932D01*
X26080184Y-48880871D01*
X26154058Y-49008068D01*
X26234711Y-49147303D01*
X26320848Y-49296357D01*
X26411175Y-49453012D01*
X26435947Y-49496021D01*
X26533900Y-49666075D01*
X26632509Y-49837254D01*
X26729760Y-50006062D01*
X26823638Y-50169003D01*
X26912131Y-50322582D01*
X26993222Y-50463301D01*
X27064898Y-50587666D01*
X27125144Y-50692180D01*
X27171947Y-50773347D01*
X27393030Y-51156671D01*
X24293076Y-51156671D01*
X24164921Y-51156659D01*
X23859500Y-51156542D01*
X23563432Y-51156302D01*
X23278159Y-51155944D01*
X23005123Y-51155476D01*
X22745765Y-51154903D01*
X22501527Y-51154232D01*
X22273849Y-51153468D01*
X22064174Y-51152619D01*
X21873943Y-51151689D01*
X21704597Y-51150686D01*
X21557578Y-51149615D01*
X21434327Y-51148483D01*
X21336286Y-51147296D01*
X21264896Y-51146059D01*
X21221598Y-51144780D01*
X21207835Y-51143463D01*
X21218054Y-51136804D01*
X21253311Y-51115583D01*
X21311221Y-51081420D01*
X21389430Y-51035671D01*
X21485583Y-50979690D01*
X21597323Y-50914833D01*
X21722296Y-50842454D01*
X21858146Y-50763909D01*
X22002518Y-50680554D01*
X22153056Y-50593743D01*
X22307405Y-50504832D01*
X22463210Y-50415176D01*
X22618116Y-50326129D01*
X22769766Y-50239048D01*
X22915806Y-50155288D01*
X23053881Y-50076203D01*
X23181634Y-50003149D01*
X23296711Y-49937481D01*
X23396756Y-49880554D01*
X23479414Y-49833724D01*
X23542329Y-49798346D01*
X23583147Y-49775774D01*
X23599511Y-49767364D01*
X23610189Y-49769449D01*
X23642358Y-49788408D01*
X23688221Y-49823532D01*
X23742740Y-49871169D01*
X23791845Y-49918856D01*
X23854389Y-49983816D01*
X23924368Y-50059655D01*
X23998196Y-50142198D01*
X24072285Y-50227268D01*
X24143048Y-50310690D01*
X24206898Y-50388289D01*
X24260247Y-50455889D01*
X24299509Y-50509314D01*
X24321095Y-50544389D01*
X24335506Y-50570005D01*
X24374643Y-50623016D01*
X24424958Y-50679412D01*
X24479276Y-50731962D01*
X24530424Y-50773430D01*
X24571227Y-50796586D01*
X24616292Y-50801938D01*
X24676426Y-50787145D01*
X24733579Y-50753226D01*
X24777933Y-50704553D01*
X24785613Y-50691925D01*
X24795392Y-50671243D01*
X24801765Y-50646354D01*
X24805142Y-50611909D01*
X24805931Y-50562562D01*
X24804541Y-50492964D01*
X24801381Y-50397768D01*
X24799116Y-50342702D01*
X24794304Y-50255617D01*
X24788625Y-50179399D01*
X24782608Y-50120749D01*
X24776783Y-50086366D01*
X24762679Y-50047088D01*
X24720866Y-49969740D01*
X24655895Y-49878091D01*
X24566970Y-49771067D01*
X24453300Y-49647590D01*
X24403972Y-49595566D01*
X24346938Y-49534196D01*
X24299864Y-49482165D01*
X24266624Y-49443766D01*
X24251089Y-49423296D01*
X24249492Y-49420046D01*
X24247577Y-49406053D01*
X24257145Y-49390539D01*
X24282115Y-49370159D01*
X24326406Y-49341571D01*
X24393938Y-49301432D01*
X24451347Y-49267922D01*
X24556992Y-49206623D01*
X24640171Y-49159009D01*
X24703678Y-49123533D01*
X24750306Y-49098649D01*
X24782850Y-49082813D01*
X24804104Y-49074477D01*
X24826097Y-49065228D01*
X24838951Y-49052807D01*
X24840154Y-49049878D01*
X24858961Y-49033584D01*
X24893335Y-49012598D01*
X24947719Y-48983310D01*
X24987874Y-49020692D01*
X25002057Y-49035836D01*
X25035055Y-49076993D01*
X25075346Y-49131945D01*
X25117182Y-49193031D01*
X25206336Y-49327989D01*
X25202837Y-49677862D01*
X25199339Y-50027735D01*
X25148393Y-50077233D01*
X25131274Y-50094879D01*
X25076376Y-50174160D01*
X25044330Y-50268435D01*
X25033412Y-50382280D01*
X25036123Y-50443279D01*
X25055261Y-50550878D01*
X25090141Y-50649083D01*
X25137742Y-50727882D01*
X25170795Y-50756614D01*
X25229549Y-50778437D01*
X25296061Y-50780954D01*
X25361816Y-50765328D01*
X25418301Y-50732720D01*
X25457003Y-50684293D01*
X25458270Y-50681668D01*
X25481663Y-50633725D01*
X25506439Y-50583622D01*
X25527472Y-50536587D01*
X25557644Y-50457310D01*
X25590932Y-50359572D01*
X25626179Y-50247728D01*
X25662229Y-50126134D01*
X25697925Y-49999145D01*
X25732110Y-49871116D01*
X25763627Y-49746402D01*
X25791320Y-49629359D01*
X25814032Y-49524343D01*
X25830606Y-49435709D01*
X25839885Y-49367812D01*
X25840714Y-49325007D01*
X25838847Y-49315282D01*
X25820658Y-49266056D01*
X25786907Y-49200199D01*
X25740555Y-49123665D01*
X25722764Y-49096085D01*
X25651282Y-48983622D01*
X25590520Y-48885272D01*
X25541817Y-48803332D01*
X25506514Y-48740105D01*
X25485952Y-48697890D01*
X25481469Y-48678987D01*
X25481988Y-48678320D01*
X25500545Y-48664705D01*
X25540202Y-48639819D01*
X25595526Y-48606976D01*
X25661084Y-48569488D01*
X25666626Y-48566376D01*
X25737807Y-48527212D01*
X25787381Y-48502236D01*
X25819906Y-48489658D01*
X25839942Y-48487689D01*
X25852047Y-48494540D01*
G36*
X25852047Y-48494540D02*
G01*
X25857802Y-48503125D01*
X25878365Y-48536846D01*
X25912179Y-48593700D01*
X25957950Y-48671468D01*
X26014383Y-48767932D01*
X26080184Y-48880871D01*
X26154058Y-49008068D01*
X26234711Y-49147303D01*
X26320848Y-49296357D01*
X26411175Y-49453012D01*
X26435947Y-49496021D01*
X26533900Y-49666075D01*
X26632509Y-49837254D01*
X26729760Y-50006062D01*
X26823638Y-50169003D01*
X26912131Y-50322582D01*
X26993222Y-50463301D01*
X27064898Y-50587666D01*
X27125144Y-50692180D01*
X27171947Y-50773347D01*
X27393030Y-51156671D01*
X24293076Y-51156671D01*
X24164921Y-51156659D01*
X23859500Y-51156542D01*
X23563432Y-51156302D01*
X23278159Y-51155944D01*
X23005123Y-51155476D01*
X22745765Y-51154903D01*
X22501527Y-51154232D01*
X22273849Y-51153468D01*
X22064174Y-51152619D01*
X21873943Y-51151689D01*
X21704597Y-51150686D01*
X21557578Y-51149615D01*
X21434327Y-51148483D01*
X21336286Y-51147296D01*
X21264896Y-51146059D01*
X21221598Y-51144780D01*
X21207835Y-51143463D01*
X21218054Y-51136804D01*
X21253311Y-51115583D01*
X21311221Y-51081420D01*
X21389430Y-51035671D01*
X21485583Y-50979690D01*
X21597323Y-50914833D01*
X21722296Y-50842454D01*
X21858146Y-50763909D01*
X22002518Y-50680554D01*
X22153056Y-50593743D01*
X22307405Y-50504832D01*
X22463210Y-50415176D01*
X22618116Y-50326129D01*
X22769766Y-50239048D01*
X22915806Y-50155288D01*
X23053881Y-50076203D01*
X23181634Y-50003149D01*
X23296711Y-49937481D01*
X23396756Y-49880554D01*
X23479414Y-49833724D01*
X23542329Y-49798346D01*
X23583147Y-49775774D01*
X23599511Y-49767364D01*
X23610189Y-49769449D01*
X23642358Y-49788408D01*
X23688221Y-49823532D01*
X23742740Y-49871169D01*
X23791845Y-49918856D01*
X23854389Y-49983816D01*
X23924368Y-50059655D01*
X23998196Y-50142198D01*
X24072285Y-50227268D01*
X24143048Y-50310690D01*
X24206898Y-50388289D01*
X24260247Y-50455889D01*
X24299509Y-50509314D01*
X24321095Y-50544389D01*
X24335506Y-50570005D01*
X24374643Y-50623016D01*
X24424958Y-50679412D01*
X24479276Y-50731962D01*
X24530424Y-50773430D01*
X24571227Y-50796586D01*
X24616292Y-50801938D01*
X24676426Y-50787145D01*
X24733579Y-50753226D01*
X24777933Y-50704553D01*
X24785613Y-50691925D01*
X24795392Y-50671243D01*
X24801765Y-50646354D01*
X24805142Y-50611909D01*
X24805931Y-50562562D01*
X24804541Y-50492964D01*
X24801381Y-50397768D01*
X24799116Y-50342702D01*
X24794304Y-50255617D01*
X24788625Y-50179399D01*
X24782608Y-50120749D01*
X24776783Y-50086366D01*
X24762679Y-50047088D01*
X24720866Y-49969740D01*
X24655895Y-49878091D01*
X24566970Y-49771067D01*
X24453300Y-49647590D01*
X24403972Y-49595566D01*
X24346938Y-49534196D01*
X24299864Y-49482165D01*
X24266624Y-49443766D01*
X24251089Y-49423296D01*
X24249492Y-49420046D01*
X24247577Y-49406053D01*
X24257145Y-49390539D01*
X24282115Y-49370159D01*
X24326406Y-49341571D01*
X24393938Y-49301432D01*
X24451347Y-49267922D01*
X24556992Y-49206623D01*
X24640171Y-49159009D01*
X24703678Y-49123533D01*
X24750306Y-49098649D01*
X24782850Y-49082813D01*
X24804104Y-49074477D01*
X24826097Y-49065228D01*
X24838951Y-49052807D01*
X24840154Y-49049878D01*
X24858961Y-49033584D01*
X24893335Y-49012598D01*
X24947719Y-48983310D01*
X24987874Y-49020692D01*
X25002057Y-49035836D01*
X25035055Y-49076993D01*
X25075346Y-49131945D01*
X25117182Y-49193031D01*
X25206336Y-49327989D01*
X25202837Y-49677862D01*
X25199339Y-50027735D01*
X25148393Y-50077233D01*
X25131274Y-50094879D01*
X25076376Y-50174160D01*
X25044330Y-50268435D01*
X25033412Y-50382280D01*
X25036123Y-50443279D01*
X25055261Y-50550878D01*
X25090141Y-50649083D01*
X25137742Y-50727882D01*
X25170795Y-50756614D01*
X25229549Y-50778437D01*
X25296061Y-50780954D01*
X25361816Y-50765328D01*
X25418301Y-50732720D01*
X25457003Y-50684293D01*
X25458270Y-50681668D01*
X25481663Y-50633725D01*
X25506439Y-50583622D01*
X25527472Y-50536587D01*
X25557644Y-50457310D01*
X25590932Y-50359572D01*
X25626179Y-50247728D01*
X25662229Y-50126134D01*
X25697925Y-49999145D01*
X25732110Y-49871116D01*
X25763627Y-49746402D01*
X25791320Y-49629359D01*
X25814032Y-49524343D01*
X25830606Y-49435709D01*
X25839885Y-49367812D01*
X25840714Y-49325007D01*
X25838847Y-49315282D01*
X25820658Y-49266056D01*
X25786907Y-49200199D01*
X25740555Y-49123665D01*
X25722764Y-49096085D01*
X25651282Y-48983622D01*
X25590520Y-48885272D01*
X25541817Y-48803332D01*
X25506514Y-48740105D01*
X25485952Y-48697890D01*
X25481469Y-48678987D01*
X25481988Y-48678320D01*
X25500545Y-48664705D01*
X25540202Y-48639819D01*
X25595526Y-48606976D01*
X25661084Y-48569488D01*
X25666626Y-48566376D01*
X25737807Y-48527212D01*
X25787381Y-48502236D01*
X25819906Y-48489658D01*
X25839942Y-48487689D01*
X25852047Y-48494540D01*
G37*
D12*
%TO.C,R23*%
X29715500Y-51737758D02*
X29715500Y-51263242D01*
X30760500Y-51737758D02*
X30760500Y-51263242D01*
D11*
%TO.C,REF\u002A\u002A*%
X27509128Y-59304445D02*
X27539954Y-59314068D01*
X27577916Y-59330063D01*
X27596296Y-59338659D01*
X27609561Y-59340213D01*
X27612495Y-59328298D01*
X27612498Y-59327961D01*
X27618709Y-59316587D01*
X27640131Y-59310756D01*
X27681653Y-59309114D01*
X27750812Y-59309114D01*
X27750812Y-59912679D01*
X27612495Y-59912679D01*
X27612495Y-59496527D01*
X27578110Y-59464661D01*
X27567368Y-59455604D01*
X27535370Y-59440130D01*
X27495965Y-59439510D01*
X27442312Y-59453164D01*
X27424225Y-59454029D01*
X27403008Y-59440783D01*
X27374768Y-59409300D01*
X27361069Y-59391885D01*
X27344868Y-59367297D01*
X27342371Y-59351645D01*
X27351442Y-59338441D01*
X27379289Y-59321745D01*
X27422540Y-59308530D01*
X27469464Y-59301978D01*
X27509128Y-59304445D01*
G36*
X27509128Y-59304445D02*
G01*
X27539954Y-59314068D01*
X27577916Y-59330063D01*
X27596296Y-59338659D01*
X27609561Y-59340213D01*
X27612495Y-59328298D01*
X27612498Y-59327961D01*
X27618709Y-59316587D01*
X27640131Y-59310756D01*
X27681653Y-59309114D01*
X27750812Y-59309114D01*
X27750812Y-59912679D01*
X27612495Y-59912679D01*
X27612495Y-59496527D01*
X27578110Y-59464661D01*
X27567368Y-59455604D01*
X27535370Y-59440130D01*
X27495965Y-59439510D01*
X27442312Y-59453164D01*
X27424225Y-59454029D01*
X27403008Y-59440783D01*
X27374768Y-59409300D01*
X27361069Y-59391885D01*
X27344868Y-59367297D01*
X27342371Y-59351645D01*
X27351442Y-59338441D01*
X27379289Y-59321745D01*
X27422540Y-59308530D01*
X27469464Y-59301978D01*
X27509128Y-59304445D01*
G37*
X27692265Y-60260465D02*
X27730255Y-60278245D01*
X27763386Y-60304306D01*
X27763386Y-60278245D01*
X27764211Y-60268349D01*
X27771893Y-60257858D01*
X27792667Y-60253225D01*
X27832544Y-60252183D01*
X27901703Y-60252183D01*
X27901703Y-60868322D01*
X27763386Y-60868322D01*
X27763386Y-60667726D01*
X27763369Y-60656210D01*
X27762189Y-60575258D01*
X27759294Y-60509317D01*
X27754888Y-60461758D01*
X27749181Y-60435952D01*
X27743940Y-60426210D01*
X27711676Y-60395656D01*
X27667730Y-60382131D01*
X27619743Y-60388441D01*
X27607973Y-60392717D01*
X27582898Y-60400276D01*
X27565762Y-60397928D01*
X27548518Y-60382564D01*
X27523124Y-60351071D01*
X27481936Y-60299068D01*
X27510886Y-60275625D01*
X27538405Y-60261515D01*
X27586745Y-60251986D01*
X27641230Y-60251674D01*
X27692265Y-60260465D01*
G36*
X27692265Y-60260465D02*
G01*
X27730255Y-60278245D01*
X27763386Y-60304306D01*
X27763386Y-60278245D01*
X27764211Y-60268349D01*
X27771893Y-60257858D01*
X27792667Y-60253225D01*
X27832544Y-60252183D01*
X27901703Y-60252183D01*
X27901703Y-60868322D01*
X27763386Y-60868322D01*
X27763386Y-60667726D01*
X27763369Y-60656210D01*
X27762189Y-60575258D01*
X27759294Y-60509317D01*
X27754888Y-60461758D01*
X27749181Y-60435952D01*
X27743940Y-60426210D01*
X27711676Y-60395656D01*
X27667730Y-60382131D01*
X27619743Y-60388441D01*
X27607973Y-60392717D01*
X27582898Y-60400276D01*
X27565762Y-60397928D01*
X27548518Y-60382564D01*
X27523124Y-60351071D01*
X27481936Y-60299068D01*
X27510886Y-60275625D01*
X27538405Y-60261515D01*
X27586745Y-60251986D01*
X27641230Y-60251674D01*
X27692265Y-60260465D01*
G37*
X30315960Y-60868322D02*
X30190218Y-60868322D01*
X30190218Y-60674240D01*
X30190078Y-60629094D01*
X30188649Y-60554323D01*
X30185029Y-60498967D01*
X30178434Y-60459202D01*
X30168079Y-60431200D01*
X30153178Y-60411135D01*
X30132946Y-60395181D01*
X30110859Y-60383292D01*
X30084705Y-60379921D01*
X30047508Y-60387417D01*
X30035555Y-60390538D01*
X30005718Y-60395235D01*
X29984383Y-60388505D01*
X29959655Y-60367677D01*
X29954963Y-60363147D01*
X29929020Y-60335126D01*
X29912291Y-60312343D01*
X29909996Y-60306855D01*
X29914543Y-60286588D01*
X29937602Y-60270384D01*
X29973995Y-60259013D01*
X30018544Y-60253240D01*
X30066072Y-60253834D01*
X30111400Y-60261563D01*
X30149351Y-60277194D01*
X30161381Y-60284493D01*
X30181632Y-60295176D01*
X30189129Y-60292730D01*
X30190218Y-60277147D01*
X30190473Y-60271553D01*
X30196539Y-60259160D01*
X30215356Y-60253520D01*
X30253089Y-60252183D01*
X30315960Y-60252183D01*
X30315960Y-60868322D01*
G36*
X30315960Y-60868322D02*
G01*
X30190218Y-60868322D01*
X30190218Y-60674240D01*
X30190078Y-60629094D01*
X30188649Y-60554323D01*
X30185029Y-60498967D01*
X30178434Y-60459202D01*
X30168079Y-60431200D01*
X30153178Y-60411135D01*
X30132946Y-60395181D01*
X30110859Y-60383292D01*
X30084705Y-60379921D01*
X30047508Y-60387417D01*
X30035555Y-60390538D01*
X30005718Y-60395235D01*
X29984383Y-60388505D01*
X29959655Y-60367677D01*
X29954963Y-60363147D01*
X29929020Y-60335126D01*
X29912291Y-60312343D01*
X29909996Y-60306855D01*
X29914543Y-60286588D01*
X29937602Y-60270384D01*
X29973995Y-60259013D01*
X30018544Y-60253240D01*
X30066072Y-60253834D01*
X30111400Y-60261563D01*
X30149351Y-60277194D01*
X30161381Y-60284493D01*
X30181632Y-60295176D01*
X30189129Y-60292730D01*
X30190218Y-60277147D01*
X30190473Y-60271553D01*
X30196539Y-60259160D01*
X30215356Y-60253520D01*
X30253089Y-60252183D01*
X30315960Y-60252183D01*
X30315960Y-60868322D01*
G37*
X28002297Y-59504842D02*
X28003357Y-59592894D01*
X28007509Y-59664010D01*
X28015921Y-59715699D01*
X28029757Y-59750860D01*
X28050182Y-59772389D01*
X28078364Y-59783182D01*
X28115465Y-59786136D01*
X28150890Y-59783500D01*
X28179500Y-59773179D01*
X28200296Y-59752272D01*
X28214442Y-59717881D01*
X28223103Y-59667110D01*
X28227445Y-59597063D01*
X28228633Y-59504842D01*
X28228633Y-59309114D01*
X28354376Y-59309114D01*
X28354376Y-59545078D01*
X28354160Y-59608061D01*
X28352484Y-59689507D01*
X28348277Y-59751621D01*
X28340521Y-59797958D01*
X28328196Y-59832073D01*
X28310285Y-59857522D01*
X28285767Y-59877862D01*
X28253623Y-59896647D01*
X28186125Y-59920428D01*
X28115681Y-59921980D01*
X28049264Y-59900080D01*
X28020286Y-59885883D01*
X28005909Y-59883761D01*
X28002297Y-59893793D01*
X27996299Y-59905056D01*
X27974830Y-59910989D01*
X27933138Y-59912679D01*
X27863980Y-59912679D01*
X27863980Y-59309114D01*
X28002297Y-59309114D01*
X28002297Y-59504842D01*
G36*
X28002297Y-59504842D02*
G01*
X28003357Y-59592894D01*
X28007509Y-59664010D01*
X28015921Y-59715699D01*
X28029757Y-59750860D01*
X28050182Y-59772389D01*
X28078364Y-59783182D01*
X28115465Y-59786136D01*
X28150890Y-59783500D01*
X28179500Y-59773179D01*
X28200296Y-59752272D01*
X28214442Y-59717881D01*
X28223103Y-59667110D01*
X28227445Y-59597063D01*
X28228633Y-59504842D01*
X28228633Y-59309114D01*
X28354376Y-59309114D01*
X28354376Y-59545078D01*
X28354160Y-59608061D01*
X28352484Y-59689507D01*
X28348277Y-59751621D01*
X28340521Y-59797958D01*
X28328196Y-59832073D01*
X28310285Y-59857522D01*
X28285767Y-59877862D01*
X28253623Y-59896647D01*
X28186125Y-59920428D01*
X28115681Y-59921980D01*
X28049264Y-59900080D01*
X28020286Y-59885883D01*
X28005909Y-59883761D01*
X28002297Y-59893793D01*
X27996299Y-59905056D01*
X27974830Y-59910989D01*
X27933138Y-59912679D01*
X27863980Y-59912679D01*
X27863980Y-59309114D01*
X28002297Y-59309114D01*
X28002297Y-59504842D01*
G37*
X30104605Y-59307924D02*
X30161926Y-59325934D01*
X30187199Y-59338174D01*
X30199910Y-59339438D01*
X30202792Y-59328298D01*
X30202795Y-59327961D01*
X30209006Y-59316587D01*
X30230428Y-59310756D01*
X30271950Y-59309114D01*
X30341109Y-59309114D01*
X30341109Y-59912679D01*
X30202792Y-59912679D01*
X30202792Y-59704632D01*
X30202697Y-59634379D01*
X30202051Y-59576670D01*
X30200320Y-59536287D01*
X30196974Y-59509115D01*
X30191481Y-59491040D01*
X30183310Y-59477947D01*
X30171928Y-59465721D01*
X30156424Y-59452717D01*
X30111843Y-59435245D01*
X30065047Y-59440373D01*
X30022180Y-59468007D01*
X30009927Y-59480868D01*
X30001132Y-59493884D01*
X29995233Y-59511206D01*
X29991651Y-59537001D01*
X29989809Y-59575439D01*
X29989128Y-59630689D01*
X29989030Y-59706918D01*
X29989030Y-59912679D01*
X29850713Y-59912679D01*
X29850989Y-59689485D01*
X29851008Y-59679544D01*
X29852207Y-59584606D01*
X29855891Y-59510858D01*
X29863006Y-59454714D01*
X29874500Y-59412587D01*
X29891318Y-59380891D01*
X29914409Y-59356041D01*
X29944717Y-59334450D01*
X29976012Y-59319502D01*
X30039037Y-59305921D01*
X30104605Y-59307924D01*
G36*
X30104605Y-59307924D02*
G01*
X30161926Y-59325934D01*
X30187199Y-59338174D01*
X30199910Y-59339438D01*
X30202792Y-59328298D01*
X30202795Y-59327961D01*
X30209006Y-59316587D01*
X30230428Y-59310756D01*
X30271950Y-59309114D01*
X30341109Y-59309114D01*
X30341109Y-59912679D01*
X30202792Y-59912679D01*
X30202792Y-59704632D01*
X30202697Y-59634379D01*
X30202051Y-59576670D01*
X30200320Y-59536287D01*
X30196974Y-59509115D01*
X30191481Y-59491040D01*
X30183310Y-59477947D01*
X30171928Y-59465721D01*
X30156424Y-59452717D01*
X30111843Y-59435245D01*
X30065047Y-59440373D01*
X30022180Y-59468007D01*
X30009927Y-59480868D01*
X30001132Y-59493884D01*
X29995233Y-59511206D01*
X29991651Y-59537001D01*
X29989809Y-59575439D01*
X29989128Y-59630689D01*
X29989030Y-59706918D01*
X29989030Y-59912679D01*
X29850713Y-59912679D01*
X29850989Y-59689485D01*
X29851008Y-59679544D01*
X29852207Y-59584606D01*
X29855891Y-59510858D01*
X29863006Y-59454714D01*
X29874500Y-59412587D01*
X29891318Y-59380891D01*
X29914409Y-59356041D01*
X29944717Y-59334450D01*
X29976012Y-59319502D01*
X30039037Y-59305921D01*
X30104605Y-59307924D01*
G37*
X27155409Y-59311993D02*
X27224021Y-59338724D01*
X27282048Y-59382851D01*
X27324907Y-59443458D01*
X27327801Y-59449637D01*
X27346176Y-59509909D01*
X27355357Y-59581907D01*
X27355285Y-59656869D01*
X27345901Y-59726036D01*
X27327149Y-59780649D01*
X27303995Y-59818712D01*
X27253030Y-59872635D01*
X27189306Y-59906911D01*
X27134785Y-59920772D01*
X27051767Y-59922285D01*
X26972326Y-59901382D01*
X26901879Y-59858964D01*
X26856284Y-59821380D01*
X26897351Y-59779010D01*
X26923296Y-59753909D01*
X26946764Y-59739934D01*
X26968524Y-59743011D01*
X26996356Y-59761787D01*
X27007454Y-59769138D01*
X27054337Y-59784183D01*
X27108224Y-59784173D01*
X27158675Y-59768668D01*
X27177672Y-59756216D01*
X27205537Y-59719446D01*
X27219506Y-59665439D01*
X27220405Y-59591831D01*
X27220403Y-59591789D01*
X27210009Y-59525933D01*
X27187114Y-59480272D01*
X27149439Y-59452028D01*
X27094708Y-59438420D01*
X27060241Y-59436590D01*
X27030126Y-59444084D01*
X26999240Y-59465795D01*
X26959272Y-59499426D01*
X26908656Y-59458750D01*
X26890163Y-59443167D01*
X26867065Y-59420840D01*
X26858039Y-59407683D01*
X26861236Y-59401753D01*
X26879646Y-59383548D01*
X26908973Y-59360395D01*
X26931920Y-59345330D01*
X27004774Y-59314380D01*
X27080799Y-59303573D01*
X27155409Y-59311993D01*
G36*
X27155409Y-59311993D02*
G01*
X27224021Y-59338724D01*
X27282048Y-59382851D01*
X27324907Y-59443458D01*
X27327801Y-59449637D01*
X27346176Y-59509909D01*
X27355357Y-59581907D01*
X27355285Y-59656869D01*
X27345901Y-59726036D01*
X27327149Y-59780649D01*
X27303995Y-59818712D01*
X27253030Y-59872635D01*
X27189306Y-59906911D01*
X27134785Y-59920772D01*
X27051767Y-59922285D01*
X26972326Y-59901382D01*
X26901879Y-59858964D01*
X26856284Y-59821380D01*
X26897351Y-59779010D01*
X26923296Y-59753909D01*
X26946764Y-59739934D01*
X26968524Y-59743011D01*
X26996356Y-59761787D01*
X27007454Y-59769138D01*
X27054337Y-59784183D01*
X27108224Y-59784173D01*
X27158675Y-59768668D01*
X27177672Y-59756216D01*
X27205537Y-59719446D01*
X27219506Y-59665439D01*
X27220405Y-59591831D01*
X27220403Y-59591789D01*
X27210009Y-59525933D01*
X27187114Y-59480272D01*
X27149439Y-59452028D01*
X27094708Y-59438420D01*
X27060241Y-59436590D01*
X27030126Y-59444084D01*
X26999240Y-59465795D01*
X26959272Y-59499426D01*
X26908656Y-59458750D01*
X26890163Y-59443167D01*
X26867065Y-59420840D01*
X26858039Y-59407683D01*
X26861236Y-59401753D01*
X26879646Y-59383548D01*
X26908973Y-59360395D01*
X26931920Y-59345330D01*
X27004774Y-59314380D01*
X27080799Y-59303573D01*
X27155409Y-59311993D01*
G37*
X28954857Y-59654271D02*
X28951349Y-59694065D01*
X28935844Y-59770038D01*
X28908110Y-59828011D01*
X28865898Y-59871800D01*
X28806960Y-59905222D01*
X28784076Y-59913176D01*
X28724812Y-59923101D01*
X28662447Y-59922831D01*
X28609823Y-59911930D01*
X28608789Y-59911534D01*
X28566381Y-59886587D01*
X28523537Y-59847968D01*
X28487986Y-59803806D01*
X28467459Y-59762227D01*
X28461374Y-59731834D01*
X28456164Y-59674929D01*
X28455291Y-59624205D01*
X28581976Y-59624205D01*
X28589549Y-59685045D01*
X28607341Y-59735038D01*
X28634296Y-59767704D01*
X28644513Y-59773312D01*
X28683473Y-59783507D01*
X28728536Y-59785604D01*
X28766448Y-59778520D01*
X28781244Y-59768361D01*
X28802014Y-59732834D01*
X28815083Y-59677232D01*
X28819624Y-59604266D01*
X28819551Y-59583262D01*
X28817974Y-59540703D01*
X28812728Y-59512939D01*
X28801723Y-59492425D01*
X28782868Y-59471612D01*
X28746989Y-59446387D01*
X28700280Y-59436073D01*
X28655151Y-59445896D01*
X28617680Y-59474305D01*
X28593943Y-59519753D01*
X28585675Y-59558997D01*
X28581976Y-59624205D01*
X28455291Y-59624205D01*
X28455049Y-59610121D01*
X28457844Y-59545616D01*
X28464366Y-59489621D01*
X28474432Y-59450342D01*
X28497877Y-59405872D01*
X28547637Y-59351192D01*
X28611238Y-59316555D01*
X28686790Y-59302845D01*
X28772399Y-59310948D01*
X28786644Y-59314399D01*
X28852982Y-59344164D01*
X28902971Y-59393030D01*
X28936612Y-59461001D01*
X28953906Y-59548080D01*
X28954410Y-59604266D01*
X28954857Y-59654271D01*
G36*
X28954857Y-59654271D02*
G01*
X28951349Y-59694065D01*
X28935844Y-59770038D01*
X28908110Y-59828011D01*
X28865898Y-59871800D01*
X28806960Y-59905222D01*
X28784076Y-59913176D01*
X28724812Y-59923101D01*
X28662447Y-59922831D01*
X28609823Y-59911930D01*
X28608789Y-59911534D01*
X28566381Y-59886587D01*
X28523537Y-59847968D01*
X28487986Y-59803806D01*
X28467459Y-59762227D01*
X28461374Y-59731834D01*
X28456164Y-59674929D01*
X28455291Y-59624205D01*
X28581976Y-59624205D01*
X28589549Y-59685045D01*
X28607341Y-59735038D01*
X28634296Y-59767704D01*
X28644513Y-59773312D01*
X28683473Y-59783507D01*
X28728536Y-59785604D01*
X28766448Y-59778520D01*
X28781244Y-59768361D01*
X28802014Y-59732834D01*
X28815083Y-59677232D01*
X28819624Y-59604266D01*
X28819551Y-59583262D01*
X28817974Y-59540703D01*
X28812728Y-59512939D01*
X28801723Y-59492425D01*
X28782868Y-59471612D01*
X28746989Y-59446387D01*
X28700280Y-59436073D01*
X28655151Y-59445896D01*
X28617680Y-59474305D01*
X28593943Y-59519753D01*
X28585675Y-59558997D01*
X28581976Y-59624205D01*
X28455291Y-59624205D01*
X28455049Y-59610121D01*
X28457844Y-59545616D01*
X28464366Y-59489621D01*
X28474432Y-59450342D01*
X28497877Y-59405872D01*
X28547637Y-59351192D01*
X28611238Y-59316555D01*
X28686790Y-59302845D01*
X28772399Y-59310948D01*
X28786644Y-59314399D01*
X28852982Y-59344164D01*
X28902971Y-59393030D01*
X28936612Y-59461001D01*
X28953906Y-59548080D01*
X28954410Y-59604266D01*
X28954857Y-59654271D01*
G37*
X29054997Y-60449630D02*
X29071997Y-60500350D01*
X29092107Y-60556497D01*
X29108899Y-60599032D01*
X29120986Y-60624490D01*
X29126980Y-60629403D01*
X29128426Y-60625130D01*
X29136254Y-60598922D01*
X29148723Y-60555149D01*
X29164447Y-60498711D01*
X29182043Y-60434510D01*
X29229914Y-60258471D01*
X29303007Y-60254652D01*
X29309177Y-60254346D01*
X29348592Y-60253941D01*
X29367533Y-60257987D01*
X29369945Y-60267226D01*
X29366898Y-60276249D01*
X29356874Y-60307132D01*
X29341180Y-60356044D01*
X29320934Y-60419487D01*
X29297256Y-60493962D01*
X29271263Y-60575971D01*
X29178736Y-60868322D01*
X29062993Y-60868322D01*
X29008457Y-60682852D01*
X28998386Y-60648794D01*
X28979775Y-60586878D01*
X28963872Y-60535287D01*
X28952109Y-60498630D01*
X28945918Y-60481518D01*
X28944154Y-60480241D01*
X28935571Y-60491279D01*
X28923316Y-60520469D01*
X28909426Y-60563250D01*
X28908692Y-60565763D01*
X28890096Y-60628900D01*
X28868818Y-60700389D01*
X28849321Y-60765234D01*
X28817705Y-60869622D01*
X28759402Y-60865828D01*
X28701098Y-60862035D01*
X28647098Y-60692282D01*
X28623390Y-60617693D01*
X28596833Y-60534039D01*
X28571404Y-60453842D01*
X28550354Y-60387357D01*
X28507609Y-60252183D01*
X28650612Y-60252183D01*
X28685274Y-60381070D01*
X28694488Y-60415125D01*
X28711915Y-60478615D01*
X28728054Y-60536374D01*
X28740322Y-60579114D01*
X28760709Y-60648273D01*
X28890745Y-60258471D01*
X28940476Y-60254737D01*
X28990206Y-60251004D01*
X29054997Y-60449630D01*
G36*
X29054997Y-60449630D02*
G01*
X29071997Y-60500350D01*
X29092107Y-60556497D01*
X29108899Y-60599032D01*
X29120986Y-60624490D01*
X29126980Y-60629403D01*
X29128426Y-60625130D01*
X29136254Y-60598922D01*
X29148723Y-60555149D01*
X29164447Y-60498711D01*
X29182043Y-60434510D01*
X29229914Y-60258471D01*
X29303007Y-60254652D01*
X29309177Y-60254346D01*
X29348592Y-60253941D01*
X29367533Y-60257987D01*
X29369945Y-60267226D01*
X29366898Y-60276249D01*
X29356874Y-60307132D01*
X29341180Y-60356044D01*
X29320934Y-60419487D01*
X29297256Y-60493962D01*
X29271263Y-60575971D01*
X29178736Y-60868322D01*
X29062993Y-60868322D01*
X29008457Y-60682852D01*
X28998386Y-60648794D01*
X28979775Y-60586878D01*
X28963872Y-60535287D01*
X28952109Y-60498630D01*
X28945918Y-60481518D01*
X28944154Y-60480241D01*
X28935571Y-60491279D01*
X28923316Y-60520469D01*
X28909426Y-60563250D01*
X28908692Y-60565763D01*
X28890096Y-60628900D01*
X28868818Y-60700389D01*
X28849321Y-60765234D01*
X28817705Y-60869622D01*
X28759402Y-60865828D01*
X28701098Y-60862035D01*
X28647098Y-60692282D01*
X28623390Y-60617693D01*
X28596833Y-60534039D01*
X28571404Y-60453842D01*
X28550354Y-60387357D01*
X28507609Y-60252183D01*
X28650612Y-60252183D01*
X28685274Y-60381070D01*
X28694488Y-60415125D01*
X28711915Y-60478615D01*
X28728054Y-60536374D01*
X28740322Y-60579114D01*
X28760709Y-60648273D01*
X28890745Y-60258471D01*
X28940476Y-60254737D01*
X28990206Y-60251004D01*
X29054997Y-60449630D01*
G37*
X29912761Y-60607313D02*
X29911167Y-60661071D01*
X29907962Y-60698518D01*
X29907413Y-60701950D01*
X29885838Y-60763335D01*
X29846438Y-60815377D01*
X29794752Y-60850635D01*
X29739248Y-60865229D01*
X29670977Y-60864097D01*
X29608173Y-60844529D01*
X29591815Y-60836271D01*
X29570779Y-60827423D01*
X29562774Y-60830176D01*
X29561505Y-60844529D01*
X29560922Y-60851686D01*
X29553394Y-60862272D01*
X29532488Y-60867145D01*
X29492346Y-60868322D01*
X29423188Y-60868322D01*
X29423188Y-60566430D01*
X29561505Y-60566430D01*
X29562496Y-60618730D01*
X29566519Y-60653550D01*
X29575108Y-60677405D01*
X29589797Y-60697395D01*
X29628584Y-60727118D01*
X29673974Y-60737082D01*
X29717989Y-60724760D01*
X29755060Y-60690388D01*
X29764859Y-60665235D01*
X29772097Y-60620694D01*
X29775279Y-60566655D01*
X29774277Y-60511228D01*
X29768961Y-60462522D01*
X29759204Y-60428648D01*
X29756087Y-60423093D01*
X29726038Y-60395174D01*
X29685315Y-60382806D01*
X29641579Y-60385683D01*
X29602491Y-60403500D01*
X29575710Y-60435952D01*
X29574603Y-60438681D01*
X29567963Y-60469134D01*
X29563278Y-60514639D01*
X29561505Y-60566430D01*
X29423188Y-60566430D01*
X29423188Y-60013273D01*
X29561505Y-60013273D01*
X29561505Y-60306378D01*
X29587124Y-60283193D01*
X29611792Y-60268782D01*
X29658480Y-60256736D01*
X29713056Y-60252854D01*
X29766354Y-60257620D01*
X29809207Y-60271514D01*
X29839878Y-60291279D01*
X29871471Y-60324949D01*
X29892733Y-60370230D01*
X29905514Y-60431481D01*
X29911664Y-60513063D01*
X29912568Y-60546040D01*
X29912633Y-60566655D01*
X29912761Y-60607313D01*
G36*
X29912761Y-60607313D02*
G01*
X29911167Y-60661071D01*
X29907962Y-60698518D01*
X29907413Y-60701950D01*
X29885838Y-60763335D01*
X29846438Y-60815377D01*
X29794752Y-60850635D01*
X29739248Y-60865229D01*
X29670977Y-60864097D01*
X29608173Y-60844529D01*
X29591815Y-60836271D01*
X29570779Y-60827423D01*
X29562774Y-60830176D01*
X29561505Y-60844529D01*
X29560922Y-60851686D01*
X29553394Y-60862272D01*
X29532488Y-60867145D01*
X29492346Y-60868322D01*
X29423188Y-60868322D01*
X29423188Y-60566430D01*
X29561505Y-60566430D01*
X29562496Y-60618730D01*
X29566519Y-60653550D01*
X29575108Y-60677405D01*
X29589797Y-60697395D01*
X29628584Y-60727118D01*
X29673974Y-60737082D01*
X29717989Y-60724760D01*
X29755060Y-60690388D01*
X29764859Y-60665235D01*
X29772097Y-60620694D01*
X29775279Y-60566655D01*
X29774277Y-60511228D01*
X29768961Y-60462522D01*
X29759204Y-60428648D01*
X29756087Y-60423093D01*
X29726038Y-60395174D01*
X29685315Y-60382806D01*
X29641579Y-60385683D01*
X29602491Y-60403500D01*
X29575710Y-60435952D01*
X29574603Y-60438681D01*
X29567963Y-60469134D01*
X29563278Y-60514639D01*
X29561505Y-60566430D01*
X29423188Y-60566430D01*
X29423188Y-60013273D01*
X29561505Y-60013273D01*
X29561505Y-60306378D01*
X29587124Y-60283193D01*
X29611792Y-60268782D01*
X29658480Y-60256736D01*
X29713056Y-60252854D01*
X29766354Y-60257620D01*
X29809207Y-60271514D01*
X29839878Y-60291279D01*
X29871471Y-60324949D01*
X29892733Y-60370230D01*
X29905514Y-60431481D01*
X29911664Y-60513063D01*
X29912568Y-60546040D01*
X29912633Y-60566655D01*
X29912761Y-60607313D01*
G37*
X32086997Y-59645431D02*
X32085373Y-59684810D01*
X32081688Y-59732832D01*
X32075410Y-59766868D01*
X32065044Y-59793838D01*
X32049092Y-59820658D01*
X32048412Y-59821675D01*
X32009132Y-59865129D01*
X31961072Y-59898272D01*
X31905185Y-59917939D01*
X31831666Y-59924324D01*
X31759609Y-59911768D01*
X31695201Y-59881511D01*
X31644627Y-59834794D01*
X31630108Y-59812721D01*
X31602993Y-59744102D01*
X31589546Y-59659439D01*
X31589776Y-59638023D01*
X31724920Y-59638023D01*
X31725174Y-59678074D01*
X31729421Y-59704813D01*
X31739096Y-59725359D01*
X31755638Y-59746831D01*
X31778593Y-59768139D01*
X31824505Y-59787153D01*
X31873802Y-59783622D01*
X31920917Y-59757194D01*
X31934207Y-59744572D01*
X31948397Y-59722965D01*
X31956266Y-59692594D01*
X31960726Y-59645270D01*
X31961955Y-59609719D01*
X31955224Y-59537120D01*
X31934567Y-59485142D01*
X31899894Y-59453499D01*
X31859249Y-59438347D01*
X31810777Y-59439623D01*
X31765845Y-59465203D01*
X31755103Y-59474942D01*
X31741548Y-59491980D01*
X31733505Y-59514272D01*
X31729043Y-59548447D01*
X31726228Y-59601138D01*
X31724920Y-59638023D01*
X31589776Y-59638023D01*
X31590583Y-59562851D01*
X31591907Y-59549151D01*
X31610374Y-59461408D01*
X31644540Y-59393293D01*
X31694479Y-59344731D01*
X31760261Y-59315648D01*
X31841961Y-59305971D01*
X31872828Y-59306879D01*
X31936128Y-59317993D01*
X31987889Y-59344521D01*
X32036147Y-59389936D01*
X32043865Y-59399051D01*
X32064681Y-59429748D01*
X32078362Y-59464507D01*
X32085948Y-59508556D01*
X32088479Y-59567121D01*
X32087672Y-59609719D01*
X32086997Y-59645431D01*
G36*
X32086997Y-59645431D02*
G01*
X32085373Y-59684810D01*
X32081688Y-59732832D01*
X32075410Y-59766868D01*
X32065044Y-59793838D01*
X32049092Y-59820658D01*
X32048412Y-59821675D01*
X32009132Y-59865129D01*
X31961072Y-59898272D01*
X31905185Y-59917939D01*
X31831666Y-59924324D01*
X31759609Y-59911768D01*
X31695201Y-59881511D01*
X31644627Y-59834794D01*
X31630108Y-59812721D01*
X31602993Y-59744102D01*
X31589546Y-59659439D01*
X31589776Y-59638023D01*
X31724920Y-59638023D01*
X31725174Y-59678074D01*
X31729421Y-59704813D01*
X31739096Y-59725359D01*
X31755638Y-59746831D01*
X31778593Y-59768139D01*
X31824505Y-59787153D01*
X31873802Y-59783622D01*
X31920917Y-59757194D01*
X31934207Y-59744572D01*
X31948397Y-59722965D01*
X31956266Y-59692594D01*
X31960726Y-59645270D01*
X31961955Y-59609719D01*
X31955224Y-59537120D01*
X31934567Y-59485142D01*
X31899894Y-59453499D01*
X31859249Y-59438347D01*
X31810777Y-59439623D01*
X31765845Y-59465203D01*
X31755103Y-59474942D01*
X31741548Y-59491980D01*
X31733505Y-59514272D01*
X31729043Y-59548447D01*
X31726228Y-59601138D01*
X31724920Y-59638023D01*
X31589776Y-59638023D01*
X31590583Y-59562851D01*
X31591907Y-59549151D01*
X31610374Y-59461408D01*
X31644540Y-59393293D01*
X31694479Y-59344731D01*
X31760261Y-59315648D01*
X31841961Y-59305971D01*
X31872828Y-59306879D01*
X31936128Y-59317993D01*
X31987889Y-59344521D01*
X32036147Y-59389936D01*
X32043865Y-59399051D01*
X32064681Y-59429748D01*
X32078362Y-59464507D01*
X32085948Y-59508556D01*
X32088479Y-59567121D01*
X32087672Y-59609719D01*
X32086997Y-59645431D01*
G37*
X26841444Y-59570378D02*
X26839825Y-59666621D01*
X26839615Y-59668514D01*
X26821535Y-59756825D01*
X26788870Y-59825486D01*
X26740601Y-59876006D01*
X26675713Y-59909893D01*
X26663801Y-59913768D01*
X26589971Y-59925188D01*
X26513614Y-59918820D01*
X26442626Y-59896063D01*
X26384904Y-59858319D01*
X26341667Y-59818372D01*
X26387625Y-59782032D01*
X26433583Y-59745693D01*
X26488969Y-59772601D01*
X26553056Y-59794405D01*
X26609632Y-59795058D01*
X26655920Y-59775025D01*
X26689230Y-59734815D01*
X26701171Y-59710722D01*
X26707837Y-59690130D01*
X26703980Y-59676220D01*
X26686675Y-59667681D01*
X26652997Y-59663204D01*
X26600021Y-59661478D01*
X26524822Y-59661193D01*
X26342495Y-59661193D01*
X26342495Y-59573992D01*
X26343857Y-59535710D01*
X26472234Y-59535710D01*
X26478399Y-59542751D01*
X26496654Y-59546416D01*
X26531352Y-59547806D01*
X26586846Y-59548025D01*
X26616603Y-59547676D01*
X26663562Y-59545367D01*
X26695416Y-59541322D01*
X26707148Y-59536042D01*
X26704146Y-59516562D01*
X26682988Y-59479286D01*
X26647731Y-59448664D01*
X26605699Y-59430168D01*
X26564220Y-59429273D01*
X26532997Y-59444104D01*
X26497618Y-59477855D01*
X26475122Y-59519733D01*
X26473805Y-59524190D01*
X26472234Y-59535710D01*
X26343857Y-59535710D01*
X26344136Y-59527871D01*
X26348955Y-59482240D01*
X26355840Y-59451393D01*
X26360859Y-59439617D01*
X26397390Y-59387167D01*
X26450175Y-59343421D01*
X26511904Y-59314779D01*
X26544102Y-59306957D01*
X26620820Y-59303396D01*
X26689179Y-59321509D01*
X26747299Y-59359279D01*
X26793302Y-59414691D01*
X26825310Y-59485729D01*
X26834900Y-59536042D01*
X26841444Y-59570378D01*
G36*
X26841444Y-59570378D02*
G01*
X26839825Y-59666621D01*
X26839615Y-59668514D01*
X26821535Y-59756825D01*
X26788870Y-59825486D01*
X26740601Y-59876006D01*
X26675713Y-59909893D01*
X26663801Y-59913768D01*
X26589971Y-59925188D01*
X26513614Y-59918820D01*
X26442626Y-59896063D01*
X26384904Y-59858319D01*
X26341667Y-59818372D01*
X26387625Y-59782032D01*
X26433583Y-59745693D01*
X26488969Y-59772601D01*
X26553056Y-59794405D01*
X26609632Y-59795058D01*
X26655920Y-59775025D01*
X26689230Y-59734815D01*
X26701171Y-59710722D01*
X26707837Y-59690130D01*
X26703980Y-59676220D01*
X26686675Y-59667681D01*
X26652997Y-59663204D01*
X26600021Y-59661478D01*
X26524822Y-59661193D01*
X26342495Y-59661193D01*
X26342495Y-59573992D01*
X26343857Y-59535710D01*
X26472234Y-59535710D01*
X26478399Y-59542751D01*
X26496654Y-59546416D01*
X26531352Y-59547806D01*
X26586846Y-59548025D01*
X26616603Y-59547676D01*
X26663562Y-59545367D01*
X26695416Y-59541322D01*
X26707148Y-59536042D01*
X26704146Y-59516562D01*
X26682988Y-59479286D01*
X26647731Y-59448664D01*
X26605699Y-59430168D01*
X26564220Y-59429273D01*
X26532997Y-59444104D01*
X26497618Y-59477855D01*
X26475122Y-59519733D01*
X26473805Y-59524190D01*
X26472234Y-59535710D01*
X26343857Y-59535710D01*
X26344136Y-59527871D01*
X26348955Y-59482240D01*
X26355840Y-59451393D01*
X26360859Y-59439617D01*
X26397390Y-59387167D01*
X26450175Y-59343421D01*
X26511904Y-59314779D01*
X26544102Y-59306957D01*
X26620820Y-59303396D01*
X26689179Y-59321509D01*
X26747299Y-59359279D01*
X26793302Y-59414691D01*
X26825310Y-59485729D01*
X26834900Y-59536042D01*
X26841444Y-59570378D01*
G37*
X29320874Y-59308707D02*
X29393495Y-59326908D01*
X29446546Y-59360644D01*
X29480329Y-59410142D01*
X29495147Y-59475626D01*
X29492147Y-59538320D01*
X29470493Y-59591199D01*
X29428967Y-59630296D01*
X29366736Y-59656373D01*
X29282969Y-59670195D01*
X29228540Y-59677440D01*
X29178860Y-59693115D01*
X29153211Y-59715814D01*
X29151662Y-59745498D01*
X29161984Y-59764007D01*
X29193951Y-59785943D01*
X29239395Y-59796318D01*
X29292649Y-59794899D01*
X29348048Y-59781452D01*
X29399928Y-59755743D01*
X29451653Y-59721513D01*
X29497148Y-59767549D01*
X29542643Y-59813584D01*
X29504921Y-59844376D01*
X29490253Y-59855074D01*
X29448983Y-59879380D01*
X29404327Y-59900325D01*
X29368984Y-59912345D01*
X29317234Y-59921052D01*
X29253435Y-59921167D01*
X29175200Y-59911581D01*
X29104722Y-59887283D01*
X29054836Y-59848688D01*
X29025423Y-59795698D01*
X29016365Y-59728218D01*
X29022921Y-59668854D01*
X29043970Y-59620252D01*
X29081864Y-59585446D01*
X29139004Y-59562298D01*
X29217785Y-59548670D01*
X29226834Y-59547683D01*
X29275885Y-59541392D01*
X29315675Y-59534809D01*
X29338312Y-59529208D01*
X29345866Y-59524697D01*
X29358637Y-59501441D01*
X29356563Y-59471671D01*
X29339495Y-59445827D01*
X29330533Y-59440191D01*
X29293188Y-59431160D01*
X29244950Y-59431767D01*
X29194650Y-59441378D01*
X29151115Y-59459358D01*
X29105372Y-59486347D01*
X29069890Y-59444884D01*
X29061280Y-59434350D01*
X29041883Y-59406132D01*
X29033897Y-59387008D01*
X29042283Y-59375281D01*
X29068226Y-59356976D01*
X29105688Y-59337277D01*
X29110966Y-59334870D01*
X29160366Y-59315982D01*
X29207983Y-59306952D01*
X29267072Y-59305139D01*
X29320874Y-59308707D01*
G36*
X29320874Y-59308707D02*
G01*
X29393495Y-59326908D01*
X29446546Y-59360644D01*
X29480329Y-59410142D01*
X29495147Y-59475626D01*
X29492147Y-59538320D01*
X29470493Y-59591199D01*
X29428967Y-59630296D01*
X29366736Y-59656373D01*
X29282969Y-59670195D01*
X29228540Y-59677440D01*
X29178860Y-59693115D01*
X29153211Y-59715814D01*
X29151662Y-59745498D01*
X29161984Y-59764007D01*
X29193951Y-59785943D01*
X29239395Y-59796318D01*
X29292649Y-59794899D01*
X29348048Y-59781452D01*
X29399928Y-59755743D01*
X29451653Y-59721513D01*
X29497148Y-59767549D01*
X29542643Y-59813584D01*
X29504921Y-59844376D01*
X29490253Y-59855074D01*
X29448983Y-59879380D01*
X29404327Y-59900325D01*
X29368984Y-59912345D01*
X29317234Y-59921052D01*
X29253435Y-59921167D01*
X29175200Y-59911581D01*
X29104722Y-59887283D01*
X29054836Y-59848688D01*
X29025423Y-59795698D01*
X29016365Y-59728218D01*
X29022921Y-59668854D01*
X29043970Y-59620252D01*
X29081864Y-59585446D01*
X29139004Y-59562298D01*
X29217785Y-59548670D01*
X29226834Y-59547683D01*
X29275885Y-59541392D01*
X29315675Y-59534809D01*
X29338312Y-59529208D01*
X29345866Y-59524697D01*
X29358637Y-59501441D01*
X29356563Y-59471671D01*
X29339495Y-59445827D01*
X29330533Y-59440191D01*
X29293188Y-59431160D01*
X29244950Y-59431767D01*
X29194650Y-59441378D01*
X29151115Y-59459358D01*
X29105372Y-59486347D01*
X29069890Y-59444884D01*
X29061280Y-59434350D01*
X29041883Y-59406132D01*
X29033897Y-59387008D01*
X29042283Y-59375281D01*
X29068226Y-59356976D01*
X29105688Y-59337277D01*
X29110966Y-59334870D01*
X29160366Y-59315982D01*
X29207983Y-59306952D01*
X29267072Y-59305139D01*
X29320874Y-59308707D01*
G37*
X27486353Y-60560253D02*
X27484718Y-60607192D01*
X27469827Y-60696959D01*
X27439185Y-60767545D01*
X27392524Y-60819452D01*
X27329574Y-60853186D01*
X27309235Y-60859147D01*
X27236612Y-60867471D01*
X27159928Y-60860446D01*
X27090663Y-60838765D01*
X27066262Y-60826459D01*
X27031275Y-60805379D01*
X27010072Y-60788034D01*
X27006942Y-60784071D01*
X27001085Y-60769577D01*
X27009524Y-60753821D01*
X27035221Y-60729960D01*
X27047622Y-60719572D01*
X27072052Y-60700563D01*
X27084861Y-60692793D01*
X27088530Y-60693594D01*
X27109561Y-60702245D01*
X27140960Y-60717431D01*
X27151197Y-60722426D01*
X27211590Y-60740975D01*
X27264057Y-60736194D01*
X27310065Y-60708000D01*
X27315419Y-60702791D01*
X27341013Y-60670159D01*
X27355637Y-60638842D01*
X27363736Y-60604263D01*
X26983782Y-60604263D01*
X26983852Y-60538248D01*
X26983892Y-60531682D01*
X26989022Y-60478718D01*
X27122099Y-60478718D01*
X27123670Y-60489703D01*
X27131738Y-60497273D01*
X27150967Y-60501475D01*
X27186019Y-60503283D01*
X27241554Y-60503669D01*
X27272429Y-60503268D01*
X27318002Y-60500929D01*
X27349348Y-60496965D01*
X27361010Y-60491913D01*
X27351064Y-60450327D01*
X27321947Y-60411513D01*
X27279952Y-60384586D01*
X27231440Y-60375272D01*
X27195723Y-60385772D01*
X27160020Y-60411440D01*
X27132879Y-60444881D01*
X27122099Y-60478718D01*
X26989022Y-60478718D01*
X26991758Y-60450465D01*
X27014655Y-60384395D01*
X27054607Y-60327440D01*
X27078979Y-60303348D01*
X27129315Y-60271097D01*
X27189419Y-60255470D01*
X27265338Y-60254371D01*
X27302010Y-60258679D01*
X27369703Y-60281049D01*
X27421530Y-60321763D01*
X27457945Y-60381449D01*
X27479401Y-60460736D01*
X27481579Y-60491913D01*
X27486353Y-60560253D01*
G36*
X27486353Y-60560253D02*
G01*
X27484718Y-60607192D01*
X27469827Y-60696959D01*
X27439185Y-60767545D01*
X27392524Y-60819452D01*
X27329574Y-60853186D01*
X27309235Y-60859147D01*
X27236612Y-60867471D01*
X27159928Y-60860446D01*
X27090663Y-60838765D01*
X27066262Y-60826459D01*
X27031275Y-60805379D01*
X27010072Y-60788034D01*
X27006942Y-60784071D01*
X27001085Y-60769577D01*
X27009524Y-60753821D01*
X27035221Y-60729960D01*
X27047622Y-60719572D01*
X27072052Y-60700563D01*
X27084861Y-60692793D01*
X27088530Y-60693594D01*
X27109561Y-60702245D01*
X27140960Y-60717431D01*
X27151197Y-60722426D01*
X27211590Y-60740975D01*
X27264057Y-60736194D01*
X27310065Y-60708000D01*
X27315419Y-60702791D01*
X27341013Y-60670159D01*
X27355637Y-60638842D01*
X27363736Y-60604263D01*
X26983782Y-60604263D01*
X26983852Y-60538248D01*
X26983892Y-60531682D01*
X26989022Y-60478718D01*
X27122099Y-60478718D01*
X27123670Y-60489703D01*
X27131738Y-60497273D01*
X27150967Y-60501475D01*
X27186019Y-60503283D01*
X27241554Y-60503669D01*
X27272429Y-60503268D01*
X27318002Y-60500929D01*
X27349348Y-60496965D01*
X27361010Y-60491913D01*
X27351064Y-60450327D01*
X27321947Y-60411513D01*
X27279952Y-60384586D01*
X27231440Y-60375272D01*
X27195723Y-60385772D01*
X27160020Y-60411440D01*
X27132879Y-60444881D01*
X27122099Y-60478718D01*
X26989022Y-60478718D01*
X26991758Y-60450465D01*
X27014655Y-60384395D01*
X27054607Y-60327440D01*
X27078979Y-60303348D01*
X27129315Y-60271097D01*
X27189419Y-60255470D01*
X27265338Y-60254371D01*
X27302010Y-60258679D01*
X27369703Y-60281049D01*
X27421530Y-60321763D01*
X27457945Y-60381449D01*
X27479401Y-60460736D01*
X27481579Y-60491913D01*
X27486353Y-60560253D01*
G37*
X30929022Y-59535361D02*
X30933421Y-59623436D01*
X30932322Y-59661871D01*
X30919926Y-59745867D01*
X30892608Y-59812095D01*
X30848941Y-59863284D01*
X30787495Y-59902163D01*
X30727888Y-59920312D01*
X30653110Y-59923784D01*
X30577664Y-59910430D01*
X30510366Y-59880925D01*
X30485428Y-59864512D01*
X30457951Y-59843473D01*
X30445414Y-59829629D01*
X30446124Y-59823917D01*
X30460158Y-59804455D01*
X30486533Y-59780876D01*
X30532240Y-59746013D01*
X30585799Y-59772762D01*
X30600282Y-59779382D01*
X30642916Y-59793773D01*
X30678649Y-59799510D01*
X30704998Y-59794782D01*
X30746347Y-59772014D01*
X30781104Y-59736670D01*
X30800983Y-59695773D01*
X30809083Y-59661193D01*
X30429129Y-59661193D01*
X30429199Y-59595179D01*
X30429774Y-59574257D01*
X30433972Y-59529362D01*
X30567445Y-59529362D01*
X30567690Y-59531934D01*
X30574604Y-59539943D01*
X30594141Y-59544864D01*
X30630467Y-59547343D01*
X30687748Y-59548025D01*
X30706575Y-59548017D01*
X30755470Y-59547565D01*
X30784863Y-59545613D01*
X30799115Y-59541058D01*
X30802582Y-59532799D01*
X30799625Y-59519733D01*
X30799173Y-59518252D01*
X30773699Y-59472785D01*
X30733539Y-59441481D01*
X30685651Y-59429827D01*
X30667949Y-59430759D01*
X30635094Y-59441908D01*
X30603575Y-59470263D01*
X30595085Y-59480289D01*
X30575336Y-59508923D01*
X30567445Y-59529362D01*
X30433972Y-59529362D01*
X30434512Y-59523591D01*
X30442459Y-59481666D01*
X30451168Y-59458196D01*
X30481790Y-59407146D01*
X30522799Y-59360783D01*
X30566168Y-59329014D01*
X30578699Y-59323114D01*
X30651661Y-59303546D01*
X30726168Y-59305609D01*
X30796217Y-59328431D01*
X30855807Y-59371139D01*
X30888038Y-59410525D01*
X30914392Y-59466010D01*
X30928482Y-59532799D01*
X30929022Y-59535361D01*
G36*
X30929022Y-59535361D02*
G01*
X30933421Y-59623436D01*
X30932322Y-59661871D01*
X30919926Y-59745867D01*
X30892608Y-59812095D01*
X30848941Y-59863284D01*
X30787495Y-59902163D01*
X30727888Y-59920312D01*
X30653110Y-59923784D01*
X30577664Y-59910430D01*
X30510366Y-59880925D01*
X30485428Y-59864512D01*
X30457951Y-59843473D01*
X30445414Y-59829629D01*
X30446124Y-59823917D01*
X30460158Y-59804455D01*
X30486533Y-59780876D01*
X30532240Y-59746013D01*
X30585799Y-59772762D01*
X30600282Y-59779382D01*
X30642916Y-59793773D01*
X30678649Y-59799510D01*
X30704998Y-59794782D01*
X30746347Y-59772014D01*
X30781104Y-59736670D01*
X30800983Y-59695773D01*
X30809083Y-59661193D01*
X30429129Y-59661193D01*
X30429199Y-59595179D01*
X30429774Y-59574257D01*
X30433972Y-59529362D01*
X30567445Y-59529362D01*
X30567690Y-59531934D01*
X30574604Y-59539943D01*
X30594141Y-59544864D01*
X30630467Y-59547343D01*
X30687748Y-59548025D01*
X30706575Y-59548017D01*
X30755470Y-59547565D01*
X30784863Y-59545613D01*
X30799115Y-59541058D01*
X30802582Y-59532799D01*
X30799625Y-59519733D01*
X30799173Y-59518252D01*
X30773699Y-59472785D01*
X30733539Y-59441481D01*
X30685651Y-59429827D01*
X30667949Y-59430759D01*
X30635094Y-59441908D01*
X30603575Y-59470263D01*
X30595085Y-59480289D01*
X30575336Y-59508923D01*
X30567445Y-59529362D01*
X30433972Y-59529362D01*
X30434512Y-59523591D01*
X30442459Y-59481666D01*
X30451168Y-59458196D01*
X30481790Y-59407146D01*
X30522799Y-59360783D01*
X30566168Y-59329014D01*
X30578699Y-59323114D01*
X30651661Y-59303546D01*
X30726168Y-59305609D01*
X30796217Y-59328431D01*
X30855807Y-59371139D01*
X30888038Y-59410525D01*
X30914392Y-59466010D01*
X30928482Y-59532799D01*
X30929022Y-59535361D01*
G37*
X28511413Y-60702833D02*
X28496244Y-60759919D01*
X28463277Y-60808755D01*
X28413270Y-60843886D01*
X28408362Y-60846021D01*
X28353646Y-60861403D01*
X28291993Y-60867399D01*
X28233376Y-60863733D01*
X28187767Y-60850129D01*
X28169549Y-60841254D01*
X28156179Y-60839137D01*
X28153188Y-60850206D01*
X28147524Y-60860442D01*
X28125607Y-60866538D01*
X28083068Y-60868322D01*
X28012948Y-60868322D01*
X28016680Y-60648273D01*
X28153188Y-60648273D01*
X28157924Y-60681166D01*
X28178336Y-60717431D01*
X28185871Y-60724097D01*
X28216753Y-60738120D01*
X28263213Y-60741728D01*
X28291090Y-60740319D01*
X28343255Y-60729704D01*
X28375587Y-60709925D01*
X28386492Y-60682324D01*
X28374374Y-60648243D01*
X28367304Y-60639324D01*
X28335724Y-60619318D01*
X28285744Y-60607895D01*
X28214487Y-60604263D01*
X28153188Y-60604263D01*
X28153188Y-60648273D01*
X28016680Y-60648273D01*
X28017053Y-60626268D01*
X28018169Y-60570294D01*
X28021106Y-60486496D01*
X28026058Y-60422420D01*
X28034002Y-60374573D01*
X28045917Y-60339462D01*
X28062780Y-60313593D01*
X28085572Y-60293474D01*
X28115269Y-60275610D01*
X28130589Y-60268790D01*
X28183589Y-60255917D01*
X28247513Y-60250595D01*
X28313602Y-60252727D01*
X28373099Y-60262214D01*
X28417247Y-60278961D01*
X28432604Y-60288685D01*
X28467960Y-60317505D01*
X28479926Y-60341637D01*
X28477020Y-60346300D01*
X28458909Y-60362588D01*
X28429672Y-60384317D01*
X28414725Y-60394487D01*
X28389270Y-60408897D01*
X28372728Y-60410273D01*
X28357370Y-60400327D01*
X28319094Y-60380184D01*
X28267590Y-60371900D01*
X28214957Y-60378242D01*
X28213961Y-60378530D01*
X28176838Y-60394658D01*
X28158463Y-60419905D01*
X28153380Y-60461658D01*
X28153188Y-60501379D01*
X28284423Y-60505668D01*
X28305331Y-60506373D01*
X28358043Y-60508826D01*
X28393381Y-60512680D01*
X28417267Y-60519378D01*
X28435624Y-60530364D01*
X28454376Y-60547080D01*
X28485337Y-60585744D01*
X28508029Y-60642956D01*
X28510254Y-60682324D01*
X28511413Y-60702833D01*
G36*
X28511413Y-60702833D02*
G01*
X28496244Y-60759919D01*
X28463277Y-60808755D01*
X28413270Y-60843886D01*
X28408362Y-60846021D01*
X28353646Y-60861403D01*
X28291993Y-60867399D01*
X28233376Y-60863733D01*
X28187767Y-60850129D01*
X28169549Y-60841254D01*
X28156179Y-60839137D01*
X28153188Y-60850206D01*
X28147524Y-60860442D01*
X28125607Y-60866538D01*
X28083068Y-60868322D01*
X28012948Y-60868322D01*
X28016680Y-60648273D01*
X28153188Y-60648273D01*
X28157924Y-60681166D01*
X28178336Y-60717431D01*
X28185871Y-60724097D01*
X28216753Y-60738120D01*
X28263213Y-60741728D01*
X28291090Y-60740319D01*
X28343255Y-60729704D01*
X28375587Y-60709925D01*
X28386492Y-60682324D01*
X28374374Y-60648243D01*
X28367304Y-60639324D01*
X28335724Y-60619318D01*
X28285744Y-60607895D01*
X28214487Y-60604263D01*
X28153188Y-60604263D01*
X28153188Y-60648273D01*
X28016680Y-60648273D01*
X28017053Y-60626268D01*
X28018169Y-60570294D01*
X28021106Y-60486496D01*
X28026058Y-60422420D01*
X28034002Y-60374573D01*
X28045917Y-60339462D01*
X28062780Y-60313593D01*
X28085572Y-60293474D01*
X28115269Y-60275610D01*
X28130589Y-60268790D01*
X28183589Y-60255917D01*
X28247513Y-60250595D01*
X28313602Y-60252727D01*
X28373099Y-60262214D01*
X28417247Y-60278961D01*
X28432604Y-60288685D01*
X28467960Y-60317505D01*
X28479926Y-60341637D01*
X28477020Y-60346300D01*
X28458909Y-60362588D01*
X28429672Y-60384317D01*
X28414725Y-60394487D01*
X28389270Y-60408897D01*
X28372728Y-60410273D01*
X28357370Y-60400327D01*
X28319094Y-60380184D01*
X28267590Y-60371900D01*
X28214957Y-60378242D01*
X28213961Y-60378530D01*
X28176838Y-60394658D01*
X28158463Y-60419905D01*
X28153380Y-60461658D01*
X28153188Y-60501379D01*
X28284423Y-60505668D01*
X28305331Y-60506373D01*
X28358043Y-60508826D01*
X28393381Y-60512680D01*
X28417267Y-60519378D01*
X28435624Y-60530364D01*
X28454376Y-60547080D01*
X28485337Y-60585744D01*
X28508029Y-60642956D01*
X28510254Y-60682324D01*
X28511413Y-60702833D01*
G37*
X30929299Y-60700723D02*
X30929157Y-60702382D01*
X30913835Y-60766979D01*
X30879753Y-60815563D01*
X30825218Y-60850572D01*
X30797036Y-60859089D01*
X30748764Y-60865728D01*
X30695978Y-60867313D01*
X30648353Y-60863660D01*
X30615566Y-60854583D01*
X30595652Y-60847313D01*
X30576155Y-60854583D01*
X30569023Y-60858795D01*
X30540557Y-60865626D01*
X30502059Y-60868322D01*
X30441703Y-60868322D01*
X30441703Y-60652611D01*
X30580020Y-60652611D01*
X30584668Y-60689404D01*
X30603015Y-60721769D01*
X30613514Y-60728774D01*
X30650988Y-60739691D01*
X30697773Y-60742417D01*
X30743652Y-60736879D01*
X30778410Y-60723005D01*
X30795726Y-60704661D01*
X30806356Y-60672066D01*
X30796929Y-60646229D01*
X30765764Y-60623763D01*
X30715667Y-60609350D01*
X30649582Y-60604263D01*
X30580020Y-60604263D01*
X30580020Y-60652611D01*
X30441703Y-60652611D01*
X30441703Y-60624984D01*
X30441707Y-60603940D01*
X30441937Y-60524622D01*
X30442797Y-60465654D01*
X30444679Y-60423116D01*
X30447974Y-60393092D01*
X30453073Y-60371663D01*
X30460366Y-60354911D01*
X30470246Y-60338919D01*
X30502023Y-60301448D01*
X30547055Y-60272839D01*
X30606210Y-60257055D01*
X30684161Y-60252203D01*
X30686695Y-60252208D01*
X30740880Y-60254655D01*
X30789380Y-60260756D01*
X30822478Y-60269309D01*
X30831552Y-60273596D01*
X30860433Y-60291748D01*
X30886568Y-60313322D01*
X30903764Y-60332736D01*
X30905825Y-60344409D01*
X30901803Y-60347563D01*
X30857976Y-60381239D01*
X30828671Y-60401100D01*
X30809294Y-60409113D01*
X30795253Y-60407246D01*
X30781957Y-60397465D01*
X30757418Y-60385256D01*
X30716064Y-60377115D01*
X30669326Y-60375003D01*
X30627034Y-60379300D01*
X30599017Y-60390387D01*
X30597543Y-60391736D01*
X30584953Y-60417081D01*
X30580020Y-60454911D01*
X30580020Y-60503669D01*
X30696331Y-60503716D01*
X30749760Y-60504561D01*
X30794735Y-60508240D01*
X30826907Y-60515809D01*
X30852899Y-60528308D01*
X30858948Y-60532147D01*
X30902710Y-60574345D01*
X30925987Y-60630147D01*
X30927955Y-60672066D01*
X30929299Y-60700723D01*
G36*
X30929299Y-60700723D02*
G01*
X30929157Y-60702382D01*
X30913835Y-60766979D01*
X30879753Y-60815563D01*
X30825218Y-60850572D01*
X30797036Y-60859089D01*
X30748764Y-60865728D01*
X30695978Y-60867313D01*
X30648353Y-60863660D01*
X30615566Y-60854583D01*
X30595652Y-60847313D01*
X30576155Y-60854583D01*
X30569023Y-60858795D01*
X30540557Y-60865626D01*
X30502059Y-60868322D01*
X30441703Y-60868322D01*
X30441703Y-60652611D01*
X30580020Y-60652611D01*
X30584668Y-60689404D01*
X30603015Y-60721769D01*
X30613514Y-60728774D01*
X30650988Y-60739691D01*
X30697773Y-60742417D01*
X30743652Y-60736879D01*
X30778410Y-60723005D01*
X30795726Y-60704661D01*
X30806356Y-60672066D01*
X30796929Y-60646229D01*
X30765764Y-60623763D01*
X30715667Y-60609350D01*
X30649582Y-60604263D01*
X30580020Y-60604263D01*
X30580020Y-60652611D01*
X30441703Y-60652611D01*
X30441703Y-60624984D01*
X30441707Y-60603940D01*
X30441937Y-60524622D01*
X30442797Y-60465654D01*
X30444679Y-60423116D01*
X30447974Y-60393092D01*
X30453073Y-60371663D01*
X30460366Y-60354911D01*
X30470246Y-60338919D01*
X30502023Y-60301448D01*
X30547055Y-60272839D01*
X30606210Y-60257055D01*
X30684161Y-60252203D01*
X30686695Y-60252208D01*
X30740880Y-60254655D01*
X30789380Y-60260756D01*
X30822478Y-60269309D01*
X30831552Y-60273596D01*
X30860433Y-60291748D01*
X30886568Y-60313322D01*
X30903764Y-60332736D01*
X30905825Y-60344409D01*
X30901803Y-60347563D01*
X30857976Y-60381239D01*
X30828671Y-60401100D01*
X30809294Y-60409113D01*
X30795253Y-60407246D01*
X30781957Y-60397465D01*
X30757418Y-60385256D01*
X30716064Y-60377115D01*
X30669326Y-60375003D01*
X30627034Y-60379300D01*
X30599017Y-60390387D01*
X30597543Y-60391736D01*
X30584953Y-60417081D01*
X30580020Y-60454911D01*
X30580020Y-60503669D01*
X30696331Y-60503716D01*
X30749760Y-60504561D01*
X30794735Y-60508240D01*
X30826907Y-60515809D01*
X30852899Y-60528308D01*
X30858948Y-60532147D01*
X30902710Y-60574345D01*
X30925987Y-60630147D01*
X30927955Y-60672066D01*
X30929299Y-60700723D01*
G37*
X31497940Y-60869636D02*
X31431926Y-60865836D01*
X31365911Y-60862035D01*
X31362772Y-60660847D01*
X31361844Y-60611925D01*
X31359208Y-60538426D01*
X31354683Y-60484491D01*
X31347438Y-60446495D01*
X31336642Y-60420813D01*
X31321462Y-60403820D01*
X31301066Y-60391889D01*
X31262797Y-60379705D01*
X31224738Y-60384440D01*
X31184549Y-60410479D01*
X31145861Y-60443033D01*
X31145861Y-60868322D01*
X31007544Y-60868322D01*
X31007544Y-60637676D01*
X31007677Y-60565382D01*
X31008413Y-60501141D01*
X31010181Y-60454118D01*
X31013411Y-60420048D01*
X31018530Y-60394670D01*
X31025967Y-60373721D01*
X31036150Y-60352936D01*
X31038564Y-60348524D01*
X31070675Y-60305547D01*
X31108256Y-60275513D01*
X31153564Y-60259743D01*
X31213561Y-60252722D01*
X31273643Y-60256525D01*
X31322525Y-60271368D01*
X31359624Y-60290552D01*
X31359624Y-59875359D01*
X31308792Y-59901854D01*
X31287558Y-59911480D01*
X31220536Y-59925092D01*
X31153930Y-59915684D01*
X31092187Y-59884405D01*
X31039757Y-59832402D01*
X31031543Y-59820180D01*
X31023649Y-59802263D01*
X31018500Y-59777904D01*
X31015527Y-59742427D01*
X31014161Y-59691156D01*
X31013915Y-59637736D01*
X31146749Y-59637736D01*
X31146861Y-59682349D01*
X31150272Y-59712101D01*
X31157937Y-59733335D01*
X31170814Y-59752396D01*
X31187171Y-59770117D01*
X31213329Y-59783528D01*
X31252742Y-59786936D01*
X31287559Y-59783971D01*
X31322020Y-59769131D01*
X31344215Y-59739069D01*
X31356097Y-59690754D01*
X31359624Y-59621150D01*
X31358712Y-59584124D01*
X31349609Y-59514228D01*
X31330828Y-59466964D01*
X31302476Y-59442668D01*
X31273840Y-59435832D01*
X31223970Y-59439037D01*
X31181833Y-59458880D01*
X31171749Y-59467980D01*
X31161063Y-59483723D01*
X31154456Y-59507158D01*
X31150532Y-59544104D01*
X31147897Y-59600380D01*
X31146749Y-59637736D01*
X31013915Y-59637736D01*
X31013831Y-59619417D01*
X31013944Y-59586684D01*
X31015872Y-59510544D01*
X31021240Y-59453666D01*
X31031406Y-59411749D01*
X31047725Y-59380496D01*
X31071553Y-59355606D01*
X31104247Y-59332782D01*
X31130759Y-59319684D01*
X31193615Y-59305239D01*
X31259869Y-59307207D01*
X31318757Y-59325933D01*
X31344030Y-59338173D01*
X31356742Y-59339438D01*
X31359624Y-59328298D01*
X31359626Y-59327961D01*
X31365838Y-59316587D01*
X31387260Y-59310756D01*
X31428782Y-59309114D01*
X31497940Y-59309114D01*
X31497940Y-59621150D01*
X31497940Y-60869636D01*
G36*
X31497940Y-60869636D02*
G01*
X31431926Y-60865836D01*
X31365911Y-60862035D01*
X31362772Y-60660847D01*
X31361844Y-60611925D01*
X31359208Y-60538426D01*
X31354683Y-60484491D01*
X31347438Y-60446495D01*
X31336642Y-60420813D01*
X31321462Y-60403820D01*
X31301066Y-60391889D01*
X31262797Y-60379705D01*
X31224738Y-60384440D01*
X31184549Y-60410479D01*
X31145861Y-60443033D01*
X31145861Y-60868322D01*
X31007544Y-60868322D01*
X31007544Y-60637676D01*
X31007677Y-60565382D01*
X31008413Y-60501141D01*
X31010181Y-60454118D01*
X31013411Y-60420048D01*
X31018530Y-60394670D01*
X31025967Y-60373721D01*
X31036150Y-60352936D01*
X31038564Y-60348524D01*
X31070675Y-60305547D01*
X31108256Y-60275513D01*
X31153564Y-60259743D01*
X31213561Y-60252722D01*
X31273643Y-60256525D01*
X31322525Y-60271368D01*
X31359624Y-60290552D01*
X31359624Y-59875359D01*
X31308792Y-59901854D01*
X31287558Y-59911480D01*
X31220536Y-59925092D01*
X31153930Y-59915684D01*
X31092187Y-59884405D01*
X31039757Y-59832402D01*
X31031543Y-59820180D01*
X31023649Y-59802263D01*
X31018500Y-59777904D01*
X31015527Y-59742427D01*
X31014161Y-59691156D01*
X31013915Y-59637736D01*
X31146749Y-59637736D01*
X31146861Y-59682349D01*
X31150272Y-59712101D01*
X31157937Y-59733335D01*
X31170814Y-59752396D01*
X31187171Y-59770117D01*
X31213329Y-59783528D01*
X31252742Y-59786936D01*
X31287559Y-59783971D01*
X31322020Y-59769131D01*
X31344215Y-59739069D01*
X31356097Y-59690754D01*
X31359624Y-59621150D01*
X31358712Y-59584124D01*
X31349609Y-59514228D01*
X31330828Y-59466964D01*
X31302476Y-59442668D01*
X31273840Y-59435832D01*
X31223970Y-59439037D01*
X31181833Y-59458880D01*
X31171749Y-59467980D01*
X31161063Y-59483723D01*
X31154456Y-59507158D01*
X31150532Y-59544104D01*
X31147897Y-59600380D01*
X31146749Y-59637736D01*
X31013915Y-59637736D01*
X31013831Y-59619417D01*
X31013944Y-59586684D01*
X31015872Y-59510544D01*
X31021240Y-59453666D01*
X31031406Y-59411749D01*
X31047725Y-59380496D01*
X31071553Y-59355606D01*
X31104247Y-59332782D01*
X31130759Y-59319684D01*
X31193615Y-59305239D01*
X31259869Y-59307207D01*
X31318757Y-59325933D01*
X31344030Y-59338173D01*
X31356742Y-59339438D01*
X31359624Y-59328298D01*
X31359626Y-59327961D01*
X31365838Y-59316587D01*
X31387260Y-59310756D01*
X31428782Y-59309114D01*
X31497940Y-59309114D01*
X31497940Y-59621150D01*
X31497940Y-60869636D01*
G37*
X29586389Y-55140518D02*
X29643237Y-55442070D01*
X29853001Y-55528541D01*
X30062764Y-55615012D01*
X30314410Y-55443895D01*
X30364216Y-55410161D01*
X30430244Y-55365881D01*
X30487410Y-55328061D01*
X30532744Y-55298642D01*
X30563280Y-55279567D01*
X30576046Y-55272778D01*
X30583887Y-55277606D01*
X30607325Y-55297839D01*
X30642794Y-55331043D01*
X30687289Y-55374170D01*
X30737805Y-55424170D01*
X30791336Y-55477995D01*
X30844877Y-55532595D01*
X30895423Y-55584923D01*
X30939968Y-55631928D01*
X30975507Y-55670563D01*
X30999034Y-55697778D01*
X31007544Y-55710524D01*
X31005565Y-55716000D01*
X30991857Y-55740427D01*
X30966825Y-55780629D01*
X30932499Y-55833452D01*
X30890907Y-55895747D01*
X30844079Y-55964362D01*
X30818380Y-56001783D01*
X30774173Y-56066932D01*
X30736272Y-56123789D01*
X30706698Y-56169270D01*
X30687472Y-56200293D01*
X30680614Y-56213774D01*
X30680726Y-56214521D01*
X30686776Y-56231610D01*
X30700654Y-56266506D01*
X30720427Y-56314651D01*
X30744160Y-56371486D01*
X30769918Y-56432453D01*
X30795766Y-56492992D01*
X30819771Y-56548547D01*
X30839998Y-56594557D01*
X30854511Y-56626465D01*
X30861377Y-56639712D01*
X30865439Y-56640887D01*
X30890121Y-56646187D01*
X30934111Y-56654967D01*
X30993887Y-56666540D01*
X31065929Y-56680221D01*
X31146716Y-56695323D01*
X31189294Y-56703330D01*
X31267445Y-56718607D01*
X31335775Y-56732715D01*
X31390551Y-56744845D01*
X31428037Y-56754186D01*
X31444500Y-56759927D01*
X31447457Y-56765619D01*
X31452362Y-56793430D01*
X31456216Y-56839750D01*
X31459021Y-56900220D01*
X31460781Y-56970483D01*
X31461499Y-57046180D01*
X31461177Y-57122953D01*
X31459819Y-57196444D01*
X31457428Y-57262294D01*
X31454006Y-57316145D01*
X31449556Y-57353638D01*
X31444082Y-57370416D01*
X31440760Y-57372309D01*
X31415987Y-57380426D01*
X31373011Y-57391166D01*
X31316802Y-57403353D01*
X31252325Y-57415810D01*
X31230570Y-57419777D01*
X31130093Y-57438229D01*
X31051126Y-57453059D01*
X30990934Y-57464880D01*
X30946778Y-57474309D01*
X30915920Y-57481960D01*
X30895625Y-57488448D01*
X30883154Y-57494388D01*
X30875771Y-57500394D01*
X30874913Y-57501402D01*
X30862838Y-57522419D01*
X30844971Y-57560876D01*
X30823042Y-57612261D01*
X30798784Y-57672063D01*
X30773927Y-57735770D01*
X30750205Y-57798871D01*
X30729347Y-57856855D01*
X30713087Y-57905209D01*
X30703156Y-57939422D01*
X30701285Y-57954983D01*
X30702536Y-57957002D01*
X30715486Y-57976528D01*
X30739840Y-58012542D01*
X30773340Y-58061728D01*
X30813727Y-58120767D01*
X30858745Y-58186342D01*
X30871100Y-58204384D01*
X30914545Y-58269099D01*
X30952091Y-58326976D01*
X30981594Y-58374582D01*
X31000914Y-58408485D01*
X31007905Y-58425252D01*
X31006398Y-58429661D01*
X30990695Y-58451382D01*
X30959714Y-58486854D01*
X30915673Y-58533688D01*
X30860790Y-58589496D01*
X30797286Y-58651892D01*
X30760988Y-58686817D01*
X30703595Y-58741211D01*
X30653361Y-58787802D01*
X30612984Y-58824136D01*
X30585161Y-58847761D01*
X30572590Y-58856224D01*
X30563952Y-58853087D01*
X30537360Y-58838247D01*
X30498741Y-58813977D01*
X30453134Y-58783352D01*
X30420707Y-58761003D01*
X30355970Y-58716622D01*
X30286886Y-58669487D01*
X30223787Y-58626655D01*
X30100178Y-58543047D01*
X29996417Y-58599150D01*
X29971984Y-58612099D01*
X29927552Y-58634249D01*
X29893191Y-58649541D01*
X29874828Y-58655243D01*
X29868818Y-58647921D01*
X29853895Y-58620041D01*
X29831852Y-58574075D01*
X29803917Y-58512941D01*
X29771317Y-58439555D01*
X29735276Y-58356835D01*
X29697023Y-58267697D01*
X29657783Y-58175059D01*
X29618783Y-58081837D01*
X29581249Y-57990950D01*
X29546409Y-57905314D01*
X29515488Y-57827845D01*
X29489714Y-57761462D01*
X29470311Y-57709082D01*
X29458508Y-57673621D01*
X29455531Y-57657996D01*
X29455732Y-57657539D01*
X29469601Y-57643095D01*
X29498611Y-57620474D01*
X29536772Y-57594364D01*
X29548817Y-57586392D01*
X29640469Y-57510756D01*
X29716323Y-57420669D01*
X29774581Y-57319881D01*
X29813448Y-57212140D01*
X29831128Y-57101197D01*
X29825826Y-56990803D01*
X29804347Y-56892615D01*
X29765782Y-56793466D01*
X29709562Y-56705012D01*
X29632410Y-56620987D01*
X29602095Y-56594145D01*
X29504094Y-56528010D01*
X29398227Y-56483470D01*
X29287561Y-56460125D01*
X29175164Y-56457578D01*
X29064105Y-56475429D01*
X28957451Y-56513280D01*
X28858270Y-56570732D01*
X28769631Y-56647387D01*
X28694600Y-56742845D01*
X28680175Y-56766485D01*
X28631143Y-56874534D01*
X28605103Y-56987048D01*
X28601372Y-57101114D01*
X28619268Y-57213818D01*
X28658109Y-57322245D01*
X28717214Y-57423482D01*
X28795900Y-57514614D01*
X28893485Y-57592728D01*
X28896654Y-57594833D01*
X28934411Y-57621440D01*
X28962709Y-57644061D01*
X28975634Y-57657996D01*
X28974003Y-57668921D01*
X28963864Y-57700731D01*
X28945884Y-57750034D01*
X28921292Y-57813913D01*
X28891311Y-57889448D01*
X28857170Y-57973723D01*
X28820092Y-58063820D01*
X28781306Y-58156821D01*
X28742036Y-58249808D01*
X28703509Y-58339864D01*
X28666950Y-58424071D01*
X28633586Y-58499510D01*
X28604643Y-58563265D01*
X28581346Y-58612417D01*
X28564923Y-58644049D01*
X28556598Y-58655243D01*
X28549674Y-58653727D01*
X28522477Y-58642831D01*
X28482280Y-58623728D01*
X28435009Y-58599150D01*
X28331248Y-58543047D01*
X28207639Y-58626655D01*
X28171120Y-58651413D01*
X28103194Y-58697671D01*
X28035475Y-58744003D01*
X27978291Y-58783352D01*
X27946732Y-58804797D01*
X27905714Y-58831439D01*
X27875301Y-58849678D01*
X27860446Y-58856441D01*
X27854065Y-58853570D01*
X27830996Y-58835985D01*
X27795433Y-58805023D01*
X27750471Y-58763731D01*
X27699206Y-58715153D01*
X27644733Y-58662335D01*
X27590148Y-58608323D01*
X27538547Y-58556161D01*
X27493024Y-58508896D01*
X27456675Y-58469572D01*
X27432595Y-58441236D01*
X27423881Y-58426932D01*
X27424383Y-58424211D01*
X27434755Y-58402060D01*
X27456912Y-58363735D01*
X27488712Y-58312700D01*
X27528016Y-58252414D01*
X27572681Y-58186342D01*
X27585207Y-58168117D01*
X27629193Y-58103985D01*
X27667937Y-58047289D01*
X27699182Y-58001344D01*
X27720669Y-57969470D01*
X27730140Y-57954983D01*
X27730373Y-57954362D01*
X27727578Y-57936639D01*
X27716903Y-57900735D01*
X27700081Y-57851162D01*
X27678843Y-57792432D01*
X27654921Y-57729056D01*
X27630046Y-57665546D01*
X27605950Y-57606413D01*
X27584365Y-57556169D01*
X27567023Y-57519326D01*
X27555655Y-57500394D01*
X27554516Y-57499219D01*
X27546376Y-57493273D01*
X27532629Y-57487276D01*
X27510537Y-57480614D01*
X27477363Y-57472673D01*
X27430370Y-57462837D01*
X27366820Y-57450491D01*
X27283976Y-57435020D01*
X27179100Y-57415810D01*
X27157348Y-57411767D01*
X27095036Y-57399269D01*
X27042619Y-57387427D01*
X27005066Y-57377417D01*
X26987343Y-57370416D01*
X26984378Y-57364575D01*
X26979435Y-57336516D01*
X26975518Y-57290000D01*
X26972629Y-57229386D01*
X26970773Y-57159032D01*
X26969952Y-57083296D01*
X26970168Y-57006537D01*
X26971426Y-56933112D01*
X26973728Y-56867380D01*
X26977076Y-56813700D01*
X26981474Y-56776430D01*
X26986926Y-56759927D01*
X26992491Y-56757489D01*
X27020178Y-56749805D01*
X27066979Y-56738936D01*
X27129157Y-56725692D01*
X27202979Y-56710884D01*
X27284710Y-56695323D01*
X27329336Y-56687009D01*
X27405824Y-56672592D01*
X27471660Y-56659967D01*
X27523323Y-56649821D01*
X27557293Y-56642841D01*
X27570048Y-56639712D01*
X27570528Y-56639068D01*
X27578651Y-56622681D01*
X27594137Y-56588352D01*
X27615050Y-56540636D01*
X27639455Y-56484086D01*
X27665416Y-56423258D01*
X27690997Y-56362706D01*
X27714262Y-56306985D01*
X27733277Y-56260650D01*
X27746105Y-56228255D01*
X27750812Y-56214355D01*
X27748736Y-56209465D01*
X27734920Y-56186192D01*
X27709860Y-56147019D01*
X27675568Y-56095020D01*
X27634059Y-56033268D01*
X27587346Y-55964836D01*
X27561718Y-55927360D01*
X27517490Y-55861656D01*
X27479570Y-55803992D01*
X27449980Y-55757514D01*
X27430743Y-55725365D01*
X27423881Y-55710690D01*
X27428649Y-55702730D01*
X27448593Y-55678946D01*
X27481313Y-55642951D01*
X27523805Y-55597795D01*
X27573065Y-55546528D01*
X27626091Y-55492201D01*
X27679877Y-55437864D01*
X27731421Y-55386567D01*
X27777720Y-55341359D01*
X27815769Y-55305292D01*
X27842565Y-55281414D01*
X27855105Y-55272778D01*
X27862066Y-55276136D01*
X27887627Y-55291710D01*
X27928874Y-55318215D01*
X27982837Y-55353710D01*
X28046542Y-55396250D01*
X28117016Y-55443895D01*
X28368662Y-55615012D01*
X28788188Y-55442070D01*
X28845036Y-55140518D01*
X28901885Y-54838966D01*
X29529540Y-54838966D01*
X29586389Y-55140518D01*
G36*
X29586389Y-55140518D02*
G01*
X29643237Y-55442070D01*
X29853001Y-55528541D01*
X30062764Y-55615012D01*
X30314410Y-55443895D01*
X30364216Y-55410161D01*
X30430244Y-55365881D01*
X30487410Y-55328061D01*
X30532744Y-55298642D01*
X30563280Y-55279567D01*
X30576046Y-55272778D01*
X30583887Y-55277606D01*
X30607325Y-55297839D01*
X30642794Y-55331043D01*
X30687289Y-55374170D01*
X30737805Y-55424170D01*
X30791336Y-55477995D01*
X30844877Y-55532595D01*
X30895423Y-55584923D01*
X30939968Y-55631928D01*
X30975507Y-55670563D01*
X30999034Y-55697778D01*
X31007544Y-55710524D01*
X31005565Y-55716000D01*
X30991857Y-55740427D01*
X30966825Y-55780629D01*
X30932499Y-55833452D01*
X30890907Y-55895747D01*
X30844079Y-55964362D01*
X30818380Y-56001783D01*
X30774173Y-56066932D01*
X30736272Y-56123789D01*
X30706698Y-56169270D01*
X30687472Y-56200293D01*
X30680614Y-56213774D01*
X30680726Y-56214521D01*
X30686776Y-56231610D01*
X30700654Y-56266506D01*
X30720427Y-56314651D01*
X30744160Y-56371486D01*
X30769918Y-56432453D01*
X30795766Y-56492992D01*
X30819771Y-56548547D01*
X30839998Y-56594557D01*
X30854511Y-56626465D01*
X30861377Y-56639712D01*
X30865439Y-56640887D01*
X30890121Y-56646187D01*
X30934111Y-56654967D01*
X30993887Y-56666540D01*
X31065929Y-56680221D01*
X31146716Y-56695323D01*
X31189294Y-56703330D01*
X31267445Y-56718607D01*
X31335775Y-56732715D01*
X31390551Y-56744845D01*
X31428037Y-56754186D01*
X31444500Y-56759927D01*
X31447457Y-56765619D01*
X31452362Y-56793430D01*
X31456216Y-56839750D01*
X31459021Y-56900220D01*
X31460781Y-56970483D01*
X31461499Y-57046180D01*
X31461177Y-57122953D01*
X31459819Y-57196444D01*
X31457428Y-57262294D01*
X31454006Y-57316145D01*
X31449556Y-57353638D01*
X31444082Y-57370416D01*
X31440760Y-57372309D01*
X31415987Y-57380426D01*
X31373011Y-57391166D01*
X31316802Y-57403353D01*
X31252325Y-57415810D01*
X31230570Y-57419777D01*
X31130093Y-57438229D01*
X31051126Y-57453059D01*
X30990934Y-57464880D01*
X30946778Y-57474309D01*
X30915920Y-57481960D01*
X30895625Y-57488448D01*
X30883154Y-57494388D01*
X30875771Y-57500394D01*
X30874913Y-57501402D01*
X30862838Y-57522419D01*
X30844971Y-57560876D01*
X30823042Y-57612261D01*
X30798784Y-57672063D01*
X30773927Y-57735770D01*
X30750205Y-57798871D01*
X30729347Y-57856855D01*
X30713087Y-57905209D01*
X30703156Y-57939422D01*
X30701285Y-57954983D01*
X30702536Y-57957002D01*
X30715486Y-57976528D01*
X30739840Y-58012542D01*
X30773340Y-58061728D01*
X30813727Y-58120767D01*
X30858745Y-58186342D01*
X30871100Y-58204384D01*
X30914545Y-58269099D01*
X30952091Y-58326976D01*
X30981594Y-58374582D01*
X31000914Y-58408485D01*
X31007905Y-58425252D01*
X31006398Y-58429661D01*
X30990695Y-58451382D01*
X30959714Y-58486854D01*
X30915673Y-58533688D01*
X30860790Y-58589496D01*
X30797286Y-58651892D01*
X30760988Y-58686817D01*
X30703595Y-58741211D01*
X30653361Y-58787802D01*
X30612984Y-58824136D01*
X30585161Y-58847761D01*
X30572590Y-58856224D01*
X30563952Y-58853087D01*
X30537360Y-58838247D01*
X30498741Y-58813977D01*
X30453134Y-58783352D01*
X30420707Y-58761003D01*
X30355970Y-58716622D01*
X30286886Y-58669487D01*
X30223787Y-58626655D01*
X30100178Y-58543047D01*
X29996417Y-58599150D01*
X29971984Y-58612099D01*
X29927552Y-58634249D01*
X29893191Y-58649541D01*
X29874828Y-58655243D01*
X29868818Y-58647921D01*
X29853895Y-58620041D01*
X29831852Y-58574075D01*
X29803917Y-58512941D01*
X29771317Y-58439555D01*
X29735276Y-58356835D01*
X29697023Y-58267697D01*
X29657783Y-58175059D01*
X29618783Y-58081837D01*
X29581249Y-57990950D01*
X29546409Y-57905314D01*
X29515488Y-57827845D01*
X29489714Y-57761462D01*
X29470311Y-57709082D01*
X29458508Y-57673621D01*
X29455531Y-57657996D01*
X29455732Y-57657539D01*
X29469601Y-57643095D01*
X29498611Y-57620474D01*
X29536772Y-57594364D01*
X29548817Y-57586392D01*
X29640469Y-57510756D01*
X29716323Y-57420669D01*
X29774581Y-57319881D01*
X29813448Y-57212140D01*
X29831128Y-57101197D01*
X29825826Y-56990803D01*
X29804347Y-56892615D01*
X29765782Y-56793466D01*
X29709562Y-56705012D01*
X29632410Y-56620987D01*
X29602095Y-56594145D01*
X29504094Y-56528010D01*
X29398227Y-56483470D01*
X29287561Y-56460125D01*
X29175164Y-56457578D01*
X29064105Y-56475429D01*
X28957451Y-56513280D01*
X28858270Y-56570732D01*
X28769631Y-56647387D01*
X28694600Y-56742845D01*
X28680175Y-56766485D01*
X28631143Y-56874534D01*
X28605103Y-56987048D01*
X28601372Y-57101114D01*
X28619268Y-57213818D01*
X28658109Y-57322245D01*
X28717214Y-57423482D01*
X28795900Y-57514614D01*
X28893485Y-57592728D01*
X28896654Y-57594833D01*
X28934411Y-57621440D01*
X28962709Y-57644061D01*
X28975634Y-57657996D01*
X28974003Y-57668921D01*
X28963864Y-57700731D01*
X28945884Y-57750034D01*
X28921292Y-57813913D01*
X28891311Y-57889448D01*
X28857170Y-57973723D01*
X28820092Y-58063820D01*
X28781306Y-58156821D01*
X28742036Y-58249808D01*
X28703509Y-58339864D01*
X28666950Y-58424071D01*
X28633586Y-58499510D01*
X28604643Y-58563265D01*
X28581346Y-58612417D01*
X28564923Y-58644049D01*
X28556598Y-58655243D01*
X28549674Y-58653727D01*
X28522477Y-58642831D01*
X28482280Y-58623728D01*
X28435009Y-58599150D01*
X28331248Y-58543047D01*
X28207639Y-58626655D01*
X28171120Y-58651413D01*
X28103194Y-58697671D01*
X28035475Y-58744003D01*
X27978291Y-58783352D01*
X27946732Y-58804797D01*
X27905714Y-58831439D01*
X27875301Y-58849678D01*
X27860446Y-58856441D01*
X27854065Y-58853570D01*
X27830996Y-58835985D01*
X27795433Y-58805023D01*
X27750471Y-58763731D01*
X27699206Y-58715153D01*
X27644733Y-58662335D01*
X27590148Y-58608323D01*
X27538547Y-58556161D01*
X27493024Y-58508896D01*
X27456675Y-58469572D01*
X27432595Y-58441236D01*
X27423881Y-58426932D01*
X27424383Y-58424211D01*
X27434755Y-58402060D01*
X27456912Y-58363735D01*
X27488712Y-58312700D01*
X27528016Y-58252414D01*
X27572681Y-58186342D01*
X27585207Y-58168117D01*
X27629193Y-58103985D01*
X27667937Y-58047289D01*
X27699182Y-58001344D01*
X27720669Y-57969470D01*
X27730140Y-57954983D01*
X27730373Y-57954362D01*
X27727578Y-57936639D01*
X27716903Y-57900735D01*
X27700081Y-57851162D01*
X27678843Y-57792432D01*
X27654921Y-57729056D01*
X27630046Y-57665546D01*
X27605950Y-57606413D01*
X27584365Y-57556169D01*
X27567023Y-57519326D01*
X27555655Y-57500394D01*
X27554516Y-57499219D01*
X27546376Y-57493273D01*
X27532629Y-57487276D01*
X27510537Y-57480614D01*
X27477363Y-57472673D01*
X27430370Y-57462837D01*
X27366820Y-57450491D01*
X27283976Y-57435020D01*
X27179100Y-57415810D01*
X27157348Y-57411767D01*
X27095036Y-57399269D01*
X27042619Y-57387427D01*
X27005066Y-57377417D01*
X26987343Y-57370416D01*
X26984378Y-57364575D01*
X26979435Y-57336516D01*
X26975518Y-57290000D01*
X26972629Y-57229386D01*
X26970773Y-57159032D01*
X26969952Y-57083296D01*
X26970168Y-57006537D01*
X26971426Y-56933112D01*
X26973728Y-56867380D01*
X26977076Y-56813700D01*
X26981474Y-56776430D01*
X26986926Y-56759927D01*
X26992491Y-56757489D01*
X27020178Y-56749805D01*
X27066979Y-56738936D01*
X27129157Y-56725692D01*
X27202979Y-56710884D01*
X27284710Y-56695323D01*
X27329336Y-56687009D01*
X27405824Y-56672592D01*
X27471660Y-56659967D01*
X27523323Y-56649821D01*
X27557293Y-56642841D01*
X27570048Y-56639712D01*
X27570528Y-56639068D01*
X27578651Y-56622681D01*
X27594137Y-56588352D01*
X27615050Y-56540636D01*
X27639455Y-56484086D01*
X27665416Y-56423258D01*
X27690997Y-56362706D01*
X27714262Y-56306985D01*
X27733277Y-56260650D01*
X27746105Y-56228255D01*
X27750812Y-56214355D01*
X27748736Y-56209465D01*
X27734920Y-56186192D01*
X27709860Y-56147019D01*
X27675568Y-56095020D01*
X27634059Y-56033268D01*
X27587346Y-55964836D01*
X27561718Y-55927360D01*
X27517490Y-55861656D01*
X27479570Y-55803992D01*
X27449980Y-55757514D01*
X27430743Y-55725365D01*
X27423881Y-55710690D01*
X27428649Y-55702730D01*
X27448593Y-55678946D01*
X27481313Y-55642951D01*
X27523805Y-55597795D01*
X27573065Y-55546528D01*
X27626091Y-55492201D01*
X27679877Y-55437864D01*
X27731421Y-55386567D01*
X27777720Y-55341359D01*
X27815769Y-55305292D01*
X27842565Y-55281414D01*
X27855105Y-55272778D01*
X27862066Y-55276136D01*
X27887627Y-55291710D01*
X27928874Y-55318215D01*
X27982837Y-55353710D01*
X28046542Y-55396250D01*
X28117016Y-55443895D01*
X28368662Y-55615012D01*
X28788188Y-55442070D01*
X28845036Y-55140518D01*
X28901885Y-54838966D01*
X29529540Y-54838966D01*
X29586389Y-55140518D01*
G37*
D12*
%TO.C,D1*%
X30973000Y-47741500D02*
X30973000Y-47141500D01*
X32397000Y-46407500D02*
X32397000Y-48693500D01*
X32397000Y-48693500D02*
X34429000Y-48693500D01*
X33921000Y-46407500D02*
X32397000Y-46407500D01*
X34429000Y-46915500D02*
X33921000Y-46407500D01*
X34429000Y-48693500D02*
X34429000Y-46915500D01*
X34873000Y-45441500D02*
X32073000Y-45441500D01*
X34873000Y-49441500D02*
X32073000Y-49441500D01*
X35973000Y-47741500D02*
X35973000Y-47141500D01*
%TO.C,D3*%
X31790000Y-44882500D02*
X36000000Y-44882500D01*
X36000000Y-41862500D02*
X31790000Y-41862500D01*
X36000000Y-44882500D02*
X36000000Y-41862500D01*
%TO.C,R24*%
X29715500Y-43135242D02*
X29715500Y-43609758D01*
X30760500Y-43135242D02*
X30760500Y-43609758D01*
%TO.C,D2*%
X31790000Y-53010500D02*
X36000000Y-53010500D01*
X36000000Y-49990500D02*
X31790000Y-49990500D01*
X36000000Y-53010500D02*
X36000000Y-49990500D01*
%TD*%
M02*
