%TF.GenerationSoftware,KiCad,Pcbnew,7.99.0-728-gadc213a04d-dirty*%
%TF.CreationDate,2023-05-05T05:39:13+08:00*%
%TF.ProjectId,HeartRateMonitor,48656172-7452-4617-9465-4d6f6e69746f,rev?*%
%TF.SameCoordinates,Original*%
%TF.FileFunction,Copper,L2,Bot*%
%TF.FilePolarity,Positive*%
%FSLAX46Y46*%
G04 Gerber Fmt 4.6, Leading zero omitted, Abs format (unit mm)*
G04 Created by KiCad (PCBNEW 7.99.0-728-gadc213a04d-dirty) date 2023-05-05 05:39:13*
%MOMM*%
%LPD*%
G01*
G04 APERTURE LIST*
G04 Aperture macros list*
%AMRoundRect*
0 Rectangle with rounded corners*
0 $1 Rounding radius*
0 $2 $3 $4 $5 $6 $7 $8 $9 X,Y pos of 4 corners*
0 Add a 4 corners polygon primitive as box body*
4,1,4,$2,$3,$4,$5,$6,$7,$8,$9,$2,$3,0*
0 Add four circle primitives for the rounded corners*
1,1,$1+$1,$2,$3*
1,1,$1+$1,$4,$5*
1,1,$1+$1,$6,$7*
1,1,$1+$1,$8,$9*
0 Add four rect primitives between the rounded corners*
20,1,$1+$1,$2,$3,$4,$5,0*
20,1,$1+$1,$4,$5,$6,$7,0*
20,1,$1+$1,$6,$7,$8,$9,0*
20,1,$1+$1,$8,$9,$2,$3,0*%
G04 Aperture macros list end*
%TA.AperFunction,SMDPad,CuDef*%
%ADD10RoundRect,0.200000X0.275000X-0.200000X0.275000X0.200000X-0.275000X0.200000X-0.275000X-0.200000X0*%
%TD*%
%TA.AperFunction,SMDPad,CuDef*%
%ADD11RoundRect,0.200000X-0.275000X0.200000X-0.275000X-0.200000X0.275000X-0.200000X0.275000X0.200000X0*%
%TD*%
%TA.AperFunction,ComponentPad*%
%ADD12R,1.700000X1.700000*%
%TD*%
%TA.AperFunction,ComponentPad*%
%ADD13O,1.700000X1.700000*%
%TD*%
%TA.AperFunction,ComponentPad*%
%ADD14O,1.800860X1.000760*%
%TD*%
%TA.AperFunction,SMDPad,CuDef*%
%ADD15RoundRect,0.250000X0.412500X0.925000X-0.412500X0.925000X-0.412500X-0.925000X0.412500X-0.925000X0*%
%TD*%
%TA.AperFunction,SMDPad,CuDef*%
%ADD16R,1.000000X1.550000*%
%TD*%
%TA.AperFunction,ComponentPad*%
%ADD17C,3.500000*%
%TD*%
%TA.AperFunction,ViaPad*%
%ADD18C,0.400000*%
%TD*%
%TA.AperFunction,Conductor*%
%ADD19C,0.254000*%
%TD*%
%TA.AperFunction,Conductor*%
%ADD20C,0.406400*%
%TD*%
%TA.AperFunction,Conductor*%
%ADD21C,0.304800*%
%TD*%
G04 APERTURE END LIST*
D10*
%TO.P,R24,1*%
%TO.N,Net-(D3-A)*%
X110998000Y-120205000D03*
%TO.P,R24,2*%
%TO.N,+3V3*%
X110998000Y-118555000D03*
%TD*%
D11*
%TO.P,R23,1*%
%TO.N,Net-(D2-A)*%
X110998000Y-126683000D03*
%TO.P,R23,2*%
%TO.N,+3V3*%
X110998000Y-128333000D03*
%TD*%
D12*
%TO.P,J2,1,Pin_1*%
%TO.N,GND*%
X128016000Y-126990000D03*
D13*
%TO.P,J2,2,Pin_2*%
%TO.N,Net-(J2-Pin_2)*%
X128016000Y-124450000D03*
%TO.P,J2,3,Pin_3*%
%TO.N,Net-(J2-Pin_3)*%
X128016000Y-121910000D03*
%TO.P,J2,4,Pin_4*%
%TO.N,+3V3*%
X128016000Y-119370000D03*
%TD*%
D14*
%TO.P,J1,S1,SHIELD*%
%TO.N,Net-(J1-SHIELD)*%
X124167900Y-140210540D03*
X128369060Y-140210540D03*
X124167900Y-131569460D03*
X128369060Y-131569460D03*
%TD*%
D15*
%TO.P,D3,1,K*%
%TO.N,Net-(D3-K)*%
X115837500Y-119380000D03*
%TO.P,D3,2,A*%
%TO.N,Net-(D3-A)*%
X112762500Y-119380000D03*
%TD*%
%TO.P,D2,1,K*%
%TO.N,Net-(D2-K)*%
X115837500Y-127508000D03*
%TO.P,D2,2,A*%
%TO.N,Net-(D2-A)*%
X112762500Y-127508000D03*
%TD*%
D16*
%TO.P,D1,2,A*%
%TO.N,GND*%
X116333000Y-124724000D03*
X116333000Y-122174000D03*
%TO.P,D1,1,K*%
%TO.N,Net-(D1-K)*%
X112133000Y-124724000D03*
X112133000Y-122174000D03*
%TD*%
D12*
%TO.P,J3,1,Pin_1*%
%TO.N,GND*%
X106110000Y-101854000D03*
D13*
%TO.P,J3,2,Pin_2*%
%TO.N,+3V3*%
X108650000Y-101854000D03*
%TO.P,J3,3,Pin_3*%
%TO.N,/SCR_SCK*%
X111190000Y-101854000D03*
%TO.P,J3,4,Pin_4*%
%TO.N,/SCR_DATA*%
X113730000Y-101854000D03*
%TO.P,J3,5,Pin_5*%
%TO.N,/SCR_DC*%
X116270000Y-101854000D03*
%TO.P,J3,6,Pin_6*%
%TO.N,/SCR_RES*%
X118810000Y-101854000D03*
%TO.P,J3,7,Pin_7*%
%TO.N,/SCR_CS*%
X121350000Y-101854000D03*
%TO.P,J3,8,Pin_8*%
%TO.N,/SCR_BLK*%
X123890000Y-101854000D03*
%TD*%
D17*
%TO.P,REF\u002A\u002A,1*%
%TO.N,N/C*%
X127500000Y-102500000D03*
%TD*%
%TO.P,REF\u002A\u002A,1*%
%TO.N,N/C*%
X102500000Y-144000000D03*
%TD*%
%TO.P,REF\u002A\u002A,1*%
%TO.N,N/C*%
X102500000Y-102500000D03*
%TD*%
%TO.P,REF\u002A\u002A,1*%
%TO.N,N/C*%
X127500000Y-144000000D03*
%TD*%
D18*
%TO.N,+3V3*%
X114808000Y-128016000D03*
%TO.N,GND*%
X100838000Y-130048000D03*
X119380000Y-144272000D03*
%TO.N,/LOW_PH*%
X105677000Y-112776000D03*
%TO.N,-3V3*%
X105918000Y-114300000D03*
%TO.N,/LOW_PH*%
X120396000Y-113865700D03*
%TO.N,/HIGH_PH*%
X114300000Y-114554000D03*
X120650000Y-114554000D03*
%TO.N,+3V3*%
X108458000Y-108712000D03*
X109220000Y-103632000D03*
%TO.N,/HIGH_PH*%
X112014000Y-110744000D03*
X102616000Y-112522000D03*
%TO.N,GND*%
X109982000Y-106172000D03*
X113284000Y-110998000D03*
X121920000Y-127000000D03*
X114300000Y-116840000D03*
%TO.N,+3V3*%
X108204000Y-116586000D03*
%TO.N,-3V3*%
X103886000Y-118618000D03*
%TO.N,GND*%
X102108000Y-115824000D03*
%TO.N,/AMP_PH*%
X108458000Y-120142000D03*
%TO.N,+3V3*%
X106172000Y-128524000D03*
%TO.N,/AMP_PH*%
X109982000Y-129540000D03*
%TO.N,+3V3*%
X114808000Y-124714000D03*
X110236000Y-119380000D03*
X100838000Y-131572000D03*
X101092000Y-129032000D03*
%TO.N,/DIGIPOT_A*%
X107950000Y-134366000D03*
X103124000Y-133350000D03*
%TO.N,GND*%
X103632000Y-131064000D03*
X106172000Y-131572000D03*
X105410000Y-133858000D03*
%TO.N,-3V3*%
X108204000Y-126492000D03*
X101346000Y-120396000D03*
%TO.N,GND*%
X101092000Y-124206000D03*
X104648000Y-120904000D03*
X103378000Y-118110000D03*
X108204000Y-129032000D03*
%TO.N,Net-(D1-K)*%
X110236000Y-122428000D03*
%TO.N,Net-(D2-K)*%
X119380000Y-119126000D03*
%TO.N,Net-(D3-K)*%
X117348000Y-119380000D03*
%TO.N,/SCR_DATA*%
X120142000Y-112014000D03*
%TO.N,/SCR_DC*%
X118110000Y-109982000D03*
%TO.N,/SCR_BLK*%
X121830000Y-112686000D03*
%TO.N,/SCR_CS*%
X119888000Y-113336000D03*
%TO.N,/SCR_SCK*%
X116586000Y-110236000D03*
%TO.N,/SCR_RES*%
X119380000Y-111252000D03*
%TO.N,GND*%
X122682000Y-115062000D03*
%TO.N,Net-(J2-Pin_3)*%
X119380000Y-115936000D03*
%TO.N,Net-(J2-Pin_2)*%
X119380000Y-116586000D03*
%TO.N,/MCU_RX*%
X120396000Y-134112000D03*
X120650000Y-118618000D03*
%TO.N,/MCU_TX*%
X119888000Y-134366000D03*
X119888000Y-118364000D03*
%TO.N,+3V3*%
X118618000Y-131318000D03*
X114245500Y-131318000D03*
X113030000Y-134874000D03*
X113538000Y-130302000D03*
%TO.N,GND*%
X114554000Y-134874000D03*
X116078000Y-134874000D03*
X116332000Y-131064000D03*
X118618000Y-129286000D03*
X117602000Y-134874000D03*
%TO.N,+5V*%
X120142000Y-143002000D03*
X120896000Y-134366000D03*
%TO.N,Net-(F1-Pad1)*%
X121666000Y-131318000D03*
X121158000Y-131318000D03*
X120650000Y-131318000D03*
X120650000Y-130810000D03*
X121158000Y-130810000D03*
X121666000Y-130810000D03*
X122682000Y-133858000D03*
X122682000Y-133350000D03*
X124460000Y-133604000D03*
X124968000Y-137668000D03*
X124968000Y-138176000D03*
X124460000Y-138176000D03*
X122682000Y-138176000D03*
X122174000Y-138684000D03*
X122174000Y-138176000D03*
X122174000Y-137668000D03*
%TO.N,GND*%
X124968000Y-129794000D03*
X128016000Y-129794000D03*
X122428000Y-131318000D03*
X122428000Y-130810000D03*
X122428000Y-139446000D03*
X122428000Y-139954000D03*
X124206000Y-143002000D03*
X122682000Y-143002000D03*
X120396000Y-138684000D03*
%TO.N,Net-(U1-UD+)*%
X124460000Y-136144000D03*
X124460000Y-135128000D03*
%TD*%
D19*
%TO.N,+3V3*%
X113538000Y-130302000D02*
X113538000Y-131572000D01*
D20*
X114808000Y-128016000D02*
X112268000Y-130556000D01*
X112268000Y-130556000D02*
X110236000Y-130556000D01*
%TO.N,Net-(J1-SHIELD)*%
X128369060Y-131569460D02*
X124167900Y-131569460D01*
%TO.N,/LOW_PH*%
X105677000Y-112776000D02*
X105677000Y-113297000D01*
X106245700Y-113865700D02*
X120396000Y-113865700D01*
X105677000Y-113297000D02*
X106245700Y-113865700D01*
%TO.N,-3V3*%
X105918000Y-114808000D02*
X106934000Y-115824000D01*
X106934000Y-115824000D02*
X106934000Y-120396000D01*
X105918000Y-114300000D02*
X105918000Y-114808000D01*
%TO.N,/HIGH_PH*%
X114300000Y-114554000D02*
X120650000Y-114554000D01*
%TO.N,+3V3*%
X108458000Y-104394000D02*
X108458000Y-108712000D01*
X109220000Y-103632000D02*
X108458000Y-104394000D01*
%TO.N,/HIGH_PH*%
X103632000Y-110744000D02*
X112014000Y-110744000D01*
X102870000Y-111506000D02*
X103632000Y-110744000D01*
X102616000Y-112522000D02*
X102616000Y-111760000D01*
X102616000Y-111760000D02*
X102870000Y-111506000D01*
%TO.N,+3V3*%
X108204000Y-116586000D02*
X108204000Y-118618000D01*
X108204000Y-118618000D02*
X108966000Y-119380000D01*
X108966000Y-119380000D02*
X110236000Y-119380000D01*
%TO.N,-3V3*%
X106934000Y-120396000D02*
X103378000Y-120396000D01*
X103378000Y-120396000D02*
X101346000Y-120396000D01*
X103886000Y-118618000D02*
X103886000Y-119888000D01*
X103886000Y-119888000D02*
X103378000Y-120396000D01*
%TO.N,/AMP_PH*%
X108966000Y-120142000D02*
X108458000Y-120142000D01*
X109474000Y-122936000D02*
X109474000Y-120904000D01*
X109474000Y-120650000D02*
X108966000Y-120142000D01*
X109474000Y-120904000D02*
X109474000Y-120650000D01*
%TO.N,+3V3*%
X110236000Y-119380000D02*
X110236000Y-119317000D01*
X110236000Y-119317000D02*
X110998000Y-118555000D01*
%TO.N,/AMP_PH*%
X109982000Y-123444000D02*
X109474000Y-122936000D01*
X109982000Y-129540000D02*
X109982000Y-123444000D01*
%TO.N,Net-(D1-K)*%
X110236000Y-122428000D02*
X110490000Y-122174000D01*
X110490000Y-122174000D02*
X112133000Y-122174000D01*
D19*
%TO.N,+3V3*%
X102616000Y-130556000D02*
X106934000Y-130556000D01*
X106934000Y-130556000D02*
X110236000Y-130556000D01*
X106172000Y-128524000D02*
X106172000Y-129794000D01*
X106172000Y-129794000D02*
X106934000Y-130556000D01*
D20*
X114808000Y-124714000D02*
X114300000Y-124206000D01*
X114300000Y-124206000D02*
X114300000Y-117856000D01*
X114300000Y-117856000D02*
X114046000Y-117602000D01*
X111252000Y-117602000D02*
X110998000Y-117856000D01*
X110998000Y-117856000D02*
X110998000Y-118555000D01*
X114046000Y-117602000D02*
X111252000Y-117602000D01*
D19*
X110236000Y-130556000D02*
X110998000Y-129794000D01*
X110998000Y-129794000D02*
X110998000Y-128333000D01*
X102362000Y-130556000D02*
X102616000Y-130556000D01*
X101854000Y-130556000D02*
X100838000Y-131572000D01*
X102616000Y-130556000D02*
X101854000Y-130556000D01*
X101346000Y-129540000D02*
X102362000Y-130556000D01*
X101092000Y-129032000D02*
X101092000Y-129286000D01*
X101092000Y-129286000D02*
X101346000Y-129540000D01*
%TO.N,/DIGIPOT_A*%
X107950000Y-134366000D02*
X103632000Y-134366000D01*
X103632000Y-134366000D02*
X103124000Y-133858000D01*
X103124000Y-133858000D02*
X103124000Y-133350000D01*
D20*
%TO.N,-3V3*%
X108204000Y-126492000D02*
X108458000Y-126238000D01*
X108458000Y-126238000D02*
X108458000Y-121920000D01*
X108458000Y-121920000D02*
X106934000Y-120396000D01*
%TO.N,Net-(D3-K)*%
X117348000Y-119380000D02*
X115837500Y-119380000D01*
%TO.N,Net-(D2-K)*%
X118110000Y-119380000D02*
X118110000Y-127000000D01*
X119380000Y-119126000D02*
X118364000Y-119126000D01*
X118110000Y-127000000D02*
X117602000Y-127508000D01*
X118364000Y-119126000D02*
X118110000Y-119380000D01*
X117602000Y-127508000D02*
X115837500Y-127508000D01*
%TO.N,Net-(D2-A)*%
X110998000Y-127254000D02*
X111252000Y-127508000D01*
X110998000Y-126683000D02*
X110998000Y-127254000D01*
X111252000Y-127508000D02*
X112762500Y-127508000D01*
%TO.N,Net-(D3-A)*%
X110998000Y-119634000D02*
X111252000Y-119380000D01*
X110998000Y-120205000D02*
X110998000Y-119634000D01*
X111252000Y-119380000D02*
X112762500Y-119380000D01*
%TO.N,/SCR_SCK*%
X111190000Y-101854000D02*
X113476000Y-104140000D01*
X113476000Y-104140000D02*
X114300000Y-104140000D01*
%TO.N,/SCR_DATA*%
X120142000Y-112014000D02*
X118110000Y-112014000D01*
X118110000Y-112014000D02*
X117348000Y-111252000D01*
X117348000Y-111252000D02*
X117348000Y-106172000D01*
X115316000Y-103440000D02*
X113730000Y-101854000D01*
X117348000Y-106172000D02*
X115316000Y-104140000D01*
X115316000Y-104140000D02*
X115316000Y-103440000D01*
%TO.N,/SCR_SCK*%
X116586000Y-110236000D02*
X116586000Y-106426000D01*
X116586000Y-106426000D02*
X114300000Y-104140000D01*
%TO.N,/SCR_BLK*%
X121830000Y-112686000D02*
X123280000Y-112686000D01*
X123280000Y-112686000D02*
X123890000Y-112076000D01*
X123890000Y-112076000D02*
X123890000Y-101854000D01*
%TO.N,/SCR_CS*%
X119888000Y-113336000D02*
X120598000Y-113336000D01*
X120598000Y-113336000D02*
X121350000Y-112584000D01*
X121350000Y-112584000D02*
X121350000Y-101854000D01*
%TO.N,/SCR_DC*%
X118110000Y-105664000D02*
X116270000Y-103824000D01*
X118110000Y-109982000D02*
X118110000Y-105664000D01*
X116270000Y-103824000D02*
X116270000Y-101854000D01*
%TO.N,/SCR_RES*%
X119380000Y-109474000D02*
X118810000Y-108904000D01*
X118810000Y-108904000D02*
X118810000Y-101854000D01*
X119380000Y-111252000D02*
X119380000Y-109474000D01*
%TO.N,Net-(J2-Pin_3)*%
X128016000Y-121910000D02*
X122926000Y-121910000D01*
X122926000Y-121910000D02*
X122174000Y-121158000D01*
X122174000Y-121158000D02*
X122174000Y-117094000D01*
X122174000Y-117094000D02*
X121016000Y-115936000D01*
X121016000Y-115936000D02*
X119380000Y-115936000D01*
%TO.N,Net-(J2-Pin_2)*%
X119380000Y-116586000D02*
X120650000Y-116586000D01*
X120650000Y-116586000D02*
X121412000Y-117348000D01*
X121412000Y-117348000D02*
X121412000Y-123698000D01*
X121412000Y-123698000D02*
X122174000Y-124460000D01*
X122174000Y-124460000D02*
X122184000Y-124450000D01*
X122184000Y-124450000D02*
X128016000Y-124450000D01*
D21*
%TO.N,/MCU_RX*%
X120650000Y-124460000D02*
X120142000Y-124968000D01*
X120396000Y-132588000D02*
X120396000Y-134112000D01*
X120650000Y-118618000D02*
X120650000Y-124460000D01*
X120142000Y-124968000D02*
X120142000Y-132334000D01*
X120142000Y-132334000D02*
X120396000Y-132588000D01*
%TO.N,/MCU_TX*%
X119888000Y-134366000D02*
X119888000Y-133096000D01*
X119888000Y-123952000D02*
X119888000Y-118364000D01*
X119888000Y-133096000D02*
X119380000Y-132588000D01*
X119380000Y-132588000D02*
X119380000Y-124460000D01*
X119380000Y-124460000D02*
X119888000Y-123952000D01*
D19*
%TO.N,+3V3*%
X115824000Y-131572000D02*
X115570000Y-131318000D01*
X117602000Y-131572000D02*
X115824000Y-131572000D01*
X118618000Y-131318000D02*
X117856000Y-131318000D01*
X117856000Y-131318000D02*
X117602000Y-131572000D01*
X115570000Y-131318000D02*
X114245500Y-131318000D01*
X114245500Y-131318000D02*
X113792000Y-131318000D01*
X113538000Y-133604000D02*
X113538000Y-131572000D01*
X113792000Y-131318000D02*
X113538000Y-131572000D01*
X113030000Y-134366000D02*
X113284000Y-134112000D01*
X113030000Y-134874000D02*
X113030000Y-134366000D01*
X113284000Y-134112000D02*
X113538000Y-133858000D01*
X113538000Y-133858000D02*
X113538000Y-133604000D01*
D21*
%TO.N,+5V*%
X120142000Y-141478000D02*
X120142000Y-143002000D01*
X120396000Y-141224000D02*
X120142000Y-141478000D01*
X120896000Y-134366000D02*
X120896000Y-140724000D01*
X120896000Y-140724000D02*
X120396000Y-141224000D01*
%TO.N,Net-(U1-UD+)*%
X124460000Y-135128000D02*
X124714000Y-135382000D01*
X124714000Y-135382000D02*
X124714000Y-135890000D01*
X124714000Y-135890000D02*
X124460000Y-136144000D01*
%TD*%
%TA.AperFunction,Conductor*%
%TO.N,GND*%
G36*
X119532032Y-119454998D02*
G01*
X119586251Y-119499066D01*
X119608038Y-119565452D01*
X119608100Y-119569359D01*
X119608100Y-123784699D01*
X119588415Y-123851738D01*
X119571781Y-123872380D01*
X119228664Y-124215496D01*
X119215527Y-124224949D01*
X119179431Y-124264543D01*
X119175484Y-124268677D01*
X119162851Y-124281311D01*
X119154274Y-124292138D01*
X119137900Y-124310099D01*
X119135926Y-124315197D01*
X119122603Y-124340474D01*
X119119512Y-124344985D01*
X119113951Y-124368629D01*
X119108874Y-124385026D01*
X119100100Y-124407676D01*
X119100100Y-124413142D01*
X119096807Y-124441529D01*
X119095556Y-124446849D01*
X119095996Y-124450000D01*
X119098911Y-124470900D01*
X119100100Y-124488031D01*
X119100100Y-131035247D01*
X119080415Y-131102286D01*
X119027611Y-131148041D01*
X118958453Y-131157985D01*
X118894897Y-131128960D01*
X118878402Y-131108982D01*
X118784277Y-131030002D01*
X118730011Y-131010251D01*
X118675747Y-130990500D01*
X118560253Y-130990500D01*
X118505988Y-131010251D01*
X118451723Y-131030002D01*
X118446375Y-131034490D01*
X118382366Y-131062503D01*
X118366670Y-131063500D01*
X117893277Y-131063500D01*
X117869088Y-131061118D01*
X117856000Y-131058514D01*
X117842912Y-131061118D01*
X117842900Y-131061119D01*
X117726273Y-131084317D01*
X117695029Y-131119420D01*
X117693760Y-131120320D01*
X117672515Y-131134515D01*
X117665103Y-131145608D01*
X117649685Y-131164394D01*
X117532901Y-131281180D01*
X117471578Y-131314666D01*
X117445219Y-131317500D01*
X115980780Y-131317500D01*
X115913741Y-131297815D01*
X115893099Y-131281181D01*
X115776317Y-131164399D01*
X115760896Y-131145608D01*
X115753484Y-131134516D01*
X115742390Y-131127103D01*
X115742388Y-131127101D01*
X115732235Y-131120317D01*
X115732234Y-131120316D01*
X115669301Y-131078266D01*
X115570000Y-131058514D01*
X115569999Y-131058514D01*
X115569998Y-131058514D01*
X115556907Y-131061118D01*
X115532718Y-131063500D01*
X114496830Y-131063500D01*
X114429791Y-131043815D01*
X114417125Y-131034490D01*
X114411776Y-131030002D01*
X114395261Y-131023991D01*
X114303247Y-130990500D01*
X114187753Y-130990500D01*
X114133488Y-131010250D01*
X114079223Y-131030002D01*
X114073875Y-131034490D01*
X114009866Y-131062503D01*
X113994170Y-131063500D01*
X113916500Y-131063500D01*
X113849461Y-131043815D01*
X113803706Y-130991011D01*
X113792500Y-130939500D01*
X113792500Y-130549419D01*
X113809113Y-130487419D01*
X113850497Y-130415739D01*
X113858851Y-130368358D01*
X113870552Y-130302000D01*
X113857039Y-130225360D01*
X113850497Y-130188260D01*
X113792750Y-130088240D01*
X113704277Y-130014002D01*
X113624309Y-129984896D01*
X113595747Y-129974500D01*
X113575201Y-129967022D01*
X113576733Y-129962811D01*
X113549502Y-129954815D01*
X113503747Y-129902011D01*
X113493803Y-129832853D01*
X113522828Y-129769297D01*
X113528860Y-129762819D01*
X114145940Y-129145739D01*
X114844180Y-128447498D01*
X114905501Y-128414015D01*
X114975193Y-128418999D01*
X115031126Y-128460871D01*
X115054563Y-128517303D01*
X115058191Y-128542204D01*
X115072452Y-128571375D01*
X115113525Y-128655392D01*
X115202608Y-128744475D01*
X115202609Y-128744475D01*
X115202610Y-128744476D01*
X115315796Y-128799809D01*
X115389173Y-128810500D01*
X116285826Y-128810499D01*
X116359204Y-128799809D01*
X116472390Y-128744476D01*
X116561476Y-128655390D01*
X116616809Y-128542204D01*
X116627500Y-128468827D01*
X116627500Y-127962700D01*
X116647185Y-127895661D01*
X116699989Y-127849906D01*
X116751500Y-127838700D01*
X117582145Y-127838700D01*
X117592951Y-127839171D01*
X117631267Y-127842524D01*
X117668421Y-127832567D01*
X117678964Y-127830230D01*
X117716851Y-127823551D01*
X117716852Y-127823549D01*
X117717777Y-127823387D01*
X117743147Y-127812877D01*
X117743912Y-127812340D01*
X117743916Y-127812340D01*
X117775426Y-127790275D01*
X117784544Y-127784467D01*
X117817849Y-127765239D01*
X117842586Y-127735756D01*
X117849873Y-127727805D01*
X118329806Y-127247872D01*
X118337756Y-127240586D01*
X118367239Y-127215849D01*
X118386470Y-127182537D01*
X118392266Y-127173438D01*
X118414340Y-127141917D01*
X118414341Y-127141912D01*
X118414880Y-127141143D01*
X118425386Y-127115780D01*
X118425549Y-127114853D01*
X118425551Y-127114851D01*
X118432232Y-127076952D01*
X118434572Y-127066402D01*
X118444523Y-127029266D01*
X118441172Y-126990962D01*
X118440700Y-126980155D01*
X118440700Y-119580700D01*
X118460385Y-119513661D01*
X118513189Y-119467906D01*
X118564700Y-119456700D01*
X119408934Y-119456700D01*
X119408935Y-119456700D01*
X119416399Y-119455383D01*
X119437747Y-119453516D01*
X119458464Y-119447966D01*
X119462596Y-119447238D01*
X119532032Y-119454998D01*
G37*
%TD.AperFunction*%
%TA.AperFunction,Conductor*%
G36*
X129688539Y-100274185D02*
G01*
X129734294Y-100326989D01*
X129745500Y-100378500D01*
X129745500Y-146121500D01*
X129725815Y-146188539D01*
X129673011Y-146234294D01*
X129621500Y-146245500D01*
X100378500Y-146245500D01*
X100311461Y-146225815D01*
X100265706Y-146173011D01*
X100254500Y-146121500D01*
X100254500Y-144000000D01*
X100617703Y-144000000D01*
X100636863Y-144267879D01*
X100693948Y-144530299D01*
X100693950Y-144530304D01*
X100787803Y-144781934D01*
X100852157Y-144899790D01*
X100916510Y-145017644D01*
X100996984Y-145125144D01*
X101077456Y-145232642D01*
X101267358Y-145422544D01*
X101428605Y-145543251D01*
X101482355Y-145583489D01*
X101541282Y-145615665D01*
X101718066Y-145712197D01*
X101969696Y-145806050D01*
X101969699Y-145806050D01*
X101969700Y-145806051D01*
X102007051Y-145814176D01*
X102232121Y-145863137D01*
X102500000Y-145882296D01*
X102767879Y-145863137D01*
X103030304Y-145806050D01*
X103281934Y-145712197D01*
X103517646Y-145583488D01*
X103732642Y-145422544D01*
X103922544Y-145232642D01*
X104083488Y-145017646D01*
X104212197Y-144781934D01*
X104306050Y-144530304D01*
X104363137Y-144267879D01*
X104382296Y-144000000D01*
X125617703Y-144000000D01*
X125636863Y-144267879D01*
X125693948Y-144530299D01*
X125693950Y-144530304D01*
X125787803Y-144781934D01*
X125852157Y-144899789D01*
X125916510Y-145017644D01*
X125996984Y-145125144D01*
X126077456Y-145232642D01*
X126267358Y-145422544D01*
X126428605Y-145543251D01*
X126482355Y-145583489D01*
X126541281Y-145615665D01*
X126718066Y-145712197D01*
X126969696Y-145806050D01*
X126969699Y-145806050D01*
X126969700Y-145806051D01*
X127007051Y-145814176D01*
X127232121Y-145863137D01*
X127480840Y-145880925D01*
X127499999Y-145882296D01*
X127499999Y-145882295D01*
X127500000Y-145882296D01*
X127767879Y-145863137D01*
X128030304Y-145806050D01*
X128281934Y-145712197D01*
X128517646Y-145583488D01*
X128732642Y-145422544D01*
X128922544Y-145232642D01*
X129083488Y-145017646D01*
X129212197Y-144781934D01*
X129306050Y-144530304D01*
X129363137Y-144267879D01*
X129382296Y-144000000D01*
X129363137Y-143732121D01*
X129306050Y-143469696D01*
X129212197Y-143218066D01*
X129083488Y-142982354D01*
X128922544Y-142767358D01*
X128732642Y-142577456D01*
X128625143Y-142496984D01*
X128517644Y-142416510D01*
X128399789Y-142352157D01*
X128281934Y-142287803D01*
X128030304Y-142193950D01*
X128030299Y-142193948D01*
X127767879Y-142136863D01*
X127499999Y-142117703D01*
X127232120Y-142136863D01*
X126969700Y-142193948D01*
X126877663Y-142228276D01*
X126718066Y-142287803D01*
X126671089Y-142313454D01*
X126482355Y-142416510D01*
X126267355Y-142577458D01*
X126077458Y-142767355D01*
X125916510Y-142982355D01*
X125843678Y-143115739D01*
X125787803Y-143218066D01*
X125728276Y-143377663D01*
X125693948Y-143469700D01*
X125636863Y-143732120D01*
X125617703Y-144000000D01*
X104382296Y-144000000D01*
X104363137Y-143732121D01*
X104306050Y-143469696D01*
X104212197Y-143218066D01*
X104083488Y-142982354D01*
X103922544Y-142767358D01*
X103732642Y-142577456D01*
X103625143Y-142496984D01*
X103517644Y-142416510D01*
X103399790Y-142352157D01*
X103281934Y-142287803D01*
X103030304Y-142193950D01*
X103030299Y-142193948D01*
X102767879Y-142136863D01*
X102500000Y-142117703D01*
X102232120Y-142136863D01*
X101969700Y-142193948D01*
X101877663Y-142228276D01*
X101718066Y-142287803D01*
X101671089Y-142313454D01*
X101482355Y-142416510D01*
X101267355Y-142577458D01*
X101077458Y-142767355D01*
X100916510Y-142982355D01*
X100843678Y-143115739D01*
X100787803Y-143218066D01*
X100728276Y-143377663D01*
X100693948Y-143469700D01*
X100636863Y-143732120D01*
X100617703Y-144000000D01*
X100254500Y-144000000D01*
X100254500Y-133350000D01*
X102791447Y-133350000D01*
X102811502Y-133463739D01*
X102852887Y-133535419D01*
X102869500Y-133597419D01*
X102869500Y-133820718D01*
X102867118Y-133844907D01*
X102864514Y-133858000D01*
X102869500Y-133883066D01*
X102869500Y-133883067D01*
X102872518Y-133898240D01*
X102884266Y-133957301D01*
X102926316Y-134020234D01*
X102926319Y-134020237D01*
X102933101Y-134030387D01*
X102933103Y-134030390D01*
X102940516Y-134041484D01*
X102951608Y-134048896D01*
X102970399Y-134064317D01*
X103425680Y-134519597D01*
X103441101Y-134538387D01*
X103448515Y-134549484D01*
X103469765Y-134563682D01*
X103469766Y-134563683D01*
X103493827Y-134579760D01*
X103532699Y-134605734D01*
X103606933Y-134620500D01*
X103606935Y-134620500D01*
X103618900Y-134622880D01*
X103618912Y-134622882D01*
X103632000Y-134625485D01*
X103645088Y-134622882D01*
X103669277Y-134620500D01*
X107698670Y-134620500D01*
X107765709Y-134640185D01*
X107778375Y-134649510D01*
X107783724Y-134653998D01*
X107892253Y-134693500D01*
X107892254Y-134693500D01*
X108007746Y-134693500D01*
X108007747Y-134693500D01*
X108116276Y-134653998D01*
X108204750Y-134579760D01*
X108262497Y-134479739D01*
X108282552Y-134366000D01*
X108266372Y-134274234D01*
X108262497Y-134252260D01*
X108204750Y-134152240D01*
X108116277Y-134078002D01*
X108062011Y-134058251D01*
X108007747Y-134038500D01*
X107892253Y-134038500D01*
X107837988Y-134058251D01*
X107783723Y-134078002D01*
X107778375Y-134082490D01*
X107714366Y-134110503D01*
X107698670Y-134111500D01*
X103788779Y-134111500D01*
X103721740Y-134091815D01*
X103701098Y-134075181D01*
X103414819Y-133788901D01*
X103381334Y-133727578D01*
X103378500Y-133701220D01*
X103378500Y-133597419D01*
X103395113Y-133535419D01*
X103436497Y-133463739D01*
X103456552Y-133350000D01*
X103436497Y-133236260D01*
X103378750Y-133136240D01*
X103290277Y-133062002D01*
X103236011Y-133042250D01*
X103181747Y-133022500D01*
X103066253Y-133022500D01*
X103030076Y-133035667D01*
X102957722Y-133062002D01*
X102869249Y-133136240D01*
X102811502Y-133236260D01*
X102791447Y-133350000D01*
X100254500Y-133350000D01*
X100254500Y-131572000D01*
X100505447Y-131572000D01*
X100525502Y-131685739D01*
X100583249Y-131785759D01*
X100671722Y-131859997D01*
X100671723Y-131859997D01*
X100671724Y-131859998D01*
X100780253Y-131899500D01*
X100780254Y-131899500D01*
X100895746Y-131899500D01*
X100895747Y-131899500D01*
X101004276Y-131859998D01*
X101092750Y-131785760D01*
X101150497Y-131685739D01*
X101157904Y-131643725D01*
X101188928Y-131581125D01*
X101192313Y-131577603D01*
X101923098Y-130846819D01*
X101984422Y-130813334D01*
X102010780Y-130810500D01*
X102324718Y-130810500D01*
X102348907Y-130812882D01*
X102362000Y-130815486D01*
X102375093Y-130812882D01*
X102399282Y-130810500D01*
X102590933Y-130810500D01*
X106896718Y-130810500D01*
X106920907Y-130812882D01*
X106934000Y-130815486D01*
X106947093Y-130812882D01*
X106971282Y-130810500D01*
X109982181Y-130810500D01*
X110044181Y-130827113D01*
X110121149Y-130871551D01*
X110194185Y-130884429D01*
X110207064Y-130886700D01*
X110207065Y-130886700D01*
X112248145Y-130886700D01*
X112258951Y-130887171D01*
X112297267Y-130890524D01*
X112334421Y-130880567D01*
X112344964Y-130878230D01*
X112382851Y-130871551D01*
X112382852Y-130871549D01*
X112383777Y-130871387D01*
X112409147Y-130860877D01*
X112409912Y-130860340D01*
X112409916Y-130860340D01*
X112441426Y-130838275D01*
X112450544Y-130832467D01*
X112483849Y-130813239D01*
X112508586Y-130783756D01*
X112515873Y-130775805D01*
X113004672Y-130287006D01*
X113065993Y-130253523D01*
X113135685Y-130258507D01*
X113191618Y-130300379D01*
X113214467Y-130353156D01*
X113225502Y-130415739D01*
X113266887Y-130487419D01*
X113283500Y-130549419D01*
X113283500Y-131534718D01*
X113281118Y-131558907D01*
X113280451Y-131562261D01*
X113278514Y-131572000D01*
X113279623Y-131577577D01*
X113281117Y-131585085D01*
X113283500Y-131609277D01*
X113283500Y-133701219D01*
X113263815Y-133768258D01*
X113247182Y-133788899D01*
X113121766Y-133914316D01*
X112927481Y-134108600D01*
X112876398Y-134159683D01*
X112857611Y-134175101D01*
X112846515Y-134182515D01*
X112832320Y-134203760D01*
X112832316Y-134203766D01*
X112790266Y-134266698D01*
X112770514Y-134366001D01*
X112773117Y-134379088D01*
X112775499Y-134403276D01*
X112775500Y-134626579D01*
X112758887Y-134688580D01*
X112717502Y-134760260D01*
X112697447Y-134874000D01*
X112717502Y-134987739D01*
X112775249Y-135087759D01*
X112863722Y-135161997D01*
X112863723Y-135161997D01*
X112863724Y-135161998D01*
X112972253Y-135201500D01*
X112972254Y-135201500D01*
X113087746Y-135201500D01*
X113087747Y-135201500D01*
X113196276Y-135161998D01*
X113284750Y-135087760D01*
X113342497Y-134987739D01*
X113362552Y-134874000D01*
X113342497Y-134760261D01*
X113342497Y-134760260D01*
X113301113Y-134688580D01*
X113284500Y-134626580D01*
X113284500Y-134522779D01*
X113304185Y-134455740D01*
X113320814Y-134435103D01*
X113481684Y-134274234D01*
X113481683Y-134274234D01*
X113540252Y-134215665D01*
X113691604Y-134064312D01*
X113710390Y-134048895D01*
X113721484Y-134041484D01*
X113723918Y-134037840D01*
X113723920Y-134037839D01*
X113735681Y-134020235D01*
X113735684Y-134020234D01*
X113777734Y-133957301D01*
X113782990Y-133930875D01*
X113792500Y-133883067D01*
X113792500Y-133883065D01*
X113794882Y-133871091D01*
X113794882Y-133871087D01*
X113795067Y-133870153D01*
X113797485Y-133858000D01*
X113794882Y-133844912D01*
X113792500Y-133820723D01*
X113792500Y-133578933D01*
X113792500Y-132658196D01*
X113792500Y-131728776D01*
X113812184Y-131661741D01*
X113828810Y-131641107D01*
X113861102Y-131608815D01*
X113922424Y-131575333D01*
X113948780Y-131572500D01*
X113994170Y-131572500D01*
X114061209Y-131592185D01*
X114073875Y-131601510D01*
X114079224Y-131605998D01*
X114187753Y-131645500D01*
X114187754Y-131645500D01*
X114303246Y-131645500D01*
X114303247Y-131645500D01*
X114411776Y-131605998D01*
X114417124Y-131601510D01*
X114481134Y-131573497D01*
X114496830Y-131572500D01*
X115413220Y-131572500D01*
X115480259Y-131592185D01*
X115500901Y-131608819D01*
X115617682Y-131725600D01*
X115633103Y-131744390D01*
X115640516Y-131755484D01*
X115651608Y-131762896D01*
X115651612Y-131762899D01*
X115661765Y-131769683D01*
X115661766Y-131769684D01*
X115724678Y-131811720D01*
X115724699Y-131811734D01*
X115798933Y-131826500D01*
X115798935Y-131826500D01*
X115810900Y-131828880D01*
X115810912Y-131828882D01*
X115824000Y-131831485D01*
X115837088Y-131828882D01*
X115861277Y-131826500D01*
X117564718Y-131826500D01*
X117588907Y-131828882D01*
X117593146Y-131829724D01*
X117602000Y-131831486D01*
X117701301Y-131811734D01*
X117701302Y-131811733D01*
X117701303Y-131811733D01*
X117781837Y-131757922D01*
X117781840Y-131757918D01*
X117785484Y-131755484D01*
X117792893Y-131744393D01*
X117808316Y-131725601D01*
X117925101Y-131608818D01*
X117986424Y-131575334D01*
X118012781Y-131572500D01*
X118366670Y-131572500D01*
X118433709Y-131592185D01*
X118446375Y-131601510D01*
X118451724Y-131605998D01*
X118560253Y-131645500D01*
X118560254Y-131645500D01*
X118675746Y-131645500D01*
X118675747Y-131645500D01*
X118784276Y-131605998D01*
X118872750Y-131531760D01*
X118872750Y-131531759D01*
X118889499Y-131517706D01*
X118890070Y-131518387D01*
X118919278Y-131490537D01*
X118987885Y-131477313D01*
X119052750Y-131503280D01*
X119093279Y-131560193D01*
X119100100Y-131600752D01*
X119100100Y-132522115D01*
X119097493Y-132538092D01*
X119099968Y-132591615D01*
X119100100Y-132597341D01*
X119100100Y-132615189D01*
X119101692Y-132628918D01*
X119102815Y-132653195D01*
X119105023Y-132658196D01*
X119113474Y-132685487D01*
X119114478Y-132690860D01*
X119127267Y-132711514D01*
X119135275Y-132726706D01*
X119145084Y-132748922D01*
X119148945Y-132752783D01*
X119166690Y-132775184D01*
X119169569Y-132779833D01*
X119188948Y-132794467D01*
X119201902Y-132805740D01*
X119571781Y-133175619D01*
X119605266Y-133236942D01*
X119608100Y-133263300D01*
X119608100Y-134162575D01*
X119591487Y-134224575D01*
X119575502Y-134252261D01*
X119555447Y-134366000D01*
X119575502Y-134479739D01*
X119633249Y-134579759D01*
X119721722Y-134653997D01*
X119721723Y-134653997D01*
X119721724Y-134653998D01*
X119830253Y-134693500D01*
X119830254Y-134693500D01*
X119945746Y-134693500D01*
X119945747Y-134693500D01*
X120054276Y-134653998D01*
X120142750Y-134579760D01*
X120191593Y-134495161D01*
X120242157Y-134446948D01*
X120310764Y-134433724D01*
X120336334Y-134439500D01*
X120475612Y-134439500D01*
X120475612Y-134441038D01*
X120513720Y-134438614D01*
X120574778Y-134472580D01*
X120593796Y-134497567D01*
X120599486Y-134507422D01*
X120616100Y-134569424D01*
X120616099Y-140556698D01*
X120596414Y-140623737D01*
X120579780Y-140644379D01*
X120176494Y-141047665D01*
X120176490Y-141047671D01*
X119990664Y-141233496D01*
X119977527Y-141242949D01*
X119941431Y-141282543D01*
X119937484Y-141286677D01*
X119924851Y-141299311D01*
X119916274Y-141310138D01*
X119899900Y-141328099D01*
X119897926Y-141333197D01*
X119884603Y-141358474D01*
X119881512Y-141362985D01*
X119875951Y-141386629D01*
X119870874Y-141403026D01*
X119862100Y-141425676D01*
X119862100Y-141431141D01*
X119858807Y-141459529D01*
X119857555Y-141464849D01*
X119860910Y-141488898D01*
X119862099Y-141506027D01*
X119862099Y-142798575D01*
X119845487Y-142860573D01*
X119829502Y-142888260D01*
X119809447Y-143002000D01*
X119829502Y-143115739D01*
X119887249Y-143215759D01*
X119975722Y-143289997D01*
X119975723Y-143289997D01*
X119975724Y-143289998D01*
X120084253Y-143329500D01*
X120084254Y-143329500D01*
X120199746Y-143329500D01*
X120199747Y-143329500D01*
X120308276Y-143289998D01*
X120396750Y-143215760D01*
X120454497Y-143115739D01*
X120474552Y-143002000D01*
X120454497Y-142888261D01*
X120438513Y-142860575D01*
X120421900Y-142798575D01*
X120421900Y-141645300D01*
X120441585Y-141578261D01*
X120458214Y-141557624D01*
X120612258Y-141403581D01*
X120612259Y-141403578D01*
X120626484Y-141389354D01*
X120626486Y-141389350D01*
X121047328Y-140968508D01*
X121060468Y-140959055D01*
X121067596Y-140951235D01*
X121067599Y-140951234D01*
X121096590Y-140919431D01*
X121100481Y-140915355D01*
X121112258Y-140903580D01*
X121112262Y-140903573D01*
X121113158Y-140902678D01*
X121121736Y-140891847D01*
X121138098Y-140873901D01*
X121140069Y-140868811D01*
X121153403Y-140843516D01*
X121156486Y-140839016D01*
X121162048Y-140815360D01*
X121167125Y-140798971D01*
X121167126Y-140798968D01*
X121175900Y-140776322D01*
X121175899Y-140770859D01*
X121179195Y-140742459D01*
X121180444Y-140737149D01*
X121177089Y-140713103D01*
X121175899Y-140695968D01*
X121175899Y-140170804D01*
X123136228Y-140170804D01*
X123146189Y-140329126D01*
X123146190Y-140329128D01*
X123195212Y-140480003D01*
X123280215Y-140613947D01*
X123395858Y-140722543D01*
X123534875Y-140798968D01*
X123534877Y-140798969D01*
X123688528Y-140838420D01*
X123688530Y-140838420D01*
X124603554Y-140838420D01*
X124607449Y-140838420D01*
X124705656Y-140826013D01*
X124725339Y-140823527D01*
X124799087Y-140794327D01*
X124872837Y-140765128D01*
X125001179Y-140671882D01*
X125102300Y-140549649D01*
X125169845Y-140406108D01*
X125199571Y-140250278D01*
X125194571Y-140170804D01*
X127337388Y-140170804D01*
X127347349Y-140329126D01*
X127347350Y-140329128D01*
X127396372Y-140480003D01*
X127481375Y-140613947D01*
X127597018Y-140722543D01*
X127736035Y-140798968D01*
X127736037Y-140798969D01*
X127889688Y-140838420D01*
X127889690Y-140838420D01*
X128804714Y-140838420D01*
X128808609Y-140838420D01*
X128906816Y-140826013D01*
X128926499Y-140823527D01*
X129000247Y-140794327D01*
X129073997Y-140765128D01*
X129202339Y-140671882D01*
X129303460Y-140549649D01*
X129371005Y-140406108D01*
X129400731Y-140250278D01*
X129390770Y-140091952D01*
X129341748Y-139941077D01*
X129256745Y-139807133D01*
X129141102Y-139698537D01*
X129038180Y-139641955D01*
X129002082Y-139622110D01*
X128848432Y-139582660D01*
X128848430Y-139582660D01*
X127929511Y-139582660D01*
X127925652Y-139583147D01*
X127925644Y-139583148D01*
X127811620Y-139597552D01*
X127664123Y-139655951D01*
X127535781Y-139749197D01*
X127434660Y-139871429D01*
X127367115Y-140014970D01*
X127337388Y-140170804D01*
X125194571Y-140170804D01*
X125189610Y-140091952D01*
X125140588Y-139941077D01*
X125055585Y-139807133D01*
X124939942Y-139698537D01*
X124837020Y-139641955D01*
X124800922Y-139622110D01*
X124647272Y-139582660D01*
X124647270Y-139582660D01*
X123728351Y-139582660D01*
X123724492Y-139583147D01*
X123724484Y-139583148D01*
X123610460Y-139597552D01*
X123462963Y-139655951D01*
X123334621Y-139749197D01*
X123233500Y-139871429D01*
X123165955Y-140014970D01*
X123136228Y-140170804D01*
X121175899Y-140170804D01*
X121175899Y-138810689D01*
X121175899Y-134569420D01*
X121192512Y-134507425D01*
X121208497Y-134479739D01*
X121228552Y-134366000D01*
X121212372Y-134274234D01*
X121208497Y-134252260D01*
X121164757Y-134176500D01*
X121148284Y-134108600D01*
X121171136Y-134042573D01*
X121226058Y-133999382D01*
X121272144Y-133990500D01*
X121663500Y-133990500D01*
X121730539Y-134010185D01*
X121776294Y-134062989D01*
X121787500Y-134114499D01*
X121787500Y-136143999D01*
X121787500Y-138814000D01*
X121790528Y-138842166D01*
X121791233Y-138845409D01*
X121791234Y-138845412D01*
X121801733Y-138893675D01*
X121801733Y-138893676D01*
X121801734Y-138893677D01*
X121831069Y-138952280D01*
X121876824Y-139005084D01*
X121939630Y-139045448D01*
X122006669Y-139065133D01*
X122025401Y-139067826D01*
X122043999Y-139070500D01*
X122044000Y-139070500D01*
X124284586Y-139070500D01*
X124288623Y-139070500D01*
X124322737Y-139066033D01*
X124384435Y-139049594D01*
X124424145Y-139026145D01*
X124491879Y-139009009D01*
X124531988Y-139017294D01*
X124636751Y-139057880D01*
X124636753Y-139057880D01*
X124714297Y-139057880D01*
X124714299Y-139057880D01*
X124790529Y-139043630D01*
X124824382Y-139022668D01*
X124891740Y-139004113D01*
X124956699Y-139023782D01*
X124987580Y-139043629D01*
X124990411Y-139045448D01*
X125057450Y-139065133D01*
X125076182Y-139067826D01*
X125094780Y-139070500D01*
X125094781Y-139070500D01*
X125348690Y-139070500D01*
X125352000Y-139070500D01*
X125380166Y-139067472D01*
X125431677Y-139056266D01*
X125490280Y-139026931D01*
X125543084Y-138981176D01*
X125583448Y-138918370D01*
X125603133Y-138851331D01*
X125608500Y-138814000D01*
X125608500Y-132458000D01*
X125605472Y-132429834D01*
X125594266Y-132378323D01*
X125564931Y-132319720D01*
X125519176Y-132266916D01*
X125456370Y-132226552D01*
X125456369Y-132226551D01*
X125456368Y-132226551D01*
X125389328Y-132206866D01*
X125352001Y-132201500D01*
X125352000Y-132201500D01*
X125123479Y-132201500D01*
X125056440Y-132181815D01*
X125010685Y-132129011D01*
X125000741Y-132059853D01*
X125027936Y-131998459D01*
X125072063Y-131945119D01*
X125129963Y-131906012D01*
X125167606Y-131900160D01*
X127367064Y-131900160D01*
X127434103Y-131919845D01*
X127471759Y-131957715D01*
X127481375Y-131972867D01*
X127597018Y-132081463D01*
X127736035Y-132157888D01*
X127736037Y-132157889D01*
X127889688Y-132197340D01*
X127889690Y-132197340D01*
X128804714Y-132197340D01*
X128808609Y-132197340D01*
X128906816Y-132184933D01*
X128926499Y-132182447D01*
X129000247Y-132153247D01*
X129073997Y-132124048D01*
X129202339Y-132030802D01*
X129303460Y-131908569D01*
X129371005Y-131765028D01*
X129400731Y-131609198D01*
X129398600Y-131575334D01*
X129390770Y-131450873D01*
X129390770Y-131450872D01*
X129341748Y-131299997D01*
X129256745Y-131166053D01*
X129141102Y-131057457D01*
X129020237Y-130991011D01*
X129002082Y-130981030D01*
X128848432Y-130941580D01*
X128848430Y-130941580D01*
X127929511Y-130941580D01*
X127925652Y-130942067D01*
X127925644Y-130942068D01*
X127811620Y-130956472D01*
X127664123Y-131014871D01*
X127535781Y-131108117D01*
X127464897Y-131193801D01*
X127406997Y-131232908D01*
X127369354Y-131238760D01*
X125169896Y-131238760D01*
X125102857Y-131219075D01*
X125065199Y-131181203D01*
X125055585Y-131166053D01*
X124939942Y-131057457D01*
X124819077Y-130991011D01*
X124800922Y-130981030D01*
X124647272Y-130941580D01*
X124647270Y-130941580D01*
X123728351Y-130941580D01*
X123724492Y-130942067D01*
X123724484Y-130942068D01*
X123610460Y-130956472D01*
X123462963Y-131014871D01*
X123334621Y-131108117D01*
X123233500Y-131230349D01*
X123165955Y-131373890D01*
X123136228Y-131529725D01*
X123138241Y-131561715D01*
X123122805Y-131629858D01*
X123072977Y-131678838D01*
X123014486Y-131693500D01*
X122430499Y-131693500D01*
X122363460Y-131673815D01*
X122317705Y-131621011D01*
X122306623Y-131570070D01*
X122306765Y-131574396D01*
X122306499Y-131570340D01*
X122306499Y-131566284D01*
X122301985Y-131531993D01*
X122285373Y-131469993D01*
X122272135Y-131438034D01*
X122270101Y-131434511D01*
X122252863Y-131404654D01*
X122238134Y-131364185D01*
X122233787Y-131339530D01*
X122233787Y-131296466D01*
X122236482Y-131281181D01*
X122238135Y-131271806D01*
X122252863Y-131231342D01*
X122272136Y-131197962D01*
X122285372Y-131166005D01*
X122301984Y-131104006D01*
X122306499Y-131069714D01*
X122306499Y-131058285D01*
X122301984Y-131023991D01*
X122285371Y-130961992D01*
X122272134Y-130930036D01*
X122252862Y-130896657D01*
X122238135Y-130856190D01*
X122233784Y-130831512D01*
X122233781Y-130788467D01*
X122245407Y-130722479D01*
X122246029Y-130718594D01*
X122246346Y-130678789D01*
X122236402Y-130609631D01*
X122205388Y-130541720D01*
X122159633Y-130488916D01*
X122096827Y-130448552D01*
X122096826Y-130448551D01*
X122096825Y-130448551D01*
X122029785Y-130428866D01*
X121992458Y-130423500D01*
X121992457Y-130423500D01*
X120545900Y-130423500D01*
X120478861Y-130403815D01*
X120433106Y-130351011D01*
X120421900Y-130299500D01*
X120421900Y-125135299D01*
X120441585Y-125068260D01*
X120458214Y-125047623D01*
X120801329Y-124704508D01*
X120814466Y-124695058D01*
X120821597Y-124687234D01*
X120821599Y-124687234D01*
X120850580Y-124655442D01*
X120854471Y-124651366D01*
X120866258Y-124639581D01*
X120866264Y-124639571D01*
X120867157Y-124638679D01*
X120875738Y-124627845D01*
X120892098Y-124609901D01*
X120894071Y-124604806D01*
X120907398Y-124579523D01*
X120910486Y-124575016D01*
X120916048Y-124551363D01*
X120921122Y-124534978D01*
X120929900Y-124512322D01*
X120929900Y-124506849D01*
X120933193Y-124478463D01*
X120934443Y-124473151D01*
X120931089Y-124449105D01*
X120929900Y-124431975D01*
X120929900Y-123987151D01*
X120949585Y-123920112D01*
X121002389Y-123874357D01*
X121071547Y-123864413D01*
X121135103Y-123893438D01*
X121145626Y-123906184D01*
X121184225Y-123938572D01*
X121192200Y-123945880D01*
X121579965Y-124333646D01*
X121969298Y-124722979D01*
X121969302Y-124722982D01*
X121981392Y-124735072D01*
X121998183Y-124742901D01*
X122016898Y-124753706D01*
X122032084Y-124764340D01*
X122049984Y-124769135D01*
X122070299Y-124776530D01*
X122087088Y-124784360D01*
X122105558Y-124785975D01*
X122126825Y-124789725D01*
X122144733Y-124794524D01*
X122163200Y-124792908D01*
X122184799Y-124792908D01*
X122203267Y-124794524D01*
X122221170Y-124789726D01*
X122242441Y-124785975D01*
X122260912Y-124784360D01*
X122260914Y-124784358D01*
X122282696Y-124782454D01*
X122282803Y-124783681D01*
X122296250Y-124780700D01*
X127010065Y-124780700D01*
X127077104Y-124800385D01*
X127119422Y-124846246D01*
X127199306Y-124995698D01*
X127321459Y-125144541D01*
X127470302Y-125266694D01*
X127555209Y-125312077D01*
X127640116Y-125357462D01*
X127720349Y-125381800D01*
X127824376Y-125413357D01*
X128016000Y-125432230D01*
X128207624Y-125413357D01*
X128391883Y-125357462D01*
X128561698Y-125266694D01*
X128710541Y-125144541D01*
X128832694Y-124995698D01*
X128923462Y-124825883D01*
X128979357Y-124641624D01*
X128998230Y-124450000D01*
X128979357Y-124258376D01*
X128939264Y-124126209D01*
X128923462Y-124074116D01*
X128854918Y-123945881D01*
X128832694Y-123904302D01*
X128710541Y-123755459D01*
X128561698Y-123633306D01*
X128550731Y-123627444D01*
X128391883Y-123542537D01*
X128207625Y-123486643D01*
X128016000Y-123467770D01*
X127824374Y-123486643D01*
X127640116Y-123542537D01*
X127470303Y-123633305D01*
X127321459Y-123755459D01*
X127199305Y-123904303D01*
X127156457Y-123984467D01*
X127123816Y-124045535D01*
X127119423Y-124053753D01*
X127070461Y-124103597D01*
X127010065Y-124119300D01*
X122352343Y-124119300D01*
X122285304Y-124099615D01*
X122264662Y-124082981D01*
X121779019Y-123597338D01*
X121745534Y-123536015D01*
X121742700Y-123509657D01*
X121742700Y-121493742D01*
X121762385Y-121426703D01*
X121815189Y-121380948D01*
X121884347Y-121371004D01*
X121947903Y-121400029D01*
X121954381Y-121406061D01*
X122678121Y-122129802D01*
X122685429Y-122137777D01*
X122710151Y-122167239D01*
X122743456Y-122186469D01*
X122752575Y-122192279D01*
X122784848Y-122214876D01*
X122810227Y-122225389D01*
X122849033Y-122232231D01*
X122859595Y-122234572D01*
X122896733Y-122244524D01*
X122935048Y-122241171D01*
X122945855Y-122240700D01*
X127010065Y-122240700D01*
X127077104Y-122260385D01*
X127119422Y-122306246D01*
X127199306Y-122455698D01*
X127321459Y-122604541D01*
X127470302Y-122726694D01*
X127529618Y-122758399D01*
X127640116Y-122817462D01*
X127720349Y-122841800D01*
X127824376Y-122873357D01*
X128016000Y-122892230D01*
X128207624Y-122873357D01*
X128391883Y-122817462D01*
X128561698Y-122726694D01*
X128710541Y-122604541D01*
X128832694Y-122455698D01*
X128923462Y-122285883D01*
X128979357Y-122101624D01*
X128998230Y-121910000D01*
X128979357Y-121718376D01*
X128923462Y-121534117D01*
X128923462Y-121534116D01*
X128866048Y-121426703D01*
X128832694Y-121364302D01*
X128710541Y-121215459D01*
X128561698Y-121093306D01*
X128494407Y-121057338D01*
X128391883Y-121002537D01*
X128207625Y-120946643D01*
X128016000Y-120927770D01*
X127824374Y-120946643D01*
X127640116Y-121002537D01*
X127470303Y-121093305D01*
X127321459Y-121215459D01*
X127199305Y-121364303D01*
X127119423Y-121513753D01*
X127070461Y-121563597D01*
X127010065Y-121579300D01*
X123114343Y-121579300D01*
X123047304Y-121559615D01*
X123026662Y-121542981D01*
X122541019Y-121057338D01*
X122507534Y-120996015D01*
X122504700Y-120969657D01*
X122504700Y-119370000D01*
X127033770Y-119370000D01*
X127052643Y-119561625D01*
X127108537Y-119745883D01*
X127169991Y-119860854D01*
X127199306Y-119915698D01*
X127321459Y-120064541D01*
X127470302Y-120186694D01*
X127494779Y-120199777D01*
X127640116Y-120277462D01*
X127690560Y-120292764D01*
X127824376Y-120333357D01*
X128016000Y-120352230D01*
X128207624Y-120333357D01*
X128391883Y-120277462D01*
X128561698Y-120186694D01*
X128710541Y-120064541D01*
X128832694Y-119915698D01*
X128923462Y-119745883D01*
X128979357Y-119561624D01*
X128998230Y-119370000D01*
X128979357Y-119178376D01*
X128942279Y-119056146D01*
X128923462Y-118994116D01*
X128854918Y-118865881D01*
X128832694Y-118824302D01*
X128710541Y-118675459D01*
X128561698Y-118553306D01*
X128550731Y-118547444D01*
X128391883Y-118462537D01*
X128207625Y-118406643D01*
X128016000Y-118387770D01*
X127824374Y-118406643D01*
X127640116Y-118462537D01*
X127470303Y-118553305D01*
X127321459Y-118675459D01*
X127199305Y-118824303D01*
X127108537Y-118994116D01*
X127052643Y-119178374D01*
X127033770Y-119370000D01*
X122504700Y-119370000D01*
X122504700Y-117113855D01*
X122505172Y-117103047D01*
X122508524Y-117064733D01*
X122498570Y-117027585D01*
X122496229Y-117017023D01*
X122489388Y-116978227D01*
X122478879Y-116952852D01*
X122456277Y-116920575D01*
X122450471Y-116911463D01*
X122431239Y-116878151D01*
X122401771Y-116853424D01*
X122393796Y-116846116D01*
X121263882Y-115716202D01*
X121256573Y-115708226D01*
X121246610Y-115696353D01*
X121231849Y-115678761D01*
X121231848Y-115678760D01*
X121198545Y-115659532D01*
X121189423Y-115653721D01*
X121157151Y-115631124D01*
X121131770Y-115620610D01*
X121092975Y-115613770D01*
X121082414Y-115611429D01*
X121045267Y-115601475D01*
X121009554Y-115604600D01*
X121006951Y-115604828D01*
X120996145Y-115605300D01*
X119351065Y-115605300D01*
X119343600Y-115606616D01*
X119322254Y-115608483D01*
X119301555Y-115614029D01*
X119265147Y-115620449D01*
X119233131Y-115638933D01*
X119213715Y-115647987D01*
X119196169Y-115660273D01*
X119164151Y-115678760D01*
X119140389Y-115707078D01*
X119125236Y-115722231D01*
X119112950Y-115739777D01*
X119089186Y-115768099D01*
X119076543Y-115802835D01*
X119067487Y-115822259D01*
X119061942Y-115842949D01*
X119049300Y-115877686D01*
X119049300Y-115914649D01*
X119047432Y-115935999D01*
X119049300Y-115957351D01*
X119049300Y-115994311D01*
X119061943Y-116029049D01*
X119067490Y-116049749D01*
X119076542Y-116069162D01*
X119089185Y-116103899D01*
X119112946Y-116132216D01*
X119125237Y-116149769D01*
X119140387Y-116164919D01*
X119151887Y-116178624D01*
X119154130Y-116181297D01*
X119182141Y-116245307D01*
X119171099Y-116314298D01*
X119154125Y-116340708D01*
X119140389Y-116357077D01*
X119125236Y-116372231D01*
X119112950Y-116389777D01*
X119089186Y-116418099D01*
X119076543Y-116452835D01*
X119067487Y-116472259D01*
X119061942Y-116492949D01*
X119049300Y-116527686D01*
X119049300Y-116564649D01*
X119047432Y-116585999D01*
X119049300Y-116607351D01*
X119049300Y-116644310D01*
X119061943Y-116679049D01*
X119067490Y-116699749D01*
X119076542Y-116719162D01*
X119089185Y-116753899D01*
X119112946Y-116782216D01*
X119125237Y-116799769D01*
X119140382Y-116814913D01*
X119164151Y-116843239D01*
X119164153Y-116843240D01*
X119164154Y-116843241D01*
X119196164Y-116861723D01*
X119213721Y-116874015D01*
X119233133Y-116883067D01*
X119265149Y-116901551D01*
X119301557Y-116907970D01*
X119322250Y-116913515D01*
X119343600Y-116915383D01*
X119351065Y-116916700D01*
X120461658Y-116916700D01*
X120528697Y-116936385D01*
X120549339Y-116953019D01*
X121044980Y-117448660D01*
X121078465Y-117509983D01*
X121081299Y-117536341D01*
X121081300Y-118286464D01*
X121061616Y-118353503D01*
X121008812Y-118399258D01*
X120939653Y-118409202D01*
X120877595Y-118381454D01*
X120816276Y-118330002D01*
X120816275Y-118330001D01*
X120747248Y-118304877D01*
X120707747Y-118290500D01*
X120592253Y-118290500D01*
X120556076Y-118303667D01*
X120483722Y-118330002D01*
X120413775Y-118388695D01*
X120349767Y-118416707D01*
X120280775Y-118405668D01*
X120228704Y-118359081D01*
X120211954Y-118315236D01*
X120200497Y-118250261D01*
X120142750Y-118150240D01*
X120054277Y-118076002D01*
X119991085Y-118053002D01*
X119945747Y-118036500D01*
X119830253Y-118036500D01*
X119794076Y-118049667D01*
X119721722Y-118076002D01*
X119633249Y-118150240D01*
X119575502Y-118250260D01*
X119555447Y-118363999D01*
X119575503Y-118477739D01*
X119591487Y-118505424D01*
X119608100Y-118567424D01*
X119608100Y-118682639D01*
X119588415Y-118749678D01*
X119535611Y-118795433D01*
X119466453Y-118805377D01*
X119462591Y-118804759D01*
X119458469Y-118804033D01*
X119437748Y-118798484D01*
X119416399Y-118796616D01*
X119408935Y-118795300D01*
X119408934Y-118795300D01*
X118383855Y-118795300D01*
X118373048Y-118794828D01*
X118369938Y-118794555D01*
X118334731Y-118791475D01*
X118297585Y-118801428D01*
X118287030Y-118803769D01*
X118248227Y-118810611D01*
X118222848Y-118821123D01*
X118190577Y-118843720D01*
X118181456Y-118849531D01*
X118148150Y-118868760D01*
X118123419Y-118898233D01*
X118116113Y-118906205D01*
X117890205Y-119132113D01*
X117882234Y-119139418D01*
X117852761Y-119164150D01*
X117837698Y-119190239D01*
X117787129Y-119238453D01*
X117718521Y-119251673D01*
X117653658Y-119225703D01*
X117635322Y-119207938D01*
X117615052Y-119183780D01*
X117602762Y-119166229D01*
X117587612Y-119151079D01*
X117563850Y-119122761D01*
X117531834Y-119104276D01*
X117514282Y-119091986D01*
X117494868Y-119082933D01*
X117462852Y-119064449D01*
X117426444Y-119058029D01*
X117405748Y-119052484D01*
X117384399Y-119050616D01*
X117376935Y-119049300D01*
X117376934Y-119049300D01*
X116751499Y-119049300D01*
X116684460Y-119029615D01*
X116638705Y-118976811D01*
X116627499Y-118925300D01*
X116627499Y-118419176D01*
X116627498Y-118419169D01*
X116616809Y-118345796D01*
X116561476Y-118232610D01*
X116561474Y-118232608D01*
X116561474Y-118232607D01*
X116472391Y-118143524D01*
X116414477Y-118115212D01*
X116359204Y-118088191D01*
X116359202Y-118088190D01*
X116359201Y-118088190D01*
X116285830Y-118077500D01*
X115389176Y-118077500D01*
X115315796Y-118088191D01*
X115202607Y-118143525D01*
X115113524Y-118232608D01*
X115058190Y-118345798D01*
X115047500Y-118419169D01*
X115047500Y-120340823D01*
X115052428Y-120374649D01*
X115058191Y-120414204D01*
X115104461Y-120508852D01*
X115113525Y-120527392D01*
X115202608Y-120616475D01*
X115202609Y-120616475D01*
X115202610Y-120616476D01*
X115315796Y-120671809D01*
X115389173Y-120682500D01*
X116285826Y-120682499D01*
X116359204Y-120671809D01*
X116472390Y-120616476D01*
X116561476Y-120527390D01*
X116616809Y-120414204D01*
X116623115Y-120370923D01*
X116627500Y-120340830D01*
X116627500Y-119834700D01*
X116647185Y-119767661D01*
X116699989Y-119721906D01*
X116751500Y-119710700D01*
X117376934Y-119710700D01*
X117376935Y-119710700D01*
X117384399Y-119709383D01*
X117405747Y-119707516D01*
X117426440Y-119701970D01*
X117462851Y-119695551D01*
X117494867Y-119677065D01*
X117514290Y-119668008D01*
X117531835Y-119655722D01*
X117563849Y-119637239D01*
X117563848Y-119637239D01*
X117582786Y-119626306D01*
X117582868Y-119626448D01*
X117618479Y-119602755D01*
X117688339Y-119601645D01*
X117747710Y-119638480D01*
X117777742Y-119701566D01*
X117779300Y-119721162D01*
X117779300Y-126811658D01*
X117759615Y-126878697D01*
X117742981Y-126899339D01*
X117501339Y-127140981D01*
X117440016Y-127174466D01*
X117413658Y-127177300D01*
X116751499Y-127177300D01*
X116684460Y-127157615D01*
X116638705Y-127104811D01*
X116627499Y-127053300D01*
X116627499Y-126547176D01*
X116627498Y-126547169D01*
X116616809Y-126473796D01*
X116561476Y-126360610D01*
X116561474Y-126360608D01*
X116561474Y-126360607D01*
X116472391Y-126271524D01*
X116374269Y-126223556D01*
X116359204Y-126216191D01*
X116359202Y-126216190D01*
X116359201Y-126216190D01*
X116285830Y-126205500D01*
X115389176Y-126205500D01*
X115315796Y-126216191D01*
X115202607Y-126271525D01*
X115113524Y-126360608D01*
X115058190Y-126473798D01*
X115047500Y-126547169D01*
X115047500Y-127569668D01*
X115027815Y-127636707D01*
X114975011Y-127682462D01*
X114912689Y-127693196D01*
X114884112Y-127690695D01*
X114874202Y-127688500D01*
X114865747Y-127688500D01*
X114864421Y-127688500D01*
X114853614Y-127688028D01*
X114848920Y-127687617D01*
X114778734Y-127681476D01*
X114770170Y-127683771D01*
X114768289Y-127684275D01*
X114758219Y-127685600D01*
X114749010Y-127688952D01*
X114738703Y-127692202D01*
X114666082Y-127711660D01*
X114657207Y-127717875D01*
X114648214Y-127722557D01*
X114640716Y-127728848D01*
X114632147Y-127735422D01*
X114594618Y-127761701D01*
X114562234Y-127794084D01*
X114554274Y-127801380D01*
X114546762Y-127807684D01*
X114540582Y-127815736D01*
X113759636Y-128596682D01*
X113698313Y-128630167D01*
X113628621Y-128625183D01*
X113572688Y-128583311D01*
X113548271Y-128517847D01*
X113549250Y-128491128D01*
X113552500Y-128468827D01*
X113552499Y-126547174D01*
X113541809Y-126473796D01*
X113486476Y-126360610D01*
X113486474Y-126360608D01*
X113486474Y-126360607D01*
X113397391Y-126271524D01*
X113299269Y-126223556D01*
X113284204Y-126216191D01*
X113284202Y-126216190D01*
X113284201Y-126216190D01*
X113210830Y-126205500D01*
X112314176Y-126205500D01*
X112240796Y-126216191D01*
X112127607Y-126271525D01*
X112038524Y-126360608D01*
X111983190Y-126473798D01*
X111972500Y-126547169D01*
X111972500Y-127053300D01*
X111952815Y-127120339D01*
X111900011Y-127166094D01*
X111848500Y-127177300D01*
X111691763Y-127177300D01*
X111624724Y-127157615D01*
X111578969Y-127104811D01*
X111569025Y-127035653D01*
X111579381Y-127000895D01*
X111594221Y-126969070D01*
X111600500Y-126921375D01*
X111600499Y-126444626D01*
X111594221Y-126396929D01*
X111545411Y-126292256D01*
X111545410Y-126292255D01*
X111545410Y-126292254D01*
X111463744Y-126210588D01*
X111359071Y-126161778D01*
X111315397Y-126156029D01*
X111315389Y-126156028D01*
X111311375Y-126155500D01*
X111307320Y-126155500D01*
X110688685Y-126155500D01*
X110688669Y-126155500D01*
X110684626Y-126155501D01*
X110680609Y-126156029D01*
X110680604Y-126156030D01*
X110636927Y-126161779D01*
X110532253Y-126210589D01*
X110524379Y-126218464D01*
X110463055Y-126251948D01*
X110393364Y-126246962D01*
X110337431Y-126205089D01*
X110313016Y-126139624D01*
X110312700Y-126130781D01*
X110312700Y-123463843D01*
X110313172Y-123453035D01*
X110316523Y-123414735D01*
X110316522Y-123414734D01*
X110316523Y-123414733D01*
X110306566Y-123377575D01*
X110304232Y-123367046D01*
X110297551Y-123329149D01*
X110297549Y-123329147D01*
X110297387Y-123328223D01*
X110286879Y-123302852D01*
X110264277Y-123270575D01*
X110258471Y-123261463D01*
X110239239Y-123228151D01*
X110209771Y-123203424D01*
X110201796Y-123196116D01*
X109914851Y-122909171D01*
X109881366Y-122847848D01*
X109886350Y-122778156D01*
X109928222Y-122722223D01*
X109993686Y-122697806D01*
X110048713Y-122709776D01*
X110049172Y-122708518D01*
X110058449Y-122711894D01*
X110061959Y-122712658D01*
X110063571Y-122713758D01*
X110070955Y-122716446D01*
X110080952Y-122720587D01*
X110149088Y-122752360D01*
X110159855Y-122753302D01*
X110169769Y-122755500D01*
X110178253Y-122755500D01*
X110179568Y-122755500D01*
X110190374Y-122755971D01*
X110212893Y-122757942D01*
X110265265Y-122762524D01*
X110265265Y-122762523D01*
X110265267Y-122762524D01*
X110275714Y-122759724D01*
X110285782Y-122758399D01*
X110293744Y-122755500D01*
X110293747Y-122755500D01*
X110294990Y-122755047D01*
X110305302Y-122751795D01*
X110348262Y-122740285D01*
X110377913Y-122732341D01*
X110377913Y-122732340D01*
X110377916Y-122732340D01*
X110386765Y-122726143D01*
X110395769Y-122721457D01*
X110402273Y-122715998D01*
X110402276Y-122715998D01*
X110403288Y-122715148D01*
X110411860Y-122708571D01*
X110449380Y-122682300D01*
X110481774Y-122649904D01*
X110489733Y-122642612D01*
X110490750Y-122641760D01*
X110490750Y-122641758D01*
X110497257Y-122636300D01*
X110503443Y-122628236D01*
X110590663Y-122541018D01*
X110651986Y-122507533D01*
X110678343Y-122504700D01*
X110995500Y-122504700D01*
X111062539Y-122524385D01*
X111108294Y-122577189D01*
X111119500Y-122628700D01*
X111119500Y-125606000D01*
X111122528Y-125634166D01*
X111123233Y-125637409D01*
X111123234Y-125637412D01*
X111133733Y-125685675D01*
X111133733Y-125685676D01*
X111133734Y-125685677D01*
X111163069Y-125744280D01*
X111208824Y-125797084D01*
X111271630Y-125837448D01*
X111338669Y-125857133D01*
X111357401Y-125859826D01*
X111375999Y-125862500D01*
X111376000Y-125862500D01*
X112902690Y-125862500D01*
X112906000Y-125862500D01*
X112934166Y-125859472D01*
X112985677Y-125848266D01*
X113044280Y-125818931D01*
X113097084Y-125773176D01*
X113137448Y-125710370D01*
X113157133Y-125643331D01*
X113162500Y-125606000D01*
X113162500Y-121282000D01*
X113159472Y-121253834D01*
X113148266Y-121202323D01*
X113118931Y-121143720D01*
X113073176Y-121090916D01*
X113010370Y-121050552D01*
X113010369Y-121050551D01*
X113010368Y-121050551D01*
X112943328Y-121030866D01*
X112906001Y-121025500D01*
X112906000Y-121025500D01*
X111376000Y-121025500D01*
X111372720Y-121025852D01*
X111372712Y-121025853D01*
X111351134Y-121028173D01*
X111351129Y-121028173D01*
X111347834Y-121028528D01*
X111344593Y-121029232D01*
X111344587Y-121029234D01*
X111296324Y-121039733D01*
X111237720Y-121069069D01*
X111184916Y-121114823D01*
X111144551Y-121177631D01*
X111124866Y-121244671D01*
X111119500Y-121281998D01*
X111119500Y-121719300D01*
X111099815Y-121786339D01*
X111047011Y-121832094D01*
X110995500Y-121843300D01*
X110509855Y-121843300D01*
X110499048Y-121842828D01*
X110495938Y-121842555D01*
X110460731Y-121839475D01*
X110423585Y-121849428D01*
X110413030Y-121851769D01*
X110374227Y-121858611D01*
X110348848Y-121869123D01*
X110316577Y-121891720D01*
X110307456Y-121897531D01*
X110274150Y-121916760D01*
X110249419Y-121946233D01*
X110242113Y-121954205D01*
X110016381Y-122179938D01*
X109955058Y-122213423D01*
X109885367Y-122208439D01*
X109829433Y-122166568D01*
X109805016Y-122101103D01*
X109804700Y-122092257D01*
X109804700Y-120875065D01*
X109804699Y-120669847D01*
X109805171Y-120659036D01*
X109805678Y-120653239D01*
X109808523Y-120620733D01*
X109798567Y-120583580D01*
X109796232Y-120573046D01*
X109789551Y-120535149D01*
X109789549Y-120535147D01*
X109789387Y-120534223D01*
X109778879Y-120508852D01*
X109756277Y-120476575D01*
X109750471Y-120467463D01*
X109731239Y-120434151D01*
X109707467Y-120414204D01*
X109701771Y-120409424D01*
X109693796Y-120402116D01*
X109214061Y-119922381D01*
X109180576Y-119861058D01*
X109185560Y-119791366D01*
X109227432Y-119735433D01*
X109292896Y-119711016D01*
X109301742Y-119710700D01*
X110304237Y-119710700D01*
X110371276Y-119730385D01*
X110417031Y-119783189D01*
X110426975Y-119852347D01*
X110416619Y-119887105D01*
X110401778Y-119918929D01*
X110396029Y-119962602D01*
X110396029Y-119962604D01*
X110395500Y-119966625D01*
X110395500Y-119970678D01*
X110395500Y-119970679D01*
X110395500Y-120439314D01*
X110395500Y-120439329D01*
X110395501Y-120443374D01*
X110396029Y-120447391D01*
X110396030Y-120447395D01*
X110401779Y-120491072D01*
X110450589Y-120595745D01*
X110532255Y-120677411D01*
X110636928Y-120726221D01*
X110644153Y-120727172D01*
X110684625Y-120732500D01*
X111311374Y-120732499D01*
X111359071Y-120726221D01*
X111463744Y-120677411D01*
X111545411Y-120595744D01*
X111594221Y-120491071D01*
X111600500Y-120443375D01*
X111600499Y-119966626D01*
X111594221Y-119918929D01*
X111579381Y-119887104D01*
X111568890Y-119818026D01*
X111597410Y-119754243D01*
X111655887Y-119716004D01*
X111691764Y-119710700D01*
X111848501Y-119710700D01*
X111915540Y-119730385D01*
X111961295Y-119783189D01*
X111972501Y-119834700D01*
X111972501Y-120340826D01*
X111983191Y-120414204D01*
X112029461Y-120508852D01*
X112038525Y-120527392D01*
X112127608Y-120616475D01*
X112127609Y-120616475D01*
X112127610Y-120616476D01*
X112240796Y-120671809D01*
X112314173Y-120682500D01*
X113210826Y-120682499D01*
X113284204Y-120671809D01*
X113397390Y-120616476D01*
X113486476Y-120527390D01*
X113541809Y-120414204D01*
X113552500Y-120340827D01*
X113552499Y-118419174D01*
X113541809Y-118345796D01*
X113486476Y-118232610D01*
X113486474Y-118232608D01*
X113486474Y-118232607D01*
X113398248Y-118144381D01*
X113364763Y-118083058D01*
X113369747Y-118013366D01*
X113411619Y-117957433D01*
X113477083Y-117933016D01*
X113485929Y-117932700D01*
X113845300Y-117932700D01*
X113912339Y-117952385D01*
X113958094Y-118005189D01*
X113969300Y-118056700D01*
X113969300Y-124186143D01*
X113968828Y-124196951D01*
X113965475Y-124235267D01*
X113975429Y-124272414D01*
X113977770Y-124282975D01*
X113984610Y-124321770D01*
X113995124Y-124347151D01*
X114017721Y-124379423D01*
X114023532Y-124388545D01*
X114042760Y-124421848D01*
X114072226Y-124446573D01*
X114080202Y-124453882D01*
X114540573Y-124914253D01*
X114546757Y-124922312D01*
X114554261Y-124928608D01*
X114562238Y-124935918D01*
X114594620Y-124968300D01*
X114632148Y-124994578D01*
X114640718Y-125001154D01*
X114641724Y-125001998D01*
X114641725Y-125001998D01*
X114648230Y-125007457D01*
X114657231Y-125012142D01*
X114666082Y-125018340D01*
X114738688Y-125037793D01*
X114749001Y-125041044D01*
X114750253Y-125041500D01*
X114750255Y-125041500D01*
X114758217Y-125044398D01*
X114768289Y-125045724D01*
X114778733Y-125048523D01*
X114778733Y-125048522D01*
X114778734Y-125048523D01*
X114819629Y-125044945D01*
X114853614Y-125041971D01*
X114864421Y-125041500D01*
X114874226Y-125041500D01*
X114884145Y-125039301D01*
X114886222Y-125039119D01*
X114894912Y-125038359D01*
X114963052Y-125006583D01*
X114973038Y-125002448D01*
X114974276Y-125001998D01*
X114974278Y-125001996D01*
X114982264Y-124999090D01*
X114990828Y-124993633D01*
X115000607Y-124989073D01*
X115002256Y-124987424D01*
X115053763Y-124935915D01*
X115061739Y-124928608D01*
X115062750Y-124927760D01*
X115062750Y-124927758D01*
X115069259Y-124922299D01*
X115075443Y-124914236D01*
X115083072Y-124906608D01*
X115114848Y-124838461D01*
X115119839Y-124828877D01*
X115120497Y-124827739D01*
X115120497Y-124827737D01*
X115124746Y-124820380D01*
X115127802Y-124810683D01*
X115132359Y-124800912D01*
X115138910Y-124726025D01*
X115140321Y-124715308D01*
X115140552Y-124714000D01*
X115140551Y-124713998D01*
X115142023Y-124705654D01*
X115141580Y-124695507D01*
X115142523Y-124684733D01*
X115123063Y-124612105D01*
X115120724Y-124601550D01*
X115119026Y-124591919D01*
X115115141Y-124582539D01*
X115112340Y-124572083D01*
X115091974Y-124542998D01*
X115069221Y-124510503D01*
X115063405Y-124501374D01*
X115062749Y-124500238D01*
X115061731Y-124499384D01*
X115053756Y-124492076D01*
X114667019Y-124105339D01*
X114633534Y-124044016D01*
X114630700Y-124017658D01*
X114630700Y-117875855D01*
X114631172Y-117865047D01*
X114634524Y-117826733D01*
X114624570Y-117789585D01*
X114622229Y-117779023D01*
X114615388Y-117740227D01*
X114604879Y-117714852D01*
X114582277Y-117682575D01*
X114576469Y-117673459D01*
X114557239Y-117640151D01*
X114527764Y-117615418D01*
X114519796Y-117608116D01*
X114293882Y-117382202D01*
X114286573Y-117374226D01*
X114261848Y-117344760D01*
X114228545Y-117325532D01*
X114219423Y-117319721D01*
X114187151Y-117297124D01*
X114161770Y-117286610D01*
X114122975Y-117279770D01*
X114112414Y-117277429D01*
X114075267Y-117267475D01*
X114039554Y-117270600D01*
X114036951Y-117270828D01*
X114026145Y-117271300D01*
X111271855Y-117271300D01*
X111261048Y-117270828D01*
X111257938Y-117270555D01*
X111222731Y-117267475D01*
X111185585Y-117277428D01*
X111175030Y-117279769D01*
X111136227Y-117286611D01*
X111110848Y-117297123D01*
X111078577Y-117319720D01*
X111069456Y-117325531D01*
X111036150Y-117344760D01*
X111011419Y-117374233D01*
X111004113Y-117382205D01*
X110778205Y-117608113D01*
X110770234Y-117615418D01*
X110740760Y-117640151D01*
X110721528Y-117673459D01*
X110715721Y-117682574D01*
X110693126Y-117714845D01*
X110682610Y-117740232D01*
X110675770Y-117779026D01*
X110673429Y-117789586D01*
X110663475Y-117826732D01*
X110666828Y-117865047D01*
X110667300Y-117875855D01*
X110667300Y-117940620D01*
X110647615Y-118007659D01*
X110595705Y-118053002D01*
X110532254Y-118082589D01*
X110450588Y-118164255D01*
X110401778Y-118268928D01*
X110396029Y-118312602D01*
X110396029Y-118312604D01*
X110395500Y-118316625D01*
X110395500Y-118320663D01*
X110395499Y-118320679D01*
X110395500Y-118638456D01*
X110375815Y-118705495D01*
X110359185Y-118726132D01*
X110072337Y-119012982D01*
X110011017Y-119046466D01*
X109984658Y-119049300D01*
X109154343Y-119049300D01*
X109087304Y-119029615D01*
X109066662Y-119012981D01*
X108571019Y-118517338D01*
X108537534Y-118456015D01*
X108534700Y-118429657D01*
X108534700Y-116607351D01*
X108536567Y-116585999D01*
X108534700Y-116564649D01*
X108534700Y-116557064D01*
X108529520Y-116527686D01*
X108519551Y-116471149D01*
X108461239Y-116370151D01*
X108445658Y-116357077D01*
X108371900Y-116295186D01*
X108262311Y-116255300D01*
X108145689Y-116255300D01*
X108036099Y-116295186D01*
X107946760Y-116370151D01*
X107888449Y-116471149D01*
X107873300Y-116557064D01*
X107873300Y-116564649D01*
X107871432Y-116586001D01*
X107873299Y-116607351D01*
X107873300Y-118598143D01*
X107872828Y-118608951D01*
X107869475Y-118647267D01*
X107879429Y-118684414D01*
X107881770Y-118694975D01*
X107888610Y-118733770D01*
X107899124Y-118759151D01*
X107921721Y-118791423D01*
X107927532Y-118800545D01*
X107941248Y-118824302D01*
X107946761Y-118833849D01*
X107962226Y-118846826D01*
X107976225Y-118858572D01*
X107984201Y-118865881D01*
X108717938Y-119599619D01*
X108751423Y-119660942D01*
X108746439Y-119730634D01*
X108704567Y-119786567D01*
X108639103Y-119810984D01*
X108630257Y-119811300D01*
X108429065Y-119811300D01*
X108421600Y-119812616D01*
X108400254Y-119814483D01*
X108379555Y-119820029D01*
X108343147Y-119826449D01*
X108311131Y-119844933D01*
X108291715Y-119853987D01*
X108274169Y-119866273D01*
X108242151Y-119884760D01*
X108218389Y-119913078D01*
X108203236Y-119928231D01*
X108190950Y-119945777D01*
X108167186Y-119974099D01*
X108154543Y-120008835D01*
X108145487Y-120028259D01*
X108139942Y-120048949D01*
X108127300Y-120083686D01*
X108127300Y-120120649D01*
X108125432Y-120141999D01*
X108127300Y-120163351D01*
X108127300Y-120200311D01*
X108139567Y-120234016D01*
X108139943Y-120235049D01*
X108145490Y-120255749D01*
X108154542Y-120275162D01*
X108167185Y-120309899D01*
X108190946Y-120338216D01*
X108203237Y-120355769D01*
X108218382Y-120370913D01*
X108242151Y-120399239D01*
X108242153Y-120399240D01*
X108242154Y-120399241D01*
X108274164Y-120417723D01*
X108291721Y-120430015D01*
X108311133Y-120439067D01*
X108343149Y-120457551D01*
X108379557Y-120463970D01*
X108400250Y-120469515D01*
X108421600Y-120471383D01*
X108429065Y-120472700D01*
X108777658Y-120472700D01*
X108844697Y-120492385D01*
X108865339Y-120509019D01*
X109106980Y-120750660D01*
X109140465Y-120811983D01*
X109143299Y-120838338D01*
X109143300Y-120875062D01*
X109143300Y-122916143D01*
X109142828Y-122926951D01*
X109139475Y-122965267D01*
X109149429Y-123002414D01*
X109151770Y-123012975D01*
X109158610Y-123051770D01*
X109169124Y-123077151D01*
X109191721Y-123109423D01*
X109197532Y-123118545D01*
X109216760Y-123151848D01*
X109246226Y-123176573D01*
X109254202Y-123183882D01*
X109614980Y-123544660D01*
X109648465Y-123605983D01*
X109651299Y-123632341D01*
X109651299Y-129518654D01*
X109649432Y-129539997D01*
X109651299Y-129561337D01*
X109651299Y-129568933D01*
X109666449Y-129654851D01*
X109694974Y-129704258D01*
X109724761Y-129755849D01*
X109814099Y-129830813D01*
X109923689Y-129870700D01*
X110040311Y-129870700D01*
X110149901Y-129830813D01*
X110239239Y-129755849D01*
X110297551Y-129654851D01*
X110312700Y-129568935D01*
X110312700Y-129561351D01*
X110314567Y-129539999D01*
X110312700Y-129518649D01*
X110312700Y-128885218D01*
X110332385Y-128818179D01*
X110385189Y-128772424D01*
X110454347Y-128762480D01*
X110517903Y-128791505D01*
X110524381Y-128797537D01*
X110532255Y-128805411D01*
X110653079Y-128861752D01*
X110699580Y-128882322D01*
X110738052Y-128940646D01*
X110743500Y-128976996D01*
X110743500Y-129637219D01*
X110723815Y-129704258D01*
X110707181Y-129724900D01*
X110234366Y-130197714D01*
X110173043Y-130231199D01*
X110168219Y-130232149D01*
X110121148Y-130240449D01*
X110044181Y-130284887D01*
X109982181Y-130301500D01*
X107090779Y-130301500D01*
X107023740Y-130281815D01*
X107003098Y-130265181D01*
X106462819Y-129724901D01*
X106429334Y-129663578D01*
X106426500Y-129637220D01*
X106426500Y-128771419D01*
X106443113Y-128709419D01*
X106484497Y-128637739D01*
X106504552Y-128524000D01*
X106484497Y-128410260D01*
X106426750Y-128310240D01*
X106338277Y-128236002D01*
X106284011Y-128216251D01*
X106229747Y-128196500D01*
X106114253Y-128196500D01*
X106078076Y-128209667D01*
X106005722Y-128236002D01*
X105917249Y-128310240D01*
X105859502Y-128410260D01*
X105839447Y-128524000D01*
X105859502Y-128637739D01*
X105900887Y-128709419D01*
X105917500Y-128771419D01*
X105917500Y-129756718D01*
X105915118Y-129780907D01*
X105912514Y-129793999D01*
X105915117Y-129807085D01*
X105915117Y-129807090D01*
X105915118Y-129807090D01*
X105919836Y-129830812D01*
X105932265Y-129893299D01*
X105932265Y-129893300D01*
X105932266Y-129893301D01*
X105974316Y-129956234D01*
X105974318Y-129956236D01*
X105981101Y-129966387D01*
X105981103Y-129966390D01*
X105988516Y-129977484D01*
X105999608Y-129984896D01*
X106018399Y-130000317D01*
X106107901Y-130089819D01*
X106141386Y-130151142D01*
X106136402Y-130220834D01*
X106094530Y-130276767D01*
X106029066Y-130301184D01*
X106020220Y-130301500D01*
X102518780Y-130301500D01*
X102451741Y-130281815D01*
X102431099Y-130265181D01*
X101436224Y-129270306D01*
X101402739Y-129208983D01*
X101401789Y-129161092D01*
X101404495Y-129145741D01*
X101404497Y-129145739D01*
X101424552Y-129032000D01*
X101418344Y-128996795D01*
X101404497Y-128918260D01*
X101346750Y-128818240D01*
X101258277Y-128744002D01*
X101202619Y-128723744D01*
X101149747Y-128704500D01*
X101034253Y-128704500D01*
X100998076Y-128717667D01*
X100925722Y-128744002D01*
X100837249Y-128818240D01*
X100779502Y-128918260D01*
X100759447Y-129032000D01*
X100779502Y-129145739D01*
X100816345Y-129209553D01*
X100832818Y-129277453D01*
X100832054Y-129283686D01*
X100841085Y-129329097D01*
X100841087Y-129329103D01*
X100852265Y-129385299D01*
X100852265Y-129385300D01*
X100852266Y-129385301D01*
X100894316Y-129448234D01*
X100894318Y-129448236D01*
X100901101Y-129458387D01*
X100901103Y-129458390D01*
X100908516Y-129469484D01*
X100919608Y-129476896D01*
X100938394Y-129492312D01*
X101148315Y-129702234D01*
X101165755Y-129719674D01*
X101165758Y-129719676D01*
X101657870Y-130211788D01*
X101691355Y-130273111D01*
X101686371Y-130342803D01*
X101673292Y-130368358D01*
X101663104Y-130383606D01*
X101647682Y-130402398D01*
X100839515Y-131210566D01*
X100794245Y-131239407D01*
X100671722Y-131284002D01*
X100583249Y-131358240D01*
X100525502Y-131458260D01*
X100505447Y-131572000D01*
X100254500Y-131572000D01*
X100254500Y-120395999D01*
X101013432Y-120395999D01*
X101015300Y-120417351D01*
X101015300Y-120454311D01*
X101021514Y-120471384D01*
X101027943Y-120489049D01*
X101033490Y-120509749D01*
X101042542Y-120529162D01*
X101055185Y-120563899D01*
X101078946Y-120592216D01*
X101091237Y-120609769D01*
X101106382Y-120624913D01*
X101130151Y-120653239D01*
X101130153Y-120653240D01*
X101130154Y-120653241D01*
X101162164Y-120671723D01*
X101179721Y-120684015D01*
X101199133Y-120693067D01*
X101231149Y-120711551D01*
X101267557Y-120717970D01*
X101288250Y-120723515D01*
X101309600Y-120725383D01*
X101317065Y-120726700D01*
X103349065Y-120726700D01*
X103358145Y-120726700D01*
X103368951Y-120727171D01*
X103407267Y-120730524D01*
X103407267Y-120730523D01*
X103408197Y-120730605D01*
X103437865Y-120726700D01*
X106745658Y-120726700D01*
X106812697Y-120746385D01*
X106833339Y-120763019D01*
X108090981Y-122020660D01*
X108124466Y-122081983D01*
X108127300Y-122108341D01*
X108127300Y-126049657D01*
X108107615Y-126116696D01*
X108090985Y-126137333D01*
X108023230Y-126205089D01*
X107958235Y-126270084D01*
X107950271Y-126277382D01*
X107949249Y-126278239D01*
X107948589Y-126279383D01*
X107942780Y-126288501D01*
X107899660Y-126350082D01*
X107896851Y-126360565D01*
X107892972Y-126369936D01*
X107891271Y-126379574D01*
X107888933Y-126390112D01*
X107869475Y-126462732D01*
X107870419Y-126473515D01*
X107869977Y-126483658D01*
X107871677Y-126493306D01*
X107873086Y-126504012D01*
X107879640Y-126578911D01*
X107884219Y-126588732D01*
X107887270Y-126598406D01*
X107891502Y-126605737D01*
X107891503Y-126605739D01*
X107892165Y-126606887D01*
X107897150Y-126616463D01*
X107928928Y-126684608D01*
X107936573Y-126692253D01*
X107942757Y-126700312D01*
X107950261Y-126706608D01*
X107958238Y-126713918D01*
X108011392Y-126767072D01*
X108021191Y-126771641D01*
X108029753Y-126777097D01*
X108038955Y-126780446D01*
X108048952Y-126784587D01*
X108117088Y-126816360D01*
X108127855Y-126817302D01*
X108137769Y-126819500D01*
X108146253Y-126819500D01*
X108147568Y-126819500D01*
X108158374Y-126819971D01*
X108180893Y-126821942D01*
X108233265Y-126826524D01*
X108233265Y-126826523D01*
X108233267Y-126826524D01*
X108243714Y-126823724D01*
X108253782Y-126822399D01*
X108261744Y-126819500D01*
X108261747Y-126819500D01*
X108262990Y-126819047D01*
X108273302Y-126815795D01*
X108316262Y-126804285D01*
X108345913Y-126796341D01*
X108345913Y-126796340D01*
X108345916Y-126796340D01*
X108354765Y-126790143D01*
X108363769Y-126785457D01*
X108370273Y-126779998D01*
X108370276Y-126779998D01*
X108371288Y-126779148D01*
X108379860Y-126772571D01*
X108417380Y-126746300D01*
X108449774Y-126713904D01*
X108457739Y-126706608D01*
X108458750Y-126705760D01*
X108458750Y-126705758D01*
X108465255Y-126700302D01*
X108471439Y-126692239D01*
X108677806Y-126485872D01*
X108685756Y-126478586D01*
X108715239Y-126453849D01*
X108734470Y-126420537D01*
X108740266Y-126411438D01*
X108762340Y-126379917D01*
X108762341Y-126379912D01*
X108762880Y-126379143D01*
X108773388Y-126353777D01*
X108780231Y-126314966D01*
X108782569Y-126304414D01*
X108792524Y-126267267D01*
X108789172Y-126228950D01*
X108788700Y-126218143D01*
X108788700Y-121939843D01*
X108789172Y-121929035D01*
X108792523Y-121890735D01*
X108792522Y-121890734D01*
X108792523Y-121890733D01*
X108782566Y-121853575D01*
X108780232Y-121843046D01*
X108773551Y-121805149D01*
X108773549Y-121805147D01*
X108773387Y-121804223D01*
X108762879Y-121778852D01*
X108740277Y-121746575D01*
X108734471Y-121737463D01*
X108715239Y-121704151D01*
X108685771Y-121679424D01*
X108677796Y-121672116D01*
X107301019Y-120295339D01*
X107267534Y-120234016D01*
X107264700Y-120207658D01*
X107264700Y-115843855D01*
X107265172Y-115833047D01*
X107268524Y-115794733D01*
X107258573Y-115757598D01*
X107256231Y-115747033D01*
X107249389Y-115708226D01*
X107238879Y-115682855D01*
X107238340Y-115682085D01*
X107238340Y-115682084D01*
X107216273Y-115650570D01*
X107210464Y-115641450D01*
X107204812Y-115631660D01*
X107191239Y-115608151D01*
X107187841Y-115605300D01*
X107161771Y-115583424D01*
X107153796Y-115576116D01*
X106285018Y-114707338D01*
X106251533Y-114646015D01*
X106248699Y-114619664D01*
X106248699Y-114321356D01*
X106250588Y-114299793D01*
X106250757Y-114298836D01*
X106281800Y-114236241D01*
X106341757Y-114200366D01*
X106372868Y-114196400D01*
X113902445Y-114196400D01*
X113969484Y-114216085D01*
X114015239Y-114268889D01*
X114025183Y-114338047D01*
X114013411Y-114364371D01*
X114016664Y-114365555D01*
X113996543Y-114420835D01*
X113987487Y-114440259D01*
X113981942Y-114460949D01*
X113969300Y-114495686D01*
X113969300Y-114532649D01*
X113967432Y-114553999D01*
X113969300Y-114575351D01*
X113969300Y-114612310D01*
X113981943Y-114647049D01*
X113987490Y-114667749D01*
X113996542Y-114687162D01*
X114009185Y-114721899D01*
X114032946Y-114750216D01*
X114045237Y-114767769D01*
X114060382Y-114782913D01*
X114084151Y-114811239D01*
X114084153Y-114811240D01*
X114084154Y-114811241D01*
X114116164Y-114829723D01*
X114133721Y-114842015D01*
X114153133Y-114851067D01*
X114185149Y-114869551D01*
X114221557Y-114875970D01*
X114242250Y-114881515D01*
X114263600Y-114883383D01*
X114271065Y-114884700D01*
X114271066Y-114884700D01*
X120678934Y-114884700D01*
X120678935Y-114884700D01*
X120686399Y-114883383D01*
X120707747Y-114881516D01*
X120728440Y-114875970D01*
X120764851Y-114869551D01*
X120796867Y-114851065D01*
X120816290Y-114842008D01*
X120833835Y-114829722D01*
X120865849Y-114811239D01*
X120889612Y-114782918D01*
X120904766Y-114767765D01*
X120917053Y-114750216D01*
X120940813Y-114721901D01*
X120953455Y-114687163D01*
X120962511Y-114667744D01*
X120968059Y-114647041D01*
X120968433Y-114646015D01*
X120980700Y-114612311D01*
X120980700Y-114575351D01*
X120982567Y-114554001D01*
X120980700Y-114532658D01*
X120980700Y-114495689D01*
X120968059Y-114460956D01*
X120962511Y-114440254D01*
X120953456Y-114420838D01*
X120940813Y-114386099D01*
X120923575Y-114365555D01*
X120917053Y-114357782D01*
X120904762Y-114340229D01*
X120889612Y-114325079D01*
X120865850Y-114296761D01*
X120833834Y-114278276D01*
X120816282Y-114265986D01*
X120796868Y-114256933D01*
X120764852Y-114238449D01*
X120761895Y-114237927D01*
X120758645Y-114237354D01*
X120696044Y-114206327D01*
X120660154Y-114146380D01*
X120662372Y-114076545D01*
X120685192Y-114035532D01*
X120686813Y-114033601D01*
X120699455Y-113998863D01*
X120708511Y-113979444D01*
X120714059Y-113958741D01*
X120726700Y-113924011D01*
X120726700Y-113887051D01*
X120728567Y-113865701D01*
X120726700Y-113844358D01*
X120726700Y-113807389D01*
X120714059Y-113772656D01*
X120708471Y-113751812D01*
X120708154Y-113750017D01*
X120715879Y-113680576D01*
X120759139Y-113626879D01*
X120771427Y-113618274D01*
X120780544Y-113612467D01*
X120813849Y-113593239D01*
X120838585Y-113563758D01*
X120845872Y-113555806D01*
X121448155Y-112953523D01*
X121509477Y-112920040D01*
X121579169Y-112925024D01*
X121597836Y-112933820D01*
X121646164Y-112961723D01*
X121663721Y-112974015D01*
X121683133Y-112983067D01*
X121715149Y-113001551D01*
X121751557Y-113007970D01*
X121772250Y-113013515D01*
X121793600Y-113015383D01*
X121801065Y-113016700D01*
X123260145Y-113016700D01*
X123270951Y-113017171D01*
X123309267Y-113020524D01*
X123346421Y-113010567D01*
X123356964Y-113008230D01*
X123394851Y-113001551D01*
X123394852Y-113001549D01*
X123395777Y-113001387D01*
X123421147Y-112990877D01*
X123421912Y-112990340D01*
X123421916Y-112990340D01*
X123453426Y-112968275D01*
X123462544Y-112962467D01*
X123463833Y-112961723D01*
X123495849Y-112943239D01*
X123520586Y-112913756D01*
X123527873Y-112905805D01*
X124109806Y-112323872D01*
X124117756Y-112316586D01*
X124147239Y-112291849D01*
X124166470Y-112258537D01*
X124172266Y-112249438D01*
X124194340Y-112217917D01*
X124194341Y-112217912D01*
X124194880Y-112217143D01*
X124205388Y-112191777D01*
X124212231Y-112152966D01*
X124214569Y-112142414D01*
X124224524Y-112105267D01*
X124221172Y-112066950D01*
X124220700Y-112056143D01*
X124220700Y-102859935D01*
X124240385Y-102792896D01*
X124286247Y-102750577D01*
X124286249Y-102750576D01*
X124435698Y-102670694D01*
X124584541Y-102548541D01*
X124624379Y-102499999D01*
X125617703Y-102499999D01*
X125636863Y-102767879D01*
X125693948Y-103030299D01*
X125693950Y-103030304D01*
X125787803Y-103281934D01*
X125837856Y-103373598D01*
X125916510Y-103517644D01*
X125960929Y-103576980D01*
X126077456Y-103732642D01*
X126267358Y-103922544D01*
X126423378Y-104039339D01*
X126482355Y-104083489D01*
X126541282Y-104115665D01*
X126718066Y-104212197D01*
X126969696Y-104306050D01*
X126969699Y-104306050D01*
X126969700Y-104306051D01*
X127007051Y-104314176D01*
X127232121Y-104363137D01*
X127480840Y-104380925D01*
X127499999Y-104382296D01*
X127499999Y-104382295D01*
X127500000Y-104382296D01*
X127767879Y-104363137D01*
X128030304Y-104306050D01*
X128281934Y-104212197D01*
X128517646Y-104083488D01*
X128732642Y-103922544D01*
X128922544Y-103732642D01*
X129083488Y-103517646D01*
X129212197Y-103281934D01*
X129306050Y-103030304D01*
X129363137Y-102767879D01*
X129382296Y-102500000D01*
X129363137Y-102232121D01*
X129306050Y-101969696D01*
X129212197Y-101718066D01*
X129083488Y-101482354D01*
X129080315Y-101478116D01*
X129043251Y-101428605D01*
X128922544Y-101267358D01*
X128732642Y-101077456D01*
X128557755Y-100946537D01*
X128517644Y-100916510D01*
X128399789Y-100852157D01*
X128281934Y-100787803D01*
X128030304Y-100693950D01*
X128030299Y-100693948D01*
X127767879Y-100636863D01*
X127500000Y-100617703D01*
X127232120Y-100636863D01*
X126969700Y-100693948D01*
X126877663Y-100728276D01*
X126718066Y-100787803D01*
X126671089Y-100813454D01*
X126482355Y-100916510D01*
X126267355Y-101077458D01*
X126077458Y-101267355D01*
X125916510Y-101482355D01*
X125818213Y-101662374D01*
X125787803Y-101718066D01*
X125737102Y-101854000D01*
X125693948Y-101969700D01*
X125636863Y-102232120D01*
X125617703Y-102499999D01*
X124624379Y-102499999D01*
X124706694Y-102399698D01*
X124797462Y-102229883D01*
X124853357Y-102045624D01*
X124872230Y-101854000D01*
X124853357Y-101662376D01*
X124798748Y-101482355D01*
X124797462Y-101478116D01*
X124752077Y-101393209D01*
X124706694Y-101308302D01*
X124584541Y-101159459D01*
X124435698Y-101037306D01*
X124424731Y-101031444D01*
X124265883Y-100946537D01*
X124081625Y-100890643D01*
X123985812Y-100881206D01*
X123890000Y-100871770D01*
X123889999Y-100871770D01*
X123698374Y-100890643D01*
X123514116Y-100946537D01*
X123344303Y-101037305D01*
X123195459Y-101159459D01*
X123073305Y-101308303D01*
X122982537Y-101478116D01*
X122926643Y-101662374D01*
X122907770Y-101854000D01*
X122926643Y-102045625D01*
X122982537Y-102229883D01*
X123036834Y-102331464D01*
X123073306Y-102399698D01*
X123195459Y-102548541D01*
X123344302Y-102670694D01*
X123493751Y-102750576D01*
X123493753Y-102750577D01*
X123543597Y-102799539D01*
X123559300Y-102859935D01*
X123559299Y-111887657D01*
X123539614Y-111954696D01*
X123522980Y-111975338D01*
X123179339Y-112318981D01*
X123118016Y-112352466D01*
X123091658Y-112355300D01*
X121804700Y-112355300D01*
X121737661Y-112335615D01*
X121691906Y-112282811D01*
X121680700Y-112231300D01*
X121680700Y-102859935D01*
X121700385Y-102792896D01*
X121746247Y-102750577D01*
X121746249Y-102750576D01*
X121895698Y-102670694D01*
X122044541Y-102548541D01*
X122166694Y-102399698D01*
X122257462Y-102229883D01*
X122313357Y-102045624D01*
X122332230Y-101854000D01*
X122313357Y-101662376D01*
X122258748Y-101482355D01*
X122257462Y-101478116D01*
X122212077Y-101393209D01*
X122166694Y-101308302D01*
X122044541Y-101159459D01*
X121895698Y-101037306D01*
X121884731Y-101031444D01*
X121725883Y-100946537D01*
X121541625Y-100890643D01*
X121350000Y-100871770D01*
X121158374Y-100890643D01*
X120974116Y-100946537D01*
X120804303Y-101037305D01*
X120655459Y-101159459D01*
X120533305Y-101308303D01*
X120442537Y-101478116D01*
X120386643Y-101662374D01*
X120367770Y-101854000D01*
X120386643Y-102045625D01*
X120442537Y-102229883D01*
X120496834Y-102331464D01*
X120533306Y-102399698D01*
X120655459Y-102548541D01*
X120804302Y-102670694D01*
X120953751Y-102750576D01*
X120953753Y-102750577D01*
X121003597Y-102799539D01*
X121019300Y-102859935D01*
X121019300Y-112395657D01*
X120999615Y-112462696D01*
X120982981Y-112483338D01*
X120497339Y-112968981D01*
X120436016Y-113002466D01*
X120409658Y-113005300D01*
X119859065Y-113005300D01*
X119851600Y-113006616D01*
X119830254Y-113008483D01*
X119809555Y-113014029D01*
X119773147Y-113020449D01*
X119741131Y-113038933D01*
X119721715Y-113047987D01*
X119704169Y-113060273D01*
X119672151Y-113078760D01*
X119648389Y-113107078D01*
X119633236Y-113122231D01*
X119620950Y-113139777D01*
X119597186Y-113168099D01*
X119584543Y-113202835D01*
X119575487Y-113222259D01*
X119569942Y-113242949D01*
X119557300Y-113277686D01*
X119557300Y-113314649D01*
X119555432Y-113335999D01*
X119557300Y-113357351D01*
X119557300Y-113411000D01*
X119537615Y-113478039D01*
X119484811Y-113523794D01*
X119433300Y-113535000D01*
X106434042Y-113535000D01*
X106367003Y-113515315D01*
X106346361Y-113498681D01*
X106044019Y-113196339D01*
X106010534Y-113135016D01*
X106007700Y-113108658D01*
X106007700Y-112797351D01*
X106009567Y-112775999D01*
X106007700Y-112754649D01*
X106007700Y-112747064D01*
X106005429Y-112734185D01*
X105992551Y-112661149D01*
X105934239Y-112560151D01*
X105844901Y-112485187D01*
X105844900Y-112485186D01*
X105735311Y-112445300D01*
X105618689Y-112445300D01*
X105509099Y-112485186D01*
X105419760Y-112560151D01*
X105361449Y-112661149D01*
X105346300Y-112747064D01*
X105346300Y-112754649D01*
X105344432Y-112775999D01*
X105346300Y-112797351D01*
X105346299Y-113277143D01*
X105345827Y-113287948D01*
X105342475Y-113326265D01*
X105352429Y-113363414D01*
X105354770Y-113373975D01*
X105361610Y-113412770D01*
X105372124Y-113438151D01*
X105394721Y-113470423D01*
X105400532Y-113479545D01*
X105414594Y-113503901D01*
X105419761Y-113512849D01*
X105446159Y-113535000D01*
X105449226Y-113537573D01*
X105457202Y-113544882D01*
X105747614Y-113835294D01*
X105781099Y-113896617D01*
X105776115Y-113966309D01*
X105739639Y-114017964D01*
X105660760Y-114084151D01*
X105602449Y-114185149D01*
X105587300Y-114271064D01*
X105587300Y-114278649D01*
X105585432Y-114299999D01*
X105587300Y-114321351D01*
X105587300Y-114788143D01*
X105586828Y-114798951D01*
X105583475Y-114837267D01*
X105593429Y-114874414D01*
X105595770Y-114884975D01*
X105602610Y-114923770D01*
X105613124Y-114949151D01*
X105635721Y-114981423D01*
X105641532Y-114990545D01*
X105660760Y-115023848D01*
X105690226Y-115048573D01*
X105698202Y-115055882D01*
X106566981Y-115924661D01*
X106600466Y-115985984D01*
X106603300Y-116012342D01*
X106603300Y-119941300D01*
X106583615Y-120008339D01*
X106530811Y-120054094D01*
X106479300Y-120065300D01*
X104342458Y-120065300D01*
X104275419Y-120045615D01*
X104229664Y-119992811D01*
X104219720Y-119923653D01*
X104220674Y-119918999D01*
X104220522Y-119917268D01*
X104220523Y-119917267D01*
X104217169Y-119878939D01*
X104216700Y-119868177D01*
X104216700Y-118639351D01*
X104218567Y-118617999D01*
X104216700Y-118596649D01*
X104216700Y-118589064D01*
X104210395Y-118553306D01*
X104201551Y-118503149D01*
X104143239Y-118402151D01*
X104053901Y-118327187D01*
X104053900Y-118327186D01*
X103944311Y-118287300D01*
X103827689Y-118287300D01*
X103718099Y-118327186D01*
X103628760Y-118402151D01*
X103570449Y-118503149D01*
X103555300Y-118589064D01*
X103555300Y-118596649D01*
X103553432Y-118617999D01*
X103555300Y-118639351D01*
X103555300Y-119699658D01*
X103535615Y-119766697D01*
X103518981Y-119787339D01*
X103277339Y-120028981D01*
X103216016Y-120062466D01*
X103189658Y-120065300D01*
X101317065Y-120065300D01*
X101309600Y-120066616D01*
X101288254Y-120068483D01*
X101267555Y-120074029D01*
X101231147Y-120080449D01*
X101199131Y-120098933D01*
X101179715Y-120107987D01*
X101162169Y-120120273D01*
X101130151Y-120138760D01*
X101106389Y-120167078D01*
X101091236Y-120182231D01*
X101078950Y-120199777D01*
X101055186Y-120228099D01*
X101042543Y-120262835D01*
X101033487Y-120282259D01*
X101027942Y-120302949D01*
X101015300Y-120337686D01*
X101015300Y-120374649D01*
X101013432Y-120395999D01*
X100254500Y-120395999D01*
X100254500Y-111730732D01*
X102281475Y-111730732D01*
X102284828Y-111769047D01*
X102285300Y-111779855D01*
X102285300Y-112500649D01*
X102283432Y-112521999D01*
X102285300Y-112543351D01*
X102285300Y-112550935D01*
X102300449Y-112636851D01*
X102358761Y-112737849D01*
X102448099Y-112812813D01*
X102557689Y-112852700D01*
X102674311Y-112852700D01*
X102783901Y-112812813D01*
X102873239Y-112737849D01*
X102931551Y-112636851D01*
X102946700Y-112550935D01*
X102946700Y-112543351D01*
X102948567Y-112522001D01*
X102946700Y-112500660D01*
X102946699Y-111948340D01*
X102966385Y-111881301D01*
X102983014Y-111860665D01*
X103124300Y-111719380D01*
X103124299Y-111719380D01*
X103182868Y-111660811D01*
X103732661Y-111111019D01*
X103793985Y-111077534D01*
X103820343Y-111074700D01*
X112042934Y-111074700D01*
X112042935Y-111074700D01*
X112050399Y-111073383D01*
X112071747Y-111071516D01*
X112092440Y-111065970D01*
X112128851Y-111059551D01*
X112160867Y-111041065D01*
X112180290Y-111032008D01*
X112197835Y-111019722D01*
X112229849Y-111001239D01*
X112253612Y-110972918D01*
X112268766Y-110957765D01*
X112281048Y-110940221D01*
X112304813Y-110911901D01*
X112317455Y-110877163D01*
X112326511Y-110857744D01*
X112332059Y-110837041D01*
X112344700Y-110802311D01*
X112344700Y-110765351D01*
X112346567Y-110744001D01*
X112344700Y-110722658D01*
X112344700Y-110685689D01*
X112332059Y-110650956D01*
X112326511Y-110630254D01*
X112317456Y-110610838D01*
X112304813Y-110576099D01*
X112296872Y-110566635D01*
X112281053Y-110547782D01*
X112268762Y-110530229D01*
X112253612Y-110515079D01*
X112229850Y-110486761D01*
X112197834Y-110468276D01*
X112180282Y-110455986D01*
X112160868Y-110446933D01*
X112128852Y-110428449D01*
X112092444Y-110422029D01*
X112071748Y-110416484D01*
X112050399Y-110414616D01*
X112042935Y-110413300D01*
X112042934Y-110413300D01*
X103651855Y-110413300D01*
X103641048Y-110412828D01*
X103638214Y-110412580D01*
X103602732Y-110409475D01*
X103565586Y-110419429D01*
X103555026Y-110421770D01*
X103516231Y-110428610D01*
X103490851Y-110439123D01*
X103490084Y-110439659D01*
X103490084Y-110439660D01*
X103479697Y-110446933D01*
X103458566Y-110461728D01*
X103449449Y-110467535D01*
X103416150Y-110486760D01*
X103391423Y-110516228D01*
X103384118Y-110524199D01*
X102598032Y-111310287D01*
X102396205Y-111512113D01*
X102388234Y-111519418D01*
X102358760Y-111544151D01*
X102339528Y-111577459D01*
X102333721Y-111586574D01*
X102311126Y-111618845D01*
X102300610Y-111644232D01*
X102293770Y-111683026D01*
X102291429Y-111693586D01*
X102281475Y-111730732D01*
X100254500Y-111730732D01*
X100254500Y-102499999D01*
X100617703Y-102499999D01*
X100636863Y-102767879D01*
X100693948Y-103030299D01*
X100693950Y-103030304D01*
X100787803Y-103281934D01*
X100837856Y-103373598D01*
X100916510Y-103517644D01*
X100960929Y-103576980D01*
X101077456Y-103732642D01*
X101267358Y-103922544D01*
X101423378Y-104039339D01*
X101482355Y-104083489D01*
X101541281Y-104115665D01*
X101718066Y-104212197D01*
X101969696Y-104306050D01*
X101969699Y-104306050D01*
X101969700Y-104306051D01*
X102007051Y-104314176D01*
X102232121Y-104363137D01*
X102480840Y-104380925D01*
X102499999Y-104382296D01*
X102499999Y-104382295D01*
X102500000Y-104382296D01*
X102745578Y-104364732D01*
X108123475Y-104364732D01*
X108126828Y-104403047D01*
X108127300Y-104413855D01*
X108127300Y-108690649D01*
X108125432Y-108711999D01*
X108127300Y-108733351D01*
X108127300Y-108740935D01*
X108142449Y-108826851D01*
X108200761Y-108927849D01*
X108290099Y-109002813D01*
X108399689Y-109042700D01*
X108516311Y-109042700D01*
X108625901Y-109002813D01*
X108715239Y-108927849D01*
X108773551Y-108826851D01*
X108788700Y-108740935D01*
X108788700Y-108733351D01*
X108790567Y-108711999D01*
X108788700Y-108690649D01*
X108788700Y-104582341D01*
X108808385Y-104515302D01*
X108825014Y-104494665D01*
X109465770Y-103853909D01*
X109473730Y-103846615D01*
X109474750Y-103845760D01*
X109475403Y-103844627D01*
X109481217Y-103835502D01*
X109524338Y-103773919D01*
X109524338Y-103773918D01*
X109524340Y-103773916D01*
X109527138Y-103763470D01*
X109531024Y-103754092D01*
X109532495Y-103745740D01*
X109532497Y-103745739D01*
X109532725Y-103744440D01*
X109535060Y-103733903D01*
X109554524Y-103661267D01*
X109553583Y-103650514D01*
X109554027Y-103640368D01*
X109552324Y-103630706D01*
X109550912Y-103619979D01*
X109544360Y-103545088D01*
X109539792Y-103535292D01*
X109536738Y-103525605D01*
X109531841Y-103517124D01*
X109526842Y-103507521D01*
X109495073Y-103439392D01*
X109487430Y-103431749D01*
X109481249Y-103423693D01*
X109473743Y-103417395D01*
X109465767Y-103410086D01*
X109412607Y-103356926D01*
X109402800Y-103352353D01*
X109394246Y-103346903D01*
X109385037Y-103343551D01*
X109375061Y-103339418D01*
X109340471Y-103323289D01*
X109306911Y-103307639D01*
X109296119Y-103306695D01*
X109286213Y-103304500D01*
X109277747Y-103304500D01*
X109276432Y-103304500D01*
X109265625Y-103304028D01*
X109260778Y-103303604D01*
X109190734Y-103297475D01*
X109183168Y-103299502D01*
X109180285Y-103300275D01*
X109170220Y-103301600D01*
X109161015Y-103304950D01*
X109150711Y-103308198D01*
X109078085Y-103327659D01*
X109069215Y-103333870D01*
X109060216Y-103338554D01*
X109052712Y-103344850D01*
X109044146Y-103351422D01*
X109036287Y-103356926D01*
X109006616Y-103377701D01*
X108974227Y-103410090D01*
X108966266Y-103417386D01*
X108958764Y-103423682D01*
X108952586Y-103431731D01*
X108238199Y-104146119D01*
X108230227Y-104153425D01*
X108200759Y-104178152D01*
X108181528Y-104211459D01*
X108175721Y-104220574D01*
X108153126Y-104252845D01*
X108142610Y-104278232D01*
X108135770Y-104317026D01*
X108133429Y-104327586D01*
X108123475Y-104364732D01*
X102745578Y-104364732D01*
X102767879Y-104363137D01*
X103030304Y-104306050D01*
X103281934Y-104212197D01*
X103517646Y-104083488D01*
X103732642Y-103922544D01*
X103922544Y-103732642D01*
X104083488Y-103517646D01*
X104212197Y-103281934D01*
X104306050Y-103030304D01*
X104363137Y-102767879D01*
X104382296Y-102500000D01*
X104363137Y-102232121D01*
X104306050Y-101969696D01*
X104262898Y-101854000D01*
X107667770Y-101854000D01*
X107686643Y-102045625D01*
X107742537Y-102229883D01*
X107796834Y-102331464D01*
X107833306Y-102399698D01*
X107955459Y-102548541D01*
X108104302Y-102670694D01*
X108189209Y-102716077D01*
X108274116Y-102761462D01*
X108319299Y-102775168D01*
X108458376Y-102817357D01*
X108650000Y-102836230D01*
X108841624Y-102817357D01*
X109025883Y-102761462D01*
X109195698Y-102670694D01*
X109344541Y-102548541D01*
X109466694Y-102399698D01*
X109557462Y-102229883D01*
X109613357Y-102045624D01*
X109632230Y-101854000D01*
X110207770Y-101854000D01*
X110226643Y-102045625D01*
X110282537Y-102229883D01*
X110336834Y-102331464D01*
X110373306Y-102399698D01*
X110495459Y-102548541D01*
X110644302Y-102670694D01*
X110729209Y-102716077D01*
X110814116Y-102761462D01*
X110859299Y-102775168D01*
X110998376Y-102817357D01*
X111190000Y-102836230D01*
X111381624Y-102817357D01*
X111520701Y-102775168D01*
X111543787Y-102768165D01*
X111613654Y-102767541D01*
X111667464Y-102799144D01*
X113228116Y-104359796D01*
X113235424Y-104367771D01*
X113260151Y-104397239D01*
X113293455Y-104416467D01*
X113302570Y-104422273D01*
X113334084Y-104444340D01*
X113334085Y-104444340D01*
X113334855Y-104444879D01*
X113360227Y-104455388D01*
X113361147Y-104455550D01*
X113361149Y-104455551D01*
X113373804Y-104457782D01*
X113399033Y-104462231D01*
X113409595Y-104464572D01*
X113446733Y-104474524D01*
X113485048Y-104471171D01*
X113495855Y-104470700D01*
X114111658Y-104470700D01*
X114178697Y-104490385D01*
X114199339Y-104507019D01*
X116218981Y-106526661D01*
X116252466Y-106587984D01*
X116255300Y-106614342D01*
X116255300Y-110214649D01*
X116253432Y-110235999D01*
X116255300Y-110257351D01*
X116255300Y-110264935D01*
X116270449Y-110350851D01*
X116304115Y-110409162D01*
X116325922Y-110446933D01*
X116328761Y-110451849D01*
X116418099Y-110526813D01*
X116527689Y-110566700D01*
X116644311Y-110566700D01*
X116753901Y-110526813D01*
X116813594Y-110476723D01*
X116877602Y-110448711D01*
X116946594Y-110459750D01*
X116998666Y-110506336D01*
X117017300Y-110571713D01*
X117017300Y-111232143D01*
X117016828Y-111242951D01*
X117013475Y-111281267D01*
X117023429Y-111318414D01*
X117025770Y-111328975D01*
X117032610Y-111367770D01*
X117043124Y-111393151D01*
X117065721Y-111425423D01*
X117071532Y-111434545D01*
X117090760Y-111467848D01*
X117120225Y-111492572D01*
X117128201Y-111499881D01*
X117862121Y-112233802D01*
X117869429Y-112241777D01*
X117894151Y-112271239D01*
X117927456Y-112290469D01*
X117936575Y-112296279D01*
X117968848Y-112318876D01*
X117994227Y-112329389D01*
X118033033Y-112336231D01*
X118043595Y-112338572D01*
X118080733Y-112348524D01*
X118119048Y-112345171D01*
X118129855Y-112344700D01*
X120170934Y-112344700D01*
X120170935Y-112344700D01*
X120178399Y-112343383D01*
X120199747Y-112341516D01*
X120220440Y-112335970D01*
X120256851Y-112329551D01*
X120288867Y-112311065D01*
X120308290Y-112302008D01*
X120325835Y-112289722D01*
X120357849Y-112271239D01*
X120381612Y-112242918D01*
X120396766Y-112227765D01*
X120409048Y-112210221D01*
X120432813Y-112181901D01*
X120445455Y-112147163D01*
X120454511Y-112127744D01*
X120460059Y-112107041D01*
X120460706Y-112105265D01*
X120472700Y-112072311D01*
X120472700Y-112035351D01*
X120474567Y-112014001D01*
X120472700Y-111992658D01*
X120472700Y-111955689D01*
X120460059Y-111920956D01*
X120454511Y-111900254D01*
X120445456Y-111880838D01*
X120432813Y-111846099D01*
X120424872Y-111836635D01*
X120409053Y-111817782D01*
X120396762Y-111800229D01*
X120381612Y-111785079D01*
X120357850Y-111756761D01*
X120325834Y-111738276D01*
X120308282Y-111725986D01*
X120288868Y-111716933D01*
X120256852Y-111698449D01*
X120220444Y-111692029D01*
X120199748Y-111686484D01*
X120178399Y-111684616D01*
X120170935Y-111683300D01*
X120170934Y-111683300D01*
X119721162Y-111683300D01*
X119654123Y-111663615D01*
X119608368Y-111610811D01*
X119598424Y-111541653D01*
X119627449Y-111478097D01*
X119636420Y-111469267D01*
X119637239Y-111467849D01*
X119695551Y-111366851D01*
X119710700Y-111280935D01*
X119710700Y-111273351D01*
X119712567Y-111252001D01*
X119710700Y-111230660D01*
X119710700Y-109493854D01*
X119711172Y-109483047D01*
X119714524Y-109444733D01*
X119704573Y-109407598D01*
X119702231Y-109397033D01*
X119695389Y-109358227D01*
X119684876Y-109332848D01*
X119662279Y-109300575D01*
X119656469Y-109291456D01*
X119637239Y-109258151D01*
X119607777Y-109233429D01*
X119599802Y-109226121D01*
X119177019Y-108803338D01*
X119143534Y-108742015D01*
X119140700Y-108715657D01*
X119140700Y-102859935D01*
X119160385Y-102792896D01*
X119206247Y-102750577D01*
X119206249Y-102750576D01*
X119355698Y-102670694D01*
X119504541Y-102548541D01*
X119626694Y-102399698D01*
X119717462Y-102229883D01*
X119773357Y-102045624D01*
X119792230Y-101854000D01*
X119773357Y-101662376D01*
X119718748Y-101482355D01*
X119717462Y-101478116D01*
X119672077Y-101393209D01*
X119626694Y-101308302D01*
X119504541Y-101159459D01*
X119355698Y-101037306D01*
X119344731Y-101031444D01*
X119185883Y-100946537D01*
X119001625Y-100890643D01*
X118905811Y-100881206D01*
X118810000Y-100871770D01*
X118809999Y-100871770D01*
X118618374Y-100890643D01*
X118434116Y-100946537D01*
X118264303Y-101037305D01*
X118115459Y-101159459D01*
X117993305Y-101308303D01*
X117902537Y-101478116D01*
X117846643Y-101662374D01*
X117827770Y-101854000D01*
X117846643Y-102045625D01*
X117902537Y-102229883D01*
X117956834Y-102331464D01*
X117993306Y-102399698D01*
X118115459Y-102548541D01*
X118264302Y-102670694D01*
X118413751Y-102750576D01*
X118413753Y-102750577D01*
X118463597Y-102799539D01*
X118479300Y-102859935D01*
X118479300Y-105266258D01*
X118459615Y-105333297D01*
X118406811Y-105379052D01*
X118337653Y-105388996D01*
X118274097Y-105359971D01*
X118267619Y-105353939D01*
X116637019Y-103723339D01*
X116603534Y-103662016D01*
X116600700Y-103635658D01*
X116600700Y-103257456D01*
X116600700Y-102859931D01*
X116620383Y-102792896D01*
X116666241Y-102750580D01*
X116815698Y-102670694D01*
X116964541Y-102548541D01*
X117086694Y-102399698D01*
X117177462Y-102229883D01*
X117233357Y-102045624D01*
X117252230Y-101854000D01*
X117233357Y-101662376D01*
X117178748Y-101482355D01*
X117177462Y-101478116D01*
X117132077Y-101393209D01*
X117086694Y-101308302D01*
X116964541Y-101159459D01*
X116815698Y-101037306D01*
X116804731Y-101031444D01*
X116645883Y-100946537D01*
X116461625Y-100890643D01*
X116270000Y-100871770D01*
X116078374Y-100890643D01*
X115894116Y-100946537D01*
X115724303Y-101037305D01*
X115575459Y-101159459D01*
X115453305Y-101308303D01*
X115362537Y-101478116D01*
X115306643Y-101662374D01*
X115287770Y-101854000D01*
X115306643Y-102045625D01*
X115362537Y-102229883D01*
X115416834Y-102331464D01*
X115453306Y-102399698D01*
X115575459Y-102548541D01*
X115724302Y-102670694D01*
X115817976Y-102720764D01*
X115873752Y-102750577D01*
X115923597Y-102799539D01*
X115939299Y-102859935D01*
X115939299Y-103804143D01*
X115938827Y-103814948D01*
X115935475Y-103853265D01*
X115945429Y-103890414D01*
X115947770Y-103900975D01*
X115954610Y-103939770D01*
X115965124Y-103965151D01*
X115984354Y-103992614D01*
X116006681Y-104058820D01*
X115989671Y-104126587D01*
X115938723Y-104174400D01*
X115870013Y-104187078D01*
X115805356Y-104160596D01*
X115795098Y-104151418D01*
X115683019Y-104039339D01*
X115649534Y-103978016D01*
X115646700Y-103951658D01*
X115646700Y-103723339D01*
X115646700Y-103459832D01*
X115647169Y-103449073D01*
X115650524Y-103410733D01*
X115640572Y-103373595D01*
X115638231Y-103363033D01*
X115631389Y-103324227D01*
X115620876Y-103298848D01*
X115598279Y-103266575D01*
X115592469Y-103257456D01*
X115573239Y-103224151D01*
X115543778Y-103199430D01*
X115535803Y-103192122D01*
X115111222Y-102767541D01*
X114675143Y-102331463D01*
X114641659Y-102270141D01*
X114644165Y-102207787D01*
X114654019Y-102175301D01*
X114693357Y-102045624D01*
X114712230Y-101854000D01*
X114693357Y-101662376D01*
X114638748Y-101482355D01*
X114637462Y-101478116D01*
X114592077Y-101393209D01*
X114546694Y-101308302D01*
X114424541Y-101159459D01*
X114275698Y-101037306D01*
X114264731Y-101031444D01*
X114105883Y-100946537D01*
X113921625Y-100890643D01*
X113825812Y-100881206D01*
X113730000Y-100871770D01*
X113729999Y-100871770D01*
X113538374Y-100890643D01*
X113354116Y-100946537D01*
X113184303Y-101037305D01*
X113035459Y-101159459D01*
X112913305Y-101308303D01*
X112822537Y-101478116D01*
X112766643Y-101662374D01*
X112747770Y-101854000D01*
X112766643Y-102045625D01*
X112822537Y-102229883D01*
X112876834Y-102331464D01*
X112913306Y-102399698D01*
X113035459Y-102548541D01*
X113184302Y-102670694D01*
X113269209Y-102716077D01*
X113354116Y-102761462D01*
X113399299Y-102775168D01*
X113538376Y-102817357D01*
X113730000Y-102836230D01*
X113921624Y-102817357D01*
X114060701Y-102775168D01*
X114083787Y-102768165D01*
X114153654Y-102767541D01*
X114207464Y-102799144D01*
X114948981Y-103540661D01*
X114982466Y-103601984D01*
X114985300Y-103628342D01*
X114985300Y-104058258D01*
X114965615Y-104125297D01*
X114912811Y-104171052D01*
X114843653Y-104180996D01*
X114780097Y-104151971D01*
X114773619Y-104145939D01*
X114547882Y-103920202D01*
X114540573Y-103912226D01*
X114526656Y-103895641D01*
X114515849Y-103882761D01*
X114515848Y-103882760D01*
X114482545Y-103863532D01*
X114473423Y-103857721D01*
X114441151Y-103835124D01*
X114415770Y-103824610D01*
X114376975Y-103817770D01*
X114366414Y-103815429D01*
X114329267Y-103805475D01*
X114293554Y-103808600D01*
X114290951Y-103808828D01*
X114280145Y-103809300D01*
X113664342Y-103809300D01*
X113597303Y-103789615D01*
X113576661Y-103772981D01*
X112135144Y-102331464D01*
X112101659Y-102270141D01*
X112104165Y-102207787D01*
X112114019Y-102175301D01*
X112153357Y-102045624D01*
X112172230Y-101854000D01*
X112153357Y-101662376D01*
X112098748Y-101482355D01*
X112097462Y-101478116D01*
X112052077Y-101393209D01*
X112006694Y-101308302D01*
X111884541Y-101159459D01*
X111735698Y-101037306D01*
X111724731Y-101031444D01*
X111565883Y-100946537D01*
X111381625Y-100890643D01*
X111190000Y-100871770D01*
X110998374Y-100890643D01*
X110814116Y-100946537D01*
X110644303Y-101037305D01*
X110495459Y-101159459D01*
X110373305Y-101308303D01*
X110282537Y-101478116D01*
X110226643Y-101662374D01*
X110207770Y-101854000D01*
X109632230Y-101854000D01*
X109613357Y-101662376D01*
X109558748Y-101482355D01*
X109557462Y-101478116D01*
X109512077Y-101393209D01*
X109466694Y-101308302D01*
X109344541Y-101159459D01*
X109195698Y-101037306D01*
X109184731Y-101031444D01*
X109025883Y-100946537D01*
X108841625Y-100890643D01*
X108650000Y-100871770D01*
X108458374Y-100890643D01*
X108274116Y-100946537D01*
X108104303Y-101037305D01*
X107955459Y-101159459D01*
X107833305Y-101308303D01*
X107742537Y-101478116D01*
X107686643Y-101662374D01*
X107667770Y-101854000D01*
X104262898Y-101854000D01*
X104212197Y-101718066D01*
X104083488Y-101482354D01*
X104080315Y-101478116D01*
X104043252Y-101428604D01*
X103922544Y-101267358D01*
X103732642Y-101077456D01*
X103557755Y-100946537D01*
X103517644Y-100916510D01*
X103399789Y-100852157D01*
X103281934Y-100787803D01*
X103030304Y-100693950D01*
X103030299Y-100693948D01*
X102767879Y-100636863D01*
X102499999Y-100617703D01*
X102232120Y-100636863D01*
X101969700Y-100693948D01*
X101877663Y-100728276D01*
X101718066Y-100787803D01*
X101671089Y-100813454D01*
X101482355Y-100916510D01*
X101267355Y-101077458D01*
X101077458Y-101267355D01*
X100916510Y-101482355D01*
X100818213Y-101662374D01*
X100787803Y-101718066D01*
X100737102Y-101854000D01*
X100693948Y-101969700D01*
X100636863Y-102232120D01*
X100617703Y-102499999D01*
X100254500Y-102499999D01*
X100254500Y-100378500D01*
X100274185Y-100311461D01*
X100326989Y-100265706D01*
X100378500Y-100254500D01*
X129621500Y-100254500D01*
X129688539Y-100274185D01*
G37*
%TD.AperFunction*%
%TD*%
%TA.AperFunction,Conductor*%
%TO.N,Net-(F1-Pad1)*%
G36*
X122059496Y-130575685D02*
G01*
X122105251Y-130628489D01*
X122115195Y-130697647D01*
X122114573Y-130701532D01*
X122095447Y-130810000D01*
X122115502Y-130923741D01*
X122157386Y-130996286D01*
X122173999Y-131058285D01*
X122173999Y-131069714D01*
X122157387Y-131131713D01*
X122115502Y-131204261D01*
X122095447Y-131318000D01*
X122115502Y-131431739D01*
X122157387Y-131504285D01*
X122173999Y-131566285D01*
X122174000Y-131826000D01*
X123066000Y-131826000D01*
X123133039Y-131845685D01*
X123178794Y-131898489D01*
X123190000Y-131950000D01*
X123190000Y-132334000D01*
X125352000Y-132334000D01*
X125419039Y-132353685D01*
X125464794Y-132406489D01*
X125476000Y-132458000D01*
X125476000Y-138814000D01*
X125456315Y-138881039D01*
X125403511Y-138926794D01*
X125352000Y-138938000D01*
X125094781Y-138938000D01*
X125027742Y-138918315D01*
X124981987Y-138865511D01*
X124971310Y-138825440D01*
X124959993Y-138703302D01*
X124935816Y-138654749D01*
X124913772Y-138610478D01*
X124837140Y-138540619D01*
X124837139Y-138540618D01*
X124740449Y-138503160D01*
X124740447Y-138503160D01*
X124662901Y-138503160D01*
X124586671Y-138517410D01*
X124498507Y-138571998D01*
X124436017Y-138654749D01*
X124436016Y-138654750D01*
X124436016Y-138654751D01*
X124407639Y-138754484D01*
X124412094Y-138802560D01*
X124398679Y-138871129D01*
X124350321Y-138921561D01*
X124288623Y-138938000D01*
X122044000Y-138938000D01*
X121976961Y-138918315D01*
X121931206Y-138865511D01*
X121920000Y-138814000D01*
X121920000Y-136144000D01*
X124127447Y-136144000D01*
X124147502Y-136257739D01*
X124205249Y-136357759D01*
X124293722Y-136431997D01*
X124293723Y-136431997D01*
X124293724Y-136431998D01*
X124402253Y-136471500D01*
X124402254Y-136471500D01*
X124517746Y-136471500D01*
X124517747Y-136471500D01*
X124626276Y-136431998D01*
X124714750Y-136357760D01*
X124772497Y-136257739D01*
X124772497Y-136257738D01*
X124776104Y-136251491D01*
X124803237Y-136196738D01*
X124806625Y-136193212D01*
X124865329Y-136134508D01*
X124878466Y-136125058D01*
X124885597Y-136117234D01*
X124885599Y-136117234D01*
X124914580Y-136085442D01*
X124918471Y-136081366D01*
X124930258Y-136069581D01*
X124930264Y-136069571D01*
X124931157Y-136068679D01*
X124939738Y-136057845D01*
X124956098Y-136039901D01*
X124958071Y-136034806D01*
X124971398Y-136009523D01*
X124974486Y-136005016D01*
X124980048Y-135981363D01*
X124985122Y-135964978D01*
X124993900Y-135942322D01*
X124993900Y-135936850D01*
X124997194Y-135908460D01*
X124998443Y-135903151D01*
X124995089Y-135879103D01*
X124993900Y-135861974D01*
X124993900Y-135447884D01*
X124996505Y-135431912D01*
X124996016Y-135421341D01*
X124996017Y-135421340D01*
X124994032Y-135378395D01*
X124993900Y-135372670D01*
X124993900Y-135354801D01*
X124992305Y-135341057D01*
X124991185Y-135316807D01*
X124988979Y-135311811D01*
X124980524Y-135284506D01*
X124979520Y-135279137D01*
X124966735Y-135258490D01*
X124958725Y-135243295D01*
X124958038Y-135241739D01*
X124948916Y-135221078D01*
X124945053Y-135217215D01*
X124927307Y-135194811D01*
X124924431Y-135190167D01*
X124905049Y-135175530D01*
X124892095Y-135164257D01*
X124806650Y-135078812D01*
X124773165Y-135017489D01*
X124772546Y-135014345D01*
X124714750Y-134914239D01*
X124626277Y-134840002D01*
X124572011Y-134820251D01*
X124517747Y-134800500D01*
X124402253Y-134800500D01*
X124366076Y-134813667D01*
X124293722Y-134840002D01*
X124205249Y-134914240D01*
X124147502Y-135014260D01*
X124127447Y-135128000D01*
X124147502Y-135241739D01*
X124190843Y-135316807D01*
X124205250Y-135341760D01*
X124293724Y-135415998D01*
X124352510Y-135437394D01*
X124408774Y-135478820D01*
X124433710Y-135544088D01*
X124434100Y-135553916D01*
X124434100Y-135718082D01*
X124414415Y-135785121D01*
X124361611Y-135830876D01*
X124352513Y-135834603D01*
X124293724Y-135856001D01*
X124205249Y-135930240D01*
X124147502Y-136030260D01*
X124127447Y-136144000D01*
X121920000Y-136144000D01*
X121920000Y-133858000D01*
X120799900Y-133858000D01*
X120732861Y-133838315D01*
X120687106Y-133785511D01*
X120675900Y-133734000D01*
X120675900Y-132973444D01*
X124407639Y-132973444D01*
X124417206Y-133076697D01*
X124463428Y-133169522D01*
X124540060Y-133239381D01*
X124636751Y-133276840D01*
X124636753Y-133276840D01*
X124714297Y-133276840D01*
X124714299Y-133276840D01*
X124790529Y-133262590D01*
X124878693Y-133208002D01*
X124941183Y-133125251D01*
X124969560Y-133025515D01*
X124959993Y-132922262D01*
X124913772Y-132829438D01*
X124837140Y-132759579D01*
X124837139Y-132759578D01*
X124740449Y-132722120D01*
X124740447Y-132722120D01*
X124662901Y-132722120D01*
X124586671Y-132736370D01*
X124498507Y-132790958D01*
X124436017Y-132873709D01*
X124436016Y-132873710D01*
X124436016Y-132873711D01*
X124407639Y-132973444D01*
X120675900Y-132973444D01*
X120675900Y-132653884D01*
X120678505Y-132637912D01*
X120678016Y-132627341D01*
X120678017Y-132627340D01*
X120676032Y-132584395D01*
X120675900Y-132578670D01*
X120675900Y-132560801D01*
X120674305Y-132547057D01*
X120674240Y-132545653D01*
X120673185Y-132522807D01*
X120670979Y-132517811D01*
X120662524Y-132490506D01*
X120661520Y-132485137D01*
X120648735Y-132464490D01*
X120640725Y-132449295D01*
X120635236Y-132436863D01*
X120630916Y-132427078D01*
X120627053Y-132423215D01*
X120609307Y-132400811D01*
X120606431Y-132396167D01*
X120587049Y-132381530D01*
X120574095Y-132370257D01*
X120458219Y-132254381D01*
X120424734Y-132193058D01*
X120421900Y-132166700D01*
X120421900Y-130680000D01*
X120441585Y-130612961D01*
X120494389Y-130567206D01*
X120545900Y-130556000D01*
X121992457Y-130556000D01*
X122059496Y-130575685D01*
G37*
%TD.AperFunction*%
%TD*%
%TA.AperFunction,Conductor*%
%TO.N,Net-(D1-K)*%
G36*
X112973039Y-121177685D02*
G01*
X113018794Y-121230489D01*
X113030000Y-121282000D01*
X113030000Y-125606000D01*
X113010315Y-125673039D01*
X112957511Y-125718794D01*
X112906000Y-125730000D01*
X111376000Y-125730000D01*
X111308961Y-125710315D01*
X111263206Y-125657511D01*
X111252000Y-125606000D01*
X111252000Y-121282000D01*
X111271685Y-121214961D01*
X111324489Y-121169206D01*
X111376000Y-121158000D01*
X112906000Y-121158000D01*
X112973039Y-121177685D01*
G37*
%TD.AperFunction*%
%TD*%
M02*
